<svg width="40" height="40" fill="none" xmlns="http://www.w3.org/2000/svg"><g clip-path="url(#clip0)" fill="#D74346"><path d="M37.948 2.346H25.476a2.052 2.052 0 00-2.051 2.052v12.47c0 1.133.919 2.052 2.051 2.052h5.97c-.079 3.266-.838 5.879-2.274 7.844-1.132 1.55-2.846 2.835-5.14 3.848a2.048 2.048 0 00-1.017 2.753l1.477 3.117a2.05 2.05 0 002.67 1.002c2.716-1.174 5.01-2.659 6.88-4.464 2.281-2.203 3.844-4.689 4.69-7.462.844-2.773 1.267-6.556 1.267-11.356V4.398a2.052 2.052 0 00-2.051-2.052zM4.35 37.475c2.682-1.169 4.963-2.654 6.846-4.455 2.302-2.203 3.873-4.68 4.718-7.434.845-2.752 1.267-6.547 1.267-11.384V4.398a2.052 2.052 0 00-2.05-2.052H2.658a2.052 2.052 0 00-2.05 2.052v12.47c0 1.133.919 2.052 2.05 2.052h5.97c-.078 3.266-.837 5.879-2.273 7.844-1.132 1.55-2.847 2.835-5.14 3.848a2.048 2.048 0 00-1.018 2.753l1.473 3.11a2.057 2.057 0 002.68 1z"/></g><defs><clipPath id="clip0"><path fill="#fff" d="M0 0h40v40H0z"/></clipPath></defs></svg>