<svg width="405" height="304" fill="none" xmlns="http://www.w3.org/2000/svg"><g clip-path="url(#clip0)" fill="#F7F7F7"><path d="M210.548 281.417c0-.503-.206-.96-.514-1.326.206-.137.206-.502-.154-.64-.36-.137-.772-.228-1.132-.365-1.337-.686-3.086-1.052-4.217-1.28-.103-.046-.206 0-.309 0-16.765-4.206-35.588-4.069-52.302-.595-9.618 2.012-18.258 6.446-27.309 9.783-4.217 1.555-8.383 1.966-12.857 2.697-3.446.595-6.737 1.92-8.486 4.709-.257.411-.051 1.097.566 1.189 26.28 4.114 51.531-6.766 77.503-8.092 4.937-.274 9.977.183 14.863-.366a40.882 40.882 0 009.72-2.285c1.594-.503 4.68-1.6 4.628-3.429zm-11.211 3.84c-3.549.732-6.995.686-10.595.686-5.554 0-11.057.091-16.56.64-22.268 2.24-43.611 10.788-66.342 7.726 2.52-2.195 6.274-2.606 9.72-3.018 4.268-.502 8.074-1.417 12.034-2.88 8.64-3.108 16.766-7.131 25.868-9.051 9.103-1.92 18.669-2.423 27.978-2.423 7.508 0 15.068.549 22.474 1.92.051.046.154.092.257.137 1.954.549 6.686 1.692 3.394 3.612-2.365 1.463-5.451 2.103-8.228 2.651zm128.727-41.234c-5.658-2.057-11.778-3.2-17.743-4.343-12.343-2.377-25.869-4.206-38.315-1.691-7.971 1.6-15.737 5.485-22.885 8.914-8.743 4.16-17.486 8.777-24.892 14.628-4.165 3.292-8.331 7.635-7.251 12.983.874 4.435 5.708 7.452 9.823 9.463 6.428 3.109 13.731 4.892 20.828 6.354 8.383 1.738 16.972 2.835 25.509 3.749 13.474 1.417 26.948 2.469 40.474 2.789 15.274.365 29.109-7.452 42.84-12.252 6.943-2.423 14.246-4.068 21.394-6.034 7.715-2.103 15.48-4.023 23.555-4.434.514-.046.668-.549.36-.823.617-.32 1.131-.732.823-1.28-1.029-1.829-2.212-2.149-4.372-2.926-2.931-1.051-6.017-2.057-9.154-2.469-3.549-.457-7.149-.502-10.697-.685-13.063-.686-23.863-7.817-34.355-13.989-5.091-3.063-10.285-5.851-15.942-7.954zm51.171 24.183c4.731.137 9.463-.275 14.091.823a94.449 94.449 0 016.223 1.691c1.492.503 1.389.411 1.955 1.417.154.274-1.029.686-1.698.96-6.428-.046-12.96 1.097-19.182 2.377-6.943 1.463-13.989 3.109-20.778 5.12-13.731 4.069-26.28 11.383-40.731 13.395-6.377.914-13.269.411-19.697.137-7.766-.32-15.48-.777-23.194-1.509a276.587 276.587 0 01-26.075-3.84c-7.354-1.463-14.811-3.246-21.548-6.308-4.115-1.875-9.257-4.846-9.617-9.372-.463-6.08 7.302-10.88 12.034-14.034 8.28-5.44 17.434-9.966 26.691-13.897 3.703-1.555 7.457-3.017 11.366-4.16 5.091-1.509 10.543-1.783 15.891-1.737 12.96.137 26.435 2.514 38.829 5.988 12.034 3.383 21.703 11.109 32.503 16.64 7.046 3.612 14.708 6.034 22.937 6.309z"/><path d="M306.617 304.457c-12.137-.091-24.223.686-36.36 1.28-10.491.503-21.6 1.326-31.937-.457-8.177-1.417-16.046-4.16-24.069-6.263-9.051-4.023-19.851-4.8-29.777-4.48-12.291.366-24.377 2.469-36.36 4.617A360.44 360.44 0 0199 304.549c-16.509.685-33.017.091-49.526-.046-12.137-.091-24.223.686-36.36 1.28-10.491.503-21.6 1.326-31.937-.457-8.177-1.417-16.046-4.16-24.068-6.263-9.052-4.023-19.852-4.8-29.777-4.48-8.898.274-17.64 1.463-26.383 2.88v2.103c1.748-.274 3.497-.503 5.245-.777 9.669-1.326 20.057-2.469 30.086-1.829a107.95 107.95 0 0110.646 1.783c2.468.549 4.885 1.143 7.303 1.829 2.16.777 4.217 1.737 6.222 2.834.772.411 1.492.046 1.698-.549 1.08.32 2.211.64 3.291 1.006 5.297 1.6 10.646 3.154 16.149 4.069 6.171.96 12.805.274 19.028-.046 16.252-.914 32.503-2.24 48.806-2.149 16.508.046 33.017.64 49.526.137 11.674-.365 23.348-1.188 34.92-2.605 9.822-1.235 19.594-3.063 29.417-4.435 9.668-1.325 20.057-2.468 30.085-1.828 3.549.411 7.098 1.006 10.646 1.783 2.469.548 4.886 1.143 7.303 1.828 2.16.777 4.217 1.737 6.223 2.835.771.411 1.491.045 1.697-.549 1.08.32 2.211.64 3.291 1.006 5.298 1.6 10.646 3.154 16.149 4.068 6.171.96 12.806.275 19.029-.045 16.251-.915 32.502-2.24 48.805-2.149 16.509.046 33.017.64 49.526.137 11.674-.366 23.349-1.188 34.92-2.606 4.629-.594 9.257-1.28 13.886-2.011v-1.92c-16.149 2.88-32.349 4.663-48.806 5.303-16.406.503-32.863-.092-49.423-.229zm62.073-52.754c-14.194-3.566-27.257-9.783-41.503-13.211-12.445-3.018-25.2-5.212-38.057-6.263-18.154-1.463-38.88-.412-54.411 9.097-5.092 3.108-9.206 7.268-14.195 10.468-5.502 3.52-11.982 5.486-18.617 6.309-14.194.777-28.594.594-42.788-.183-15.995-.914-32.092-2.331-47.52-6.171-14.195-3.566-27.258-9.783-41.503-13.212-12.446-3.017-25.2-5.211-38.057-6.263-18.155-1.462-38.88-.411-54.412 9.098-5.091 3.108-9.205 7.268-14.194 10.468-5.503 3.52-11.983 5.486-18.617 6.309-14.195.777-28.594.594-42.789-.183-.308 0-.617-.046-.925-.046v2.652c13.062.685 26.177.548 39.137-.64 5.245 0 10.748-.366 15.685-1.875 4.115-1.28 7.766-3.337 11.16-5.714 3.086-2.194 5.812-4.754 8.692-7.131 3.343-2.789 6.943-4.846 11.005-6.629 11.88-5.211 25.818-6.034 38.83-5.577 13.525.457 26.845 2.697 39.96 5.623 10.748 2.423 20.982 5.851 31.268 9.554 5.605 2.057 11.16 4.251 16.817 6.171 5.708 1.92 11.571 2.972 17.588 3.749 21.806 2.834 44.178 3.84 66.138 1.874 5.245 0 10.748-.365 15.685-1.874 4.115-1.28 7.766-3.337 11.16-5.714 3.086-2.195 5.812-4.755 8.692-7.132 3.343-2.788 6.943-4.845 11.005-6.628 11.88-5.212 25.818-6.035 38.829-5.577 13.526.457 26.846 2.697 39.96 5.622 10.749 2.423 20.983 5.852 31.269 9.555 5.605 2.057 11.16 4.251 16.817 6.171 5.708 1.92 11.571 2.972 17.588 3.749a340.248 340.248 0 0016.715 1.783v-2.652c-12.343-1.051-24.583-2.606-36.412-5.577zm.259 38.08c-3.446.594-6.738 1.92-8.486 4.709-.257.411-.052 1.097.566 1.188 14.914 2.332 29.468-.137 43.971-2.971v-1.966c-13.834 2.834-27.669 5.531-42.017 3.566 2.52-2.195 6.274-2.606 9.72-3.017 4.268-.503 8.074-1.418 12.034-2.88 6.84-2.423 13.32-5.486 20.263-7.589v-2.56c-8.023 2.24-15.48 5.897-23.246 8.777-4.165 1.554-8.383 1.966-12.805 2.743zm25.509-26.606c-.206-.045-.309.183-.154.275 1.851 1.188 4.525 1.965 6.685 2.651 1.286.411 2.623.731 3.96 1.051v-1.325c-.72-.137-1.44-.32-2.211-.503-2.674-.64-5.503-1.691-8.28-2.149z"/><path d="M358.045 253.943c4.577 2.88 10.645 4.663 15.942 6.171 5.658 1.6 11.469 2.561 17.332 3.155.874.091.874-1.143 0-1.234-5.76-.64-11.417-1.646-16.972-3.155-5.451-1.508-10.645-4.068-16.148-5.348-.257-.046-.412.274-.154.411zm-80.948 46.446c0-.183-.154-.457-.36-.549-5.811-2.286-12.291-2.834-18.514-3.748-6.737-.96-12.651-2.926-18.874-5.258-5.195-1.965-10.492-3.702-16.252-3.474-2.623.092-5.348.686-7.765 1.646-2.366.96-2.983 1.006-3.086 3.108 0 .275.154.595.463.686 10.44 4.434 21.96 3.703 33.12 5.212 8.897 1.234 16.868 5.257 25.92 5.805 5.554.32 11.211-.594 16.714-1.005 6.274-.458 12.6-.778 18.874-1.143 12.086-.64 24.429-1.463 36.257-3.886.309-.046.155-.457-.102-.411-16.509 3.017-33.223 3.337-49.989 4.205-5.914.32-11.983 1.143-17.949 1.189.258-.092.463-.183.72-.274.926-.503.72-1.098.823-2.103zm-24.223-2.24c-6.994-2.012-14.194-2.377-21.445-3.017-3.909-.32-7.817-.869-11.623-1.738-.463-.137-5.76-1.554-5.76-1.417 0-.365-.052-.731-.052-1.097 0 .137 3.292-1.097 3.652-1.188 7.148-2.378 14.451-.138 21.137 2.377 3.034 1.143 6.017 2.377 9.154 3.337 3.806 1.143 7.817 1.737 11.726 2.286 4.166.548 8.331 1.051 12.394 2.011.875.183 1.697.457 2.52.686 1.132.32 1.132-.183 1.235.823.102 1.051-2.778 1.234-3.909 1.508-.566-.046-1.08-.046-1.646-.137-6.017-.503-11.674-2.789-17.383-4.434zM70.92 244.023c-5.658-2.057-11.778-3.2-17.744-4.343-12.343-2.377-25.868-4.206-38.314-1.691-7.971 1.6-15.737 5.485-22.886 8.914-8.743 4.16-17.486 8.777-24.891 14.628-4.166 3.292-8.332 7.635-7.252 12.983.875 4.435 5.709 7.452 9.823 9.463 6.429 3.109 13.732 4.892 20.829 6.354 8.383 1.738 16.971 2.835 25.508 3.749 13.475 1.417 26.949 2.469 40.475 2.789 15.274.365 29.108-7.452 42.84-12.252 6.942-2.423 14.245-4.068 21.394-6.034 7.714-2.103 15.48-4.023 23.554-4.434.514-.046.669-.549.36-.823.617-.32 1.132-.732.823-1.28-1.029-1.829-2.211-2.149-4.371-2.926-2.932-1.051-6.018-2.057-9.155-2.469-3.548-.457-7.148-.502-10.697-.685-13.063-.686-23.863-7.817-34.354-13.989-5.091-3.063-10.286-5.851-15.943-7.954zm51.17 24.183c4.732.137 9.463-.275 14.092.823a94.618 94.618 0 016.223 1.691c1.491.503 1.388.411 1.954 1.417.154.274-1.029.686-1.697.96-6.429-.046-12.96 1.097-19.183 2.377-6.943 1.463-13.989 3.109-20.777 5.12-13.731 4.069-26.28 11.383-40.731 13.395-6.378.914-13.27.411-19.698.137-7.765-.32-15.48-.777-23.194-1.509a276.56 276.56 0 01-26.074-3.84c-7.355-1.463-14.812-3.246-21.549-6.308-4.114-1.875-9.257-4.846-9.617-9.372-.463-6.08 7.303-10.88 12.034-14.034 8.28-5.44 17.435-9.966 26.692-13.897 3.703-1.555 7.457-3.017 11.366-4.16 5.09-1.509 10.542-1.783 15.89-1.737 12.96.137 26.435 2.514 38.83 5.988 12.034 3.383 21.702 11.109 32.502 16.64 7.046 3.612 14.709 6.034 22.937 6.309zm50.145.548c-6.069-.502-12.24-1.005-18.309-1.828-2.829-.366-5.554-.914-8.28-1.6-2.726-.686-5.554-1.691-8.331-2.149-.206-.045-.309.183-.155.275 1.852 1.188 4.526 1.965 6.686 2.651 2.88.914 5.863 1.509 8.846 2.149 5.914 1.325 11.828 2.148 17.845 2.651 6.223.549 12.549.823 18.772 1.143 5.657.274 11.674 1.006 17.331.548.463-.045.617-.594.103-.731-4.937-1.417-10.697-1.463-15.84-1.783-6.171-.411-12.446-.823-18.668-1.326z"/><path d="M101.108 253.532c-.309-.046-.412.274-.206.411 4.577 2.88 10.646 4.663 15.943 6.171 5.657 1.6 11.468 2.561 17.331 3.155.875.091.875-1.143 0-1.234-5.76-.64-11.417-1.646-16.971-3.155-5.452-1.508-10.594-4.114-16.097-5.348zm-81.153 46.857c0-.183-.155-.457-.36-.549-5.812-2.286-12.292-2.834-18.515-3.748-6.737-.96-12.651-2.926-18.874-5.258-5.194-1.965-10.491-3.702-16.251-3.474-2.623.092-5.349.686-7.766 1.646-2.366.96-2.983 1.006-3.086 3.108 0 .275.155.595.463.686 10.44 4.434 21.96 3.703 33.12 5.212 8.897 1.234 16.869 5.257 25.92 5.805 5.554.32 11.212-.594 16.714-1.005 6.275-.458 12.6-.778 18.875-1.143 12.085-.64 24.428-1.463 36.257-3.886.308-.046.154-.457-.103-.411-16.509 3.017-33.223 3.337-49.989 4.205-5.914.32-11.982 1.143-17.948 1.189.257-.092.463-.183.72-.274.926-.503.72-1.098.823-2.103zm-24.223-2.24c-6.994-2.012-14.194-2.377-21.446-3.017-3.908-.32-7.817-.869-11.623-1.738-.463-.137-5.76-1.554-5.76-1.417 0-.365-.051-.731-.051-1.097 0 .137 3.291-1.097 3.651-1.188 7.149-2.378 14.452-.138 21.137 2.377 3.035 1.143 6.018 2.377 9.155 3.337 3.805 1.143 7.817 1.737 11.725 2.286 4.166.548 8.332 1.051 12.395 2.011.874.183 1.697.457 2.52.686 1.131.32 1.131-.183 1.234.823.103 1.051-2.777 1.234-3.909 1.508-.565-.046-1.08-.046-1.645-.137-6.017-.503-11.675-2.789-17.383-4.434zM210.548 52.846c0-.503-.206-.96-.514-1.326.206-.137.206-.503-.154-.64s-.772-.229-1.132-.366c-1.337-.685-3.086-1.051-4.217-1.28-.103-.045-.206 0-.309 0-16.765-4.205-35.588-4.068-52.302-.594-9.618 2.011-18.258 6.446-27.309 9.783-4.217 1.554-8.383 1.966-12.857 2.697-3.446.594-6.737 1.92-8.486 4.709-.257.411-.051 1.097.566 1.188 26.28 4.115 51.531-6.765 77.503-8.091 4.937-.275 9.977.183 14.863-.366a40.927 40.927 0 009.72-2.286c1.594-.502 4.68-1.6 4.628-3.428zm-11.211 3.84c-3.549.731-6.995.685-10.595.685-5.554 0-11.057.092-16.56.64-22.268 2.24-43.611 10.79-66.342 7.726 2.52-2.194 6.274-2.605 9.72-3.017 4.268-.503 8.074-1.417 12.034-2.88 8.64-3.109 16.766-7.131 25.868-9.051 9.103-1.92 18.669-2.423 27.978-2.423 7.508 0 15.068.548 22.474 1.92.051.045.154.091.257.137 1.954.548 6.686 1.691 3.394 3.611-2.365 1.463-5.451 2.103-8.228 2.652zm51.326 113.828c-12.292-.137-24.326-.685-36.103-4.068-5.863-1.692-11.263-4.434-16.92-6.537-5.657-2.057-11.417-3.795-17.332-5.075-5.348-1.142-10.902-1.965-16.457-2.102-6.223-.183-12.343.685-18.514 1.005-13.474.64-27 1.052-40.474 1.555-.257 0-.257.32 0 .32 25.457.914 51.223-3.383 76.32 2.011 5.657 1.234 11.16 2.926 16.56 4.846 5.708 2.011 11.16 4.48 17.074 5.988 11.52 2.88 23.966 2.286 35.794 2.149.155 0 .155-.092.052-.092zm74.622 77.212c-5.503-2.789-11.572-4.617-17.795-5.623-24.531-3.977-51.583 5.989-68.657 21.623-2.726 2.514-5.863 6.171-4.166 9.829 1.543 3.337 6.172 4.937 9.669 6.125 13.269 4.663 27.617 7.589 41.657 9.372 7.252.914 14.606 1.554 21.909 1.234 7.405-.274 14.657-1.692 21.805-3.337 6.84-1.6 13.629-3.246 20.263-5.44 6.377-2.103 12.703-4.48 19.235-6.172 3.394-.868 6.942-1.508 10.491-1.6.566 0 1.029-.411 1.029-.914v-.686a.93.93 0 00-.515-.777c-3.137-1.234-6.171-1.326-9.411-.823a57.263 57.263 0 01-13.732-3.748c-5.451-2.24-10.44-5.394-15.274-8.549-5.4-3.474-10.594-7.497-16.508-10.514zm18.822 15.04c4.578 2.834 9.412 5.303 14.658 7.04 3.291 1.097 6.737 1.691 10.234 1.966.154.274.463.548.926.457 1.8-.229 3.6-.366 5.451-.229.411.046.771.092 1.131.183-11.674.96-22.577 6.583-33.634 9.6-14.657 4.023-29.726 7.406-45.206 6.491-15.171-.868-29.777-3.794-44.28-7.725-5.194-1.417-11.52-2.652-15.634-6.035-4.577-3.794 1.852-8.914 4.989-11.382 18.308-14.4 44.794-23.269 69.12-17.509 12.548 2.972 21.908 10.697 32.245 17.143z"/><path d="M298.235 246.949c-9.771.64-19.029 4.982-27.977 8.32-4.526 1.691-9 3.474-13.114 5.851-2.418 1.417-5.606 3.52-5.812 6.309-.514 6.354 7.149 9.188 12.806 10.651 8.023 2.057 16.56 2.514 24.891 2.971 8.64.458 17.126 1.418 25.817 1.418 11.315 0 23.195-.869 33.892-4.343 2.983-.96 5.811-2.195 8.383-3.795.565-.365.617-1.097 0-1.417a2.753 2.753 0 01-.463-.32c.36-.045.617-.503.206-.685-.618-.32-1.235-.595-1.852-.915-.514-.548-1.028-1.097-1.748-1.463-.36-.182-.669-.137-.926.046-17.074-9.417-32.812-24-54.103-22.628zm45.874 21.805c.257.275.463.503.669.777 0 .138.051.229.103.366-9.515 5.074-21.549 3.886-32.297 2.972 4.268-.32 8.588-.595 12.908-.778a258.29 258.29 0 015.966-.182c1.594-.046 2.314.182 3.394-.869.72-.731.874-1.417.617-2.057.052-.137.052-.274-.103-.412-8.64-7.725-20.417-15.268-33.377-13.44-6.274.869-11.005 3.932-15.788 7.452-2.417 1.783-6.017 4.16-6.789 7.086-.566 2.148 1.08 3.382 3.754 4.022-1.748.046-3.497 0-5.245-.137-3.189-.274-9.823-1.691-8.743-5.714.823-3.109 5.143-5.349 7.92-6.857 4.063-2.24 8.537-3.886 13.011-5.303 4.012-1.28 8.126-2.331 12.446-2.377 8.434 0 16.457 3.886 23.657 7.314 3.549 1.692 7.046 3.474 10.697 5.074a98.03 98.03 0 005.143 2.058c.72.365 1.492.411 2.057 1.005zm-12.137-1.645a.746.746 0 00-.051.731c.257.457.565.823.977 1.234 1.08 1.052-2.88.823-3.446.823-3.291.046-6.583.183-9.823.366-1.028.046-2.005.137-3.034.183 2.931-.869 5.709-2.012 8.177-3.52.412-.275.669-.777.514-1.189.258-.183.258-.594-.051-.731-.514-.183-.977-.366-1.491-.549-.72-.503-1.44-1.006-2.058-1.646-.514-.548-1.234-.091-1.285.458-1.903-.64-3.857-1.235-5.76-1.92-2.726-.915-5.452-1.738-8.383-1.829-7.56-.32-13.834 5.989-18.463 10.469-.566.548-.463 1.417.257 1.782a27.875 27.875 0 01-2.828-.274c-1.8-.228-4.012-.503-2.726-2.377 1.646-2.469 4.731-4.389 7.2-6.126 4.423-3.2 9-5.531 14.811-5.897 9.875-.457 19.749 4.572 27.463 10.012zm-17.383-3.658c2.315.686 4.68 1.372 7.097 1.829.206.229.463.411.72.64-3.96 2.057-8.588 3.2-13.114 3.931 1.234-.594 2.366-1.371 3.343-2.468.411-.457.411-1.143-.206-1.463-.257-.137-.514-.183-.823-.229a.546.546 0 00-.514-.868c-4.68.457-8.794.96-12.343 3.977-.617.503-.308 1.463.515 1.646.565.137 1.182.274 1.748.365-3.291.183-6.686.046-9.874-.594 4.114-3.977 9.206-8.594 15.531-8.457 2.675.091 5.349 1.006 7.92 1.691zm-4.628 3.703c-2.315 1.737-4.989 2.286-7.92 1.875 1.903-1.143 4.165-1.92 6.428-2.469.412.411.926.503 1.492.594zm30.188-2.651c-2.057-.96-4.114-1.874-6.12-2.88-5.863-2.834-11.623-5.76-17.845-8-5.658-2.012-11.675-3.109-17.743-2.332-3.806.458-7.56 1.738-11.109 3.018-4.268 1.508-8.486 3.291-12.343 5.485-2.88 1.646-6.068 3.703-7.56 6.492-1.285 2.377-.411 4.708 1.697 6.4 3.549 2.834 8.949 2.925 13.423 2.697 4.063-.183 8.075-.777 12.137-1.189 2.212-.137 4.166-.32 5.452-.411 4.937-.092 10.028 1.051 14.914 1.646 10.337 1.234 23.092 1.691 31.269-4.938.205-.045.411-.182.565-.365 0 0 0-.046.052-.046.051-.046.103-.137.103-.183.257-.274.103-.64-.155-.777-.257-.549-.617-1.006-.977-1.417a161.965 161.965 0 006.377 3.154l.052.046c1.131.686 1.851 1.783 2.777 2.651-8.949 5.12-20.623 6.355-30.96 6.949-5.811.32-11.674.32-17.486.091-4.371-.183-8.64-.777-13.011-1.051-7.817-.503-15.686-.777-23.4-2.057-5.555-.915-17.023-2.88-16.612-9.692.155-2.697 4.938-4.754 7.149-5.851 4.063-2.057 8.434-3.703 12.703-5.257 8.64-3.2 17.228-7.086 26.743-7.406 10.285-.366 19.697 3.749 28.183 8.503 3.96 2.148 7.817 4.48 11.725 6.72zm42.53-135.406c-7.354.686-14.605-.091-21.908.32-6.583.366-13.115 1.646-19.44 3.292-13.012 3.383-25.303 8.64-38.52 11.565-9.052 2.012-18.463 2.652-27.566.595-9.051-2.057-17.177-6.537-25.508-10.103-10.183-4.389-21.24-6.949-32.452-8.503-.051-.091-.206-.137-.36-.183-15.634-1.92-31.628-5.074-47.468-4.068-14.863.96-29.109 5.668-43.921 7.085-7.354.686-14.605-.091-21.908.32-6.583.366-13.114 1.646-19.44 3.292-13.011 3.383-25.303 8.64-38.52 11.565-9.051 2.012-18.463 2.652-27.566.595-9.051-2.057-17.177-6.537-25.508-10.103-10.183-4.389-21.24-6.949-32.452-8.503a.867.867 0 00-.36-.183c-15.634-1.92-31.628-5.074-47.468-4.068-3.806.228-7.56.731-11.263 1.325v2.606c8.486-1.417 16.971-2.24 25.766-2.011 3.548.091 7.045.32 10.594.685 14.194 1.829 28.645 3.246 42.377 7.086 13.063 3.611 23.657 11.84 36.874 15.177 12.857 3.246 26.537.503 38.983-2.971 12.96-3.612 25.509-8.275 38.829-10.652 4.371-.777 8.794-1.234 13.268-1.28 5.092-.045 10.08.275 15.172-.045 9.72-.64 19.182-2.789 28.594-4.709 10.8-2.194 21.343-3.566 32.451-3.246 3.549.092 7.046.32 10.595.686 14.194 1.829 28.645 3.246 42.377 7.086 13.063 3.611 23.657 11.84 36.874 15.177 12.857 3.246 26.537.503 38.983-2.972 12.96-3.611 25.509-8.274 38.828-10.651 4.372-.777 8.795-1.234 13.269-1.28 5.091-.046 10.08.274 15.171-.046 8.486-.548 16.766-2.24 24.995-3.977v-2.651c-7.457 1.463-14.863 3.017-22.372 3.748z"/><path d="M258.583 144.549c-9.206-4.16-18.36-8.275-28.337-10.743-.566-.137-.823.64-.258.777 10.183 2.743 19.183 8.366 28.543 12.8 9.052 4.343 18.36 7.954 28.749 8.64 10.028.686 19.388-3.109 28.183-6.812 4.885-2.057 9.771-4.114 14.76-5.897 4.68-1.645 9.72-3.245 14.811-2.88.103 0 .103-.091 0-.137-9.771-.777-18.257 2.423-26.948 6.034-4.835 2.012-9.618 4.115-14.606 5.715-5.143 1.691-10.029 2.103-15.48 1.783-10.337-.595-20.366-5.12-29.417-9.28zm13.783-13.12c11.674 5.76 25.303 4.434 37.646 1.188 6.788-1.783 13.423-3.931 20.16-5.897 3.137-.914 6.274-1.6 9.411-2.377 2.057-.503 4.217-1.554 5.195-3.292.154-.274.154-.685-.103-.868-5.297-3.703-12.035-4.206-18.052-6.537-.051-.046-.103.045-.051.091 2.366 1.28 4.886 2.149 7.508 2.972 2.52.822 6.84 2.011 8.898 3.931-1.698 1.28-3.909 1.646-6.069 2.103-3.086.64-6.069 1.554-9.051 2.468-5.863 1.829-11.623 3.886-17.435 5.76-5.76 1.875-11.983 3.2-18.103 3.52-6.84.366-13.474-1.097-19.851-3.245-.154-.046-.206.091-.103.183z"/><path d="M293.349 126.995c4.166-.366 8.486-1.189 12.394-2.469 3.806-1.234 7.817-2.789 10.389-5.577.205-.229.257-.503.103-.732-2.006-3.245-5.658-5.485-9.463-6.811-.155-.046-.206.137-.103.183 3.034 1.508 6.377 3.886 8.074 6.674-3.086 1.737-6.428 3.246-9.771 4.617-3.806 1.509-7.56 3.109-11.675 3.657-.308.046-.257.458.052.458zm-68.761-8.915c1.646.823 3.96 1.234 5.76 1.737 1.954.549 4.012.914 6.069 1.052.205 0 .257-.275.051-.32-3.291-.915-7.251-1.555-10.131-3.429 1.543-2.423 4.834-4.48 7.303-5.897 3.394-1.874 7.354-2.789 11.057-4.023.257-.091.154-.503-.103-.411-5.914 1.828-12.549 2.56-17.28 6.445-.874.64-4.886 3.703-2.726 4.846zm114.79-17.508c-3.035-.915-6.069-1.966-9.103-3.018-2.983-1.051-5.966-2.56-9.154-3.017-.309-.046-.463.366-.155.457 2.88.686 5.246 2.423 8.023 3.429 3.292 1.189 6.583 2.331 9.977 3.383 3.035.914 6.172 1.691 9.309 2.331 3.137.64 6.377 1.509 9.566 1.875 6.48.731 12.754 1.782 19.131 3.154 6.171 1.326 12.446 2.606 18.823 2.697.463 0 .411-.594 0-.64-12.394-1.28-23.503-7.36-36.103-7.68-3.446-.091-6.686.274-10.131-.366-3.446-.594-6.84-1.6-10.183-2.605zm45.153 91.794c-6.017 1.691-12.189 3.931-18.463 4.891-4.423-.228-10.132.274-12.754 3.612-2.726 3.428 6.325 6.628 8.331 7.771 1.08.594 2.109 1.189 3.137 1.783-2.057-.686-4.114-1.417-6.274-1.874a.168.168 0 00-.103.32c3.034.685 5.811 2.102 8.794 2.925 4.063 2.195 8.229 3.886 13.423 4.023 3.189.092 6.377-.274 9.566-.366 3.908-.137 7.766.366 11.623.458 1.08.045 2.108.045 3.188.045v-1.508c-2.314.045-4.628-.046-6.943-.183-3.497-.229-6.788-.32-10.337 0-3.703.32-7.251.64-10.903.046-3.6-.595-6.634-2.332-9.617-4.069-3.085-1.737-6.12-3.52-9.257-5.12-1.234-.64-2.623-1.234-3.446-2.286-1.337-1.737 2.932-3.337 4.012-3.611a56.822 56.822 0 016.326-1.326c6.634-.548 13.011-1.691 19.542-3.2 6.789-1.6 13.629-3.063 20.675-3.063v-2.651h-.566c-6.84-.046-13.526 1.6-19.954 3.383z"/><path d="M400.32 193.646c-4.834.137-9.669.869-14.349 1.92-4.937 1.143-11.108 2.286-15.171 5.211-6.531 4.709 7.097 8.183 10.183 8.823 6.068 1.28 11.983.915 18.154.732 1.954-.046 3.909-.137 5.863-.183v-1.189l-4.474.137c-6.377.183-12.24.275-18.515-1.051-2.88-.594-5.811-1.371-8.331-2.789-2.571-1.417-1.594-2.56.669-3.657 4.474-2.194 9.822-3.383 14.657-4.708 4.371-1.189 8.897-2.149 13.423-2.697.874 0 1.697 0 2.571.091v-.823c-1.594-.091-3.137-.046-4.68.183z"/><path d="M402.326 204.663c-3.395 0-6.789.046-10.183-.229-.72-.045-7.354-.64-6.532-1.462 1.183-1.235 3.652-1.783 5.298-2.469a95.478 95.478 0 016.891-2.606c1.131-.365 2.314-.777 3.549-1.097 1.234-.228 2.468-.366 3.651-.366v-1.417c-2.006.046-4.063.32-5.811.595-5.195.822-9.515 2.788-13.68 5.531-3.6 2.423-.309 3.886 2.674 4.206 5.554.594 11.211.503 16.817.503v-1.189h-2.674z"/><path d="M395.846 202.926c1.183 1.006 2.828 1.051 4.371 1.143 1.594.091 3.189.137 4.783.137v-.869c-.411 0-.823-.045-1.234-.045-1.492-.092-3.035-.183-4.423-.732-.463-.183-.926-.32-1.337-.548-.823-.412-.669-.229.154-.686 1.389-.777 3.137-1.052 4.68-1.463.309-.092.617-.137.926-.229-.566.457-.772 1.372-.977 1.829-.206.411.205.96.668 1.051.463.092.977.229 1.543.32v-3.474h-.051.051v-.914c-3.034-.137-6.377.32-8.743 1.783-.926.594-1.337 1.874-.411 2.697zm-17.794 8.777c-3.343-1.326-5.451-4.069-8.897-5.303-2.314-.823-4.68-1.508-6.12-3.428-1.594-2.103 4.166-2.926 5.4-3.018.514-.045.514-.685 0-.685-2.057-.092-5.297-.229-6.892 1.234-1.388 1.234-1.234 2.926.103 4.206 2.109 2.103 5.092 2.057 7.972 2.743 3.291.822 5.04 3.794 8.434 4.388 0 0 .103-.091 0-.137zm18.719.411c-4.577.046-9.051.32-13.628-.045-.052 0-.052.045 0 .045 7.354.686 14.606.823 21.857.457v-.64c-2.726.092-5.503.138-8.229.183z"/><path d="M365.657 188.343c-6.531 1.097-13.011 1.783-19.646 1.966-3.702.091-7.868.045-11.057 1.965-2.983 1.829-3.651 5.989-2.263 8.823 1.903 3.795 6.995 6.035 10.852 7.863 5.091 2.423 10.337 4.663 15.891 6.172 6.943 1.92 14.297 2.514 21.497 2.925 4.269.229 8.486.32 12.755.412 1.491.045 2.88.274 4.268.457-.103.137-.051.32.155.366 2.262.274 4.525.548 6.84.731v-.549a44.086 44.086 0 01-2.572-.228c.514 0 1.08-.092 1.646-.183.051 0 0-.046 0-.046-3.292.275-6.274-.457-9.412-1.143-3.445-.731-7.405-.64-10.902-.868-7.766-.549-15.429-1.052-22.938-2.972-5.914-1.508-11.417-4.251-16.765-6.857-4.577-2.194-9.926-4.845-9.669-10.057.206-4.343 6.069-4.617 9.72-4.708 5.657-.092 11.16-.092 16.817-.823 7.817-.96 15.532-2.697 23.246-4.206a198.567 198.567 0 0120.88-2.88v-2.331c-13.32.868-26.229 3.931-39.343 6.171z"/><path d="M350.64 193.692c-3.445.045-8.125-.092-10.8 2.194-3.857 3.337 1.235 7.771 4.423 9.417.309.137.669-.228.36-.411-2.211-1.6-5.451-3.657-3.754-6.537.823-1.372 2.674-1.646 4.269-1.92 3.702-.64 7.56-.458 11.314-.595 4.063-.183 8.126-1.188 12.137-1.874 5.451-.914 10.749-1.874 15.943-3.657.154-.046.103-.274-.052-.229-6.377 1.783-13.268 1.875-19.902 2.652-2.366.274-4.732.777-7.149.914-2.263.091-4.526.046-6.789.046zm2.005 14.08c-1.543-.64-3.189-.915-4.783-1.28-.154-.046-.206.137-.051.183 1.645.365 3.24.731 4.834 1.188.051 0 .051-.046 0-.091z"/><path d="M395.949 181.12c-7.818.594-15.635 1.6-23.349 2.789-8.023 1.188-15.891 2.651-24.069 2.743-5.297.045-43.868.32-40.422 8.411 1.594 3.657 7.302 6.263 10.8 8.183 6.12 3.383 12.6 6.354 19.028 9.143 5.246 2.285 10.543 4.754 16.2 6.034 11.366 2.606 23.194 2.24 34.817 1.874.412 0 .412-.548 0-.548-13.474.137-27.72-1.143-40.474-5.12-7.663-2.377-15.171-5.486-22.32-8.777-3.909-1.783-7.766-3.703-11.366-5.898-2.108-1.28-5.451-3.154-6.068-5.577-.617-2.56 6.325-3.84 8.074-4.251 4.68-1.052 9.514-1.6 14.297-2.012 5.503-.502 10.954-.594 16.457-.457 10.286.275 20.212-1.051 30.292-2.788 8.897-1.554 18.051-2.743 27.154-3.383v-1.189c-3.034.229-6.069.595-9.051.823z"/><path d="M405 224.091v-1.142l-2.623-.412c-3.806-.686-7.508-.137-11.314.457-7.972 1.28-16.2.229-24.172-.731-7.662-.914-15.222-2.377-22.577-4.48-7.92-2.286-15.377-5.714-22.937-8.777-3.6-1.463-7.148-2.972-10.594-4.663-3.034-1.463-5.863-2.926-9.154-3.84-2.983-.823-5.76-.686-8.846-.64-1.594 0-3.137 0-4.732-.32-.925-.183-3.857-1.646-3.24-2.789.72-1.325 4.012-1.691 5.4-2.011 2.212-.457 4.32-.96 6.429-1.737 2.931-1.097 5.657-2.56 8.434-3.932 3.395-1.645 6.84-2.468 10.646-3.063 8.486-1.234 17.383-1.28 25.971-1.28.155 0 .155-.182 0-.182-8.125-.046-16.2-1.006-24.325-.458-3.292.229-6.635.595-9.823 1.509-3.034.869-5.76 2.423-8.589 3.703-4.165 1.966-8.743 2.651-13.011 4.343-3.086 1.234-4.063 3.52-1.44 5.714 1.697 1.417 3.754 1.737 5.966 1.783 3.394.091 6.531-.503 9.925.091 3.497.595 6.737 2.286 9.823 3.886 3.652 1.92 7.663 3.429 11.52 4.983 7.097 2.834 14.04 5.988 21.343 8.274 7.251 2.286 14.863 3.749 22.474 4.8 4.629.594 9.309 1.052 13.989 1.372 4.731.32 8.846 0 13.526-.778 2.777-.457 5.554-.731 8.331-.274 1.234.229 2.417.457 3.6.594z"/><path d="M405 175.589c-5.091-.137-10.183-.32-15.274.183-.875.091-1.749.182-2.623.228-.052-.046-.103-.091-.154-.091-16.2 1.554-32.4.548-48.652 1.097-14.4.457-27.668 4.16-40.834 9.143-3.137 1.188-6.172 2.514-9.257 3.84-3.343 1.463-6.635 3.245-10.286 4.068-6.84 1.6-14.04 1.372-21.086 1.006-14.348-.686-29.005-1.326-42.891-4.709-3.034-.731-5.966-1.645-8.897-2.651.154-.091.154-.366-.052-.457-7.868-2.103-15.274-5.12-22.988-7.497-7.972-2.469-17.229-4.252-25.715-4.115-7.868.138-15.788-.685-23.657.092-.874.091-1.748.183-2.623.228-.051-.045-.102-.091-.154-.091-16.2 1.554-32.4.549-48.651 1.097-14.4.457-27.669 4.16-40.835 9.143-3.137 1.189-6.171 2.514-9.257 3.84-3.343 1.463-6.634 3.246-10.285 4.069-6.84 1.6-14.04 1.371-21.086 1.005-14.349-.685-29.006-1.325-42.892-4.708-3.034-.732-5.965-1.646-8.897-2.652.155-.091.155-.365-.051-.457-7.869-2.103-15.274-5.12-22.989-7.497-7.354-2.286-15.84-3.977-23.811-4.114v2.148c7.766 1.235 15.48 2.149 23.091 4.252 6.377 1.783 12.652 4.251 19.235 5.257 12.6 6.217 27.308 7.406 41.451 8.183 13.011.731 26.486 2.011 39.189-1.235 13.474-3.428 25.817-9.6 39.497-12.617 7.714-1.691 15.48-2.194 23.4-2.468 8.125-.32 16.251-.595 24.377-1.006 2.417-.137 4.783-.274 7.148-.503 1.44.046 2.88.046 4.423-.046 3.086-.182 6.172-.457 9.257-.731 7.766-.777 16.252-.731 23.915.594 8.485 1.463 16.971 2.286 25.251 4.617 6.377 1.783 12.652 4.252 19.234 5.258 12.6 6.217 27.309 7.405 41.452 8.182 13.011.732 26.486 2.012 39.188-1.234 13.475-3.428 25.818-9.6 39.498-12.617 7.714-1.691 15.48-2.194 23.4-2.469 8.125-.32 16.251-.594 24.377-1.005 2.417-.137 4.783-.275 7.148-.503 1.44.046 2.88.046 4.423-.046 3.086-.183 6.172-.457 9.257-.731 5.092-.503 10.543-.64 15.84-.32v-.96H405zm-67.835 53.623c-14.709-3.063-25.2-12.709-38.263-18.743-2.057-.96-4.217-1.692-6.377-2.332 6.531 1.189 13.063 2.423 19.44 4.343 9.154 2.789 16.971 8.046 25.92 11.2 8.074 2.834 16.869 2.652 25.406 2.514.36 0 .36-.457 0-.502-8.897-.183-17.486-1.28-25.663-4.526-4.269-1.692-8.126-4.069-12.292-5.989-4.525-2.103-9.668-3.428-14.554-4.708-9.874-2.652-19.954-3.795-30.034-5.577-4.063-.732-8.177-1.829-12.292-2.789-3.291-1.051-6.582-1.966-10.08-2.606-4.628-.823-9.411-.96-14.142-.64-18.309 1.189-35.795 9.783-50.966 18.515-20.263 7.725-43.406 8.548-65.16 11.108-15.892 1.874-32.246 4.069-48.137.777-14.709-3.063-25.2-12.708-38.263-18.743-2.057-.96-4.217-1.691-6.377-2.331 6.531 1.189 13.063 2.423 19.44 4.343 9.154 2.788 16.971 8.046 25.92 11.2 8.074 2.834 16.868 2.651 25.405 2.514.361 0 .361-.457 0-.503-8.897-.183-17.485-1.28-25.662-4.525-4.269-1.692-8.126-4.069-12.292-5.989-4.525-2.103-9.668-3.429-14.554-4.709-9.874-2.651-19.954-3.794-30.034-5.577-4.063-.731-8.177-1.828-12.292-2.788-3.291-1.052-6.583-1.966-10.08-2.606-4.628-.823-9.411-.96-14.143-.64-18.308 1.189-35.794 9.783-50.965 18.514-11.109 4.206-23.04 6.4-35.177 7.909v2.651c1.131-.091 2.262-.228 3.394-.365 9.411-1.189 18.103-3.658 26.897-6.72a71.416 71.416 0 0013.577-6.309c10.132-4.8 20.263-9.646 31.474-12.297 5.4-1.28 11.006-1.92 16.56-1.783 2.88.229 5.709.503 8.538.869 6.48 1.325 12.342 4.251 18.822 5.805 7.046 1.692 14.349 2.697 20.932 5.623 6.377 2.834 12.034 6.629 18 10.103 6.068 3.52 12.394 6.126 19.44 7.634 7.508 1.6 15.274 1.92 22.988 1.692 10.492-.366 20.829-1.92 31.269-2.789 9.566-.777 19.08-.686 28.646-1.874 9.411-1.189 18.103-3.657 26.897-6.72a71.35 71.35 0 0013.577-6.309c10.131-4.8 20.263-9.645 31.474-12.297 5.4-1.28 11.006-1.92 16.56-1.783 2.88.229 5.709.503 8.537.869 6.48 1.326 12.343 4.251 18.823 5.806 7.046 1.691 14.349 2.697 20.932 5.622 6.377 2.835 12.034 6.629 18 10.103 6.068 3.52 12.394 6.126 19.44 7.635 7.508 1.6 15.274 1.92 22.988 1.691 10.492-.366 20.829-1.92 31.269-2.789 4.988-.411 9.977-.548 14.965-.822v-2.195c-6.634.686-13.217 1.28-19.697 2.057-15.84 1.875-32.143 4.115-48.034.778z"/><path d="M214.149 205.029c5.503-3.109 10.8-6.08 17.434-6.766.309-.046.309-.457 0-.411-5.606.411-10.594 2.377-15.634 4.48-5.863 2.423-10.8 6.308-16.766 8.457-.103.046-.051.183.051.137 5.349-1.234 10.286-3.246 14.915-5.897zM405 161.829c-6.789-.366-13.577-.823-20.366-1.189-8.177-.411-16.303-.868-24.48-.548-7.92.32-15.685 1.417-23.451 2.788-16.046 2.88-31.834 6.994-47.777 10.469-7.303 1.6-14.452 2.697-22.012 3.063-7.817.411-15.634.32-23.451-.092-7.972-.366-16.046-.548-23.966-1.646-2.006-.274-3.96-.594-5.966-.96-13.062-3.931-25.662-9.508-39.394-11.291-7.354-.96-15.068-.137-22.526-.503-8.074-.366-16.148-.96-24.274-1.371-8.177-.412-16.303-.869-24.48-.549-7.92.32-15.686 1.417-23.451 2.789-16.046 2.88-31.835 6.994-47.777 10.468-7.303 1.6-14.452 2.697-22.012 3.063-7.817.412-15.634.32-23.451-.091-7.972-.366-16.046-.549-23.966-1.646-2.006-.274-3.96-.594-5.966-.96-13.063-3.931-25.663-9.509-39.394-11.291-5.297-.686-10.749-.458-16.148-.412v1.417c.72.046 1.44.092 2.21.092 5.092.228 9.978.548 14.967 1.508 4.782.869 9.463 2.057 14.142 3.383 4.166 1.189 8.383 2.514 12.6 3.703a61.911 61.911 0 006.378 1.691 102.95 102.95 0 008.948 1.783c.103 0 .206 0 .309-.045 4.731.822 9.514 1.6 14.245 2.24 11.932 1.6 24.378 1.691 36.412.914 13.474-.914 26.126-4.846 39.137-8.046 15.943-3.931 32.297-7.68 48.806-8.96 20.417-1.554 40.834.96 61.2 1.829 5.091.228 9.977.548 14.965 1.508 4.783.869 9.463 2.057 14.143 3.383 4.166 1.189 8.383 2.514 12.6 3.703a61.935 61.935 0 006.377 1.691 99.295 99.295 0 008.949 1.783c.103 0 .206 0 .309-.045 4.731.822 9.514 1.6 14.245 2.24 11.932 1.6 24.377 1.691 36.412.914 13.474-.914 26.125-4.846 39.137-8.046 15.943-3.931 32.297-7.68 48.806-8.96 16.251-1.234 32.502.092 48.702 1.143v-.914H405z"/><path d="M378.463 139.886c-15.532 3.886-31.269 7.177-46.954 10.514-7.972 1.692-15.943 3.429-23.863 5.257-7.972 1.829-15.583 3.795-23.915 3.475-17.28-.686-33.377-8.64-49.062-14.355-8.538-3.108-17.64-5.76-26.846-7.085a205.283 205.283 0 00-41.297-4.663c-7.355-.092-14.709.457-22.012 1.463-7.92 1.142-15.48 3.428-23.194 5.348-15.531 3.886-31.269 7.177-46.954 10.515-7.972 1.691-15.943 3.428-23.863 5.257-7.972 1.828-15.583 3.794-23.914 3.474-17.28-.686-33.378-8.64-49.063-14.354-8.538-3.109-17.64-5.76-26.846-7.086a205.285 205.285 0 00-41.297-4.663c-2.777-.046-5.606.046-8.383.183v2.56c13.32-.732 26.434.777 39.6 2.24.103.183.257.32.514.366 6.069 1.462 12.343 2.148 18.463 3.474 4.423.96 8.743 2.24 12.96 3.703 12.549 4.297 24.634 9.737 37.646 12.846 7.148 1.737 14.451 2.605 21.857 2.24 7.766-.412 15.223-2.698 22.731-4.389 15.84-3.611 31.783-6.857 47.675-10.286 18.257-3.977 36.36-9.051 55.183-10.194 13.525-.777 26.794.731 40.114 2.194.103.183.257.32.514.366 6.069 1.463 12.343 2.148 18.463 3.474 4.423.96 8.743 2.24 12.96 3.703 12.549 4.297 24.634 9.737 37.646 12.846 7.148 1.737 14.451 2.606 21.857 2.24 7.766-.412 15.223-2.697 22.731-4.389 15.84-3.611 31.783-6.857 47.675-10.285 15.068-3.292 30.034-7.315 45.411-9.235v-2.605c-1.131.137-2.211.274-3.343.411-7.92 1.234-15.48 3.52-23.194 5.44zm.463-44.892c-11.88-1.005-23.503-2.422-35.435-2.56-.411 0-.72.275-.72.64 0 .229 0 .457-.051.686 0 .229.154.457.36.594 9 4.846 19.749 7.497 29.931 9.463A166.436 166.436 0 00405 106.789v-1.692c-10.543.137-21.189-.868-31.526-2.743a133 133 0 01-15.891-3.84c-2.726-.822-5.4-1.782-8.074-2.834a38.567 38.567 0 01-3.189-1.371c-.514-.229-1.183-.412-1.646-.64 11.109-.549 22.32 1.371 33.326 2.377 9.103.823 18.051 1.097 26.949-.046v-1.966c-2.829.549-5.709 1.006-8.64 1.235-5.812.457-11.572.182-17.383-.275zm-50.862-79.542c-5.658-2.058-11.778-3.2-17.743-4.343-12.343-2.377-25.869-4.206-38.315-1.692-7.971 1.6-15.737 5.486-22.885 8.915-8.743 4.16-17.486 8.777-24.892 14.628-4.165 3.292-8.331 7.634-7.251 12.983.874 4.434 5.708 7.451 9.823 9.463 6.428 3.108 13.731 4.891 20.828 6.354 8.383 1.737 16.972 2.834 25.509 3.749 13.474 1.417 26.948 2.468 40.474 2.788 15.274.366 29.109-7.451 42.84-12.251 6.943-2.423 14.246-4.069 21.394-6.034 7.715-2.103 15.48-4.023 23.555-4.435.514-.045.668-.548.36-.823.617-.32 1.131-.731.823-1.28-1.029-1.828-2.212-2.148-4.372-2.925-2.931-1.052-6.017-2.057-9.154-2.469-3.549-.457-7.149-.503-10.697-.686-13.063-.685-23.863-7.817-34.355-13.988-5.091-3.063-10.285-5.852-15.942-7.954zm51.171 24.183c4.731.137 9.463-.275 14.091.822a95.013 95.013 0 016.223 1.692c1.492.503 1.389.411 1.955 1.417.154.274-1.029.686-1.698.96-6.428-.046-12.96 1.097-19.182 2.377-6.943 1.463-13.989 3.109-20.778 5.12-13.731 4.069-26.28 11.383-40.731 13.394-6.377.915-13.269.412-19.697.137-7.766-.32-15.48-.777-23.194-1.508a276.98 276.98 0 01-26.075-3.84c-7.354-1.463-14.811-3.246-21.548-6.309-4.115-1.874-9.257-4.845-9.617-9.371-.463-6.08 7.302-10.88 12.034-14.034 8.28-5.44 17.434-9.966 26.691-13.898 3.703-1.554 7.457-3.017 11.366-4.16 5.091-1.508 10.543-1.782 15.891-1.737 12.96.138 26.435 2.515 38.829 5.989 12.034 3.383 21.703 11.108 32.503 16.64 7.046 3.611 14.708 6.034 22.937 6.309zm-72.618 36.251c-12.137-.092-24.223.686-36.36 1.28-10.491.503-21.6 1.326-31.937-.457-8.177-1.418-16.046-4.16-24.069-6.263-9.051-4.023-19.851-4.8-29.777-4.48-12.291.366-24.377 2.468-36.36 4.617A360.44 360.44 0 0199 75.977c-16.509.686-33.017.092-49.526-.046-12.137-.09-24.223.686-36.36 1.28-10.491.503-21.6 1.326-31.937-.457-8.177-1.417-16.046-4.16-24.068-6.263-9.052-4.022-19.852-4.8-29.777-4.48-8.898.275-17.64 1.463-26.383 2.88v2.103c1.748-.274 3.497-.502 5.245-.777 9.669-1.326 20.057-2.468 30.086-1.828 3.549.411 7.097 1.005 10.646 1.782 2.468.55 4.885 1.143 7.303 1.83 2.16.776 4.217 1.736 6.222 2.833.772.412 1.492.046 1.698-.548 1.08.32 2.211.64 3.291 1.005 5.297 1.6 10.646 3.155 16.149 4.07 6.171.96 12.805.273 19.028-.047 16.252-.914 32.503-2.24 48.806-2.148 16.508.046 33.017.64 49.526.137 11.674-.366 23.348-1.189 34.92-2.606 9.822-1.234 19.594-3.063 29.417-4.434 9.668-1.326 20.057-2.469 30.085-1.829 3.549.412 7.098 1.006 10.646 1.783a129.85 129.85 0 017.303 1.829c2.16.777 4.217 1.737 6.223 2.834.771.412 1.491.046 1.697-.548 1.08.32 2.211.64 3.291 1.005 5.298 1.6 10.646 3.154 16.149 4.069 6.171.96 12.806.274 19.029-.046 16.251-.914 32.502-2.24 48.805-2.148 16.509.045 33.017.64 49.526.137 11.674-.366 23.349-1.189 34.92-2.606 4.629-.594 9.257-1.28 13.886-2.011v-2.103c-16.149 2.88-32.349 4.662-48.806 5.302-16.406.686-32.863.092-49.423-.045z"/><path d="M368.69 23.131c-14.194-3.565-27.257-9.782-41.503-13.21-12.445-3.018-25.2-5.212-38.057-6.264-18.154-1.463-38.88-.411-54.411 9.097-5.092 3.109-9.206 7.269-14.195 10.469-5.502 3.52-11.982 5.486-18.617 6.309-14.194.777-28.594.594-42.788-.183-15.995-.915-32.092-2.332-47.52-6.172-14.195-3.566-27.258-9.783-41.503-13.211-12.446-3.017-25.2-5.212-38.057-6.263C13.884 2.24-6.841 3.29-22.373 12.8c-5.091 3.109-9.205 7.269-14.194 10.469-5.503 3.52-11.983 5.485-18.617 6.308-14.195.777-28.594.594-42.789-.183-.308 0-.617-.045-.925-.045V32c13.062.686 26.177.549 39.137-.64 5.245 0 10.748-.366 15.685-1.874 4.115-1.28 7.766-3.337 11.16-5.715 3.086-2.194 5.812-4.754 8.692-7.131 3.343-2.789 6.943-4.846 11.005-6.629C-1.338 4.8 12.6 3.978 25.611 4.434c13.525.457 26.845 2.697 39.96 5.623 10.748 2.423 20.982 5.852 31.268 9.554 5.605 2.058 11.16 4.252 16.817 6.172 5.708 1.92 11.571 2.971 17.588 3.748 21.806 2.835 44.178 3.84 66.138 1.875 5.245 0 10.748-.366 15.685-1.874 4.115-1.28 7.766-3.338 11.16-5.715 3.086-2.194 5.812-4.754 8.692-7.131 3.343-2.789 6.943-4.846 11.005-6.629 11.88-5.211 25.818-6.034 38.829-5.577 13.526.457 26.846 2.697 39.96 5.623 10.749 2.423 20.983 5.851 31.269 9.554 5.605 2.057 11.16 4.252 16.817 6.172 5.708 1.92 11.571 2.971 17.588 3.748a338.667 338.667 0 0016.715 1.783v-2.651c-12.343-1.052-24.583-2.606-36.412-5.578zm.259 38.08c-3.446.595-6.738 1.92-8.486 4.709-.257.411-.052 1.097.566 1.189 14.914 2.331 29.468-.138 43.971-2.972v-1.966c-13.834 2.835-27.669 5.532-42.017 3.566 2.52-2.194 6.274-2.606 9.72-3.017 4.268-.503 8.074-1.417 12.034-2.88 6.84-2.423 13.32-5.486 20.263-7.589v-2.56c-8.023 2.24-15.48 5.898-23.246 8.778-4.165 1.554-8.383 1.965-12.805 2.742zm25.509-26.605c-.206-.046-.309.183-.154.274 1.851 1.189 4.525 1.966 6.685 2.651 1.286.412 2.623.732 3.96 1.052v-1.326c-.72-.137-1.44-.32-2.211-.503-2.674-.64-5.503-1.691-8.28-2.148z"/><path d="M358.045 25.372c4.577 2.88 10.645 4.663 15.942 6.171 5.658 1.6 11.469 2.56 17.332 3.154.874.092.874-1.143 0-1.234-5.76-.64-11.417-1.646-16.972-3.154-5.451-1.509-10.645-4.069-16.148-5.349-.257-.046-.412.274-.154.412zm-80.948 46.445c0-.182-.154-.457-.36-.548-5.811-2.286-12.291-2.834-18.514-3.749-6.737-.96-12.651-2.925-18.874-5.257-5.195-1.966-10.492-3.703-16.252-3.474-2.623.091-5.348.686-7.765 1.646-2.366.96-2.983 1.005-3.086 3.108 0 .274.154.594.463.686 10.44 4.434 21.96 3.703 33.12 5.211 8.897 1.235 16.868 5.257 25.92 5.806 5.554.32 11.211-.594 16.714-1.006 6.274-.457 12.6-.777 18.874-1.143 12.086-.64 24.429-1.462 36.257-3.885.309-.046.155-.457-.102-.412-16.509 3.017-33.223 3.337-49.989 4.206-5.914.32-11.983 1.143-17.949 1.189.258-.092.463-.183.72-.275.926-.503.72-1.097.823-2.103zm-24.223-2.24c-6.994-2.011-14.194-2.377-21.445-3.017-3.909-.32-7.817-.868-11.623-1.737-.463-.137-5.76-1.554-5.76-1.417 0-.366-.052-.731-.052-1.097 0 .137 3.292-1.097 3.652-1.189 7.148-2.377 14.451-.137 21.137 2.377 3.034 1.143 6.017 2.378 9.154 3.338 3.806 1.142 7.817 1.737 11.726 2.285 4.166.549 8.331 1.052 12.394 2.012.875.182 1.697.457 2.52.685 1.132.32 1.132-.182 1.235.823.102 1.052-2.778 1.235-3.909 1.509-.566-.046-1.08-.046-1.646-.137-6.017-.503-11.674-2.789-17.383-4.435zm107.742 173.166c2.726 2.149 6.429 3.383 9.772 4.571 3.6 1.235 7.303 2.286 11.108 2.926 5.04.914 10.338 1.234 15.48 1.737 2.675.275 5.349.457 8.075.595v-1.829c-3.652-.183-7.303-.549-10.955-.914-8.948-.915-17.382-2.103-25.714-5.303-2.16-.823-6.84-2.332-7.508-4.663-.72-2.423 13.062-3.2 14.04-3.246 7.508-.411 15.068.137 22.577-.228 2.52-.137 5.04-.457 7.508-.869v-1.645c-2.52.274-4.988.502-7.508.594-7.869.228-15.686-.366-23.503 0-4.423.228-10.852.457-14.349 3.291-1.954 1.6-.617 3.749.977 4.983zm-49.987-14.4c7.046.96 14.143 2.377 20.572 5.12 5.76 2.423 11.263 5.074 17.588 5.989.463.045.669-.549.206-.64-6.686-1.189-12.343-4.663-18.411-7.269-6.069-2.606-12.858-3.886-19.44-4.937-6.995-1.097-14.092-1.737-21.138-2.377-7.457-.686-14.605-.686-21.96.685-7.251 1.372-14.194 3.749-21.188 5.943-6.12 1.92-11.623 5.532-16.766 8.96-5.4 3.612-10.851 7.223-16.714 10.195-6.12 3.062-14.863 4.8-21.857 4.388-.772-.046-.72.96 0 1.006 6.943.64 13.268-.229 19.748-2.56 5.863-2.149 10.955-5.76 15.943-9.189 5.4-3.748 10.852-7.405 17.023-10.148 6.686-2.972 14.4-4.937 21.6-6.583 7.509-1.692 14.76-1.829 22.371-.96 7.509.823 14.966 1.371 22.423 2.377zm-76.269-18.834c7.149-.915 14.246-1.692 21.446-1.6 7.148.045 13.731 1.463 20.468 3.428.463.137.72-.457.309-.64-12.343-5.988-27.463-4.525-40.783-2.834-6.583.869-12.497 2.103-18.411 4.891-5.658 2.652-10.903 5.852-16.715 8.275-.36.137-.051.64.309.503 5.451-2.058 10.491-4.8 15.737-7.223 5.657-2.652 11.366-4.023 17.64-4.8zm168.171-55.772c-13.475.64-27 1.052-40.475 1.555-.257 0-.257.32 0 .32 14.298.502 28.646-.64 42.995-.778v-1.28c-.875.092-1.697.138-2.52.183zM68.142 247.726c-5.503-2.789-11.571-4.617-17.794-5.623-24.532-3.977-51.583 5.989-68.657 21.623-2.726 2.514-5.863 6.171-4.166 9.829 1.543 3.337 6.171 4.937 9.669 6.125 13.268 4.663 27.617 7.589 41.657 9.372 7.251.914 14.605 1.554 21.908 1.234 7.406-.274 14.657-1.692 21.806-3.337 6.84-1.6 13.629-3.246 20.263-5.44 6.377-2.103 12.703-4.48 19.234-6.172 3.394-.868 6.943-1.508 10.491-1.6.566 0 1.029-.411 1.029-.914v-.686a.931.931 0 00-.514-.777c-3.137-1.234-6.172-1.326-9.412-.823a57.27 57.27 0 01-13.731-3.748c-5.451-2.24-10.44-5.394-15.274-8.549-5.4-3.474-10.595-7.497-16.509-10.514zm18.823 15.04c4.577 2.834 9.411 5.303 14.657 7.04 3.291 1.097 6.737 1.691 10.234 1.966.155.274.463.548.926.457 1.8-.229 3.6-.366 5.451-.229.412.046.772.092 1.132.183-11.674.96-22.577 6.583-33.634 9.6-14.657 4.023-29.726 7.406-45.206 6.491-15.171-.868-29.777-3.794-44.28-7.725-5.194-1.417-11.52-2.652-15.634-6.035-4.578-3.794 1.851-8.914 4.988-11.382 18.309-14.4 44.794-23.269 69.12-17.509 12.549 2.972 21.909 10.697 32.246 17.143z"/><path d="M41.09 246.949c-9.771.64-19.028 4.982-27.977 8.32-4.525 1.691-9 3.474-13.114 5.851-2.417 1.417-5.606 3.52-5.811 6.309-.515 6.354 7.148 9.188 12.805 10.651 8.023 2.057 16.56 2.514 24.892 2.971 8.64.458 17.125 1.418 25.817 1.418 11.314 0 23.194-.869 33.891-4.343 2.983-.96 5.812-2.195 8.383-3.795.566-.365.617-1.097 0-1.417a2.797 2.797 0 01-.463-.32c.36-.045.617-.503.206-.685-.617-.32-1.234-.595-1.851-.915-.515-.548-1.029-1.097-1.749-1.463-.36-.182-.669-.137-.926.046-17.074-9.417-32.811-24-54.103-22.628zm45.875 21.805c.257.275.463.503.668.777 0 .138.052.229.103.366-9.514 5.074-21.549 3.886-32.297 2.972 4.269-.32 8.589-.595 12.909-.778 2.005-.091 3.96-.137 5.965-.182 1.595-.046 2.314.182 3.394-.869.72-.731.875-1.417.618-2.057.051-.137.051-.274-.103-.412-8.64-7.725-20.417-15.268-33.377-13.44-6.275.869-11.006 3.932-15.789 7.452-2.417 1.783-6.017 4.16-6.789 7.086-.565 2.148 1.08 3.382 3.755 4.022-1.749.046-3.497 0-5.246-.137-3.188-.274-9.823-1.691-8.743-5.714.823-3.109 5.143-5.349 7.92-6.857 4.063-2.24 8.537-3.886 13.012-5.303 4.011-1.28 8.125-2.331 12.445-2.377 8.435 0 16.458 3.886 23.657 7.314 3.55 1.692 7.046 3.474 10.698 5.074a97.883 97.883 0 005.142 2.058c.72.365 1.492.411 2.058 1.005zm-12.137-1.645a.746.746 0 00-.052.731c.257.457.566.823.977 1.234 1.08 1.052-2.88.823-3.445.823-3.292.046-6.583.183-9.823.366-1.029.046-2.006.137-3.035.183 2.932-.869 5.709-2.012 8.178-3.52.411-.275.668-.777.514-1.189.257-.183.257-.594-.052-.731-.514-.183-.977-.366-1.491-.549-.72-.503-1.44-1.006-2.057-1.646-.514-.548-1.234-.091-1.286.458-1.903-.64-3.857-1.235-5.76-1.92-2.726-.915-5.451-1.738-8.383-1.829-7.56-.32-13.834 5.989-18.463 10.469-.565.548-.462 1.417.258 1.782a27.901 27.901 0 01-2.829-.274c-1.8-.228-4.012-.503-2.726-2.377 1.646-2.469 4.732-4.389 7.2-6.126 4.423-3.2 9-5.531 14.812-5.897 9.874-.457 19.748 4.572 27.463 10.012zm-17.383-3.658c2.314.686 4.68 1.372 7.097 1.829.206.229.463.411.72.64-3.96 2.057-8.589 3.2-13.114 3.931 1.234-.594 2.365-1.371 3.342-2.468.412-.457.412-1.143-.205-1.463-.257-.137-.515-.183-.823-.229a.546.546 0 00-.514-.868c-4.68.457-8.795.96-12.343 3.977-.617.503-.309 1.463.514 1.646a23.72 23.72 0 001.748.365c-3.29.183-6.685.046-9.874-.594 4.114-3.977 9.206-8.594 15.532-8.457 2.674.091 5.348 1.006 7.92 1.691zm-4.629 3.703c-2.314 1.737-4.989 2.286-7.92 1.875 1.903-1.143 4.166-1.92 6.429-2.469.411.411.925.503 1.491.594zm30.189-2.651c-2.057-.96-4.115-1.874-6.12-2.88-5.863-2.834-11.623-5.76-17.846-8-5.657-2.012-11.674-3.109-17.743-2.332-3.806.458-7.56 1.738-11.108 3.018-4.269 1.508-8.486 3.291-12.343 5.485-2.88 1.646-6.069 3.703-7.56 6.492-1.286 2.377-.412 4.708 1.697 6.4 3.548 2.834 8.948 2.925 13.423 2.697 4.063-.183 8.074-.777 12.137-1.189 2.211-.137 4.166-.32 5.451-.411 4.937-.092 10.029 1.051 14.914 1.646 10.338 1.234 23.092 1.691 31.27-4.938a1.08 1.08 0 00.565-.365s0-.046.051-.046c.052-.046.103-.137.103-.183.257-.274.103-.64-.154-.777-.257-.549-.617-1.006-.977-1.417a161.694 161.694 0 006.377 3.154l.051.046c1.132.686 1.852 1.783 2.777 2.651-8.948 5.12-20.623 6.355-30.96 6.949-5.811.32-11.674.32-17.485.091-4.372-.183-8.64-.777-13.012-1.051-7.817-.503-15.685-.777-23.4-2.057-5.554-.915-17.023-2.88-16.611-9.692.154-2.697 4.937-4.754 7.148-5.851 4.063-2.057 8.435-3.703 12.703-5.257 8.64-3.2 17.229-7.086 26.743-7.406 10.286-.366 19.697 3.749 28.183 8.503 3.96 2.148 7.817 4.48 11.726 6.72zM-24.584 103.131c-6.89 3.018-14.142 4.252-21.6 5.532-4.782.823-9.565 1.6-14.4 2.423-.154-.137-.41-.183-.668-.092-7.354 1.92-15.017 2.423-22.629 1.875-4.988-.366-10.131-1.189-15.171-1.189v2.56c3.497-.137 7.046-.137 10.646.091 9 .503 17.743.366 26.485-1.737 8.589-1.234 17.178-2.56 25.766-3.885 6.634-1.006 12.497-3.612 18.463-6.218 6.789-2.971 13.886-5.485 21.189-7.268 14.4-3.566 29.828-4.069 44.125.046 7.406 2.148 14.349 5.44 21.034 8.96 6.223 3.245 12.343 6.4 19.492 7.771 9.051 1.691 18.411.686 27.463 2.194 4.577.777 9.103 1.875 13.783 2.149 5.091.32 10.183-.366 15.171-.96 8.177-.96 15.994-1.463 24.223-1.006 9 .503 17.743.366 26.486-1.737 8.588-1.234 17.177-2.56 25.765-3.886 6.635-1.005 12.498-3.611 18.463-6.217 6.789-2.971 13.886-5.486 21.189-7.268 14.4-3.566 29.828-4.069 44.125.045 7.406 2.149 14.349 5.44 21.035 8.96 6.223 3.246 12.343 6.4 19.491 7.772 9.052 1.691 18.412.685 27.463 2.194 4.577.777 9.103 1.874 13.783 2.149 5.091.32 10.183-.366 15.171-.96 1.132-.138 2.212-.229 3.292-.366v-2.469c-4.732.549-9.412 1.189-14.143 1.555-7.714.594-14.812-1.326-22.372-2.103-7.302-.777-14.657-.183-21.908-1.326-7.611-1.189-14.04-4.891-20.417-8.503-6.274-3.566-12.703-6.903-19.749-9.097-6.686-2.103-13.834-3.063-20.88-3.246-9.206-.228-18.463 1.235-27.257 3.566-9 2.377-17.28 6.126-25.663 9.829-6.891 3.017-14.143 4.251-21.6 5.531-4.783.823-9.565 1.6-14.4 2.423-.154-.137-.411-.183-.668-.092-7.355 1.92-15.017 2.423-22.629 1.875-5.708-.412-11.468-1.417-17.228-1.097-7.509.411-14.915 1.737-22.423 2.285-7.715.595-14.812-1.325-22.372-2.103-7.303-.777-14.657-.182-21.908-1.325-7.612-1.189-14.04-4.892-20.418-8.503-6.274-3.566-12.702-6.903-19.748-9.097-6.686-2.103-13.834-3.063-20.88-3.246-9.206-.229-18.463 1.234-27.257 3.566-9.103 2.24-17.332 5.988-25.715 9.645zM1.44 144.549c-9.206-4.16-18.36-8.275-28.337-10.743-.566-.137-.823.64-.257.777 10.183 2.743 19.183 8.366 28.543 12.8 9.051 4.343 18.36 7.954 28.748 8.64 10.029.686 19.389-3.109 28.183-6.812 4.886-2.057 9.772-4.114 14.76-5.897 4.68-1.645 9.72-3.245 14.812-2.88.103 0 .103-.091 0-.137-9.772-.777-18.257 2.423-26.949 6.034-4.834 2.012-9.617 4.115-14.606 5.715-5.143 1.691-10.028 2.103-15.48 1.783-10.337-.595-20.365-5.12-29.417-9.28z"/><path d="M15.223 131.429c11.675 5.76 25.303 4.434 37.646 1.188 6.789-1.783 13.423-3.931 20.16-5.897 3.137-.914 6.275-1.6 9.412-2.377 2.057-.503 4.217-1.554 5.194-3.292.154-.274.154-.685-.103-.868-5.297-3.703-12.034-4.206-18.051-6.537-.052-.046-.103.045-.052.091 2.366 1.28 4.886 2.149 7.509 2.972 2.52.822 6.84 2.011 8.897 3.931-1.697 1.28-3.909 1.646-6.069 2.103-3.085.64-6.068 1.554-9.051 2.468-5.863 1.829-11.623 3.886-17.434 5.76-5.76 1.875-11.983 3.2-18.103 3.52-6.84.366-13.474-1.097-19.852-3.245-.154-.046-.205.091-.103.183z"/><path d="M36.206 126.995c4.166-.366 8.486-1.189 12.394-2.469 3.806-1.234 7.818-2.789 10.39-5.577.205-.229.256-.503.102-.732-2.006-3.245-5.657-5.485-9.463-6.811-.154-.046-.206.137-.103.183 3.034 1.508 6.377 3.886 8.074 6.674-3.085 1.737-6.428 3.246-9.77 4.617-3.807 1.509-7.56 3.109-11.675 3.657-.309.046-.257.458.051.458zm46.027-26.423c-3.034-.915-6.068-1.966-9.103-3.018-2.983-1.051-5.965-2.56-9.154-3.017-.309-.046-.463.366-.154.457 2.88.686 5.245 2.423 8.023 3.429 3.291 1.189 6.582 2.331 9.977 3.383a105.61 105.61 0 009.308 2.331c3.138.64 6.377 1.509 9.566 1.875 6.48.731 12.754 1.782 19.132 3.154 6.171 1.326 12.445 2.606 18.822 2.697.463 0 .412-.594 0-.64-12.394-1.28-23.554-7.36-36.102-7.68-3.446-.091-6.686.274-10.132-.366-3.446-.594-6.84-1.6-10.183-2.605zM184.68 201.829c-.926-3.932-4.937-6.218-8.743-7.726-8.64-3.383-19.131-5.12-28.594-5.12-6.789 0-13.474 1.646-19.903 3.428-6.017 1.692-12.188 3.932-18.463 4.892-4.423-.229-10.131.274-12.754 3.611-2.726 3.429 6.326 6.629 8.331 7.772a166.58 166.58 0 013.138 1.783c-2.058-.686-4.115-1.418-6.275-1.875a.168.168 0 00-.103.32c3.035.686 5.812 2.103 8.795 2.926 4.062 2.194 8.228 3.886 13.422 4.023 3.189.091 6.378-.274 9.566-.366 3.909-.137 7.766.366 11.623.457 7.56.229 15.171-.64 22.474-2.377 4.32-1.005 8.949-2.423 12.909-4.343 3.086-1.6 5.348-4.068 4.577-7.405zm-43.766 12.388c-3.497-.228-6.788-.32-10.337 0-3.703.32-7.251.64-10.903.046-3.6-.594-6.634-2.332-9.617-4.069-3.086-1.737-6.12-3.52-9.257-5.12-1.234-.64-2.623-1.234-3.446-2.285-1.337-1.738 2.932-3.338 4.012-3.612a57.05 57.05 0 016.326-1.326c6.634-.548 13.011-1.691 19.542-3.2 7.2-1.691 14.4-3.245 21.857-3.017 5.04.137 10.235 1.052 15.12 2.057 5.04 1.006 10.235 2.332 14.606 4.846 1.8 1.052 3.754 2.789 4.012 4.8.257 2.012-2.058 3.475-3.755 4.389-4.165 2.286-9.463 3.657-14.143 4.754-7.817 1.783-15.994 2.24-24.017 1.737z"/><path d="M123.839 209.6c6.069 1.28 11.983.914 18.155.732 8.486-.229 17.023-.549 25.354-2.012 3.189-.594 7.509-1.371 9.566-3.886 2.16-2.651-1.389-5.165-3.754-6.262-4.938-2.286-10.852-3.018-16.303-3.749-4.423-.549-9.257-1.509-13.732-.777-4.834.137-9.668.868-14.348 1.92-4.937 1.143-11.109 2.286-15.172 5.211-6.48 4.709 7.149 8.183 10.234 8.823zm21.446-15.451c3.086-.046 6.12.457 9.257.96 4.526.685 9 1.6 13.372 2.925 2.057.595 8.537 2.195 8.074 5.029-.411 2.286-4.834 3.154-6.788 3.611-8.28 1.966-17.28 2.195-25.818 2.423-6.377.183-12.24.275-18.514-1.051-2.88-.594-5.811-1.372-8.331-2.789-2.572-1.417-1.595-2.56.668-3.657 4.475-2.194 9.823-3.383 14.657-4.708 4.372-1.189 8.898-2.149 13.423-2.743z"/><path d="M131.04 205.349c7.251.731 14.605.411 21.908.502 2.932.046 5.812.138 8.743.32 2.469.138 5.194.366 7.509-.502 2.468-.915 4.114-3.932 1.645-5.578-2.725-1.874-6.943-1.965-10.234-2.331-1.337-.137-2.726-.229-4.011-.64-1.338-.411-2.572-1.097-3.909-1.554a12.577 12.577 0 00-3.189-.549c-2.52-.183-5.245.183-7.508.549-5.194.823-9.514 2.788-13.68 5.531-3.549 2.469-.257 3.932 2.726 4.252zm34.148-4.526c-.874 1.28-3.703 1.737-5.76 1.966 1.029-.412 1.903-.96 2.572-1.783.102-.137.051-.457-.155-.503-2.314-.914-4.937-1.234-7.457-1.052 0-.045.052-.091 0-.137 1.234 0 2.469 0 3.703.092.206.045.36.045.566.091.668.092 1.388.137 2.057.183 1.543.229 3.034.594 4.474 1.143zm-18.566 2.468c-1.491-.091-3.034-.182-4.422-.731-.463-.183-.926-.32-1.338-.549-.822-.411-.668-.228.155-.685 1.388-.777 3.137-1.052 4.68-1.463.308-.092.617-.137.925-.229-.565.457-.771 1.372-.977 1.829-.205.411.206.96.669 1.051 1.337.32 3.034.64 4.834.823-1.543.046-3.034.046-4.526-.046zm1.749-3.931c-.206 0-.36.046-.566.046.052 0 .155-.046.206-.046h.36zm9.051.914c-.154 0 3.806.457 3.343.915-.771.731-1.954 1.005-2.983 1.188-3.188.64-6.788 0-9.874-1.051.823-.915 2.366-1.235 3.909-1.463-.155.046-.36.091-.515.137-.257.091-.205.457.052.457 2.057-.183 4.063-.32 6.068-.183zm-23.708.229a95.656 95.656 0 016.891-2.606c1.132-.366 2.315-.777 3.549-1.097 2.828-.503 5.708-.594 8.434.594.566.229 1.08.503 1.594.732-1.954.045-3.908.228-5.811.365-3.189-.228-6.84.183-9.309 1.738-.977.594-1.388 1.874-.411 2.651 1.183 1.006 2.829 1.051 4.371 1.143 4.938.228 9.926.32 14.863-.229 2.366-.228 7.92-.594 8.846-3.154 0-.091.051-.137 0-.229.463.092.874.183 1.337.32 1.646.458 2.572 1.189 1.594 2.652-1.285 1.966-5.245 1.691-7.405 1.6a360.942 360.942 0 00-17.177-.412c-3.395 0-6.789.046-10.183-.228-.72-.046-7.355-.64-6.532-1.463 1.235-1.143 3.755-1.691 5.349-2.377zm-12.807 11.2c-3.342-1.326-5.451-4.069-8.897-5.303-2.314-.823-4.68-1.508-6.12-3.428-1.594-2.103 4.166-2.926 5.4-3.018.515-.045.515-.685 0-.685-2.057-.092-5.297-.229-6.891 1.234-1.389 1.234-1.234 2.926.103 4.206 2.108 2.103 5.091 2.057 7.971 2.743 3.292.822 5.04 3.794 8.434 4.388 0 0 .103-.091 0-.137zm18.72.411c-4.577.046-9.051.32-13.628-.045-.052 0-.052.045 0 .045 16.508 1.509 32.811.549 48.703-3.977.051 0 .051-.091 0-.091-7.406 1.828-15.172 2.834-22.835 3.566-4.062.411-8.177.411-12.24.502z"/><path d="M190.8 211.063c3.137-.823 6.223-1.829 9.154-3.063a34.704 34.704 0 007.303-4.16c1.286-.96 2.726-2.103 2.983-3.611.412-2.56-3.086-3.84-5.194-4.572-3.806-1.371-7.972-1.965-11.932-2.88-5.091-1.143-10.131-2.56-14.914-4.48.309-.045.36-.457 0-.594-6.48-2.149-12.137-6.263-19.028-7.36-6.686-1.097-13.68.274-20.366.777-7.817.594-15.634 1.6-23.349 2.789-8.023 1.188-15.891 2.651-24.068 2.743-5.297.045-43.869.32-40.423 8.411 1.594 3.657 7.303 6.263 10.8 8.183 6.12 3.383 12.6 6.354 19.028 9.143 5.246 2.285 10.543 4.754 16.2 6.034 11.366 2.606 23.195 2.24 34.818 1.874.411 0 .411-.548 0-.548-13.475.137-27.72-1.143-40.475-5.12-7.663-2.377-15.171-5.486-22.32-8.777-3.908-1.783-7.765-3.703-11.365-5.898-2.109-1.28-5.452-3.154-6.069-5.577-.617-2.56 6.326-3.84 8.074-4.251 4.68-1.052 9.514-1.6 14.297-2.012 5.503-.502 10.955-.594 16.458-.457 10.285.275 20.211-1.051 30.291-2.788 10.08-1.783 20.469-3.063 30.754-3.612 4.732-.274 9.103.183 13.423 1.875-3.188-.732-6.48-.96-9.72-1.006-15.891-.183-31.166 3.611-46.594 6.263-6.532 1.097-13.012 1.783-19.646 1.965-3.703.092-7.868.046-11.057 1.966-2.983 1.829-3.651 5.989-2.263 8.823 1.903 3.794 6.994 6.034 10.852 7.863 5.091 2.423 10.337 4.663 15.891 6.171 6.943 1.92 14.297 2.515 21.497 2.926 4.269.229 8.486.32 12.754.411 1.492.046 2.88.275 4.269.458-.103.137-.051.32.154.365 7.56.915 15.326 1.646 22.937.595 6.686-.96 12.086-4.572 18.309-6.675 2.726-1.005 5.709-1.417 8.537-2.194zm-45.514 8.229c.514 0 1.08-.092 1.646-.183.051 0 0-.046 0-.046-3.292.274-6.275-.457-9.412-1.143-3.446-.731-7.406-.64-10.903-.868-7.765-.549-15.428-1.052-22.937-2.972-5.914-1.508-11.417-4.251-16.766-6.857-4.577-2.194-9.925-4.846-9.668-10.057.206-4.343 6.068-4.617 9.72-4.709 5.657-.091 11.16-.091 16.817-.823 7.817-.96 15.531-2.697 23.246-4.205 8.023-1.555 16.148-2.56 24.325-3.2 7.303-.549 14.298-.183 20.88 2.88 2.572 1.188 5.143 2.56 7.869 3.52 3.034 1.097 6.223 1.737 9.309 2.697 3.24 1.006 6.582 1.646 9.874 2.377 2.417.549 8.023 1.326 9.051 3.794.617 1.417-2.674 2.972-3.6 3.52-2.52 1.417-5.297 2.515-8.074 3.475-5.246 1.92-11.057 2.651-16.2 4.708-5.503 2.149-10.08 5.669-15.891 7.223-6.12 1.691-12.858 1.463-19.286.869z"/><path d="M87.48 204.892c-2.21-1.6-5.45-3.657-3.754-6.537.823-1.372 2.675-1.646 4.269-1.92 3.703-.64 7.56-.458 11.314-.595 4.063-.183 8.126-1.188 12.137-1.874 5.452-.914 10.749-1.874 15.943-3.657.155-.046.103-.274-.051-.229-6.377 1.783-13.269 1.875-19.903 2.652-2.366.274-4.731.777-7.149.914-2.263.091-4.525.046-6.788.091-3.446.046-8.126-.091-10.8 2.195-3.857 3.337 1.234 7.771 4.423 9.417.308.137.668-.274.36-.457zm8.022 2.88c-1.542-.64-3.188-.915-4.782-1.28-.155-.046-.206.137-.052.183 1.646.365 3.24.731 4.834 1.188.052 0 .052-.046 0-.091z"/><path d="M148.475 224.183c12.651 1.509 26.64-2.331 37.594-7.771.103-.046.051-.183-.051-.138-10.8 3.338-21.498 7.223-33.12 7.086-2.572-.046-5.092-.366-7.663-.777-3.806-.686-7.509-.137-11.315.457-7.971 1.28-16.2.229-24.171-.731-7.663-.915-15.223-2.377-22.577-4.48-7.92-2.286-15.377-5.715-22.937-8.777-3.6-1.463-7.149-2.972-10.595-4.663-3.034-1.463-5.862-2.926-9.154-3.84-2.983-.823-5.76-.686-8.846-.64-1.594 0-3.137 0-4.731-.32-.926-.183-3.857-1.646-3.24-2.789.72-1.326 4.011-1.691 5.4-2.011 2.211-.457 4.32-.96 6.428-1.737 2.932-1.098 5.658-2.56 8.435-3.932 3.394-1.646 6.84-2.468 10.645-3.063 8.486-1.234 17.383-1.28 25.972-1.28.154 0 .154-.183 0-.183-8.126-.045-16.2-1.005-24.326-.457-3.291.229-6.634.595-9.823 1.509-3.034.868-5.76 2.423-8.588 3.703-4.166 1.965-8.743 2.651-13.012 4.343-3.085 1.234-4.063 3.52-1.44 5.714 1.698 1.417 3.755 1.737 5.966 1.783 3.394.091 6.532-.503 9.926.091 3.497.594 6.737 2.286 9.823 3.886 3.651 1.92 7.662 3.428 11.52 4.983 7.097 2.834 14.04 5.988 21.343 8.274 7.25 2.286 14.862 3.749 22.474 4.8 4.628.594 9.308 1.051 13.988 1.371 4.732.32 8.846 0 13.526-.777 2.777-.457 5.554-.731 8.332-.274 1.44.229 2.828.457 4.217.64z"/><path d="M-21.755 188.114c-9.72-1.097-19.183-2.925-28.749-4.525-10.85-3.292-21.29-7.497-31.885-11.566-5.4-2.057-10.955-3.566-16.612-4.617v1.737h.052c14.194 3.84 27.463 10.697 41.657 14.674.103.275.309.503.72.595 13.886 4.022 28.903 5.714 43.406 6.994 8.743.777 17.743 1.371 26.537.594 3.908-.366 7.508-1.6 10.903-3.383 2.622-1.371 4.988-3.154 7.508-4.663 3.24-1.965 6.994-3.245 10.749-4.342 7.148-2.103 14.554-3.338 21.96-4.618 7.663-1.28 15.274-2.788 22.937-4.022 11.674-1.875 23.349-3.749 35.229-4.389 11.674-.64 24.325-.503 35.64 2.56 14.194 3.84 27.462 10.697 41.657 14.674.103.275.308.503.72.595 13.885 4.022 28.903 5.714 43.405 6.994 8.743.777 17.743 1.371 26.538.594 3.908-.366 7.508-1.6 10.902-3.383 2.623-1.371 4.989-3.154 7.509-4.663 3.24-1.965 6.994-3.245 10.749-4.342 7.148-2.103 14.554-3.338 21.96-4.618 7.662-1.28 15.274-2.788 22.937-4.022 11.674-1.875 23.348-3.749 35.228-4.389 8.229-.457 16.92-.503 25.303.549v-1.189c-4.526-.457-9.103-.686-13.731-.777-15.789-.274-31.68 1.966-47.109 4.8a1256.383 1256.383 0 01-22.937 4.068c-7.406 1.235-14.811 2.423-22.011 4.343-4.68 1.28-9.155 2.743-13.269 5.12-4.114 2.377-8.177 4.755-13.011 5.715-4.166.868-8.743.594-12.96.548-8.229-.137-16.458-.777-24.583-1.691-9.72-1.097-19.183-2.926-28.749-4.526-10.851-3.291-21.291-7.497-31.886-11.566-12.908-4.937-26.64-6.583-40.628-6.811-15.789-.274-31.68 1.966-47.109 4.8a1257.31 1257.31 0 01-22.937 4.068c-7.406 1.235-14.811 2.423-22.011 4.343-4.68 1.28-9.155 2.743-13.269 5.12-4.114 2.377-8.177 4.755-13.011 5.715-4.166.868-8.743.594-12.96.548-8.435-.046-16.612-.731-24.789-1.646zm160.973-92.891c-5.812.457-11.572.228-17.383-.274-11.88-1.006-23.503-2.423-35.435-2.56-.411 0-.72.274-.72.64 0 .228 0 .457-.051.685 0 .229.154.457.36.595 9 4.845 19.749 7.497 29.931 9.462a166.829 166.829 0 0033.378 2.972c10.748-.137 21.291-1.6 31.885-3.292 11.675-1.874 23.657-4.022 35.589-3.611.411 0 .617-.274.668-.594h.206c1.029 0 1.183-1.28.257-1.509a4.374 4.374 0 00-1.08-.137c-1.594-.32-3.394-1.143-4.834-1.6-2.623-.823-5.246-1.6-7.92-2.423-5.709-1.737-11.469-3.794-17.331-4.937-10.029-1.92-19.955.823-29.572 3.2-5.914 1.509-11.828 2.88-17.948 3.383zm47.674-4.114c5.914 1.051 11.777 2.971 17.537 4.571 2.674.731 5.297 1.463 7.92 2.194a6.55 6.55 0 011.234.412c-9.977-.823-20.057.503-29.88 2.057-10.954 1.691-21.805 4.297-32.914 4.663-11.52.365-23.143-.64-34.457-2.697-5.4-.96-10.697-2.24-15.892-3.84-2.725-.823-5.4-1.783-8.074-2.835a38.518 38.518 0 01-3.188-1.371c-.515-.229-1.183-.412-1.646-.64 11.108-.549 22.32 1.371 33.326 2.377 11.571 1.051 22.988 1.234 34.302-1.326 10.595-2.377 20.726-5.485 31.732-3.565zM70.92 15.452c-5.658-2.058-11.778-3.2-17.744-4.343-12.343-2.377-25.868-4.206-38.314-1.692-7.971 1.6-15.737 5.486-22.886 8.915-8.743 4.16-17.486 8.777-24.891 14.628-4.166 3.292-8.332 7.634-7.252 12.983.875 4.434 5.709 7.451 9.823 9.463 6.429 3.108 13.732 4.891 20.829 6.354 8.383 1.737 16.971 2.834 25.508 3.749 13.475 1.417 26.949 2.468 40.475 2.788 15.274.366 29.108-7.451 42.84-12.251 6.942-2.423 14.245-4.069 21.394-6.034 7.714-2.103 15.48-4.023 23.554-4.435.514-.045.669-.548.36-.823.617-.32 1.132-.731.823-1.28-1.029-1.828-2.211-2.148-4.371-2.925-2.932-1.052-6.018-2.057-9.155-2.469-3.548-.457-7.148-.503-10.697-.686-13.063-.685-23.863-7.817-34.354-13.988-5.091-3.063-10.286-5.852-15.943-7.954zm51.17 24.183c4.732.137 9.463-.275 14.092.822a95.184 95.184 0 016.223 1.692c1.491.503 1.388.411 1.954 1.417.154.274-1.029.686-1.697.96-6.429-.046-12.96 1.097-19.183 2.377-6.943 1.463-13.989 3.109-20.777 5.12-13.731 4.069-26.28 11.383-40.731 13.394-6.378.915-13.27.412-19.698.137-7.765-.32-15.48-.777-23.194-1.508a276.951 276.951 0 01-26.074-3.84c-7.355-1.463-14.812-3.246-21.549-6.309-4.114-1.874-9.257-4.845-9.617-9.371-.463-6.08 7.303-10.88 12.034-14.034 8.28-5.44 17.435-9.966 26.692-13.898 3.703-1.554 7.457-3.017 11.366-4.16 5.09-1.508 10.542-1.782 15.89-1.737 12.96.138 26.435 2.515 38.83 5.989 12.034 3.383 21.702 11.108 32.502 16.64 7.046 3.611 14.709 6.034 22.937 6.309zm50.145.548c-6.069-.503-12.24-1.006-18.309-1.829-2.829-.365-5.554-.914-8.28-1.6-2.726-.685-5.554-1.691-8.331-2.148-.206-.046-.309.183-.155.274 1.852 1.189 4.526 1.966 6.686 2.651 2.88.915 5.863 1.51 8.846 2.15 5.914 1.325 11.828 2.148 17.845 2.65 6.223.55 12.549.823 18.772 1.143 5.657.275 11.674 1.006 17.331.549.463-.046.617-.594.103-.732-4.937-1.417-10.697-1.462-15.84-1.782-6.171-.412-12.446-.823-18.668-1.326z"/><path d="M101.108 24.96c-.309-.046-.412.274-.206.412 4.577 2.88 10.646 4.663 15.943 6.171 5.657 1.6 11.468 2.56 17.331 3.154.875.092.875-1.143 0-1.234-5.76-.64-11.417-1.646-16.971-3.154-5.452-1.509-10.594-4.114-16.097-5.349zM19.955 71.817c0-.182-.155-.457-.36-.548-5.812-2.286-12.292-2.834-18.515-3.749-6.737-.96-12.651-2.925-18.874-5.257-5.194-1.966-10.491-3.703-16.251-3.474-2.623.091-5.349.686-7.766 1.646-2.366.96-2.983 1.005-3.086 3.108 0 .274.155.594.463.686 10.44 4.434 21.96 3.703 33.12 5.211 8.897 1.235 16.869 5.257 25.92 5.806 5.554.32 11.212-.594 16.714-1.006 6.275-.457 12.6-.777 18.875-1.143 12.085-.64 24.428-1.462 36.257-3.885.308-.046.154-.457-.103-.412-16.509 3.017-33.223 3.337-49.989 4.206-5.914.32-11.982 1.143-17.948 1.189.257-.092.463-.183.72-.275.926-.503.72-1.097.823-2.103zm-24.223-2.24c-6.994-2.011-14.194-2.377-21.446-3.017-3.908-.32-7.817-.868-11.623-1.737-.463-.137-5.76-1.554-5.76-1.417 0-.366-.051-.731-.051-1.097 0 .137 3.291-1.097 3.651-1.189 7.149-2.377 14.452-.137 21.137 2.377 3.035 1.143 6.018 2.378 9.155 3.338C-5.4 67.977-1.388 68.572 2.52 69.12c4.166.549 8.332 1.052 12.395 2.012.874.182 1.697.457 2.52.685 1.131.32 1.131-.182 1.234.823.103 1.052-2.777 1.235-3.909 1.509-.565-.046-1.08-.046-1.645-.137-6.017-.503-11.675-2.789-17.383-4.435zm107.742 173.166c2.726 2.149 6.429 3.383 9.772 4.571 3.6 1.235 7.303 2.286 11.108 2.926 5.04.914 10.337 1.234 15.48 1.737 6.172.595 12.343.96 18.566.732 4.834-.183 9.72-.777 14.143-2.56.463-.183.566-.777.36-1.143-1.852-2.88-3.96-5.532-6.017-8.274-1.697-2.332-2.675-5.349-4.835-7.36.515-.046 1.029-.046 1.543-.092.463 0 .463-.594 0-.64-7.817-.091-15.377 1.554-23.194 1.783-7.869.229-15.686-.366-23.503 0-4.423.229-10.851.457-14.348 3.291-2.006 1.646-.669 3.795.925 5.029zm14.246-6.126c7.509-.411 15.069.137 22.577-.228 6.789-.32 13.372-2.24 20.109-2.926a.63.63 0 00.205.64c1.029.96 1.44 2.24 2.058 3.429.72 1.371 1.594 2.697 2.52 3.977 1.8 2.514 3.754 4.891 5.451 7.451-4.783 1.692-10.08 1.92-15.171 1.966-6.172.046-12.395-.503-18.515-1.143-8.948-.914-17.383-2.103-25.714-5.303-2.16-.823-6.84-2.331-7.508-4.663-.772-2.377 12.96-3.154 13.988-3.2zm-64.235-8.274c7.045.96 14.143 2.377 20.571 5.12 5.76 2.423 11.263 5.074 17.589 5.989.463.045.668-.549.205-.64-6.685-1.189-12.342-4.663-18.411-7.269-6.069-2.606-12.857-3.886-19.44-4.937-6.994-1.097-14.091-1.737-21.137-2.377-7.457-.686-14.606-.686-21.96.685-7.252 1.372-14.194 3.749-21.189 5.943-6.12 1.92-11.623 5.532-16.765 8.96-5.4 3.612-10.852 7.223-16.715 10.195-6.12 3.062-14.862 4.8-21.857 4.388-.771-.046-.72.96 0 1.006 6.943.64 13.269-.229 19.749-2.56 5.863-2.149 10.954-5.76 15.943-9.189 5.4-3.748 10.851-7.405 17.022-10.148 6.686-2.972 14.4-4.937 21.6-6.583 7.509-1.692 14.76-1.829 22.372-.96 7.509.823 14.966 1.371 22.423 2.377zm-76.267-18.834c7.148-.915 14.245-1.692 21.445-1.6 7.149.045 13.732 1.463 20.469 3.428.463.137.72-.457.308-.64-12.343-5.988-27.463-4.525-40.782-2.834-6.583.869-12.498 2.103-18.412 4.891-5.657 2.652-10.903 5.852-16.714 8.275-.36.137-.052.64.308.503 5.452-2.058 10.492-4.8 15.737-7.223 5.658-2.652 11.366-4.023 17.64-4.8zm216.308 21.074c-4.885.32-10.028-.32-14.708 1.28-2.88 1.006-5.092 3.886-5.452 6.537-.308 2.24 1.697 3.977 3.703 4.983 5.4 2.743 12.806 2.88 18.823 2.743 2.88-.046 5.863-.274 8.691-.869 4.783-.96 9.463-3.245 13.835-5.257 11.005-5.028 21.24-11.245 33.377-13.897 6.48-1.417 13.011-2.514 19.594-3.383 6.069-.777 12.24-1.234 18.257-2.148.669.091 1.337.228 2.006.32.514.091.771-.549.36-.732.36-.183.257-.777-.206-.731l-2.417.137c-12.137-2.789-24.068-6.263-36.668-6.994a68.245 68.245 0 00-19.286 1.691c-7.354 1.737-13.886 4.937-20.366 8.412-3.034 1.645-6.12 3.2-9.308 4.617-3.086 1.508-6.686 3.063-10.235 3.291zm36.566-12.754c18.36-5.897 37.131-1.143 55.491 2.103-5.194.503-10.337 1.188-15.48 1.874-7.405.96-14.862 2.103-22.114 3.931-13.166 3.292-24.377 10.378-36.72 15.315-3.908 1.554-7.56 2.697-11.828 3.063-3.909.32-7.818.274-11.726-.092-4.937-.457-16.354-2.514-10.389-8.686 2.366-2.468 6.789-2.285 10.132-2.377 4.114-.091 7.714-.045 11.674-1.234 11.057-3.337 20.006-10.377 30.96-13.897zM-85.372 120.32c5.76-.457 11.52-.503 17.28-.091 4.834.32 9.617 1.051 14.451 1.188 13.115 3.383 26.435 6.126 39.6 9.418 13.218 3.245 25.972 8.228 39.652 9.828 6.068.732 12.188.457 18.205-.686 6.583-1.234 13.012-3.702 19.39-5.622 11.982-3.612 24.068-7.269 35.433-12.252.103-.046.206-.137.309-.228a48.94 48.94 0 009.617 2.834c9.926 1.874 20.366 1.097 30.343-.137 11.006-1.326 21.909-3.337 32.966-4.252 5.76-.457 11.52-.503 17.28-.091 4.834.32 9.617 1.051 14.451 1.188 13.114 3.383 26.434 6.126 39.6 9.418 13.217 3.245 25.972 8.228 39.652 9.828 6.068.732 12.188.457 18.205-.686 6.583-1.234 13.012-3.702 19.389-5.622 11.983-3.612 24.068-7.269 35.434-12.252.103-.046.206-.137.309-.228a48.94 48.94 0 009.617 2.834c9.926 1.874 20.366 1.097 30.343-.137a283.7 283.7 0 009.051-1.235v-2.194c-1.748.274-3.548.503-5.297.732-10.749 1.462-21.857 2.56-32.657.868-4.114-.64-8.126-1.828-11.983-3.337-2.16-2.194-5.349-3.474-8.331-4.526-4.938-1.783-10.183-2.88-15.326-4.16-4.937-1.188-9.669-2.514-14.246-4.525-5.348-2.332-10.44-5.029-15.943-7.086-10.697-3.977-22.32-3.52-33.531-1.92-11.623 1.646-23.246 4.571-34.097 8.686-6.789 2.56-13.732 5.622-19.029 10.331-.566.503-.463 1.417.257 1.783 18.155 8.503 39.497 6.171 58.937 10.377 4.32.96 8.383 2.743 12.703 3.611 3.909.778 7.715.32 11.469-.731 5.194-1.463 10.234-3.703 15.274-5.531 5.452-1.92 11.006-3.612 16.714-4.8 1.235-.275 1.132-1.555.309-2.103-19.594-13.257-46.491-20.023-70.766-14.766-5.965 1.28-11.674 3.474-16.92 6.4-2.16 1.189-6.943 3.246-6.737 6.08.154 2.194 3.652 2.789 5.503 3.109 4.011.685 8.177.822 12.24 1.005 9.669.503 18.669 3.246 28.183 4.48 10.286 1.372 18.771-1.874 26.28-8.091.308-.274.463-.823.154-1.189-2.828-3.291-7.251-5.028-11.623-6.171-5.811-1.554-12.034-2.057-18.103-2.103-6.068-.046-12.188.457-18.051 1.829-2.777.64-10.491 2.331-10.491 5.531 0 .366.308.777.72.869 8.074 1.508 15.994 3.291 24.222 3.885 6.892.503 16.149.32 20.006-5.714.257-.411.103-.823-.308-1.097-6.995-4.252-15.326 1.691-22.835 1.28-.617-.046-1.131.686-.72 1.143 1.235 1.463 2.88 2.423 4.68 2.88-.72-.046-1.388-.092-2.057-.137-7.2-.595-14.194-2.286-21.24-3.749.72-.503 2.16-1.051 2.983-1.371 2.109-.823 4.371-1.372 6.634-1.829 5.349-1.097 10.903-1.509 16.406-1.554 5.554-.046 11.109.457 16.509 1.691 3.805.869 8.125 2.24 10.8 4.937-4.372 3.52-9.309 6.355-15.275 7.223-5.245.777-10.645-.32-15.737-1.326-5.246-1.051-10.491-2.24-15.891-2.742-4.217-.366-8.486-.503-12.703-.869-1.286-.091-8.434-.366-8.537-2.24-.052-1.234 2.623-2.56 3.497-3.063 2.674-1.6 5.503-2.971 8.434-4.16 12.034-4.891 25.817-5.44 38.726-3.657 13.68 1.874 26.948 6.72 38.263 13.806-9.566 2.331-18.515 6.08-27.772 9.28-4.011 1.371-8.074 1.965-12.343 1.143-4.422-.869-8.537-2.698-12.908-3.658-18.36-3.977-38.726-1.691-56.006-9.28 7.509-5.897 17.692-9.325 27-12.068 10.954-3.246 22.474-5.669 34.046-6.309 6.274-.365 12.548.137 18.566 1.829 5.811 1.646 11.108 4.434 16.508 6.903 9.412 4.297 19.543 5.851 29.469 8.823 1.028.32 2.108.64 3.24 1.005 2.16 1.28 4.32 2.469 6.583 3.52.102.092.154.183.257.229-10.852 4.663-22.32 8.091-33.686 11.52-6.12 1.828-12.189 4.023-18.463 5.44-6.531 1.463-13.32 1.463-19.954.594-6.223-.823-12.24-2.468-18.206-4.16-6.737-1.92-13.526-3.794-20.366-5.44-13.32-3.154-26.794-5.668-40.114-8.823-.257-.045-.514 0-.668.183-8.846-2.057-18.566-2.423-27.566-1.966-10.697.549-21.189 2.378-31.783 3.84-10.749 1.463-21.857 2.56-32.657.869-4.114-.64-8.126-1.829-11.983-3.337-2.16-2.194-5.349-3.474-8.331-4.526-4.938-1.783-10.183-2.88-15.326-4.16-4.937-1.188-9.669-2.514-14.246-4.526-5.349-2.331-10.44-5.028-15.943-7.085-10.697-3.977-22.32-3.52-33.531-1.92-11.623 1.645-23.246 4.571-34.097 8.685-6.789 2.56-13.732 5.623-19.029 10.332-.566.503-.463 1.417.257 1.783 18.154 8.503 39.497 6.171 58.937 10.377 4.32.96 8.383 2.743 12.703 3.611 3.909.777 7.715.32 11.469-.731 5.194-1.463 10.234-3.703 15.274-5.532 5.451-1.92 11.006-3.611 16.714-4.8 1.235-.274 1.132-1.554.309-2.102-19.594-13.258-46.492-20.023-70.766-14.766-5.965 1.28-11.674 3.474-16.92 6.4-2.16 1.188-6.943 3.246-6.737 6.08.154 2.194 3.651 2.788 5.503 3.108 4.011.686 8.177.823 12.24 1.006 9.669.503 18.669 3.246 28.183 4.48 10.285 1.372 18.771-1.874 26.28-8.091.308-.275.463-.823.154-1.189-2.829-3.291-7.251-5.028-11.623-6.171-5.811-1.555-12.034-2.057-18.103-2.103-6.068-.046-12.188.457-18.051 1.828-2.777.64-10.492 2.332-10.492 5.532 0 .366.31.777.72.868 8.075 1.509 15.995 3.292 24.223 3.886 6.892.503 16.149.32 20.006-5.714.257-.412.103-.823-.309-1.097-6.994-4.252-15.325 1.691-22.834 1.28-.617-.046-1.131.685-.72 1.143 1.235 1.462 2.88 2.422 4.68 2.88-.72-.046-1.388-.092-2.057-.138-7.2-.594-14.194-2.285-21.24-3.748.72-.503 2.16-1.052 2.983-1.372 2.109-.822 4.371-1.371 6.634-1.828 5.349-1.097 10.903-1.509 16.406-1.554 5.554-.046 11.109.457 16.509 1.691 3.805.869 8.125 2.24 10.8 4.937-4.372 3.52-9.31 6.354-15.275 7.223-5.245.777-10.646-.32-15.737-1.326-5.246-1.051-10.491-2.24-15.891-2.743-4.218-.365-8.486-.502-12.703-.868-1.286-.092-8.435-.366-8.537-2.24-.052-1.234 2.623-2.56 3.497-3.063 2.674-1.6 5.503-2.971 8.434-4.16 12.034-4.891 25.817-5.44 38.726-3.657 13.68 1.874 26.948 6.72 38.263 13.806-9.566 2.331-18.515 6.08-27.772 9.28-4.011 1.371-8.074 1.965-12.343 1.142-4.422-.868-8.537-2.697-12.908-3.657-18.36-3.977-38.726-1.691-56.006-9.28 7.509-5.897 17.692-9.325 27-12.068 10.954-3.246 22.474-5.669 34.046-6.309 6.274-.366 12.548.137 18.565 1.829 5.812 1.645 11.11 4.434 16.51 6.903 9.41 4.297 19.542 5.851 29.468 8.822 1.028.32 2.108.64 3.24 1.006 2.16 1.28 4.32 2.469 6.582 3.52.103.092.155.183.258.229-10.852 4.663-22.32 8.091-33.686 11.52-6.12 1.828-12.189 4.023-18.463 5.44-6.531 1.463-13.32 1.463-19.954.594-6.223-.823-12.24-2.469-18.206-4.16-6.737-1.92-13.526-3.794-20.366-5.44-13.32-3.154-26.794-5.669-40.114-8.823-.257-.046-.514 0-.669.183-8.845-2.057-18.565-2.423-27.565-1.966-5.4.275-10.8.869-16.149 1.6v2.195c4.783-.32 9.309-.869 13.886-1.235zm359.126-4.525c2.931-.138 5.76-.869 8.537-1.6 3.497-.915 7.251-1.875 10.594-.275-2.006 2.606-5.246 3.795-8.794 4.252 1.234-.32 2.417-.686 3.497-1.143.669-.274.411-1.097-.206-1.28-4.217-1.326-8.588-.686-12.651.686-.309-.229-.669-.412-.977-.64zm10.903.731c-2.366.686-5.143 1.051-7.612.594 2.52-.64 5.04-.96 7.612-.594zm-268.046-.731c2.931-.138 5.76-.869 8.537-1.6 3.497-.915 7.251-1.875 10.594-.275-2.005 2.606-5.245 3.795-8.794 4.252 1.234-.32 2.417-.686 3.497-1.143.669-.274.412-1.097-.206-1.28-4.217-1.326-8.588-.686-12.651.686-.309-.229-.669-.412-.977-.64zm10.903.731c-2.366.686-5.143 1.051-7.612.594 2.52-.64 5.04-.96 7.612-.594zM-86.4 146.423c7.25.32 14.194 1.737 21.085 3.657 5.657 2.24 11.829 3.611 17.794 4.937.772.183 1.595.366 2.366.503.977.229 1.954.503 2.931.731a.97.97 0 00.515 0c5.4 1.143 10.8 2.24 16.148 3.475 13.835 3.154 27.823 5.303 42.12 5.805 14.143.503 28.543-.64 42.172-4.114 7.663-1.966 15.171-4.434 22.834-6.308a352.255 352.255 0 0123.76-4.938c21.6-3.748 43.406-4.754 65.366-3.794 7.251.32 14.194 1.737 21.085 3.657 5.658 2.24 11.829 3.612 17.795 4.937a43.32 43.32 0 002.365.503c.978.229 1.955.503 2.932.732a.99.99 0 00.514 0c5.4 1.143 10.749 2.24 16.149 3.474 13.834 3.154 27.823 5.303 42.12 5.806 14.143.503 28.543-.64 42.171-4.115 7.663-1.965 15.172-4.434 22.834-6.308a351.734 351.734 0 0123.76-4.937c14.092-2.423 28.235-3.703 42.48-4.023v-1.783c-2.314.137-4.68.274-6.994.457-15.943 1.006-31.783 3.017-47.366 6.309-7.92 1.645-15.788 3.657-23.502 5.851-7.098 2.012-13.989 4.252-21.292 5.532-19.286 3.474-39.754 2.788-58.834-1.143-4.423-.915-8.64-2.423-13.012-3.429-4.937-1.143-9.874-2.057-14.862-2.971-2.726-.503-5.4-1.052-8.075-1.6-8.383-2.606-16.663-5.486-25.251-7.406-14.554-3.246-30.086-2.011-44.897-1.097-15.943 1.006-31.783 3.017-47.366 6.308-7.92 1.646-15.788 3.658-23.503 5.852-7.097 2.011-13.988 4.251-21.291 5.531-19.286 3.475-39.755 2.789-58.835-1.143-4.422-.914-8.64-2.422-13.01-3.428-4.938-1.143-9.875-2.057-14.864-2.972-2.725-.502-5.4-1.051-8.074-1.6-8.383-2.605-16.663-5.485-25.252-7.405-8.948-2.012-18.308-2.286-27.617-2.012v2.195c4.166-.046 8.383.091 12.6.274zm-9.361-65.326c9.462-.228 19.234.183 28.44 2.24a147.157 147.157 0 0018.308 5.029c1.543.365 3.086.686 4.68.914 2.623.457 5.194.914 7.817 1.234 6.326.869 12.549 1.235 18.875.092 7.148-1.326 13.885-3.932 20.931-5.532 8.023-1.828 16.92-1.28 25.097-.914 8.333.366 16.613 1.143 24.943 1.19 16.612.091 33.12-2.24 49.732-2.652 9.411-.228 18.822-.091 28.285-.32 10.029-.228 20.057-1.051 30.086-1.28 9.463-.228 19.234.183 28.44 2.24a147.163 147.163 0 0018.309 5.029 52.33 52.33 0 004.68.914c2.622.457 5.194.914 7.817 1.234 6.325.869 12.548 1.235 18.874.092 7.149-1.326 13.886-3.932 20.931-5.532 8.023-1.828 16.92-1.28 25.098-.914 8.331.366 16.611 1.143 24.942 1.189 16.612.091 33.12-2.24 49.732-2.652 9.411-.228 18.823-.091 28.286-.32 5.502-.137 11.057-.457 16.56-.731v-2.012c-7.766.458-15.48 1.052-23.246 1.28-7.817.183-15.686.183-23.503.366-8.28.229-16.509 1.052-24.789 1.417-16.765.686-33.274-.457-49.988-1.097-9.412-.32-18.874-.183-27.926 2.286-8.486 2.331-16.817 5.714-25.868 5.668-4.012 0-8.075-.365-12.138-.914-.102-.274-.411-.457-.771-.503-7.611-.64-14.709-3.428-21.857-5.623-7.097-2.148-14.657-3.017-22.166-3.382-16.046-.732-32.091 1.371-48.086 1.782-7.817.183-15.685.183-23.502.366-8.28.229-16.509 1.052-24.789 1.417-16.766.686-33.274-.457-49.989-1.097-9.411-.32-18.874-.183-27.925 2.286-8.486 2.331-16.818 5.714-25.869 5.668-4.011 0-8.074-.365-12.137-.914-.103-.274-.411-.457-.771-.503-7.612-.64-14.709-3.428-21.858-5.623-7.097-2.148-14.657-3.017-22.165-3.382-4.835-.229-9.72-.183-14.555 0v2.057a59.077 59.077 0 013.035-.092z"/><path d="M-63.618 230.583c-4.886.32-10.029-.32-14.709 1.28-2.88 1.006-5.091 3.886-5.451 6.537-.309 2.24 1.697 3.977 3.703 4.983 5.4 2.743 12.805 2.88 18.823 2.743 2.88-.046 5.862-.274 8.691-.869 4.783-.96 9.463-3.245 13.834-5.257 11.006-5.028 21.24-11.245 33.377-13.897 6.48-1.417 13.012-2.514 19.595-3.383 6.068-.777 12.24-1.234 18.257-2.148.668.091 1.337.228 2.005.32.515.091.772-.549.36-.732.36-.183.258-.777-.205-.731l-2.417.137c-12.137-2.789-24.069-6.263-36.669-6.994a68.244 68.244 0 00-19.286 1.691c-7.354 1.737-13.885 4.937-20.365 8.412-3.035 1.645-6.12 3.2-9.309 4.617-3.086 1.508-6.686 3.063-10.234 3.291zm36.566-12.754c18.36-5.897 37.13-1.143 55.49 2.103-5.193.503-10.336 1.188-15.48 1.874-7.405.96-14.862 2.103-22.113 3.931-13.166 3.292-24.377 10.378-36.72 15.315-3.909 1.554-7.56 2.697-11.829 3.063-3.908.32-7.817.274-11.726-.092-4.937-.457-16.354-2.514-10.388-8.686 2.365-2.468 6.788-2.285 10.131-2.377 4.114-.091 7.715-.045 11.674-1.234 11.058-3.337 20.006-10.377 30.96-13.897zM325.285 19.154c-5.503-2.788-11.572-4.617-17.795-5.623-24.531-3.977-51.583 5.99-68.657 21.623-2.726 2.515-5.863 6.172-4.166 9.829 1.543 3.337 6.172 4.937 9.669 6.126 13.269 4.663 27.617 7.588 41.657 9.371 7.252.914 14.606 1.554 21.909 1.234 7.405-.274 14.657-1.691 21.805-3.337 6.84-1.6 13.629-3.245 20.263-5.44 6.377-2.103 12.703-4.48 19.235-6.171 3.394-.869 6.942-1.509 10.491-1.6.566 0 1.029-.412 1.029-.914v-.686a.93.93 0 00-.515-.777c-3.137-1.235-6.171-1.326-9.411-.823a57.274 57.274 0 01-13.732-3.749c-5.451-2.24-10.44-5.394-15.274-8.548-5.4-3.475-10.594-7.497-16.508-10.515zm18.822 15.04c4.578 2.835 9.412 5.303 14.658 7.04 3.291 1.098 6.737 1.692 10.234 1.966.154.274.463.549.926.457 1.8-.228 3.6-.365 5.451-.228.411.045.771.091 1.131.183-11.674.96-22.577 6.582-33.634 9.6-14.657 4.022-29.726 7.405-45.206 6.491-15.171-.869-29.777-3.794-44.28-7.726-5.194-1.417-11.52-2.651-15.634-6.034-4.577-3.794 1.852-8.914 4.989-11.383 18.308-14.4 44.794-23.269 69.12-17.509 12.548 2.972 21.908 10.698 32.245 17.143z"/><path d="M298.235 18.377c-9.771.64-19.029 4.983-27.977 8.32-4.526 1.692-9 3.475-13.114 5.852-2.418 1.417-5.606 3.52-5.812 6.308-.514 6.355 7.149 9.189 12.806 10.652 8.023 2.057 16.56 2.514 24.891 2.971 8.64.457 17.126 1.417 25.817 1.417 11.315 0 23.195-.868 33.892-4.343 2.983-.96 5.811-2.194 8.383-3.794.565-.366.617-1.097 0-1.417a2.777 2.777 0 01-.463-.32c.36-.046.617-.503.206-.686-.618-.32-1.235-.594-1.852-.914-.514-.549-1.028-1.097-1.748-1.463-.36-.183-.669-.137-.926.046-17.074-9.417-32.812-24-54.103-22.629zm45.874 21.806c.257.274.463.503.669.777 0 .137.051.229.103.366-9.515 5.074-21.549 3.886-32.297 2.971 4.268-.32 8.588-.594 12.908-.777a260.56 260.56 0 015.966-.183c1.594-.046 2.314.183 3.394-.868.72-.732.874-1.418.617-2.058.052-.137.052-.274-.103-.41-8.64-7.727-20.417-15.27-33.377-13.44-6.274.868-11.005 3.93-15.788 7.45-2.417 1.783-6.017 4.16-6.789 7.086-.566 2.149 1.08 3.383 3.754 4.023a50.25 50.25 0 01-5.245-.137c-3.189-.274-9.823-1.691-8.743-5.714.823-3.109 5.143-5.349 7.92-6.858 4.063-2.24 8.537-3.885 13.011-5.302 4.012-1.28 8.126-2.332 12.446-2.377 8.434 0 16.457 3.885 23.657 7.314 3.549 1.691 7.046 3.474 10.697 5.074a98.547 98.547 0 005.143 2.057c.72.366 1.492.412 2.057 1.006zm-12.137-1.646a.747.747 0 00-.051.732c.257.457.565.823.977 1.234 1.08 1.051-2.88.823-3.446.823a231.9 231.9 0 00-9.823.365c-1.028.046-2.005.138-3.034.183 2.931-.868 5.709-2.011 8.177-3.52.412-.274.669-.777.514-1.188.258-.183.258-.594-.051-.732-.514-.182-.977-.365-1.491-.548-.72-.503-1.44-1.006-2.058-1.646-.514-.549-1.234-.091-1.285.457-1.903-.64-3.857-1.234-5.76-1.92-2.726-.914-5.452-1.737-8.383-1.828-7.56-.32-13.834 5.988-18.463 10.468-.566.549-.463 1.417.257 1.783a28.018 28.018 0 01-2.828-.274c-1.8-.229-4.012-.503-2.726-2.377 1.646-2.469 4.731-4.389 7.2-6.126 4.423-3.2 9-5.532 14.811-5.897 9.875-.457 19.749 4.571 27.463 10.011zm-17.383-3.657c2.315.686 4.68 1.371 7.097 1.829.206.228.463.411.72.64-3.96 2.057-8.588 3.2-13.114 3.931 1.234-.594 2.366-1.371 3.343-2.468.411-.458.411-1.143-.206-1.463-.257-.137-.514-.183-.823-.229a.546.546 0 00-.514-.868c-4.68.457-8.794.96-12.343 3.977-.617.502-.308 1.462.515 1.645.565.137 1.182.275 1.748.366-3.291.183-6.686.046-9.874-.594 4.114-3.977 9.206-8.595 15.531-8.457 2.675.091 5.349 1.005 7.92 1.691zm-4.628 3.703c-2.315 1.737-4.989 2.286-7.92 1.874 1.903-1.143 4.165-1.92 6.428-2.468.412.411.926.503 1.492.594zm30.188-2.651c-2.057-.96-4.114-1.875-6.12-2.88-5.863-2.835-11.623-5.76-17.845-8-5.658-2.012-11.675-3.109-17.743-2.332-3.806.457-7.56 1.737-11.109 3.017-4.268 1.509-8.486 3.292-12.343 5.486-2.88 1.646-6.068 3.703-7.56 6.491-1.285 2.378-.411 4.709 1.697 6.4 3.549 2.835 8.949 2.926 13.423 2.698 4.063-.183 8.075-.778 12.137-1.19 2.212-.136 4.166-.319 5.452-.41 4.937-.092 10.028 1.051 14.914 1.645 10.337 1.235 23.092 1.692 31.269-4.937.205-.046.411-.183.565-.366 0 0 0-.045.052-.045.051-.046.103-.138.103-.183.257-.275.103-.64-.155-.777-.257-.549-.617-1.006-.977-1.417a161.278 161.278 0 006.377 3.154l.052.045c1.131.686 1.851 1.783 2.777 2.652-8.949 5.12-20.623 6.354-30.96 6.949-5.811.32-11.674.32-17.486.09-4.371-.182-8.64-.776-13.011-1.05-7.817-.503-15.686-.778-23.4-2.058-5.555-.914-17.023-2.88-16.612-9.691.155-2.697 4.938-4.754 7.149-5.852 4.063-2.057 8.434-3.702 12.703-5.257 8.64-3.2 17.228-7.085 26.743-7.405 10.285-.366 19.697 3.748 28.183 8.503 3.96 2.148 7.817 4.48 11.725 6.72zM337.165.64c-14.709-3.063-25.2-12.709-38.263-18.743-2.057-.96-4.217-1.691-6.377-2.331 6.531 1.188 13.063 2.423 19.44 4.343 9.154 2.788 16.971 8.045 25.92 11.2 8.074 2.834 16.869 2.651 25.406 2.514.36 0 .36-.457 0-.503-8.897-.183-17.486-1.28-25.663-4.526-4.269-1.691-8.126-4.068-12.292-5.988-4.525-2.103-9.668-3.429-14.554-4.709-9.874-2.651-19.954-3.794-30.034-5.577-4.063-.731-8.177-1.829-12.292-2.788-3.291-1.052-6.582-1.966-10.08-2.606-4.628-.823-9.411-.96-14.142-.64-18.309 1.188-35.795 9.783-50.966 18.514-20.263 7.726-43.406 8.549-65.16 11.109-15.892 1.874-32.246 4.068-48.137.777-14.709-3.063-25.2-12.709-38.263-18.743-2.057-.96-4.217-1.692-6.377-2.332 6.531 1.189 13.063 2.423 19.44 4.343C63.925-13.257 71.742-8 80.69-4.846c8.074 2.835 16.868 2.652 25.405 2.515.361 0 .361-.458 0-.503-8.897-.183-17.485-1.28-25.662-4.526-4.269-1.691-8.126-4.068-12.292-5.988-4.525-2.103-9.668-3.43-14.554-4.71-9.874-2.65-19.954-3.793-30.034-5.576-4.063-.732-8.177-1.829-12.292-2.789-3.291-1.051-6.583-1.966-10.08-2.606-4.628-.822-9.411-.96-14.143-.64-18.308 1.189-35.794 9.783-50.965 18.515-11.109 4.205-23.04 6.4-35.177 7.908v2.652c1.131-.092 2.262-.229 3.394-.366 9.411-1.189 18.103-3.657 26.897-6.72a71.361 71.361 0 0013.577-6.309c10.132-4.8 20.263-9.645 31.474-12.297 5.4-1.28 11.006-1.92 16.56-1.782 2.88.228 5.709.502 8.538.868 6.48 1.326 12.342 4.252 18.822 5.806 7.046 1.691 14.349 2.697 20.932 5.623 6.377 2.834 12.034 6.628 18 10.102 6.068 3.52 12.394 6.126 19.44 7.635 7.508 1.6 15.274 1.92 22.988 1.691 10.492-.366 20.829-1.92 31.269-2.788 9.566-.778 19.08-.686 28.646-1.875 9.411-1.188 18.103-3.657 26.897-6.72a71.364 71.364 0 0013.577-6.308c10.131-4.8 20.263-9.646 31.474-12.297 5.4-1.28 11.006-1.92 16.56-1.783 2.88.228 5.709.503 8.537.868 6.48 1.326 12.343 4.252 18.823 5.806 7.046 1.692 14.349 2.697 20.932 5.623 6.377 2.834 12.034 6.628 18 10.103 6.068 3.52 12.394 6.125 19.44 7.634 7.508 1.6 15.274 1.92 22.988 1.691 10.492-.365 20.829-1.92 31.269-2.788C394.919.41 399.908.274 404.896 0v-2.194c-6.634.685-13.217 1.28-19.697 2.057-15.84 1.874-32.143 4.114-48.034.777zm23.451 13.531c2.726 2.15 6.429 3.383 9.772 4.572 3.6 1.234 7.303 2.286 11.108 2.926 5.04.914 10.338 1.234 15.48 1.737 2.675.274 5.349.457 8.075.594v-1.828c-3.652-.183-7.303-.549-10.955-.915-8.948-.914-17.382-2.103-25.714-5.303-2.16-.822-6.84-2.331-7.508-4.662-.72-2.423 13.062-3.2 14.04-3.246 7.508-.412 15.068.137 22.577-.229 2.52-.137 5.04-.457 7.508-.868V5.303c-2.52.274-4.988.503-7.508.549-7.869.228-15.686-.366-23.503 0-4.423.228-10.852.457-14.349 3.291-1.954 1.646-.617 3.794.977 5.028z"/><path d="M310.629-.228c7.046.96 14.143 2.377 20.572 5.12 5.76 2.423 11.263 5.074 17.588 5.988.463.046.669-.548.206-.64-6.686-1.188-12.343-4.663-18.411-7.268-6.069-2.606-12.858-3.886-19.44-4.937-6.995-1.098-14.092-1.738-21.138-2.378-7.457-.685-14.605-.685-21.96.686-7.251 1.372-14.194 3.749-21.188 5.943-6.12 1.92-11.623 5.531-16.766 8.96-5.4 3.611-10.851 7.223-16.714 10.194-6.12 3.063-14.863 4.8-21.857 4.389-.772-.046-.72.96 0 1.006 6.943.64 13.268-.229 19.748-2.56 5.863-2.149 10.955-5.76 15.943-9.189 5.4-3.749 10.852-7.406 17.023-10.149 6.686-2.971 14.4-4.937 21.6-6.582 7.509-1.692 14.76-1.829 22.371-.96 7.509.822 14.966 1.371 22.423 2.377zM68.142 19.154c-5.503-2.788-11.571-4.617-17.794-5.623-24.532-3.977-51.583 5.99-68.657 21.623-2.726 2.515-5.863 6.172-4.166 9.829 1.543 3.337 6.171 4.937 9.669 6.126C.462 55.772 14.81 58.697 28.85 60.48c7.251.914 14.605 1.554 21.908 1.234 7.406-.274 14.657-1.691 21.806-3.337 6.84-1.6 13.629-3.245 20.263-5.44 6.377-2.103 12.703-4.48 19.234-6.171 3.394-.869 6.943-1.509 10.491-1.6.566 0 1.029-.412 1.029-.914v-.686a.93.93 0 00-.514-.777c-3.137-1.235-6.172-1.326-9.412-.823a57.28 57.28 0 01-13.731-3.749c-5.451-2.24-10.44-5.394-15.274-8.548-5.4-3.475-10.595-7.497-16.509-10.515zm18.823 15.04c4.577 2.835 9.411 5.303 14.657 7.04 3.291 1.098 6.737 1.692 10.234 1.966.155.274.463.549.926.457 1.8-.228 3.6-.365 5.451-.228.412.045.772.091 1.132.183-11.674.96-22.577 6.582-33.634 9.6-14.657 4.022-29.726 7.405-45.206 6.491-15.171-.869-29.777-3.794-44.28-7.726-5.194-1.417-11.52-2.651-15.634-6.034-4.578-3.794 1.851-8.914 4.988-11.383 18.309-14.4 44.794-23.269 69.12-17.509 12.549 2.972 21.909 10.698 32.246 17.143z"/><path d="M41.09 18.377c-9.771.64-19.028 4.983-27.977 8.32-4.525 1.692-9 3.475-13.114 5.852-2.417 1.417-5.606 3.52-5.811 6.308-.515 6.355 7.148 9.189 12.805 10.652 8.023 2.057 16.56 2.514 24.892 2.971 8.64.457 17.125 1.417 25.817 1.417 11.314 0 23.194-.868 33.891-4.343 2.983-.96 5.812-2.194 8.383-3.794.566-.366.617-1.097 0-1.417-.154-.092-.308-.183-.463-.32.36-.046.617-.503.206-.686-.617-.32-1.234-.594-1.851-.914-.515-.549-1.029-1.097-1.749-1.463-.36-.183-.669-.137-.926.046-17.074-9.417-32.811-24-54.103-22.629zm45.875 21.806c.257.274.463.503.668.777 0 .137.052.229.103.366-9.514 5.074-21.549 3.886-32.297 2.971a398.75 398.75 0 0112.909-.777c2.005-.091 3.96-.137 5.965-.183 1.595-.046 2.314.183 3.394-.868.72-.732.875-1.418.618-2.058.051-.137.051-.274-.103-.41-8.64-7.727-20.417-15.27-33.377-13.44-6.275.868-11.006 3.93-15.789 7.45-2.417 1.783-6.017 4.16-6.789 7.086-.565 2.149 1.08 3.383 3.755 4.023-1.749.046-3.497 0-5.246-.137-3.188-.274-9.823-1.691-8.743-5.714.823-3.109 5.143-5.349 7.92-6.858 4.063-2.24 8.537-3.885 13.012-5.302 4.011-1.28 8.125-2.332 12.445-2.377 8.435 0 16.458 3.885 23.657 7.314 3.55 1.691 7.046 3.474 10.698 5.074a98.399 98.399 0 005.142 2.057c.72.366 1.492.412 2.058 1.006zm-12.137-1.646a.747.747 0 00-.052.732c.257.457.566.823.977 1.234 1.08 1.051-2.88.823-3.445.823a232.01 232.01 0 00-9.823.365c-1.029.046-2.006.138-3.035.183 2.932-.868 5.709-2.011 8.178-3.52.411-.274.668-.777.514-1.188.257-.183.257-.594-.052-.732-.514-.182-.977-.365-1.491-.548-.72-.503-1.44-1.006-2.057-1.646-.514-.549-1.234-.091-1.286.457-1.903-.64-3.857-1.234-5.76-1.92-2.726-.914-5.451-1.737-8.383-1.828-7.56-.32-13.834 5.988-18.463 10.468-.565.549-.462 1.417.258 1.783a28.045 28.045 0 01-2.829-.274c-1.8-.229-4.012-.503-2.726-2.377 1.646-2.469 4.732-4.389 7.2-6.126 4.423-3.2 9-5.532 14.812-5.897 9.874-.457 19.748 4.571 27.463 10.011zM57.445 34.88c2.314.686 4.68 1.371 7.097 1.829.206.228.463.411.72.64-3.96 2.057-8.589 3.2-13.114 3.931 1.234-.594 2.365-1.371 3.342-2.468.412-.458.412-1.143-.205-1.463-.257-.137-.515-.183-.823-.229a.547.547 0 00-.514-.868c-4.68.457-8.795.96-12.343 3.977-.617.502-.309 1.462.514 1.645a23.73 23.73 0 001.748.366c-3.29.183-6.685.046-9.874-.594 4.114-3.977 9.206-8.595 15.532-8.457 2.674.091 5.348 1.005 7.92 1.691zm-4.629 3.703c-2.314 1.737-4.989 2.286-7.92 1.874 1.903-1.143 4.166-1.92 6.429-2.468.411.411.925.503 1.491.594zm30.189-2.651c-2.057-.96-4.115-1.875-6.12-2.88-5.863-2.835-11.623-5.76-17.846-8-5.657-2.012-11.674-3.109-17.743-2.332-3.806.457-7.56 1.737-11.108 3.017-4.269 1.509-8.486 3.292-12.343 5.486-2.88 1.646-6.069 3.703-7.56 6.491-1.286 2.378-.412 4.709 1.697 6.4 3.548 2.835 8.948 2.926 13.423 2.698 4.063-.183 8.074-.778 12.137-1.19 2.211-.136 4.166-.319 5.451-.41 4.937-.092 10.029 1.051 14.914 1.645C68.245 48.092 81 48.55 89.177 41.92c.205-.046.41-.183.565-.366 0 0 0-.045.051-.045.052-.046.103-.138.103-.183.257-.275.103-.64-.154-.777-.257-.549-.617-1.006-.977-1.417a161.009 161.009 0 006.377 3.154l.051.045c1.132.686 1.852 1.783 2.777 2.652-8.948 5.12-20.623 6.354-30.96 6.949-5.811.32-11.674.32-17.485.09-4.372-.182-8.64-.776-13.012-1.05-7.817-.503-15.685-.778-23.4-2.058C7.56 48-3.91 46.034-3.498 39.223c.154-2.697 4.937-4.754 7.148-5.852 4.063-2.057 8.435-3.702 12.703-5.257 8.64-3.2 17.229-7.085 26.743-7.405 10.286-.366 19.697 3.748 28.183 8.503 3.96 2.148 7.817 4.48 11.726 6.72zm20.469-21.761c2.726 2.149 6.429 3.383 9.772 4.572 3.6 1.234 7.303 2.286 11.108 2.926 5.04.914 10.337 1.234 15.48 1.737 6.172.594 12.343.96 18.566.731 4.834-.183 9.72-.777 14.143-2.56.463-.183.566-.777.36-1.143-1.852-2.88-3.96-5.531-6.017-8.274-1.697-2.331-2.675-5.349-4.835-7.36.515-.046 1.029-.046 1.543-.091.463 0 .463-.595 0-.64-7.817-.092-15.377 1.554-23.194 1.782-7.869.229-15.686-.365-23.503 0-4.423.229-10.851.458-14.348 3.292-2.006 1.646-.669 3.794.925 5.028zm14.246-6.125c7.509-.412 15.069.137 22.577-.229 6.789-.32 13.372-2.24 20.109-2.926a.63.63 0 00.205.64c1.029.96 1.44 2.24 2.058 3.429.72 1.371 1.594 2.697 2.52 3.977 1.8 2.514 3.754 4.892 5.451 7.452-4.783 1.691-10.08 1.92-15.171 1.965-6.172.046-12.395-.502-18.515-1.142-8.948-.915-17.383-2.103-25.714-5.303-2.16-.823-6.84-2.332-7.508-4.663-.772-2.377 12.96-3.155 13.988-3.2zM53.485-.228c7.045.96 14.143 2.377 20.571 5.12 5.76 2.423 11.263 5.074 17.589 5.988.463.046.668-.548.205-.64-6.685-1.188-12.342-4.663-18.411-7.268C67.37.366 60.582-.914 53.999-1.965c-6.994-1.098-14.091-1.738-21.137-2.378-7.457-.685-14.606-.685-21.96.686C3.65-2.285-3.292.092-10.287 2.286c-6.12 1.92-11.623 5.531-16.765 8.96-5.4 3.611-10.852 7.223-16.715 10.194-6.12 3.063-14.862 4.8-21.857 4.389-.771-.046-.72.96 0 1.006 6.943.64 13.269-.229 19.749-2.56 5.863-2.149 10.954-5.76 15.943-9.189 5.4-3.749 10.851-7.406 17.022-10.149C-6.224 1.966 1.49 0 8.69-1.645c7.509-1.692 14.76-1.829 22.372-.96 7.509.822 14.966 1.371 22.423 2.377zm140.041 2.24c-4.885.32-10.028-.32-14.708 1.28-2.88 1.005-5.092 3.885-5.452 6.537-.308 2.24 1.697 3.977 3.703 4.983 5.4 2.742 12.806 2.88 18.823 2.742 2.88-.045 5.863-.274 8.691-.868 4.783-.96 9.463-3.246 13.835-5.257C229.423 6.4 239.658.183 251.795-2.468c6.48-1.418 13.011-2.515 19.594-3.383 6.069-.777 12.24-1.235 18.257-2.149.669.092 1.337.229 2.006.32.514.092.771-.548.36-.731.36-.183.257-.777-.206-.732-.823.046-1.594.092-2.417.137-12.137-2.788-24.068-6.262-36.668-6.994a68.26 68.26 0 00-19.286 1.692c-7.354 1.737-13.886 4.937-20.366 8.411-3.034 1.646-6.12 3.2-9.308 4.617-3.086 1.509-6.686 3.063-10.235 3.292zm36.566-12.755c18.36-5.897 37.131-1.143 55.491 2.103-5.194.503-10.337 1.189-15.48 1.874-7.405.96-14.862 2.103-22.114 3.932-13.166 3.291-24.377 10.377-36.72 15.314-3.908 1.554-7.56 2.697-11.828 3.063-3.909.32-7.818.274-11.726-.091-4.937-.458-16.354-2.515-10.389-8.686 2.366-2.469 6.789-2.286 10.132-2.377 4.114-.092 7.714-.046 11.674-1.235 11.057-3.337 20.006-10.377 30.96-13.897z"/><path d="M-63.618 2.012c-4.886.32-10.029-.32-14.709 1.28-2.88 1.005-5.091 3.885-5.451 6.537-.309 2.24 1.697 3.977 3.703 4.983 5.4 2.742 12.805 2.88 18.823 2.742 2.88-.045 5.862-.274 8.691-.868 4.783-.96 9.463-3.246 13.834-5.257C-27.72 6.4-17.487.183-5.35-2.468 1.13-3.886 7.662-4.983 14.245-5.851 20.313-6.628 26.485-7.086 32.502-8c.668.092 1.337.229 2.005.32.515.092.772-.548.36-.731.36-.183.258-.777-.205-.732-.823.046-1.594.092-2.417.137C20.108-11.794 8.176-15.268-4.424-16a68.259 68.259 0 00-19.286 1.692c-7.354 1.737-13.885 4.937-20.365 8.411-3.035 1.646-6.12 3.2-9.309 4.617C-56.47.23-60.07 1.783-63.618 2.012zm36.566-12.755c18.36-5.897 37.13-1.143 55.49 2.103-5.193.503-10.336 1.189-15.48 1.874-7.405.96-14.862 2.103-22.113 3.932C-22.321.457-33.532 7.543-45.875 12.48c-3.909 1.554-7.56 2.697-11.829 3.063-3.908.32-7.817.274-11.726-.091-4.937-.458-16.354-2.515-10.388-8.686 2.365-2.469 6.788-2.286 10.131-2.377 4.114-.092 7.715-.046 11.674-1.235 11.058-3.337 20.006-10.377 30.96-13.897z"/></g><defs><clipPath id="clip0"><path fill="#fff" transform="rotate(90 202.5 202.5)" d="M0 0h304v405H0z"/></clipPath></defs></svg>