<svg width="304" height="445" fill="none" xmlns="http://www.w3.org/2000/svg"><g opacity=".8" clip-path="url(#clip0)" fill="#fff"><path d="M281.417 171.688c-.503 0-.96.182-1.326.455-.137-.182-.502-.182-.64.136-.137.318-.228.681-.365.999-.686 1.18-1.052 2.724-1.28 3.723-.046.091 0 .182 0 .273-4.206 14.803-4.069 31.422-.595 46.18 2.012 8.491 6.446 16.12 9.783 24.112 1.555 3.723 1.966 7.401 2.697 11.352.595 3.042 1.92 5.948 4.709 7.492.411.227 1.097.045 1.189-.5 4.114-23.203-6.766-45.499-8.092-68.43-.274-4.359.183-8.809-.366-13.123a32.611 32.611 0 00-2.285-8.582c-.503-1.407-1.6-4.132-3.429-4.087zm3.84 9.899c.732 3.134.686 6.176.686 9.355 0 4.904.091 9.762.64 14.621 2.24 19.662 10.788 38.506 7.726 58.577-2.195-2.225-2.606-5.54-3.018-8.583a40.625 40.625 0 00-2.88-10.625c-3.108-7.629-7.131-14.803-9.051-22.84-1.92-8.038-2.423-16.484-2.423-24.702 0-6.63.549-13.305 1.92-19.844a.945.945 0 00.137-.227c.549-1.725 1.692-5.903 3.612-2.997 1.463 2.089 2.103 4.813 2.651 7.265zM244.023 67.93c-2.057 4.996-3.2 10.4-4.343 15.667-2.377 10.898-4.205 22.84-1.691 33.829 1.6 7.038 5.486 13.895 8.914 20.206 4.16 7.72 8.777 15.439 14.629 21.978 3.291 3.678 7.634 7.356 12.983 6.402 4.434-.771 7.451-5.04 9.462-8.672 3.109-5.677 4.892-12.124 6.355-18.391 1.737-7.401 2.834-14.984 3.748-22.522 1.417-11.897 2.469-23.794 2.789-35.737.366-13.486-7.452-25.7-12.252-37.825-2.422-6.13-4.068-12.578-6.034-18.89-2.103-6.81-4.023-13.667-4.434-20.796a.484.484 0 00-.823-.318c-.32-.545-.731-.999-1.28-.727-1.829.909-2.149 1.953-2.926 3.86-1.051 2.588-2.057 5.313-2.468 8.083-.457 3.133-.503 6.312-.686 9.445-.686 11.533-7.817 21.069-13.989 30.332-3.062 4.496-5.851 9.082-7.954 14.077zm24.183-45.18c.137-4.178-.274-8.355.823-12.442a76.367 76.367 0 011.691-5.494c.503-1.317.412-1.227 1.417-1.726.275-.136.686.908.96 1.498-.045 5.676 1.098 11.443 2.378 16.938 1.462 6.13 3.108 12.35 5.12 18.345 4.068 12.124 11.382 23.203 13.394 35.963.914 5.63.411 11.715.137 17.391-.32 6.857-.777 13.668-1.509 20.479a217.544 217.544 0 01-3.84 23.022c-1.462 6.494-3.245 13.078-6.308 19.026-1.874 3.633-4.846 8.174-9.372 8.492-6.08.408-10.88-6.448-14.034-10.626-5.44-7.311-9.966-15.393-13.897-23.567-1.554-3.269-3.017-6.584-4.16-10.035-1.509-4.495-1.783-9.309-1.737-14.031.137-11.443 2.514-23.34 5.988-34.283 3.383-10.626 11.109-19.163 16.64-28.698 3.612-6.221 6.035-12.987 6.309-20.252z"/><path d="M304.457 86.865c-.091 10.717.686 21.388 1.28 32.104.503 9.263 1.326 19.071-.457 28.198-1.417 7.22-4.16 14.168-6.263 21.252-4.023 7.991-4.8 17.527-4.48 26.291.366 10.852 2.469 21.523 4.617 32.103a282.398 282.398 0 015.394 43.365c.686 14.576.092 29.152-.045 43.728-.092 10.717.686 21.388 1.28 32.104.503 9.263 1.326 19.071-.457 28.198-1.417 7.22-4.16 14.168-6.263 21.251-4.023 7.992-4.8 17.528-4.48 26.292.274 7.855 1.463 15.575 2.88 23.294h2.103c-.275-1.544-.503-3.088-.777-4.632-1.326-8.536-2.469-17.709-1.829-26.563a84.877 84.877 0 011.783-9.4 103.947 103.947 0 011.828-6.448c.778-1.907 1.738-3.723 2.835-5.494.411-.681.045-1.317-.549-1.499.32-.953.64-1.952 1.006-2.906 1.6-4.677 3.154-9.399 4.068-14.258.96-5.449.275-11.307-.045-16.801-.915-14.349-2.24-28.698-2.149-43.092.046-14.576.64-29.152.137-43.728-.365-10.308-1.188-20.616-2.605-30.833-1.235-8.672-3.063-17.3-4.435-25.973-1.325-8.537-2.468-17.709-1.828-26.564a84.672 84.672 0 011.783-9.399c.548-2.18 1.142-4.314 1.828-6.448.777-1.907 1.737-3.724 2.834-5.495.412-.681.046-1.316-.548-1.498.32-.954.64-1.953 1.006-2.906 1.6-4.677 3.154-9.4 4.068-14.258.96-5.449.274-11.307-.046-16.801-.914-14.349-2.24-28.698-2.148-43.093.046-14.576.64-29.152.137-43.728-.366-10.307-1.189-20.615-2.606-30.832a380.594 380.594 0 00-2.011-12.26h-1.92c2.88 14.258 4.663 28.562 5.303 43.092.503 14.485-.092 29.016-.229 43.637zm-52.754-54.806c-3.566 12.533-9.783 24.066-13.212 36.644-3.017 10.989-5.211 22.25-6.263 33.602-1.462 16.029-.411 34.329 9.098 48.042 3.108 4.495 7.268 8.128 10.468 12.533 3.52 4.858 5.486 10.58 6.309 16.437.777 12.533.594 25.247-.183 37.78-.914 14.122-2.331 28.335-6.171 41.957-3.566 12.533-9.783 24.067-13.212 36.645-3.017 10.988-5.211 22.25-6.263 33.602-1.463 16.029-.411 34.328 9.097 48.041 3.109 4.496 7.269 8.129 10.469 12.533 3.52 4.859 5.486 10.58 6.309 16.438.777 12.533.594 25.247-.183 37.779 0 .273-.046.545-.046.818h2.651c.686-11.534.549-23.113-.64-34.556 0-4.631-.365-9.49-1.874-13.849-1.28-3.633-3.337-6.857-5.714-9.854-2.194-2.724-4.754-5.131-7.132-7.674-2.788-2.951-4.845-6.13-6.628-9.717-5.212-10.489-6.034-22.795-5.577-34.283.457-11.943 2.697-23.703 5.623-35.282 2.422-9.491 5.851-18.527 9.554-27.609 2.057-4.949 4.251-9.853 6.171-14.848 1.92-5.04 2.972-10.217 3.749-15.53 2.834-19.253 3.84-39.005 1.874-58.395 0-4.631-.366-9.49-1.874-13.849-1.28-3.633-3.337-6.857-5.714-9.854-2.195-2.724-4.755-5.131-7.132-7.674-2.788-2.951-4.846-6.13-6.628-9.717-5.212-10.489-6.035-22.795-5.578-34.283.457-11.943 2.697-23.703 5.623-35.282 2.423-9.49 5.852-18.527 9.555-27.608 2.057-4.95 4.251-9.854 6.171-14.849 1.92-5.04 2.971-10.217 3.749-15.53A265.51 265.51 0 00259.931-.09h-2.651c-1.051 10.898-2.606 21.705-5.577 32.149zm38.08-.228c.594 3.043 1.92 5.949 4.709 7.493.411.227 1.097.045 1.188-.5 2.332-13.168-.137-26.019-2.971-38.824h-1.966c2.834 12.215 5.532 24.43 3.566 37.099-2.194-2.225-2.606-5.54-3.017-8.582a40.675 40.675 0 00-2.88-10.626c-2.423-6.04-5.486-11.76-7.589-17.89h-2.56c2.24 7.083 5.897 13.667 8.777 20.524 1.555 3.678 1.966 7.401 2.743 11.306zM263.177 9.309c-.045.181.183.272.275.136 1.188-1.635 1.965-3.996 2.651-5.903.411-1.135.731-2.316 1.051-3.497h-1.325c-.137.636-.32 1.272-.503 1.953-.64 2.361-1.691 4.859-2.149 7.31z"/><path d="M253.943 41.458c2.88-4.041 4.663-9.4 6.171-14.077 1.6-4.994 2.56-10.126 3.155-15.302.091-.772-1.143-.772-1.235 0-.64 5.086-1.645 10.08-3.154 14.985-1.509 4.813-4.069 9.399-5.349 14.258-.045.227.275.363.412.136zm46.446 71.472c-.183 0-.457.136-.549.318-2.286 5.131-2.834 10.853-3.748 16.347-.96 5.949-2.926 11.17-5.258 16.665-1.965 4.586-3.702 9.263-3.474 14.349.092 2.316.686 4.722 1.646 6.856.96 2.089 1.006 2.634 3.108 2.725.275 0 .595-.136.686-.409 4.434-9.218 3.703-19.389 5.212-29.243 1.234-7.855 5.257-14.893 5.805-22.885.32-4.904-.594-9.899-1.005-14.758-.458-5.54-.778-11.125-1.143-16.665-.64-10.67-1.463-21.569-3.886-32.013-.046-.272-.457-.136-.411.091 3.017 14.576 3.337 29.334 4.205 44.137.32 5.222 1.143 10.58 1.189 15.848-.092-.228-.183-.409-.274-.636-.503-.818-1.098-.636-2.103-.727zm-2.24 21.388c-2.012 6.175-2.377 12.532-3.017 18.935-.32 3.451-.869 6.902-1.738 10.262-.137.409-1.554 5.086-1.417 5.086-.365 0-.731.045-1.097.045.137 0-1.097-2.906-1.188-3.224-2.378-6.312-.138-12.76 2.377-18.663 1.143-2.679 2.377-5.312 3.337-8.082 1.143-3.361 1.737-6.902 2.286-10.353.548-3.678 1.051-7.356 2.011-10.944.183-.772.457-1.498.686-2.225.32-.999-.183-.999.823-1.09 1.051-.09 1.234 2.453 1.508 3.451-.046.5-.046.954-.137 1.454-.503 5.312-2.789 10.307-4.434 15.348zm-16.732 264.411c-.503 0-.96.182-1.326.455-.137-.182-.503-.182-.64.136s-.228.681-.365.999c-.686 1.18-1.052 2.724-1.28 3.723-.046.091 0 .182 0 .273-3.703 12.986-4.023 27.381-1.692 40.685h2.332c-1.235-6.765-1.6-13.758-1.555-20.615 0-6.63.549-13.305 1.92-19.843.046-.046.092-.137.138-.227.548-1.726 1.691-5.903 3.611-2.997 1.417 2.134 2.057 4.858 2.606 7.31.731 3.134.685 6.176.685 9.355 0 4.904.092 9.762.64 14.621.457 4.177 1.235 8.31 2.103 12.396h2.012c-1.463-6.811-2.743-13.622-3.109-20.524-.274-4.359.183-8.809-.366-13.123a32.63 32.63 0 00-2.285-8.582c-.503-1.362-1.6-4.087-3.429-4.042zm-37.394-103.757c-2.057 4.995-3.2 10.398-4.343 15.666-2.377 10.898-4.205 22.84-1.691 33.829 1.6 7.038 5.486 13.895 8.914 20.206 4.16 7.72 8.777 15.439 14.629 21.978 3.291 3.678 7.634 7.356 12.983 6.402 4.434-.772 7.451-5.04 9.462-8.673 3.109-5.676 4.892-12.124 6.355-18.39 1.737-7.401 2.834-14.985 3.748-22.522 1.417-11.897 2.469-23.794 2.789-35.737.366-13.486-7.452-25.701-12.252-37.825-2.422-6.13-4.068-12.578-6.034-18.889-2.103-6.812-4.023-13.668-4.434-20.797a.484.484 0 00-.823-.318c-.32-.545-.731-.999-1.28-.727-1.829.909-2.149 1.953-2.926 3.86-1.051 2.588-2.057 5.313-2.468 8.083-.457 3.133-.503 6.311-.686 9.445-.686 11.533-7.817 21.069-13.989 30.332-3.062 4.496-5.851 9.082-7.954 14.077zm24.183-45.181c.137-4.178-.274-8.355.823-12.442a76.449 76.449 0 011.691-5.495c.503-1.316.412-1.226 1.417-1.725.275-.136.686.908.96 1.498-.045 5.676 1.098 11.443 2.378 16.938 1.462 6.13 3.108 12.351 5.12 18.345 4.068 12.124 11.382 23.203 13.394 35.963.914 5.63.411 11.715.137 17.391-.32 6.857-.777 13.668-1.509 20.479a217.544 217.544 0 01-3.84 23.022c-1.462 6.493-3.245 13.078-6.308 19.026-1.874 3.633-4.846 8.174-9.372 8.491-6.08.409-10.88-6.448-14.034-10.625-5.44-7.311-9.966-15.393-13.897-23.567-1.554-3.269-3.017-6.584-4.16-10.035-1.509-4.495-1.783-9.309-1.737-14.031.137-11.443 2.514-23.34 5.988-34.283 3.383-10.626 11.109-19.163 16.64-28.698 3.612-6.221 6.035-12.987 6.309-20.252zm.548-44.273c-.502 5.358-1.005 10.807-1.828 16.165-.366 2.497-.914 4.904-1.6 7.311-.686 2.406-1.691 4.904-2.149 7.356-.045.181.183.272.275.136 1.188-1.635 1.965-3.996 2.651-5.903.914-2.543 1.509-5.177 2.149-7.81 1.325-5.222 2.148-10.444 2.651-15.757.549-5.494.823-11.08 1.143-16.574.274-4.995 1.006-10.308.548-15.302-.045-.409-.594-.545-.731-.091-1.417 4.359-1.463 9.445-1.783 13.985-.411 5.449-.823 10.989-1.326 16.484z"/><path d="M253.531 268.317c-.045.273.275.363.412.182 2.88-4.042 4.663-9.4 6.171-14.077 1.6-4.995 2.56-10.126 3.155-15.302.091-.772-1.143-.772-1.235 0-.64 5.085-1.645 10.08-3.154 14.984-1.509 4.814-4.114 9.354-5.349 14.213zm46.858 71.654c-.183 0-.457.136-.549.318-2.286 5.131-2.834 10.853-3.748 16.347-.96 5.948-2.926 11.17-5.258 16.665-1.965 4.586-3.702 9.263-3.474 14.349.092 2.316.686 4.722 1.646 6.856.96 2.089 1.006 2.634 3.108 2.725.275 0 .595-.136.686-.409 4.434-9.218 3.703-19.389 5.212-29.243 1.234-7.855 5.257-14.894 5.805-22.885.32-4.904-.594-9.899-1.005-14.758-.458-5.54-.778-11.125-1.143-16.665-.64-10.671-1.463-21.569-3.886-32.013-.046-.272-.457-.136-.411.091 3.017 14.576 3.337 29.334 4.205 44.137.32 5.222 1.143 10.58 1.189 15.847-.092-.227-.183-.408-.274-.635-.503-.818-1.098-.636-2.103-.727zm-2.24 21.387c-2.012 6.176-2.377 12.533-3.017 18.936-.32 3.451-.869 6.902-1.738 10.262-.137.409-1.554 5.086-1.417 5.086-.365 0-.731.045-1.097.045.137 0-1.097-2.906-1.188-3.224-2.378-6.312-.138-12.76 2.377-18.663 1.143-2.679 2.377-5.312 3.337-8.082 1.143-3.361 1.737-6.902 2.286-10.353.548-3.678 1.051-7.357 2.011-10.944.183-.772.457-1.498.686-2.225.32-.999-.183-.999.823-1.09 1.051-.09 1.234 2.452 1.508 3.451-.046.5-.046.954-.137 1.453-.503 5.313-2.789 10.308-4.434 15.348zM269.348 445c.732-3.632 1.235-7.265 1.6-10.989.549-5.494.823-11.079 1.143-16.573.275-4.995 1.006-10.308.549-15.303-.046-.409-.594-.545-.732-.091-1.417 4.359-1.462 9.445-1.782 13.986-.412 5.494-.823 11.034-1.326 16.528-.366 4.133-.777 8.31-1.326 12.442h1.874zm-19.245-12.669c-.183-.408-.777-.499-1.143-.317-2.88 1.634-5.532 3.496-8.274 5.312-2.332 1.499-5.349 2.361-7.36 4.269-.046-.454-.046-.909-.092-1.363 0-.408-.594-.408-.64 0 0 1.59.046 3.179.183 4.723h.96l-.274-2.044c.228.046.457 0 .64-.181.96-.908 2.24-1.272 3.428-1.816 1.372-.636 2.697-1.408 3.977-2.226 2.515-1.589 4.892-3.314 7.452-4.813 1.371 3.497 1.783 7.266 1.92 11.034h1.783v-.181c-.137-4.178-.777-8.492-2.56-12.397zM52.846 171.688c-.503 0-.96.182-1.326.455-.137-.182-.503-.182-.64.136s-.229.681-.366.999c-.685 1.18-1.051 2.724-1.28 3.723-.045.091 0 .182 0 .273-4.205 14.803-4.068 31.422-.594 46.18 2.011 8.491 6.446 16.12 9.783 24.112 1.554 3.723 1.966 7.401 2.697 11.352.594 3.042 1.92 5.948 4.709 7.492.411.227 1.097.045 1.188-.5 4.115-23.203-6.765-45.499-8.091-68.43-.275-4.359.183-8.809-.366-13.123a32.647 32.647 0 00-2.286-8.582c-.502-1.407-1.6-4.132-3.428-4.087zm3.84 9.899c.731 3.134.685 6.176.685 9.355 0 4.904.092 9.762.64 14.621 2.24 19.662 10.79 38.506 7.726 58.577-2.194-2.225-2.605-5.54-3.017-8.583a40.664 40.664 0 00-2.88-10.625c-3.109-7.629-7.131-14.803-9.051-22.84-1.92-8.038-2.423-16.484-2.423-24.702 0-6.63.548-13.305 1.92-19.844a.978.978 0 00.137-.227c.548-1.725 1.691-5.903 3.611-2.997 1.463 2.089 2.103 4.813 2.652 7.265zm113.828-45.317c-.137 10.853-.685 21.478-4.068 31.877-1.692 5.176-4.434 9.944-6.537 14.939-2.057 4.995-3.795 10.081-5.075 15.303-1.142 4.722-1.965 9.626-2.102 14.53-.183 5.495.685 10.898 1.005 16.347.64 11.897 1.052 23.839 1.555 35.736 0 .227.32.227.32 0 .914-22.477-3.383-45.226 2.011-67.385 1.234-4.995 2.926-9.854 4.846-14.622 2.011-5.04 4.48-9.853 5.988-15.075 2.88-10.172 2.286-21.161 2.149-31.604 0-.137-.092-.137-.092-.046zm77.212-65.887c-2.789 4.859-4.617 10.217-5.623 15.711-3.977 21.66 5.989 45.545 21.623 60.62 2.514 2.407 6.171 5.177 9.829 3.678 3.337-1.362 4.937-5.449 6.125-8.537 4.663-11.715 7.589-24.384 9.372-36.78.914-6.403 1.554-12.896 1.234-19.344-.274-6.539-1.692-12.941-3.337-19.253-1.6-6.04-3.246-12.033-5.44-17.891-2.103-5.63-4.48-11.216-6.172-16.983-.868-2.997-1.508-6.13-1.6-9.263 0-.5-.411-.908-.914-.908h-.686c-.274 0-.64.182-.777.454-1.234 2.77-1.326 5.449-.823 8.31a46.001 46.001 0 01-3.748 12.124c-2.24 4.813-5.394 9.218-8.549 13.486-3.474 4.768-7.497 9.354-10.514 14.576zm15.04-16.62c2.834-4.04 5.303-8.31 7.04-12.94 1.097-2.907 1.691-5.95 1.966-9.037.274-.136.548-.409.457-.817-.229-1.59-.366-3.179-.229-4.814.046-.363.092-.68.183-.999.96 10.308 6.583 19.935 9.6 29.697 4.023 12.942 7.406 26.246 6.491 39.914-.868 13.396-3.794 26.291-7.725 39.097-1.417 4.586-2.652 10.171-6.034 13.804-3.795 4.041-8.915-1.635-11.383-4.405-14.4-16.165-23.269-39.55-17.509-61.029 2.972-11.08 10.697-19.343 17.143-28.47z"/><path d="M246.949 94.268c.64 8.627 4.982 16.801 8.32 24.702 1.691 3.996 3.474 7.946 5.851 11.579 1.417 2.134 3.52 4.949 6.309 5.131 6.354.454 9.188-6.312 10.651-11.307 2.057-7.083 2.514-14.621 2.971-21.977.458-7.629 1.418-15.121 1.418-22.795 0-9.99-.869-20.48-4.343-29.924-.96-2.634-2.195-5.131-3.795-7.402-.365-.5-1.097-.545-1.417 0a2.482 2.482 0 01-.32.409c-.045-.318-.503-.545-.685-.182-.32.545-.595 1.09-.915 1.635-.548.454-1.097.908-1.463 1.544-.182.318-.137.59.046.817-9.417 15.076-24 28.97-22.628 47.77zm21.805-40.505c.275-.227.503-.408.777-.59.138 0 .229-.045.366-.09 5.074 8.4 3.886 19.025 2.972 28.516a311.24 311.24 0 01-.778-11.398c-.091-1.77-.137-3.496-.182-5.267-.046-1.408.182-2.043-.869-2.997-.731-.636-1.417-.772-2.057-.545-.137-.045-.274-.045-.412.09-7.725 7.63-15.268 18.028-13.44 29.47.869 5.54 3.932 9.718 7.452 13.941 1.783 2.134 4.16 5.313 7.086 5.994 2.148.499 3.382-.954 4.022-3.315.046 1.544 0 3.088-.137 4.632-.274 2.815-1.691 8.673-5.714 7.719-3.109-.726-5.349-4.541-6.857-6.993-2.24-3.587-3.886-7.537-5.303-11.488-1.28-3.542-2.331-7.174-2.377-10.989 0-7.447 3.886-14.53 7.314-20.887 1.692-3.134 3.474-6.221 5.074-9.445a80.85 80.85 0 002.058-4.541c.365-.636.411-1.317 1.005-1.816zm-1.645 10.717a.831.831 0 00.731.045c.457-.227.823-.5 1.234-.863 1.052-.953.823 2.543.823 3.043.046 2.906.183 5.812.366 8.673.046.908.137 1.77.183 2.679-.869-2.588-2.012-5.04-3.52-7.22-.275-.363-.777-.59-1.189-.454-.183-.227-.594-.227-.731.045-.183.454-.366.863-.549 1.317-.503.636-1.006 1.272-1.646 1.816-.548.455-.091 1.09.458 1.136-.64 1.68-1.235 3.405-1.92 5.085-.915 2.407-1.738 4.814-1.829 7.402-.32 6.675 5.989 12.215 10.469 16.301.548.5 1.417.409 1.782-.227a21.837 21.837 0 01-.274 2.498c-.228 1.589-.503 3.542-2.377 2.407-2.469-1.454-4.389-4.178-6.126-6.358-3.2-3.905-5.531-7.946-5.897-13.077-.457-8.719 4.572-17.437 10.012-24.248zm-3.658 15.348c.686-2.044 1.372-4.132 1.829-6.267.229-.181.411-.408.64-.635 2.057 3.496 3.2 7.583 3.931 11.579-.594-1.09-1.371-2.089-2.468-2.952-.457-.363-1.143-.363-1.463.182-.137.227-.183.454-.229.727-.32-.228-.914-.046-.868.454.457 4.132.96 7.764 3.977 10.898.503.544 1.463.272 1.646-.454.137-.5.274-1.045.365-1.544.183 2.906.046 5.903-.594 8.718-3.977-3.633-8.594-8.128-8.457-13.713.091-2.362 1.006-4.723 1.691-6.993zm3.703 4.087c1.737 2.043 2.286 4.404 1.875 6.992-1.143-1.68-1.92-3.678-2.469-5.676.411-.363.503-.817.594-1.316zm-2.651-26.655c-.96 1.816-1.874 3.633-2.88 5.404-2.834 5.176-5.76 10.262-8 15.756-2.012 4.995-3.109 10.308-2.332 15.666.458 3.36 1.738 6.675 3.018 9.808 1.508 3.769 3.291 7.492 5.485 10.898 1.646 2.543 3.703 5.358 6.492 6.675 2.377 1.135 4.708.363 6.4-1.498 2.834-3.134 2.925-7.901 2.697-11.852-.183-3.587-.777-7.129-1.189-10.716-.137-1.953-.32-3.678-.411-4.813-.092-4.36 1.051-8.855 1.646-13.169 1.234-9.127 1.691-20.388-4.938-27.608-.045-.182-.182-.363-.365-.5 0 0-.046 0-.046-.045a.348.348 0 00-.183-.09c-.274-.228-.64-.092-.777.136-.549.227-1.006.544-1.417.862a136.632 136.632 0 003.154-5.63l.046-.046c.686-.999 1.783-1.634 2.651-2.452 5.12 7.901 6.355 18.209 6.949 27.336.32 5.131.32 10.307.091 15.439-.183 3.86-.777 7.628-1.051 11.488-.503 6.902-.777 13.849-2.057 20.661-.915 4.904-2.88 15.03-9.692 14.666-2.697-.136-4.754-4.359-5.851-6.311-2.057-3.587-3.703-7.447-5.257-11.216-3.2-7.629-7.086-15.212-7.406-23.612-.366-9.082 3.749-17.392 8.503-24.884 2.148-3.496 4.48-6.902 6.72-10.353zM129.097 19.708c.686 6.493-.091 12.895.32 19.343.366 5.813 1.646 11.58 3.292 17.165 3.383 11.488 8.64 22.34 11.565 34.01 2.012 7.992 2.652 16.302.595 24.339-2.057 7.992-6.537 15.167-10.103 22.523-4.389 8.99-6.949 18.753-8.503 28.652-.091.046-.137.182-.183.318-1.92 13.804-5.074 27.926-4.068 41.912.96 13.123 5.668 25.701 7.085 38.778.686 6.494-.091 12.896.32 19.344.366 5.812 1.646 11.579 3.292 17.165 3.383 11.488 8.64 22.34 11.565 34.01 2.012 7.992 2.652 16.302.595 24.339-2.057 7.992-6.537 15.166-10.103 22.522-4.389 8.991-6.949 18.754-8.503 28.653a.74.74 0 00-.183.318c-1.92 13.804-5.074 27.926-4.068 41.912.228 3.36.731 6.675 1.325 9.944h2.606c-1.417-7.492-2.24-14.985-2.011-22.75.091-3.133.32-6.22.685-9.354 1.829-12.532 3.246-25.292 7.086-37.416 3.611-11.534 11.84-20.888 15.177-32.558 3.246-11.352.503-23.43-2.971-34.419-3.612-11.443-8.275-22.522-10.652-34.283-.777-3.86-1.234-7.765-1.28-11.715-.045-4.496.275-8.9-.045-13.396-.64-8.582-2.789-16.937-4.709-25.247-2.194-9.535-3.566-18.844-3.246-28.652.092-3.133.32-6.221.686-9.354 1.829-12.533 3.246-25.293 7.086-37.417 3.611-11.533 11.84-20.887 15.177-32.557 3.246-11.352.503-23.431-2.972-34.42-3.611-11.443-8.274-22.522-10.651-34.283-.777-3.86-1.234-7.765-1.28-11.715-.046-4.496.274-8.9-.046-13.396-.548-7.492-2.24-14.803-3.977-22.068h-2.651c1.463 6.584 3.017 13.123 3.748 19.753z"/><path d="M144.549 129.277c-4.16 8.128-8.275 16.211-10.743 25.02-.137.5.64.727.777.227 2.743-8.991 8.366-16.937 12.8-25.201 4.343-7.992 7.954-16.211 8.64-25.383.686-8.855-3.109-17.12-6.812-24.884-2.057-4.314-4.114-8.628-5.897-13.032-1.645-4.132-3.245-8.582-2.88-13.078 0-.09-.091-.09-.137 0-.777 8.628 2.423 16.12 6.034 23.794 2.012 4.268 4.115 8.491 5.715 12.896 1.691 4.54 2.103 8.855 1.783 13.668-.595 9.127-5.12 17.981-9.28 25.973zm-13.12-12.169c5.76-10.308 4.434-22.341 1.188-33.239-1.783-5.994-3.931-11.851-5.897-17.8-.914-2.77-1.6-5.54-2.377-8.31-.503-1.816-1.554-3.723-3.292-4.586-.274-.136-.685-.136-.868.091-3.703 4.677-4.206 10.625-6.537 15.938-.046.046.045.091.091.046 1.28-2.09 2.149-4.314 2.972-6.63.822-2.225 2.011-6.04 3.931-7.855 1.28 1.498 1.646 3.45 2.103 5.358.64 2.724 1.554 5.358 2.468 7.991 1.829 5.177 3.886 10.263 5.76 15.394 1.875 5.085 3.2 10.58 3.52 15.984.366 6.039-1.097 11.896-3.245 17.527-.046.136.091.182.183.091z"/><path d="M126.994 98.581c-.365-3.678-1.188-7.492-2.468-10.943-1.235-3.36-2.789-6.902-5.577-9.172-.229-.182-.503-.227-.732-.091-3.246 1.77-5.486 4.995-6.811 8.355-.046.136.137.181.183.09 1.508-2.678 3.885-5.63 6.674-7.128 1.737 2.724 3.246 5.676 4.617 8.627 1.509 3.36 3.109 6.675 3.657 10.308.046.272.457.227.457-.046zm-8.914 60.711c.823-1.453 1.234-3.496 1.737-5.086a23.695 23.695 0 001.052-5.358c0-.181-.275-.227-.32-.045-.915 2.906-1.555 6.402-3.429 8.945-2.423-1.362-4.48-4.268-5.897-6.448-1.874-2.997-2.789-6.493-4.023-9.763-.091-.227-.503-.136-.411.091 1.828 5.222 2.56 11.08 6.445 15.257.64.772 3.703 4.314 4.846 2.407zM100.572 57.941c-.915 2.68-1.966 5.358-3.018 8.037-1.051 2.634-2.56 5.268-3.017 8.083-.046.272.366.409.457.136.686-2.543 2.423-4.632 3.429-7.084 1.189-2.906 2.331-5.812 3.383-8.809a84.415 84.415 0 002.331-8.219c.64-2.77 1.509-5.63 1.875-8.446.731-5.72 1.782-11.26 3.154-16.891 1.326-5.45 2.606-10.99 2.697-16.62 0-.408-.594-.363-.64 0-1.28 10.944-7.36 20.752-7.68 31.877-.091 3.042.274 5.903-.366 8.945-.594 3.043-1.6 6.04-2.605 8.991zm91.794-39.868c1.691 5.313 3.931 10.762 4.891 16.301-.228 3.905.274 8.946 3.612 11.262 3.428 2.406 6.628-5.586 7.771-7.357.594-.953 1.189-1.861 1.783-2.77-.686 1.817-1.417 3.633-1.874 5.54-.046.182.228.273.32.091.685-2.679 2.102-5.13 2.925-7.765 2.195-3.587 3.886-7.265 4.023-11.851.092-2.815-.274-5.63-.366-8.446-.137-3.451.366-6.857.458-10.262.045-.954.045-1.862.045-2.816h-1.508c.045 2.044-.046 4.087-.183 6.13-.229 3.088-.32 5.994 0 9.128.32 3.269.64 6.402.046 9.626-.595 3.179-2.332 5.858-4.069 8.491-1.737 2.725-3.52 5.404-5.12 8.174-.64 1.09-1.234 2.316-2.286 3.042-1.737 1.18-3.337-2.588-3.611-3.542a45.103 45.103 0 01-1.326-5.585c-.548-5.857-1.691-11.488-3.2-17.255-1.6-5.994-3.063-12.033-3.063-18.254h-2.651v.5c-.046 6.039 1.6 11.942 3.383 17.618z"/><path d="M193.646 4.132c.137 4.269.869 8.537 1.92 12.67 1.143 4.358 2.286 9.807 5.211 13.395 4.709 5.767 8.183-6.267 8.823-8.991 1.28-5.358.914-10.58.732-16.03-.046-1.725-.137-3.45-.183-5.176h-1.189l.137 3.95c.183 5.631.275 10.808-1.051 16.348-.594 2.543-1.371 5.13-2.789 7.356-1.417 2.27-2.56 1.407-3.657-.59-2.194-3.951-3.383-8.674-4.708-12.942-1.189-3.86-2.149-7.855-2.697-11.851 0-.772 0-1.499.091-2.27h-.823c-.091 1.407-.046 2.77.183 4.131z"/><path d="M204.663 2.361c0 2.997.045 5.994-.229 8.991-.046.636-.64 6.494-1.463 5.767-1.234-1.044-1.783-3.224-2.468-4.677a78.523 78.523 0 01-2.606-6.085c-.366-.999-.777-2.043-1.097-3.133-.229-1.09-.366-2.18-.366-3.224h-1.417c.046 1.771.32 3.587.594 5.131.823 4.587 2.789 8.4 5.532 12.079 2.423 3.178 3.885.272 4.205-2.361.595-4.904.503-9.9.503-14.849h-1.188v2.361z"/><path d="M202.926 8.083c1.006-1.045 1.052-2.498 1.143-3.86.091-1.407.137-2.815.137-4.223h-.869c0 .363-.045.727-.045 1.09-.092 1.317-.183 2.68-.732 3.905-.183.409-.32.817-.548 1.18-.412.727-.229.591-.686-.135-.777-1.227-1.051-2.77-1.463-4.133-.091-.272-.137-.545-.228-.817.457.5 1.371.681 1.828.863.412.181.96-.182 1.052-.59.091-.41.228-.863.32-1.363h-3.475v.046V0h-.914c-.137 2.68.32 5.63 1.783 7.72.594.817 1.874 1.18 2.697.363zm8.777 15.711c-1.326 2.952-4.069 4.813-5.303 7.856-.823 2.043-1.509 4.132-3.429 5.403-2.103 1.408-2.925-3.678-3.017-4.767-.046-.455-.686-.455-.686 0-.091 1.816-.228 4.676 1.235 6.084 1.234 1.226 2.925 1.09 4.205-.09 2.103-1.862 2.058-4.496 2.743-7.039.823-2.906 3.795-4.45 4.389-7.447 0 0-.092-.09-.137 0zm.412-16.528c.045 4.04.32 7.991-.046 12.033 0 .045.046.045.046 0 .685-6.494.822-12.896.457-19.299h-.64c.091 2.407.137 4.859.183 7.266z"/><path d="M188.343 34.737c1.097 5.767 1.783 11.489 1.966 17.346.091 3.27.045 6.948 1.965 9.763 1.829 2.634 5.989 3.224 8.823 1.998 3.794-1.68 6.034-6.175 7.863-9.581 2.423-4.495 4.663-9.127 6.171-14.031 1.92-6.13 2.515-12.624 2.926-18.98.229-3.77.32-7.493.411-11.262.046-1.317.275-2.543.458-3.769.137.091.32.046.365-.136.275-1.998.549-3.996.732-6.04h-.549a35.199 35.199 0 01-.228 2.271c0-.454-.092-.954-.183-1.453 0-.045-.046 0-.046 0 .274 2.906-.457 5.54-1.143 8.31-.731 3.042-.64 6.538-.868 9.626-.549 6.857-1.052 13.623-2.972 20.252-1.508 5.222-4.251 10.08-6.857 14.803-2.194 4.042-4.846 8.764-10.057 8.537-4.343-.182-4.617-5.358-4.709-8.582-.091-4.995-.091-9.854-.822-14.849-.96-6.902-2.698-13.713-4.206-20.524A156.076 156.076 0 01184.503 0h-2.332c.869 11.76 3.932 23.158 6.172 34.737z"/><path d="M193.692 47.997c.045 3.042-.092 7.174 2.194 9.535 3.337 3.406 7.771-1.09 9.417-3.905.137-.272-.228-.59-.411-.318-1.6 1.953-3.657 4.814-6.537 3.315-1.372-.726-1.646-2.361-1.92-3.769-.64-3.27-.458-6.675-.595-9.99-.183-3.587-1.188-7.174-1.874-10.716-.914-4.813-1.874-9.49-3.657-14.076-.046-.137-.274-.091-.229.045 1.783 5.63 1.875 11.715 2.652 17.573.274 2.089.777 4.178.914 6.312.091 1.998.046 3.996.046 5.994zm14.08-1.771c-.64 1.362-.915 2.815-1.28 4.223-.046.136.137.181.183.045.365-1.453.731-2.86 1.188-4.268 0-.046-.046-.046-.091 0z"/><path d="M181.12 7.992c.594 6.902 1.6 13.804 2.789 20.615 1.188 7.084 2.651 14.032 2.743 21.251.045 4.677.32 38.733 8.411 35.691 3.657-1.408 6.263-6.448 8.183-9.536 3.383-5.403 6.354-11.125 9.143-16.8 2.285-4.632 4.754-9.31 6.034-14.304 2.606-10.035 2.24-20.48 1.874-30.741 0-.364-.548-.364-.548 0 .137 11.896-1.143 24.475-5.12 35.736-2.377 6.766-5.486 13.395-8.777 19.707-1.783 3.451-3.703 6.857-5.898 10.035-1.28 1.862-3.154 4.813-5.577 5.358-2.56.545-3.84-5.585-4.251-7.129-1.052-4.132-1.6-8.4-2.012-12.623-.502-4.859-.594-9.672-.457-14.53.275-9.083-1.051-17.846-2.788-26.746-1.554-7.856-2.743-15.939-3.383-23.976h-1.189c.229 2.68.595 5.358.823 7.992z"/><path d="M224.092 0h-1.143l-.412 2.316c-.685 3.36-.137 6.63.458 9.99 1.28 7.038.228 14.303-.732 21.342-.914 6.765-2.377 13.44-4.48 19.934-2.286 6.993-5.714 13.577-8.777 20.252-1.463 3.178-2.971 6.312-4.663 9.354-1.463 2.68-2.926 5.177-3.84 8.083-.823 2.633-.686 5.085-.64 7.81 0 1.407 0 2.77-.32 4.177-.183.818-1.646 3.406-2.788 2.861-1.326-.636-1.692-3.542-2.012-4.768-.457-1.952-.96-3.814-1.737-5.676-1.097-2.588-2.56-4.995-3.931-7.447-1.646-2.997-2.469-6.039-3.063-9.4-1.235-7.492-1.28-15.347-1.28-22.93 0-.137-.183-.137-.183 0-.046 7.174-1.006 14.303-.457 21.478.228 2.906.594 5.857 1.508 8.673.869 2.679 2.423 5.085 3.703 7.583 1.966 3.678 2.652 7.719 4.343 11.488 1.234 2.725 3.52 3.587 5.714 1.272 1.417-1.499 1.737-3.315 1.783-5.268.092-2.997-.503-5.767.092-8.764.594-3.087 2.285-5.948 3.885-8.672 1.92-3.225 3.429-6.766 4.983-10.172 2.834-6.266 5.989-12.396 8.274-18.844 2.286-6.403 3.749-13.123 4.8-19.844a185.006 185.006 0 001.372-12.35c.32-4.178 0-7.81-.777-11.943-.457-2.452-.732-4.904-.275-7.356.229-1.09.458-2.134.595-3.179z"/><path d="M175.589 0c-.137 4.496-.32 8.991.183 13.487.091.772.182 1.544.228 2.316-.046.045-.091.09-.091.136 1.554 14.303.548 28.607 1.097 42.956.457 12.714 4.16 24.43 9.143 36.054 1.188 2.77 2.514 5.449 3.84 8.174 1.463 2.951 3.245 5.857 4.068 9.081 1.6 6.039 1.372 12.397 1.006 18.618-.686 12.668-1.326 25.61-4.709 37.87-.731 2.679-1.645 5.267-2.651 7.856-.091-.137-.366-.137-.457.045-2.103 6.947-5.12 13.486-7.497 20.297-2.469 7.039-4.252 15.212-4.115 22.704.138 6.948-.685 13.941.092 20.888.091.772.183 1.544.228 2.316-.045.045-.091.091-.091.136 1.554 14.304.549 28.607 1.097 42.956.457 12.715 4.16 24.43 9.143 36.054 1.189 2.77 2.514 5.449 3.84 8.174 1.463 2.951 3.246 5.858 4.069 9.082 1.6 6.039 1.371 12.396 1.005 18.617-.685 12.669-1.325 25.61-4.708 37.87-.732 2.679-1.646 5.268-2.652 7.856-.091-.136-.365-.136-.457.045-2.103 6.948-5.12 13.487-7.497 20.298-2.286 6.493-3.977 13.986-4.114 21.024h2.148c1.235-6.857 2.149-13.668 4.252-20.388 1.783-5.631 4.251-11.171 5.257-16.983 6.217-11.125 7.406-24.112 8.183-36.599.731-11.488 2.011-23.385-1.235-34.601-3.428-11.897-9.6-22.795-12.617-34.874-1.691-6.811-2.194-13.667-2.468-20.66-.32-7.175-.595-14.349-1.006-21.524-.137-2.134-.274-4.223-.503-6.312a37.146 37.146 0 00-.046-3.905c-.182-2.724-.457-5.449-.731-8.173-.777-6.857-.731-14.349.594-21.115 1.463-7.492 2.286-14.985 4.617-22.295 1.783-5.631 4.252-11.171 5.258-16.983 6.217-11.125 7.405-24.112 8.182-36.599.732-11.488 2.012-23.385-1.234-34.601-3.428-11.897-9.6-22.795-12.617-34.873-1.691-6.812-2.194-13.668-2.469-20.661-.32-7.175-.594-14.35-1.005-21.524-.137-2.134-.275-4.223-.503-6.311a37.144 37.144 0 00-.046-3.905c-.183-2.725-.457-5.45-.731-8.174-.503-4.495-.64-9.309-.32-13.986h-.96v.137zm53.622 59.893c-3.062 12.987-12.708 22.25-18.742 33.784-.96 1.816-1.692 3.723-2.332 5.63 1.189-5.766 2.423-11.533 4.343-17.164 2.788-8.082 8.046-14.984 11.2-22.886 2.834-7.129 2.651-14.893 2.514-22.431 0-.318-.457-.318-.503 0-.182 7.855-1.28 15.439-4.525 22.659-1.692 3.768-4.069 7.174-5.989 10.852-2.103 3.996-3.428 8.537-4.708 12.85-2.652 8.719-3.795 17.619-5.578 26.519-.731 3.587-1.828 7.22-2.788 10.853-1.052 2.906-1.966 5.812-2.606 8.9-.823 4.086-.96 8.309-.64 12.487 1.189 16.165 9.783 31.604 18.514 44.999 7.726 17.891 8.549 38.325 11.109 57.532 1.874 14.032 4.069 28.471.777 42.502-3.063 12.987-12.708 22.25-18.743 33.784-.96 1.816-1.691 3.724-2.331 5.631 1.188-5.767 2.423-11.534 4.343-17.165 2.788-8.082 8.045-14.984 11.2-22.885 2.834-7.129 2.651-14.894 2.514-22.432 0-.318-.457-.318-.503 0-.183 7.856-1.28 15.439-4.526 22.659-1.691 3.769-4.068 7.174-5.988 10.852-2.103 3.996-3.429 8.537-4.709 12.851-2.651 8.718-3.794 17.618-5.577 26.518-.731 3.587-1.829 7.22-2.789 10.853-1.051 2.906-1.965 5.812-2.605 8.9-.823 4.087-.96 8.309-.64 12.487 1.188 16.165 9.783 31.604 18.514 44.999 4.206 9.809 6.4 20.343 7.909 31.06h2.651a65.141 65.141 0 00-.366-2.997c-1.188-8.31-3.657-15.984-6.72-23.749-1.691-4.359-3.794-8.264-6.308-11.987-4.8-8.946-9.646-17.891-12.297-27.79-1.28-4.768-1.92-9.718-1.783-14.622.228-2.543.503-5.04.868-7.537 1.326-5.722 4.252-10.898 5.806-16.62 1.692-6.221 2.697-12.669 5.623-18.481 2.834-5.631 6.628-10.626 10.103-15.893 3.52-5.358 6.126-10.943 7.634-17.164 1.6-6.63 1.92-13.486 1.692-20.298-.366-9.263-1.92-18.39-2.789-27.608-.777-8.446-.686-16.846-1.874-25.292-1.189-8.31-3.658-15.984-6.72-23.749-1.692-4.359-3.795-8.264-6.309-11.987-4.8-8.946-9.646-17.891-12.297-27.79-1.28-4.768-1.92-9.717-1.783-14.622.229-2.542.503-5.04.869-7.537 1.325-5.722 4.251-10.898 5.805-16.62 1.692-6.221 2.698-12.669 5.623-18.48 2.835-5.631 6.629-10.626 10.103-15.894 3.52-5.358 6.126-10.943 7.634-17.164 1.6-6.63 1.92-13.486 1.692-20.297-.366-9.264-1.92-18.39-2.789-27.609-.411-4.404-.548-8.809-.823-13.213h-2.194c.686 5.857 1.28 11.67 2.057 17.391 1.875 13.986 4.115 28.38.777 42.411z"/><path d="M205.029 168.51c-3.109-4.859-6.08-9.536-6.766-15.393-.046-.273-.457-.273-.411 0 .411 4.949 2.377 9.354 4.48 13.804 2.423 5.176 6.308 9.535 8.457 14.803.046.09.183.045.137-.046-1.234-4.722-3.246-9.081-5.897-13.168zM161.829 0c-.366 5.994-.823 11.988-1.189 17.982-.411 7.22-.868 14.394-.548 21.614.32 6.993 1.417 13.85 2.788 20.706 2.88 14.168 6.994 28.108 10.469 42.184 1.6 6.448 2.697 12.76 3.063 19.435.411 6.902.32 13.804-.092 20.706-.366 7.039-.548 14.168-1.646 21.16a105.617 105.617 0 01-.96 5.268c-3.931 11.533-9.508 22.658-11.291 34.782-.96 6.494-.137 13.305-.503 19.889-.366 7.129-.96 14.258-1.371 21.433-.412 7.22-.869 14.394-.549 21.614.32 6.993 1.417 13.85 2.789 20.706 2.88 14.168 6.994 28.108 10.468 42.184 1.6 6.448 2.697 12.76 3.063 19.435.412 6.902.32 13.804-.091 20.706-.366 7.039-.549 14.168-1.646 21.16a105.617 105.617 0 01-.96 5.268c-3.931 11.534-9.509 22.659-11.291 34.782-.686 4.678-.458 9.491-.412 14.259h1.417c.046-.636.092-1.272.092-1.953.228-4.495.548-8.809 1.508-13.214.869-4.223 2.057-8.355 3.383-12.487 1.189-3.678 2.514-7.401 3.703-11.125a49.591 49.591 0 001.691-5.631 81.502 81.502 0 001.783-7.901c0-.09 0-.181-.045-.272.822-4.178 1.6-8.401 2.24-12.578 1.6-10.535 1.691-21.524.914-32.149-.914-11.897-4.846-23.067-8.046-34.556-3.931-14.076-7.68-28.516-8.96-43.092-1.554-18.027.96-36.054 1.829-54.036.228-4.495.548-8.809 1.508-13.213.869-4.223 2.057-8.356 3.383-12.488 1.189-3.678 2.514-7.401 3.703-11.125a49.575 49.575 0 001.691-5.63 78.732 78.732 0 001.783-7.901c0-.091 0-.182-.045-.273.822-4.177 1.6-8.4 2.24-12.578 1.6-10.535 1.691-21.523.914-32.149-.914-11.897-4.846-23.067-8.046-34.555-3.931-14.077-7.68-28.517-8.96-43.093-1.234-14.349.092-28.698 1.143-43.001h-.914V0z"/><path d="M139.886 23.43c3.886 13.714 7.177 27.609 10.514 41.458 1.692 7.039 3.429 14.077 5.257 21.07 1.829 7.038 3.795 13.758 3.475 21.115-.686 15.257-8.64 29.47-14.355 43.319-3.108 7.538-5.76 15.575-7.085 23.703-2.926 11.852-4.526 24.293-4.663 36.463-.092 6.493.457 12.987 1.463 19.435 1.143 6.992 3.428 13.667 5.348 20.479 3.886 13.713 7.177 27.608 10.515 41.457 1.691 7.039 3.428 14.077 5.257 21.07 1.828 7.038 3.794 13.758 3.474 21.114-.686 15.258-8.64 29.47-14.354 43.32-3.109 7.538-5.76 15.575-7.086 23.703-2.926 11.851-4.526 24.293-4.663 36.463-.046 2.452.046 4.949.183 7.401h2.56c-.731-11.76.777-23.34 2.24-34.964a.626.626 0 00.366-.454c1.463-5.358 2.148-10.898 3.474-16.302.96-3.905 2.24-7.719 3.703-11.443 4.297-11.079 9.737-21.75 12.846-33.238 1.737-6.312 2.605-12.76 2.24-19.299-.412-6.856-2.698-13.441-4.389-20.07-3.611-13.986-6.857-28.062-10.286-42.094-3.977-16.119-9.051-32.103-10.194-48.723-.777-11.942.731-23.657 2.194-35.418a.626.626 0 00.366-.454c1.463-5.358 2.149-10.898 3.474-16.301.96-3.906 2.24-7.72 3.703-11.443 4.297-11.08 9.737-21.751 12.846-33.239 1.737-6.312 2.606-12.76 2.24-19.299-.412-6.856-2.697-13.44-4.389-20.07-3.611-13.986-6.857-28.062-10.285-42.093C142.583 26.79 138.56 13.577 136.64 0h-2.605c.137 1 .274 1.953.411 2.952 1.234 6.993 3.52 13.668 5.44 20.479zm-44.891-.408c-1.006 10.49-2.423 20.752-2.56 31.286 0 .364.274.636.64.636.228 0 .457 0 .685.045.229 0 .457-.136.595-.317 4.845-7.947 7.497-17.437 9.462-26.428A130.239 130.239 0 00106.789 0h-1.692c.138 9.309-.868 18.708-2.742 27.835-.96 4.768-2.24 9.445-3.84 14.032-.823 2.406-1.783 4.767-2.835 7.129a32.038 32.038 0 01-1.371 2.815c-.229.454-.412 1.044-.64 1.453-.549-9.808 1.371-19.707 2.377-29.425.823-8.037 1.097-15.938-.046-23.793h-1.965c.548 2.497 1.005 5.04 1.234 7.628.457 5.131.183 10.217-.274 15.348zM15.451 67.93c-2.057 4.996-3.2 10.4-4.343 15.667-2.377 10.898-4.205 22.84-1.69 33.829 1.6 7.038 5.485 13.895 8.913 20.206 4.16 7.72 8.777 15.439 14.629 21.978 3.291 3.678 7.634 7.356 12.983 6.402 4.434-.771 7.451-5.04 9.463-8.672 3.108-5.677 4.891-12.124 6.354-18.391 1.737-7.401 2.834-14.984 3.748-22.522 1.418-11.897 2.47-23.794 2.79-35.737.365-13.486-7.452-25.7-12.252-37.825-2.423-6.13-4.069-12.578-6.035-18.89-2.103-6.81-4.023-13.667-4.434-20.796a.484.484 0 00-.823-.318c-.32-.545-.731-.999-1.28-.727-1.828.909-2.148 1.953-2.925 3.86-1.052 2.588-2.058 5.313-2.47 8.083-.456 3.133-.502 6.312-.685 9.445-.685 11.533-7.817 21.069-13.988 30.332-3.063 4.496-5.852 9.082-7.955 14.077zm24.183-45.18c.137-4.178-.274-8.355.823-12.442a76.269 76.269 0 011.691-5.494c.503-1.317.412-1.227 1.418-1.726.274-.136.685.908.96 1.498-.046 5.676 1.097 11.443 2.377 16.938 1.463 6.13 3.108 12.35 5.12 18.345 4.068 12.124 11.383 23.203 13.394 35.963.914 5.63.412 11.715.137 17.391-.32 6.857-.777 13.668-1.508 20.479a217.8 217.8 0 01-3.84 23.022c-1.463 6.494-3.246 13.078-6.309 19.026-1.874 3.633-4.846 8.174-9.371 8.492-6.08.408-10.88-6.448-14.035-10.626-5.44-7.311-9.965-15.393-13.897-23.567-1.554-3.269-3.017-6.584-4.16-10.035-1.508-4.495-1.783-9.309-1.737-14.031.137-11.443 2.514-23.34 5.989-34.283 3.383-10.626 11.108-19.163 16.64-28.698 3.611-6.221 6.034-12.987 6.308-20.252zm36.252 64.115c-.092 10.717.686 21.388 1.28 32.104.503 9.263 1.326 19.071-.457 28.198-1.418 7.22-4.16 14.168-6.263 21.252-4.023 7.991-4.8 17.527-4.48 26.291.366 10.852 2.468 21.523 4.617 32.103a282.522 282.522 0 015.394 43.365c.686 14.576.092 29.152-.046 43.728-.09 10.717.686 21.388 1.28 32.104.503 9.263 1.326 19.071-.457 28.198-1.417 7.22-4.16 14.168-6.262 21.251-4.023 7.992-4.8 17.528-4.48 26.292.274 7.855 1.462 15.575 2.88 23.294h2.102c-.274-1.544-.502-3.088-.777-4.632-1.326-8.536-2.468-17.709-1.828-26.563a84.922 84.922 0 011.783-9.4A103.813 103.813 0 0172 398.002c.777-1.907 1.737-3.723 2.834-5.494.412-.681.046-1.317-.548-1.499.32-.953.64-1.952 1.006-2.906 1.6-4.677 3.154-9.399 4.068-14.258.96-5.449.274-11.307-.046-16.801-.914-14.349-2.24-28.698-2.148-43.092.046-14.576.64-29.152.137-43.728-.366-10.308-1.189-20.616-2.606-30.833-1.234-8.672-3.063-17.3-4.434-25.973-1.326-8.537-2.469-17.709-1.829-26.564a84.972 84.972 0 011.783-9.399c.549-2.18 1.143-4.314 1.829-6.448.777-1.907 1.737-3.724 2.834-5.495.412-.681.046-1.316-.548-1.498.32-.954.64-1.953 1.005-2.906 1.6-4.677 3.154-9.4 4.069-14.258.96-5.449.274-11.307-.046-16.801-.914-14.349-2.24-28.698-2.148-43.093.045-14.576.64-29.152.137-43.728-.366-10.307-1.189-20.615-2.606-30.832A380.046 380.046 0 0072.732.136h-2.103c2.88 14.258 4.662 28.562 5.302 43.092.686 14.485.092 29.016-.045 43.637z"/><path d="M23.131 32.059c-3.565 12.533-9.782 24.066-13.21 36.644-3.018 10.989-5.212 22.25-6.264 33.602-1.463 16.029-.411 34.329 9.097 48.042 3.109 4.495 7.269 8.128 10.469 12.533 3.52 4.858 5.486 10.58 6.309 16.437.777 12.533.594 25.247-.183 37.78-.915 14.122-2.332 28.335-6.172 41.957-3.566 12.533-9.783 24.067-13.211 36.645-3.017 10.988-5.212 22.25-6.263 33.602-1.463 16.029-.411 34.328 9.097 48.041 3.109 4.496 7.269 8.129 10.469 12.533 3.52 4.859 5.485 10.58 6.308 16.438.777 12.533.595 25.247-.183 37.779 0 .273-.045.545-.045.818H32c.686-11.534.549-23.113-.64-34.556 0-4.631-.366-9.49-1.874-13.849-1.28-3.633-3.337-6.857-5.715-9.854-2.194-2.724-4.754-5.131-7.13-7.674-2.79-2.951-4.847-6.13-6.63-9.717-5.21-10.489-6.034-22.795-5.577-34.283.457-11.943 2.697-23.703 5.623-35.282 2.423-9.491 5.852-18.527 9.554-27.609 2.058-4.949 4.252-9.853 6.172-14.848 1.92-5.04 2.971-10.217 3.748-15.53 2.835-19.253 3.84-39.005 1.875-58.395 0-4.631-.366-9.49-1.874-13.849-1.28-3.633-3.338-6.857-5.715-9.854-2.194-2.724-4.754-5.131-7.131-7.674-2.789-2.951-4.846-6.13-6.629-9.717-5.211-10.489-6.034-22.795-5.577-34.283.457-11.943 2.697-23.703 5.623-35.282 2.423-9.49 5.851-18.527 9.554-27.608 2.057-4.95 4.252-9.854 6.172-14.849 1.92-5.04 2.971-10.217 3.748-15.53A265.227 265.227 0 0031.36-.09h-2.651c-1.052 10.898-2.606 21.705-5.578 32.149zm38.08-.228c.595 3.043 1.92 5.949 4.709 7.493.411.227 1.097.045 1.189-.5C69.44 25.656 66.97 12.805 64.137 0h-1.966c2.835 12.215 5.532 24.43 3.566 37.099-2.194-2.225-2.606-5.54-3.017-8.582a40.678 40.678 0 00-2.88-10.626c-2.423-6.04-5.486-11.76-7.589-17.89h-2.56c2.24 7.083 5.898 13.667 8.778 20.524 1.554 3.678 1.965 7.401 2.742 11.306zM34.606 9.309c-.046.181.182.272.274.136 1.188-1.635 1.966-3.996 2.651-5.903.412-1.135.732-2.316 1.052-3.497h-1.326c-.137.636-.32 1.272-.503 1.953-.64 2.361-1.691 4.859-2.148 7.31z"/><path d="M25.371 41.458c2.88-4.041 4.663-9.4 6.172-14.077 1.6-4.994 2.56-10.126 3.154-15.302.092-.772-1.143-.772-1.234 0-.64 5.086-1.646 10.08-3.154 14.985-1.509 4.813-4.069 9.399-5.349 14.258-.046.227.274.363.411.136zm46.446 71.472c-.182 0-.457.136-.548.318-2.286 5.131-2.834 10.853-3.749 16.347-.96 5.949-2.925 11.17-5.257 16.665-1.966 4.586-3.703 9.263-3.474 14.349.091 2.316.686 4.722 1.646 6.856.96 2.089 1.005 2.634 3.108 2.725.274 0 .594-.136.686-.409 4.434-9.218 3.703-19.389 5.211-29.243 1.235-7.855 5.257-14.893 5.806-22.885.32-4.904-.594-9.899-1.006-14.758-.457-5.54-.777-11.125-1.143-16.665-.64-10.67-1.462-21.569-3.885-32.013-.046-.272-.457-.136-.412.091 3.017 14.576 3.337 29.334 4.206 44.137.32 5.222 1.143 10.58 1.189 15.848-.092-.228-.183-.409-.275-.636-.503-.818-1.097-.636-2.103-.727zm-2.24 21.388c-2.011 6.175-2.377 12.532-3.017 18.935-.32 3.451-.868 6.902-1.737 10.262-.137.409-1.554 5.086-1.417 5.086-.366 0-.731.045-1.097.045.137 0-1.097-2.906-1.189-3.224-2.377-6.312-.137-12.76 2.377-18.663 1.143-2.679 2.378-5.312 3.338-8.082 1.142-3.361 1.737-6.902 2.285-10.353.549-3.678 1.052-7.356 2.012-10.944.182-.772.457-1.498.685-2.225.32-.999-.182-.999.823-1.09 1.052-.09 1.235 2.453 1.509 3.451-.046.5-.046.954-.137 1.454-.503 5.312-2.789 10.307-4.435 15.348zm173.166-95.13c2.149-2.407 3.383-5.676 4.571-8.628 1.235-3.178 2.286-6.448 2.926-9.808.914-4.45 1.234-9.127 1.737-13.668.275-2.361.457-4.722.595-7.129h-1.829c-.183 3.224-.549 6.448-.914 9.672-.915 7.901-2.103 15.348-5.303 22.704-.823 1.907-2.332 6.04-4.663 6.63-2.423.635-3.2-11.534-3.246-12.397-.411-6.63.138-13.304-.228-19.934-.137-2.225-.457-4.45-.869-6.63h-1.645c.274 2.225.502 4.405.594 6.63.228 6.948-.366 13.85 0 20.752.228 3.905.457 9.58 3.291 12.668 1.6 1.726 3.749.545 4.983-.862zm-14.4 44.136c.96-6.22 2.377-12.487 5.12-18.163 2.423-5.086 5.074-9.944 5.989-15.53.045-.408-.549-.59-.64-.181-1.189 5.903-4.663 10.898-7.269 16.256-2.606 5.358-3.886 11.352-4.937 17.164-1.097 6.176-1.737 12.442-2.377 18.663-.686 6.584-.686 12.896.685 19.389 1.372 6.403 3.749 12.533 5.943 18.708 1.92 5.404 5.532 10.263 8.96 14.803 3.612 4.768 7.223 9.582 10.195 14.758 3.062 5.404 4.8 13.123 4.388 19.299-.046.681.96.635 1.006 0 .64-6.131-.229-11.716-2.56-17.437-2.149-5.177-5.76-9.672-9.189-14.077-3.748-4.768-7.405-9.581-10.148-15.03-2.972-5.903-4.937-12.714-6.583-19.071-1.692-6.63-1.829-13.032-.96-19.753.823-6.63 1.371-13.214 2.377-19.798zm-18.834 67.341c-.915-6.312-1.692-12.578-1.6-18.936.045-6.311 1.463-12.124 3.428-18.072.137-.409-.457-.636-.64-.273-5.988 10.898-4.525 24.248-2.834 36.009.869 5.812 2.103 11.034 4.891 16.256 2.652 4.995 5.852 9.627 8.275 14.758.137.318.64.045.503-.273-2.058-4.813-4.8-9.263-7.223-13.894-2.652-4.995-4.023-10.036-4.8-15.575zM153.737 2.18c.64 11.897 1.051 23.84 1.554 35.736 0 .227.32.227.32 0 .503-12.623-.64-25.292-.777-37.961h-1.28c.092.772.137 1.498.183 2.225zM52.846 398.729c-.503 0-.96.182-1.326.455-.137-.182-.503-.182-.64.136s-.229.681-.366.999c-.685 1.18-1.051 2.724-1.28 3.723-.045.091 0 .182 0 .273-3.703 12.986-4.023 27.381-1.691 40.685h2.331c-1.234-6.765-1.554-13.758-1.554-20.615 0-6.63.549-13.305 1.92-19.843.046-.046.091-.137.137-.227.549-1.726 1.692-5.903 3.612-2.997 1.417 2.134 2.057 4.858 2.605 7.31.732 3.134.686 6.176.686 9.355 0 4.904.091 9.762.64 14.621.457 4.177 1.234 8.31 2.103 12.396h2.011c-1.462-6.811-2.742-13.622-3.108-20.524-.275-4.359.183-8.809-.366-13.123a32.627 32.627 0 00-2.286-8.582c-.502-1.362-1.6-4.087-3.428-4.042zm117.668-35.418c-.137 10.853-.686 21.478-4.068 31.876-1.692 5.177-4.435 9.945-6.538 14.94-2.057 4.995-3.794 10.08-5.074 15.302-1.143 4.723-1.966 9.627-2.103 14.531-.045 1.68 0 3.36.092 5.04h2.148c.275-6.811 1.006-13.622 2.652-20.343 1.234-4.995 2.925-9.853 4.845-14.621 2.012-5.04 4.48-9.854 5.989-15.076 2.88-10.171 2.286-21.16 2.149-31.604 0-.136-.092-.136-.092-.045zm77.212-65.887c-2.789 4.858-4.617 10.217-5.623 15.711-3.977 21.66 5.989 45.544 21.623 60.62 2.514 2.406 6.171 5.176 9.829 3.678 3.337-1.362 4.937-5.449 6.125-8.537 4.663-11.715 7.589-24.384 9.372-36.78.914-6.403 1.554-12.896 1.234-19.344-.274-6.539-1.692-12.942-3.337-19.253-1.6-6.04-3.246-12.034-5.44-17.891-2.103-5.631-4.48-11.216-6.172-16.983-.868-2.997-1.508-6.13-1.6-9.263 0-.5-.411-.908-.914-.908h-.686c-.274 0-.64.181-.777.454-1.234 2.77-1.326 5.449-.823 8.31a46 46 0 01-3.748 12.123c-2.24 4.814-5.394 9.218-8.549 13.487-3.474 4.768-7.497 9.354-10.514 14.576zm15.04-16.62c2.834-4.041 5.303-8.309 7.04-12.941 1.097-2.906 1.691-5.948 1.966-9.036.274-.136.548-.409.457-.818-.229-1.589-.366-3.178-.229-4.813a6.57 6.57 0 01.183-.999c.96 10.308 6.583 19.934 9.6 29.697 4.023 12.941 7.406 26.246 6.491 39.914-.868 13.395-3.794 26.291-7.725 39.096-1.417 4.587-2.652 10.172-6.035 13.804-3.794 4.042-8.914-1.634-11.382-4.404-14.4-16.166-23.269-39.551-17.509-61.029 2.972-11.079 10.697-19.344 17.143-28.471z"/><path d="M246.949 321.308c.64 8.628 4.982 16.801 8.32 24.702 1.691 3.996 3.474 7.947 5.851 11.58 1.417 2.134 3.52 4.949 6.309 5.131 6.354.454 9.188-6.312 10.651-11.307 2.057-7.084 2.514-14.621 2.971-21.978.458-7.628 1.418-15.12 1.418-22.794 0-9.99-.869-20.48-4.343-29.924-.96-2.634-2.195-5.132-3.795-7.402-.365-.499-1.097-.545-1.417 0a2.526 2.526 0 01-.32.409c-.045-.318-.503-.545-.685-.182-.32.545-.595 1.09-.915 1.635-.548.454-1.097.908-1.463 1.544-.182.317-.137.59.046.817-9.417 15.076-24 28.97-22.628 47.769zm21.805-40.504c.275-.227.503-.408.777-.59.138 0 .229-.045.366-.091 5.074 8.401 3.886 19.026 2.972 28.517a311.35 311.35 0 01-.778-11.398 201.393 201.393 0 01-.182-5.267c-.046-1.408.182-2.044-.869-2.997-.731-.636-1.417-.772-2.057-.545-.137-.046-.274-.046-.412.091-7.725 7.628-15.268 18.027-13.44 29.47.869 5.539 3.932 9.717 7.452 13.94 1.783 2.134 4.16 5.313 7.086 5.994 2.148.499 3.382-.954 4.022-3.315.046 1.544 0 3.088-.137 4.632-.274 2.815-1.691 8.673-5.714 7.719-3.109-.727-5.349-4.541-6.857-6.993-2.24-3.587-3.886-7.538-5.303-11.488-1.28-3.542-2.331-7.175-2.377-10.989 0-7.447 3.886-14.53 7.314-20.888 1.692-3.133 3.474-6.221 5.074-9.445a80.599 80.599 0 002.058-4.54c.365-.636.411-1.317 1.005-1.817zm-1.645 10.717a.831.831 0 00.731.045c.457-.227.823-.499 1.234-.863 1.052-.953.823 2.543.823 3.043.046 2.906.183 5.812.366 8.673.046.908.137 1.771.183 2.679-.869-2.589-2.012-5.041-3.52-7.22-.275-.363-.777-.591-1.189-.454-.183-.227-.594-.227-.731.045-.183.454-.366.863-.549 1.317-.503.636-1.006 1.271-1.646 1.816-.548.454-.091 1.09.458 1.135-.64 1.681-1.235 3.406-1.92 5.086-.915 2.407-1.738 4.813-1.829 7.402-.32 6.675 5.989 12.215 10.469 16.301.548.5 1.417.409 1.782-.227-.045.863-.137 1.68-.274 2.498-.228 1.589-.503 3.542-2.377 2.406-2.469-1.453-4.389-4.177-6.126-6.357-3.2-3.905-5.531-7.946-5.897-13.077-.457-8.719 4.572-17.437 10.012-24.248zm-3.658 15.348c.686-2.044 1.372-4.133 1.829-6.267.229-.181.411-.408.64-.635 2.057 3.496 3.2 7.583 3.931 11.579-.594-1.09-1.371-2.089-2.468-2.952-.457-.363-1.143-.363-1.463.182-.137.227-.183.454-.229.726-.32-.227-.914-.045-.868.454.457 4.132.96 7.765 3.977 10.898.503.545 1.463.273 1.646-.454.137-.499.274-1.044.365-1.544.183 2.906.046 5.903-.594 8.719-3.977-3.633-8.594-8.128-8.457-13.714.091-2.361 1.006-4.722 1.691-6.992zm3.703 4.086c1.737 2.044 2.286 4.405 1.875 6.993-1.143-1.68-1.92-3.678-2.469-5.676.411-.363.503-.817.594-1.317zm-2.651-26.654c-.96 1.816-1.874 3.632-2.88 5.403-2.834 5.177-5.76 10.263-8 15.757-2.012 4.995-3.109 10.308-2.332 15.666.458 3.36 1.738 6.675 3.018 9.808 1.508 3.769 3.291 7.492 5.485 10.898 1.646 2.543 3.703 5.358 6.492 6.675 2.377 1.135 4.708.363 6.4-1.499 2.834-3.133 2.925-7.901 2.697-11.851-.183-3.587-.777-7.129-1.189-10.716-.137-1.953-.32-3.678-.411-4.814-.092-4.359 1.051-8.854 1.646-13.168 1.234-9.127 1.691-20.388-4.938-27.608-.045-.182-.182-.364-.365-.5 0 0-.046 0-.046-.045a.344.344 0 00-.183-.091c-.274-.227-.64-.091-.777.136-.549.227-1.006.545-1.417.863a136.319 136.319 0 003.154-5.631l.046-.045c.686-.999 1.783-1.635 2.651-2.452 5.12 7.901 6.355 18.209 6.949 27.336.32 5.131.32 10.307.091 15.438-.183 3.86-.777 7.629-1.051 11.489-.503 6.902-.777 13.849-2.057 20.66-.915 4.905-2.88 15.031-9.692 14.667-2.697-.136-4.754-4.359-5.851-6.311-2.057-3.588-3.703-7.447-5.257-11.216-3.2-7.629-7.086-15.212-7.406-23.613-.366-9.081 3.749-17.391 8.503-24.883 2.148-3.497 4.48-6.902 6.72-10.353zm-161.371 94.994c3.017 6.084 4.251 12.487 5.531 19.071.823 4.223 1.6 8.446 2.423 12.715-.137.136-.183.363-.091.59 1.92 6.493 2.422 13.259 1.874 19.979-.366 4.405-1.189 8.946-1.189 13.396h2.56c-.137-3.088-.137-6.221.092-9.4.503-7.946.365-15.665-1.737-23.385-1.235-7.583-2.56-15.166-3.886-22.749-1.006-5.858-3.612-11.035-6.217-16.302-2.972-5.994-5.486-12.26-7.269-18.708-3.566-12.714-4.069-26.337.046-38.96 2.148-6.539 5.44-12.669 8.96-18.572 3.246-5.495 6.4-10.898 7.771-17.21 1.692-7.992.686-16.256 2.195-24.248.777-4.041 1.874-8.037 2.148-12.169.32-4.496-.366-8.991-.96-13.396-.96-7.22-1.463-14.122-1.006-21.387.503-7.946.366-15.666-1.737-23.385-1.234-7.583-2.56-15.166-3.885-22.75-1.006-5.857-3.612-11.034-6.218-16.301-2.971-5.994-5.485-12.26-7.268-18.708-3.566-12.715-4.069-26.337.045-38.96 2.15-6.54 5.441-12.67 8.961-18.572 3.245-5.495 6.4-10.898 7.771-17.21 1.691-7.992.686-16.256 2.194-24.248.777-4.041 1.875-8.037 2.149-12.17.32-4.495-.366-8.99-.96-13.395-.137-.999-.229-1.952-.366-2.906h-2.468c.548 4.178 1.188 8.31 1.554 12.487.594 6.811-1.326 13.078-2.103 19.753-.777 6.448-.183 12.941-1.326 19.344-1.188 6.72-4.891 12.396-8.503 18.027-3.565 5.54-6.903 11.216-9.097 17.436-2.103 5.904-3.063 12.215-3.246 18.436-.228 8.128 1.235 16.302 3.566 24.067 2.377 7.946 6.126 15.257 9.829 22.658 3.017 6.085 4.251 12.487 5.531 19.072.823 4.223 1.6 8.446 2.423 12.714-.137.136-.183.363-.091.59 1.92 6.494 2.423 13.259 1.874 19.98-.411 5.04-1.417 10.126-1.097 15.212.411 6.629 1.737 13.168 2.286 19.797.594 6.812-1.326 13.078-2.103 19.753-.777 6.448-.183 12.941-1.326 19.344-1.189 6.72-4.891 12.396-8.503 18.027-3.566 5.54-6.903 11.216-9.097 17.437-2.103 5.903-3.063 12.214-3.246 18.435-.228 8.128 1.234 16.302 3.566 24.067 2.24 8.037 5.989 15.302 9.646 22.704zm41.417-22.977c-4.16 8.128-8.275 16.211-10.743 25.02-.137.499.64.727.777.227 2.743-8.991 8.366-16.937 12.8-25.201 4.343-7.992 7.954-16.211 8.64-25.384.686-8.854-3.109-17.119-6.812-24.883-2.057-4.314-4.114-8.628-5.897-13.032-1.645-4.133-3.245-8.583-2.88-13.078 0-.091-.091-.091-.137 0-.777 8.628 2.423 16.12 6.034 23.794 2.012 4.268 4.115 8.491 5.715 12.896 1.691 4.541 2.103 8.854 1.783 13.668-.595 9.127-5.12 17.981-9.28 25.973z"/><path d="M131.429 344.149c5.76-10.308 4.434-22.341 1.188-33.239-1.783-5.994-3.931-11.852-5.897-17.8-.914-2.77-1.6-5.54-2.377-8.31-.503-1.816-1.554-3.723-3.292-4.586-.274-.136-.685-.136-.868.091-3.703 4.677-4.206 10.625-6.537 15.938-.046.046.045.091.091.046 1.28-2.089 2.149-4.314 2.972-6.63.822-2.225 2.011-6.039 3.931-7.856 1.28 1.499 1.646 3.451 2.103 5.359.64 2.724 1.554 5.358 2.468 7.991 1.829 5.177 3.886 10.263 5.76 15.394 1.875 5.085 3.2 10.58 3.52 15.983.366 6.04-1.097 11.897-3.245 17.528-.046.136.091.182.183.091z"/><path d="M126.994 325.622c-.365-3.678-1.188-7.492-2.468-10.943-1.235-3.36-2.789-6.902-5.577-9.173-.229-.181-.503-.227-.732-.09-3.246 1.77-5.486 4.994-6.811 8.355-.046.136.137.181.183.09 1.508-2.679 3.885-5.63 6.674-7.129 1.737 2.725 3.246 5.676 4.617 8.628 1.509 3.36 3.109 6.675 3.657 10.308.046.272.457.227.457-.046zm-8.914 60.711c.823-1.453 1.234-3.497 1.737-5.086a23.695 23.695 0 001.052-5.358c0-.182-.275-.227-.32-.045-.915 2.906-1.555 6.402-3.429 8.945-2.423-1.362-4.48-4.268-5.897-6.448-1.874-2.997-2.789-6.493-4.023-9.763-.091-.227-.503-.136-.411.091 1.828 5.222 2.56 11.08 6.445 15.257.64.772 3.703 4.314 4.846 2.407zm-17.508-101.351c-.915 2.679-1.966 5.358-3.018 8.037-1.051 2.634-2.56 5.267-3.017 8.083-.046.272.366.408.457.136.686-2.543 2.423-4.632 3.429-7.084 1.189-2.906 2.331-5.812 3.383-8.809a84.401 84.401 0 002.331-8.219c.64-2.77 1.509-5.63 1.875-8.446.731-5.721 1.782-11.261 3.154-16.892 1.325-5.448 2.606-10.988 2.697-16.619 0-.409-.594-.363-.64 0-1.28 10.943-7.36 20.797-7.68 31.877-.091 3.042.274 5.903-.366 8.945-.594 3.042-1.6 6.039-2.605 8.991zm101.257-90.453c-3.932.817-6.218 4.359-7.726 7.719-3.383 7.629-5.12 16.892-5.12 25.247 0 5.994 1.646 11.897 3.428 17.573 1.692 5.313 3.932 10.762 4.892 16.302-.229 3.905.274 8.945 3.611 11.261 3.429 2.406 6.629-5.585 7.772-7.356.594-.954 1.188-1.862 1.783-2.77-.686 1.816-1.418 3.632-1.875 5.54-.045.181.229.272.32.09.686-2.679 2.103-5.131 2.926-7.764 2.194-3.588 3.886-7.266 4.023-11.852.091-2.815-.274-5.631-.366-8.446-.137-3.451.366-6.856.457-10.262.229-6.675-.64-13.395-2.377-19.843-1.005-3.815-2.423-7.901-4.343-11.398-1.6-2.724-4.068-4.722-7.405-4.041zm12.388 38.642c-.228 3.088-.32 5.994 0 9.127.32 3.27.64 6.403.046 9.627-.594 3.178-2.331 5.857-4.069 8.491-1.737 2.725-3.52 5.404-5.12 8.173-.64 1.09-1.234 2.316-2.285 3.043-1.738 1.18-3.338-2.588-3.612-3.542a45.271 45.271 0 01-1.326-5.585c-.548-5.858-1.691-11.488-3.2-17.255-1.691-6.357-3.245-12.715-3.017-19.299.137-4.45 1.052-9.036 2.057-13.35 1.006-4.45 2.332-9.036 4.846-12.896 1.052-1.589 2.789-3.314 4.8-3.542 2.012-.227 3.475 1.817 4.389 3.315 2.286 3.678 3.657 8.355 4.754 12.488 1.783 6.902 2.24 14.121 1.737 21.205z"/><path d="M209.6 248.247c1.28-5.358.914-10.58.732-16.029-.229-7.493-.549-15.03-2.012-22.387-.594-2.815-1.371-6.629-3.886-8.445-2.651-1.908-5.165 1.226-6.262 3.314-2.286 4.36-3.018 9.581-3.749 14.395-.549 3.905-1.509 8.173-.777 12.124.137 4.268.868 8.536 1.92 12.669 1.143 4.359 2.286 9.808 5.211 13.395 4.709 5.721 8.183-6.312 8.823-9.036zm-15.451-18.935c-.046-2.725.457-5.404.96-8.174.685-3.996 1.6-7.946 2.925-11.806.595-1.816 2.195-7.538 5.029-7.129 2.286.363 3.154 4.268 3.611 5.994 1.966 7.31 2.195 15.257 2.423 22.795.183 5.63.275 10.807-1.051 16.347-.594 2.542-1.372 5.131-2.789 7.356-1.417 2.27-2.56 1.407-3.657-.591-2.194-3.95-3.383-8.673-4.708-12.941-1.189-3.86-2.149-7.856-2.743-11.851z"/><path d="M205.349 241.89c.731-6.403.411-12.896.503-19.344.045-2.589.137-5.131.32-7.72.137-2.179.365-4.586-.503-6.629-.914-2.18-3.932-3.633-5.577-1.453-1.875 2.406-1.966 6.13-2.332 9.036-.137 1.18-.228 2.406-.64 3.542-.411 1.18-1.097 2.27-1.554 3.451a9.924 9.924 0 00-.549 2.815c-.182 2.225.183 4.632.549 6.63.823 4.586 2.789 8.4 5.531 12.078 2.469 3.133 3.932.227 4.252-2.406zm-4.526-30.152c1.28.772 1.737 3.27 1.966 5.086-.412-.908-.96-1.68-1.783-2.27-.137-.091-.457-.046-.503.136-.914 2.043-1.234 4.359-1.051 6.584-.046 0-.092-.045-.137 0 0-1.09 0-2.179.091-3.269.046-.182.046-.318.091-.5.092-.59.138-1.226.183-1.816a17.075 17.075 0 011.143-3.951zm2.469 16.393c-.092 1.317-.183 2.679-.732 3.905-.183.409-.32.817-.548 1.181-.412.726-.229.59-.686-.137-.777-1.226-1.051-2.77-1.463-4.132-.091-.272-.137-.545-.228-.817.457.499 1.371.681 1.828.863.412.181.96-.182 1.052-.591a29.5 29.5 0 00.822-4.268 38.739 38.739 0 01-.045 3.996zm-3.932-1.544c0 .182.046.318.046.499 0-.045-.046-.136-.046-.181v-.318zm.915-7.992c0 .136.457-3.36.914-2.951.731.681 1.006 1.725 1.188 2.633.64 2.816 0 5.994-1.051 8.719-.914-.727-1.234-2.089-1.463-3.451.046.136.092.317.137.454.092.227.457.181.457-.046-.182-1.816-.32-3.587-.182-5.358zm.228 20.933a78.957 78.957 0 01-2.606-6.084c-.365-.999-.777-2.044-1.097-3.134-.503-2.497-.594-5.04.595-7.447.228-.499.502-.953.731-1.407.046 1.725.229 3.451.366 5.131-.229 2.815.183 6.039 1.737 8.219.594.863 1.874 1.226 2.651.363 1.006-1.044 1.052-2.497 1.143-3.86.229-4.359.32-8.763-.228-13.123-.229-2.088-.595-6.992-3.155-7.81-.091 0-.137-.045-.228 0 .091-.408.183-.772.32-1.18.457-1.453 1.188-2.271 2.651-1.408 1.966 1.135 1.692 4.632 1.6 6.539a281.424 281.424 0 00-.411 15.166c0 2.997.045 5.994-.229 8.991-.046.636-.64 6.493-1.463 5.767-1.143-1.09-1.691-3.315-2.377-4.723zm11.2 11.307c-1.326 2.952-4.069 4.813-5.303 7.856-.823 2.043-1.509 4.132-3.429 5.403-2.103 1.408-2.925-3.678-3.017-4.768-.046-.454-.686-.454-.686 0-.091 1.817-.228 4.677 1.235 6.085 1.234 1.226 2.925 1.09 4.205-.091 2.103-1.862 2.058-4.495 2.743-7.038.823-2.906 3.795-4.45 4.389-7.447 0 0-.092-.091-.137 0zm.411-16.529c.046 4.042.32 7.992-.045 12.034 0 .045.045.045.045 0 1.509-14.576.549-28.971-3.977-43.002 0-.045-.091-.045-.091 0 1.828 6.539 2.834 13.395 3.566 20.161.411 3.588.411 7.22.502 10.807z"/><path d="M211.063 189.125c-.823-2.77-1.828-5.494-3.063-8.082a29.923 29.923 0 00-4.16-6.448c-.96-1.136-2.102-2.407-3.611-2.634-2.56-.363-3.84 2.724-4.571 4.586-1.372 3.36-1.966 7.038-2.88 10.535-1.143 4.495-2.56 8.945-4.48 13.168-.046-.272-.458-.318-.595 0-2.148 5.722-6.263 10.717-7.36 16.801-1.097 5.903.275 12.079.777 17.982.595 6.902 1.6 13.804 2.789 20.615 1.189 7.084 2.651 14.031 2.743 21.251.046 4.677.32 38.733 8.411 35.691 3.657-1.408 6.263-6.448 8.183-9.536 3.383-5.403 6.354-11.125 9.143-16.801 2.286-4.631 4.754-9.308 6.034-14.303 2.606-10.035 2.24-20.479 1.875-30.742 0-.363-.549-.363-.549 0 .137 11.897-1.143 24.475-5.12 35.737-2.377 6.765-5.486 13.395-8.777 19.707-1.783 3.451-3.703 6.856-5.897 10.035-1.28 1.862-3.155 4.813-5.577 5.358-2.56.545-3.84-5.585-4.252-7.129-1.051-4.132-1.6-8.4-2.011-12.623-.503-4.859-.595-9.672-.457-14.531.274-9.082-1.052-17.845-2.789-26.745-1.783-8.9-3.063-18.073-3.611-27.155-.275-4.177.182-8.037 1.874-11.851-.732 2.815-.96 5.721-1.006 8.582-.183 14.031 3.612 27.517 6.263 41.14 1.097 5.767 1.783 11.488 1.966 17.346.091 3.269.045 6.947 1.965 9.763 1.829 2.633 5.989 3.224 8.823 1.998 3.795-1.681 6.035-6.176 7.863-9.582 2.423-4.495 4.663-9.127 6.172-14.031 1.92-6.13 2.514-12.623 2.925-18.98.229-3.769.32-7.493.412-11.262.045-1.316.274-2.542.457-3.768.137.09.32.045.366-.137.914-6.675 1.645-13.531.594-20.252-.96-5.903-4.572-10.671-6.674-16.165-1.006-2.407-1.418-5.04-2.195-7.538zm8.229 40.186c0-.454-.092-.953-.183-1.453 0-.045-.046 0-.046 0 .275 2.906-.457 5.54-1.143 8.31-.731 3.042-.64 6.539-.868 9.627-.549 6.856-1.052 13.622-2.972 20.252-1.508 5.222-4.251 10.08-6.857 14.803-2.194 4.041-4.845 8.763-10.057 8.536-4.343-.181-4.617-5.358-4.708-8.582-.092-4.995-.092-9.853-.823-14.848-.96-6.902-2.697-13.713-4.206-20.525-1.554-7.083-2.56-14.258-3.2-21.478-.549-6.448-.183-12.623 2.88-18.435 1.189-2.271 2.56-4.541 3.52-6.948 1.097-2.679 1.737-5.494 2.697-8.219 1.006-2.86 1.646-5.812 2.377-8.718.549-2.134 1.326-7.084 3.795-7.992 1.417-.545 2.971 2.361 3.52 3.179 1.417 2.225 2.514 4.677 3.474 7.129 1.92 4.631 2.651 9.762 4.708 14.303 2.149 4.859 5.669 8.9 7.223 14.031 1.692 5.404 1.463 11.352.869 17.028z"/><path d="M204.892 280.35c-1.6 1.953-3.657 4.814-6.537 3.315-1.372-.726-1.646-2.361-1.92-3.769-.64-3.269-.458-6.675-.595-9.99-.183-3.587-1.188-7.174-1.874-10.716-.914-4.813-1.874-9.49-3.657-14.077-.046-.136-.274-.09-.229.046 1.783 5.631 1.875 11.715 2.652 17.573.274 2.089.777 4.177.914 6.312.091 1.998.046 3.996.091 5.993.046 3.043-.091 7.175 2.195 9.536 3.337 3.406 7.771-1.09 9.417-3.905.137-.272-.274-.59-.457-.318zm2.88-7.084c-.64 1.363-.915 2.816-1.28 4.223-.046.137.137.182.183.046.365-1.453.731-2.861 1.188-4.269 0-.045-.046-.045-.091 0z"/><path d="M224.183 226.496c1.509-11.17-2.331-23.521-7.771-33.193-.046-.091-.183-.046-.137.045 3.337 9.536 7.223 18.981 7.085 29.243-.045 2.27-.365 4.495-.777 6.766-.685 3.36-.137 6.629.457 9.99 1.28 7.038.229 14.303-.731 21.341-.914 6.766-2.377 13.441-4.48 19.935-2.286 6.993-5.714 13.577-8.777 20.252-1.463 3.178-2.972 6.311-4.663 9.354-1.463 2.679-2.926 5.176-3.84 8.082-.823 2.634-.686 5.086-.64 7.811 0 1.407 0 2.77-.32 4.177-.183.818-1.646 3.406-2.789 2.861-1.325-.636-1.691-3.542-2.011-4.768-.457-1.952-.96-3.814-1.737-5.676-1.097-2.588-2.56-4.995-3.932-7.447-1.645-2.997-2.468-6.039-3.062-9.399-1.235-7.493-1.28-15.348-1.28-22.932 0-.136-.183-.136-.183 0-.046 7.175-1.006 14.304-.457 21.479.228 2.906.594 5.857 1.508 8.673.869 2.679 2.423 5.085 3.703 7.583 1.966 3.678 2.651 7.719 4.343 11.488 1.234 2.724 3.52 3.587 5.714 1.271 1.417-1.498 1.737-3.314 1.783-5.267.091-2.997-.503-5.767.091-8.764.595-3.087 2.286-5.948 3.886-8.673 1.92-3.224 3.429-6.765 4.983-10.171 2.834-6.266 5.989-12.397 8.274-18.844 2.286-6.403 3.749-13.123 4.8-19.844a185.028 185.028 0 001.372-12.351c.32-4.177 0-7.81-.777-11.942-.458-2.452-.732-4.904-.275-7.356.229-1.272.457-2.498.64-3.724zm-19.154 169.055c-3.109-4.859-6.08-9.536-6.766-15.394-.046-.272-.457-.272-.411 0 .411 4.95 2.377 9.355 4.48 13.805 2.423 5.176 6.308 9.535 8.457 14.803.046.09.183.045.137-.046-1.234-4.722-3.246-9.081-5.897-13.168z"/><path d="M188.114 376.798c-1.097 8.582-2.925 16.937-4.525 25.383-3.292 9.581-7.497 18.799-11.566 28.153-2.057 4.768-3.566 9.672-4.617 14.667h1.737v-.045c3.84-12.533 10.697-24.248 14.674-36.781a.847.847 0 00.595-.636c4.022-12.26 5.714-25.519 6.994-38.324.777-7.72 1.371-15.666.594-23.431-.366-3.451-1.6-6.629-3.383-9.626-1.371-2.316-3.154-4.405-4.663-6.63-1.965-2.861-3.245-6.175-4.342-9.49-2.103-6.312-3.338-12.851-4.618-19.39-1.28-6.765-2.788-13.486-4.022-20.252-1.875-10.307-3.749-20.615-4.389-31.104-.64-10.308-.503-21.478 2.56-31.468 3.84-12.533 10.697-24.248 14.674-36.781a.846.846 0 00.595-.635c4.022-12.261 5.714-25.52 6.994-38.325.777-7.719 1.371-15.666.594-23.43-.366-3.452-1.6-6.63-3.383-9.627-1.371-2.316-3.154-4.405-4.663-6.63-1.965-2.86-3.245-6.175-4.342-9.49-2.103-6.312-3.338-12.85-4.618-19.39-1.28-6.765-2.788-13.485-4.022-20.251-1.875-10.308-3.749-20.615-4.389-31.105-.457-7.265-.503-14.94.549-22.34h-1.189c-.457 3.995-.686 8.037-.777 12.123-.274 13.94 1.966 27.972 4.8 41.594a992.73 992.73 0 014.068 20.252c1.235 6.539 2.423 13.078 4.343 19.435 1.28 4.132 2.743 8.083 5.12 11.715 2.377 3.633 4.755 7.22 5.715 11.489.868 3.678.594 7.719.548 11.442-.137 7.266-.777 14.531-1.691 21.705-1.097 8.583-2.926 16.938-4.526 25.384-3.291 9.581-7.497 18.799-11.566 28.153-4.937 11.397-6.583 23.521-6.811 35.872-.274 13.94 1.966 27.972 4.8 41.594a992.038 992.038 0 014.068 20.252c1.235 6.539 2.423 13.078 4.343 19.435 1.28 4.132 2.743 8.082 5.12 11.715 2.377 3.633 4.755 7.22 5.715 11.488.868 3.678.594 7.72.548 11.443-.046 7.447-.731 14.667-1.646 21.887zM95.223 234.67c.457 5.131.228 10.216-.274 15.348-1.006 10.489-2.423 20.751-2.56 31.286 0 .363.274.636.64.636.228 0 .457 0 .685.045.229 0 .457-.136.595-.318 4.845-7.946 7.497-17.437 9.462-26.427a130.575 130.575 0 002.972-29.47c-.137-9.491-1.6-18.799-3.292-28.153-1.874-10.308-4.022-20.888-3.611-31.423 0-.363-.274-.545-.594-.59v-.182c0-.908-1.28-1.044-1.509-.227a3.44 3.44 0 00-.137.954c-.32 1.407-1.143 2.997-1.6 4.268-.823 2.316-1.6 4.632-2.423 6.993-1.737 5.04-3.794 10.126-4.937 15.303-1.92 8.854.823 17.618 3.2 26.109 1.509 5.222 2.88 10.444 3.383 15.848zm-4.114-42.094c1.051-5.222 2.971-10.398 4.571-15.484a1319.67 1319.67 0 012.194-6.993 5.32 5.32 0 01.412-1.09c-.823 8.81.503 17.71 2.057 26.383 1.691 9.672 4.297 19.253 4.663 29.061.365 10.171-.64 20.433-2.697 30.423-.96 4.768-2.24 9.445-3.84 14.031-.823 2.407-1.783 4.768-2.835 7.13a32.1 32.1 0 01-1.371 2.815c-.229.454-.412 1.044-.64 1.453-.549-9.808 1.371-19.707 2.377-29.425 1.051-10.216 1.234-20.297-1.326-30.287-2.377-9.354-5.485-18.299-3.565-28.017zM15.451 294.972c-2.057 4.995-3.2 10.398-4.343 15.666-2.377 10.898-4.205 22.84-1.69 33.829 1.6 7.038 5.485 13.895 8.913 20.206 4.16 7.72 8.777 15.439 14.629 21.978 3.291 3.678 7.634 7.356 12.983 6.402 4.434-.772 7.451-5.04 9.463-8.673 3.108-5.676 4.891-12.124 6.354-18.39 1.737-7.401 2.834-14.985 3.748-22.522 1.418-11.897 2.47-23.794 2.79-35.737.365-13.486-7.452-25.701-12.252-37.825-2.423-6.13-4.069-12.578-6.035-18.889-2.103-6.812-4.023-13.668-4.434-20.797a.483.483 0 00-.823-.318c-.32-.545-.731-.999-1.28-.727-1.828.909-2.148 1.953-2.925 3.86-1.052 2.588-2.058 5.313-2.47 8.083-.456 3.133-.502 6.311-.685 9.445-.685 11.533-7.817 21.069-13.988 30.332-3.063 4.496-5.852 9.082-7.955 14.077zm24.183-45.181c.137-4.178-.274-8.355.823-12.442a76.35 76.35 0 011.691-5.495c.503-1.316.412-1.226 1.418-1.725.274-.136.685.908.96 1.498-.046 5.676 1.097 11.443 2.377 16.938 1.463 6.13 3.108 12.351 5.12 18.345 4.068 12.124 11.383 23.203 13.394 35.963.914 5.63.412 11.715.137 17.391-.32 6.857-.777 13.668-1.508 20.479a217.8 217.8 0 01-3.84 23.022c-1.463 6.493-3.246 13.078-6.309 19.026-1.874 3.633-4.846 8.174-9.371 8.491-6.08.409-10.88-6.448-14.035-10.625-5.44-7.311-9.965-15.393-13.897-23.567-1.554-3.269-3.017-6.584-4.16-10.035-1.508-4.495-1.783-9.309-1.737-14.031.137-11.443 2.514-23.34 5.989-34.283 3.383-10.626 11.108-19.163 16.64-28.698 3.611-6.221 6.034-12.987 6.308-20.252zm.549-44.273c-.503 5.358-1.006 10.807-1.829 16.165-.366 2.497-.914 4.904-1.6 7.311-.686 2.406-1.691 4.904-2.148 7.356-.046.181.182.272.274.136 1.188-1.635 1.966-3.996 2.651-5.903.915-2.543 1.509-5.177 2.149-7.81 1.326-5.222 2.148-10.444 2.651-15.757.549-5.494.823-11.08 1.143-16.574.274-4.995 1.006-10.308.549-15.302-.046-.409-.595-.545-.732-.091-1.417 4.359-1.463 9.445-1.783 13.985-.411 5.449-.822 10.989-1.325 16.484z"/><path d="M24.96 268.317c-.046.273.274.363.411.182 2.88-4.042 4.663-9.4 6.172-14.077 1.6-4.995 2.56-10.126 3.154-15.302.092-.772-1.143-.772-1.234 0-.64 5.085-1.646 10.08-3.154 14.984-1.509 4.814-4.115 9.354-5.349 14.213zm46.857 71.654c-.182 0-.457.136-.548.318-2.286 5.131-2.834 10.853-3.749 16.347-.96 5.948-2.925 11.17-5.257 16.665-1.966 4.586-3.703 9.263-3.474 14.349.091 2.316.686 4.722 1.646 6.856.96 2.089 1.005 2.634 3.108 2.725.274 0 .594-.136.686-.409 4.434-9.218 3.703-19.389 5.211-29.243 1.235-7.855 5.257-14.894 5.806-22.885.32-4.904-.594-9.899-1.006-14.758-.457-5.54-.777-11.125-1.143-16.665-.64-10.671-1.462-21.569-3.885-32.013-.046-.272-.457-.136-.412.091 3.017 14.576 3.337 29.334 4.206 44.137.32 5.222 1.143 10.58 1.189 15.847-.092-.227-.183-.408-.275-.635-.503-.818-1.097-.636-2.103-.727zm-2.24 21.387c-2.011 6.176-2.377 12.533-3.017 18.936-.32 3.451-.868 6.902-1.737 10.262-.137.409-1.554 5.086-1.417 5.086-.366 0-.731.045-1.097.045.137 0-1.097-2.906-1.189-3.224-2.377-6.312-.137-12.76 2.377-18.663 1.143-2.679 2.378-5.312 3.338-8.082 1.142-3.361 1.737-6.902 2.285-10.353.549-3.678 1.052-7.357 2.012-10.944.182-.772.457-1.498.685-2.225.32-.999-.182-.999.823-1.09 1.052-.09 1.235 2.452 1.509 3.451-.046.5-.046.954-.137 1.453-.503 5.313-2.789 10.308-4.435 15.348zm173.166-95.13c2.149-2.406 3.383-5.676 4.572-8.627 1.234-3.179 2.285-6.448 2.925-9.808.915-4.45 1.235-9.127 1.738-13.668.594-5.449.96-10.898.731-16.393-.183-4.268-.777-8.582-2.56-12.487-.183-.408-.777-.499-1.143-.318-2.88 1.635-5.531 3.497-8.274 5.313-2.332 1.499-5.349 2.361-7.36 4.268-.046-.454-.046-.908-.092-1.362 0-.408-.594-.408-.64 0-.091 6.902 1.555 13.577 1.783 20.479.229 6.948-.365 13.85 0 20.752.229 3.905.457 9.581 3.292 12.669 1.645 1.771 3.794.59 5.028-.818zm-6.125-12.578c-.412-6.629.137-13.304-.229-19.934-.32-5.994-2.24-11.806-2.926-17.754.229.045.457 0 .64-.182.96-.908 2.24-1.272 3.429-1.816 1.371-.636 2.697-1.408 3.977-2.225 2.514-1.59 4.891-3.315 7.451-4.814 1.692 4.223 1.92 8.9 1.966 13.396.046 5.449-.503 10.943-1.143 16.347-.914 7.901-2.103 15.348-5.303 22.704-.822 1.907-2.331 6.039-4.662 6.629-2.378.681-3.155-11.443-3.2-12.351zm-8.275 56.715c.96-6.221 2.377-12.487 5.12-18.163 2.423-5.086 5.074-9.945 5.989-15.53.045-.408-.549-.59-.64-.181-1.189 5.903-4.663 10.898-7.269 16.256-2.606 5.358-3.886 11.352-4.937 17.164-1.097 6.176-1.737 12.442-2.377 18.663-.686 6.584-.686 12.896.685 19.389 1.372 6.403 3.749 12.533 5.943 18.708 1.92 5.404 5.532 10.262 8.96 14.803 3.612 4.768 7.223 9.581 10.195 14.758 3.062 5.403 4.8 13.123 4.388 19.298-.046.682.96.636 1.006 0 .64-6.13-.229-11.715-2.56-17.436-2.149-5.177-5.76-9.672-9.189-14.077-3.748-4.768-7.405-9.581-10.148-15.03-2.972-5.903-4.937-12.714-6.583-19.071-1.692-6.63-1.829-13.033-.96-19.753.823-6.63 1.371-13.214 2.377-19.798zm-18.834 67.34c-.915-6.311-1.692-12.578-1.6-18.935.045-6.312 1.463-12.124 3.428-18.072.137-.409-.457-.636-.64-.273-5.988 10.898-4.525 24.248-2.834 36.009.869 5.812 2.103 11.034 4.891 16.256 2.652 4.995 5.852 9.627 8.275 14.758.137.318.64.045.503-.273-2.058-4.813-4.8-9.263-7.223-13.895-2.652-4.995-4.023-10.035-4.8-15.575zm21.074-190.986c.32 4.313-.32 8.854 1.28 12.986 1.006 2.543 3.886 4.496 6.537 4.814 2.24.272 3.977-1.499 4.983-3.27 2.743-4.768 2.88-11.306 2.743-16.619-.046-2.543-.275-5.177-.869-7.674-.96-4.223-3.246-8.355-5.257-12.215-5.029-9.717-11.246-18.754-13.897-29.47-1.417-5.721-2.514-11.488-3.383-17.3-.777-5.359-1.234-10.808-2.149-16.12.092-.591.229-1.181.32-1.771.092-.454-.548-.681-.731-.318-.183-.318-.777-.227-.731.182.045.726.091 1.407.137 2.134-2.789 10.716-6.263 21.251-6.995 32.376-.365 5.721.229 11.488 1.692 17.028 1.737 6.493 4.937 12.26 8.411 17.981 1.646 2.68 3.2 5.404 4.617 8.219 1.509 2.725 3.063 5.903 3.292 9.037zm-12.754-32.286c-5.898-16.21-1.143-32.784 2.102-48.995.503 4.586 1.189 9.127 1.875 13.668.96 6.539 2.103 13.123 3.931 19.525 3.292 11.625 10.377 21.524 15.314 32.422 1.555 3.451 2.698 6.675 3.063 10.444.32 3.451.275 6.902-.091 10.353-.457 4.359-2.514 14.439-8.686 9.172-2.468-2.089-2.286-5.994-2.377-8.945-.091-3.633-.046-6.811-1.234-10.308-3.337-9.763-10.377-17.664-13.897-27.336zM120.32 432.968a89.457 89.457 0 01-.091-15.257c.32-4.269 1.051-8.492 1.188-12.76 3.383-11.579 6.126-23.34 9.418-34.964 3.245-11.67 8.228-22.931 9.828-35.01.732-5.358.457-10.762-.686-16.074-1.234-5.813-3.702-11.489-5.622-17.119-3.612-10.58-7.269-21.251-12.252-31.287a1.242 1.242 0 00-.228-.272c1.234-2.679 2.194-5.449 2.834-8.491 1.874-8.764 1.097-17.982-.137-26.791-1.326-9.717-3.337-19.344-4.252-29.107a89.457 89.457 0 01-.091-15.257c.32-4.268 1.051-8.491 1.188-12.76 3.383-11.579 6.126-23.339 9.418-34.964 3.245-11.67 8.228-22.931 9.828-35.01.732-5.358.457-10.761-.686-16.074-1.234-5.812-3.702-11.488-5.622-17.119-3.612-10.58-7.269-21.251-12.252-31.286-.046-.091-.137-.182-.228-.273 1.234-2.679 2.194-5.449 2.834-8.491 1.874-8.764 1.097-17.982-.137-26.79-.366-2.68-.777-5.359-1.235-7.993h-2.194c.274 1.544.503 3.134.732 4.677 1.462 9.49 2.56 19.299.868 28.835-.64 3.632-1.828 7.174-3.337 10.58-2.194 1.907-3.474 4.722-4.526 7.356-1.783 4.359-2.88 8.99-4.16 13.531-1.188 4.36-2.514 8.537-4.525 12.578-2.332 4.723-5.029 9.218-7.086 14.077-3.977 9.445-3.52 19.707-1.92 29.606 1.646 10.262 4.571 20.525 8.686 30.106 2.56 5.994 5.622 12.124 10.331 16.801.503.499 1.417.408 1.783-.227 8.503-16.029 6.171-34.874 10.377-52.038.96-3.814 2.743-7.402 3.611-11.216.778-3.451.32-6.811-.731-10.126-1.463-4.586-3.703-9.036-5.531-13.486-1.92-4.813-3.612-9.717-4.8-14.758-.275-1.09-1.555-.999-2.103-.272-13.257 17.3-20.023 41.049-14.766 62.481 1.28 5.268 3.474 10.308 6.4 14.94 1.189 1.907 3.246 6.13 6.08 5.948 2.194-.136 2.789-3.224 3.109-4.858.685-3.542.822-7.22 1.005-10.808.503-8.536 3.246-16.483 4.48-24.883 1.372-9.082-1.874-16.574-8.091-23.204-.274-.272-.823-.409-1.189-.136-3.291 2.497-5.028 6.403-6.171 10.262-1.554 5.131-2.057 10.626-2.103 15.984-.046 5.358.457 10.762 1.829 15.938.64 2.452 2.331 9.263 5.531 9.263.366 0 .777-.272.869-.635 1.508-7.129 3.291-14.122 3.885-21.388.503-6.084.32-14.258-5.714-17.663-.411-.227-.823-.091-1.097.272-4.252 6.176 1.691 13.532 1.28 20.161-.046.545.686.999 1.143.636a7.817 7.817 0 002.88-4.132c-.046.636-.092 1.226-.137 1.816-.595 6.357-2.286 12.533-3.749 18.754-.503-.636-1.051-1.907-1.371-2.634-.823-1.862-1.372-3.86-1.829-5.858-1.097-4.722-1.509-9.626-1.554-14.485-.046-4.904.457-9.808 1.691-14.576.869-3.36 2.24-7.174 4.937-9.535 3.52 3.86 6.355 8.218 7.223 13.486.777 4.631-.32 9.399-1.326 13.895-1.051 4.631-2.24 9.263-2.742 14.031-.366 3.723-.503 7.492-.869 11.216-.091 1.135-.366 7.447-2.24 7.537-1.234.046-2.56-2.315-3.063-3.087-1.6-2.362-2.971-4.859-4.16-7.447-4.891-10.626-5.44-22.795-3.657-34.193 1.874-12.078 6.72-23.794 13.806-33.783 2.331 8.445 6.08 16.347 9.28 24.52 1.371 3.542 1.965 7.129 1.143 10.898-.869 3.905-2.698 7.538-3.658 11.397-3.977 16.211-1.691 34.193-9.28 49.45-5.897-6.63-9.325-15.62-12.068-23.839-3.246-9.672-5.669-19.844-6.309-30.061-.365-5.539.137-11.079 1.829-16.392 1.646-5.131 4.434-9.808 6.903-14.576 4.297-8.31 5.851-17.255 8.823-26.019.32-.908.64-1.861 1.005-2.86 1.28-1.908 2.469-3.815 3.52-5.813.092-.09.183-.136.229-.227 4.663 9.581 8.091 19.707 11.52 29.742 1.828 5.404 4.023 10.762 5.44 16.302 1.463 5.767 1.463 11.761.594 17.618-.823 5.495-2.468 10.808-4.16 16.075-1.92 5.948-3.794 11.942-5.44 17.982-3.154 11.76-5.668 23.657-8.823 35.418-.045.227 0 .454.183.59-2.057 7.81-2.423 16.393-1.966 24.339.549 9.445 2.378 18.708 3.84 28.062 1.463 9.491 2.56 19.299.869 28.834-.64 3.633-1.829 7.175-3.337 10.581-2.194 1.907-3.474 4.722-4.526 7.356-1.783 4.359-2.88 8.991-4.16 13.531-1.188 4.36-2.514 8.537-4.526 12.578-2.331 4.723-5.028 9.218-7.085 14.077-3.977 9.445-3.52 19.707-1.92 29.606 1.645 10.262 4.571 20.525 8.685 30.106 2.56 5.994 5.623 12.124 10.332 16.801.503.499 1.417.408 1.783-.227 8.503-16.029 6.171-34.874 10.377-52.038.96-3.814 2.743-7.402 3.611-11.216.777-3.451.32-6.811-.731-10.126-1.463-4.586-3.703-9.036-5.532-13.486-1.92-4.813-3.611-9.718-4.8-14.758-.274-1.09-1.554-.999-2.102-.272-13.258 17.3-20.023 41.049-14.766 62.481 1.28 5.268 3.474 10.308 6.4 14.94 1.188 1.907 3.246 6.13 6.08 5.948 2.194-.136 2.788-3.224 3.108-4.859.686-3.541.823-7.22 1.006-10.807.503-8.536 3.246-16.483 4.48-24.883 1.372-9.082-1.874-16.574-8.091-23.204-.275-.272-.823-.409-1.189-.136-3.291 2.497-5.028 6.402-6.171 10.262-1.555 5.131-2.057 10.626-2.103 15.984-.046 5.358.457 10.761 1.828 15.938.64 2.452 2.332 9.263 5.532 9.263.366 0 .777-.272.868-.635 1.509-7.13 3.292-14.122 3.886-21.388.503-6.084.32-14.258-5.714-17.663-.412-.228-.823-.091-1.097.272-4.252 6.175 1.691 13.532 1.28 20.161-.046.545.685.999 1.143.636a7.828 7.828 0 002.88-4.132c-.046.635-.092 1.226-.138 1.816-.594 6.357-2.285 12.533-3.748 18.754-.503-.636-1.052-1.907-1.372-2.634-.822-1.862-1.371-3.86-1.828-5.858-1.097-4.722-1.509-9.626-1.554-14.485-.046-4.904.457-9.808 1.691-14.576.869-3.36 2.24-7.174 4.937-9.536 3.52 3.86 6.354 8.219 7.223 13.487.777 4.631-.32 9.399-1.326 13.895-1.051 4.631-2.24 9.263-2.743 14.031-.365 3.723-.502 7.492-.868 11.215-.092 1.136-.366 7.447-2.24 7.538-1.234.046-2.56-2.316-3.063-3.088-1.6-2.361-2.971-4.858-4.16-7.446-4.891-10.626-5.44-22.795-3.657-34.193 1.874-12.078 6.72-23.794 13.806-33.784 2.331 8.446 6.08 16.347 9.28 24.521 1.371 3.542 1.965 7.129 1.142 10.898-.868 3.905-2.697 7.538-3.657 11.397-3.977 16.211-1.691 34.193-9.28 49.45-5.897-6.63-9.325-15.621-12.068-23.839-3.246-9.672-5.669-19.844-6.309-30.061-.366-5.54.137-11.079 1.829-16.392 1.645-5.131 4.434-9.808 6.903-14.576 4.297-8.31 5.851-17.255 8.822-26.019.32-.908.64-1.862 1.006-2.861 1.28-1.907 2.469-3.814 3.52-5.812.092-.091.183-.136.229-.227 4.663 9.581 8.091 19.707 11.52 29.742 1.828 5.404 4.023 10.762 5.44 16.302 1.463 5.767 1.463 11.761.594 17.618-.823 5.495-2.469 10.807-4.16 16.075-1.92 5.948-3.794 11.942-5.44 17.981-3.154 11.761-5.669 23.658-8.823 35.419-.046.227 0 .454.183.59-2.057 7.81-2.423 16.392-1.966 24.339.275 4.768.869 9.536 1.6 14.258h2.195c-.32-4.223-.869-8.219-1.235-12.26zm-4.525-317.085c-.138-2.589-.869-5.086-1.6-7.538-.915-3.088-1.875-6.403-.275-9.354 2.606 1.771 3.795 4.631 4.252 7.765-.32-1.09-.686-2.135-1.143-3.088-.274-.59-1.097-.363-1.28.181-1.326 3.724-.686 7.584.686 11.171-.229.272-.412.59-.64.863zm.731-9.627c.686 2.089 1.051 4.541.594 6.721-.64-2.225-.96-4.45-.594-6.721zm-.731 236.667c-.138-2.588-.869-5.085-1.6-7.537-.915-3.088-1.875-6.403-.275-9.354 2.606 1.771 3.795 4.631 4.252 7.764-.32-1.089-.686-2.134-1.143-3.087-.274-.591-1.097-.364-1.28.181-1.326 3.724-.686 7.583.686 11.171-.229.272-.412.59-.64.862zm.731-9.626c.686 2.089 1.051 4.541.594 6.72-.64-2.225-.96-4.45-.594-6.72zm92.662 92.359c-1.554-2.815-4.022-4.813-7.36-4.086-3.931.817-6.217 4.359-7.725 7.719-2.149 4.813-3.612 10.217-4.435 15.666h2.88c.32-1.817.686-3.587 1.098-5.358 1.005-4.45 2.331-9.037 4.845-12.896 1.052-1.59 2.789-3.315 4.8-3.542 2.012-.227 3.475 1.816 4.389 3.315 2.286 3.678 3.657 8.355 4.754 12.487a65.28 65.28 0 011.234 5.948h1.509a76.335 76.335 0 00-1.646-7.946c-1.005-3.769-2.377-7.81-4.343-11.307z"/><path d="M204.435 428.426c-2.652-1.907-5.166 1.226-6.263 3.315-2.149 3.996-2.926 8.809-3.566 13.259h1.143a79.65 79.65 0 012.286-8.627c.594-1.817 2.194-7.538 5.028-7.129 2.286.363 3.154 4.268 3.611 5.994.869 3.178 1.372 6.447 1.738 9.762h1.143a81.197 81.197 0 00-1.235-8.128c-.594-2.815-1.371-6.629-3.885-8.446z"/><path d="M200.092 433.739c-1.875 2.407-1.966 6.13-2.332 9.036-.091.727-.137 1.499-.274 2.225h1.92c.046-.181.046-.318.091-.499.092-.591.137-1.226.183-1.817.229-1.316.594-2.633 1.189-3.905 1.28.772 1.737 3.27 1.965 5.086-.411-.908-.96-1.68-1.782-2.27-.138-.091-.458-.046-.503.136a13.803 13.803 0 00-.96 3.315h.868c.183-.954.503-2.589.777-2.316.64.59.915 1.498 1.143 2.316h1.509c-.229-2.18-.64-6.857-3.154-7.674-.092 0-.138-.046-.229 0 .091-.409.183-.772.32-1.181.457-1.453 1.189-2.27 2.651-1.408 1.966 1.136 1.692 4.632 1.6 6.539-.045 1.226-.137 2.498-.182 3.724h1.097c.045-1.045.137-2.089.183-3.179.137-2.18.365-4.586-.503-6.63-.869-2.225-3.886-3.678-5.577-1.498zm7.999-3.36c1.326 4.768 2.24 9.672 2.88 14.621h.595a91.712 91.712 0 00-3.429-14.621c0-.046-.046-.046-.046 0z"/><path d="M211.063 416.166c-.823-2.77-1.829-5.494-3.063-8.083a29.972 29.972 0 00-4.16-6.448c-.96-1.135-2.103-2.406-3.612-2.633-2.56-.363-3.84 2.724-4.571 4.586-1.371 3.36-1.966 7.038-2.88 10.535-1.143 4.495-2.56 8.945-4.48 13.168-.046-.272-.457-.318-.594 0-2.149 5.721-6.263 10.716-7.36 16.801-.046.318-.092.59-.137.908h1.188a21.455 21.455 0 011.692-5.948c-.503 1.952-.778 3.95-.915 5.948h1.92c.137-4.314.96-8.446 3.063-12.442 1.189-2.27 2.56-4.54 3.52-6.947 1.097-2.679 1.737-5.494 2.697-8.219 1.006-2.861 1.646-5.812 2.377-8.718.549-2.134 1.326-7.084 3.795-7.992 1.417-.545 2.971 2.361 3.52 3.178 1.417 2.225 2.514 4.678 3.474 7.13 1.92 4.631 2.651 9.762 4.709 14.303 2.148 4.859 5.668 8.9 7.222 14.031a29.01 29.01 0 011.098 5.676h.822a38.183 38.183 0 00-.502-5.131c-.96-5.903-4.572-10.671-6.675-16.165-.96-2.407-1.371-5.04-2.148-7.538zm5.211 4.268c2.835 8.083 6.035 16.075 6.858 24.566h1.234c-.686-8.627-3.886-17.391-7.954-24.656-.046-.091-.183 0-.138.09zm-69.851 13.441c.32-6.403 1.737-12.533 3.657-18.617 2.24-4.995 3.611-10.444 4.937-15.712a34.39 34.39 0 00.503-2.088c.229-.863.503-1.726.731-2.589a.76.76 0 000-.454c1.143-4.768 2.24-9.536 3.475-14.258 3.154-12.215 5.303-24.566 5.805-37.189.503-12.488-.64-25.202-4.114-37.235-1.966-6.766-4.434-13.395-6.308-20.161a279.45 279.45 0 01-4.938-20.979c-3.748-19.071-4.754-38.324-3.794-57.714.32-6.402 1.737-12.532 3.657-18.617 2.24-4.995 3.612-10.444 4.937-15.711a34.42 34.42 0 00.503-2.089c.229-.863.503-1.725.732-2.588a.776.776 0 000-.454c1.143-4.768 2.24-9.491 3.474-14.258 3.154-12.215 5.303-24.566 5.806-37.19.503-12.487-.64-25.201-4.115-37.234-1.965-6.766-4.434-13.396-6.308-20.162a278.967 278.967 0 01-4.937-20.978c-2.423-12.442-3.703-24.93-4.023-37.507h-1.783c.137 2.043.274 4.132.457 6.175 1.006 14.077 3.017 28.062 6.309 41.821 1.645 6.993 3.657 13.94 5.851 20.752 2.012 6.266 4.252 12.35 5.532 18.799 3.474 17.028 2.788 35.1-1.143 51.947-.915 3.905-2.423 7.628-3.429 11.488-1.143 4.359-2.057 8.718-2.971 13.123-.503 2.406-1.052 4.768-1.6 7.129-2.606 7.401-5.486 14.712-7.406 22.295-3.246 12.851-2.011 26.564-1.097 39.642 1.006 14.076 3.017 28.062 6.308 41.821 1.646 6.992 3.658 13.94 5.852 20.751 2.011 6.266 4.251 12.351 5.531 18.799 3.475 17.028 2.789 35.101-1.143 51.947-.914 3.905-2.422 7.629-3.428 11.488-1.143 4.359-2.057 8.719-2.972 13.123-.502 2.407-1.051 4.768-1.6 7.129-2.605 7.402-5.485 14.713-7.405 22.296-2.012 7.901-2.286 16.165-2.012 24.384h2.195c-.046-3.678.091-7.402.274-11.125zm-55.314-14.258c1.051-5.222 2.971-10.398 4.571-15.484a1319.67 1319.67 0 012.194-6.993c.092-.363.229-.726.412-1.09-.823 8.809.503 17.709 2.057 26.382 1.326 7.493 3.154 14.985 4.114 22.568h1.92c-.548-6.811-1.645-13.577-2.88-20.297-1.874-10.308-4.023-20.888-3.611-31.423 0-.363-.274-.545-.594-.59v-.182c0-.908-1.28-1.044-1.509-.227a3.436 3.436 0 00-.137.954c-.32 1.408-1.143 2.997-1.6 4.268-.823 2.316-1.6 4.632-2.423 6.993-1.737 5.04-3.794 10.126-4.937 15.303-1.875 8.582.64 17.028 2.971 25.247h2.377c-2.285-8.446-4.663-16.62-2.925-25.429zM81.097 442.14c-.228-8.355.183-16.983 2.24-25.111a118.157 118.157 0 005.029-16.165c.365-1.362.685-2.725.914-4.132.457-2.316.914-4.586 1.234-6.902.869-5.585 1.235-11.08.092-16.665-1.326-6.312-3.932-12.26-5.532-18.481-1.828-7.084-1.28-14.939-.914-22.159.366-7.356 1.143-14.667 1.189-22.023.09-14.667-2.24-29.243-2.652-43.91-.228-8.31-.091-16.619-.32-24.975-.228-8.854-1.051-17.709-1.28-26.563-.228-8.355.183-16.983 2.24-25.111a118.157 118.157 0 005.029-16.165c.365-1.363.685-2.725.914-4.132.457-2.316.914-4.587 1.234-6.903.869-5.585 1.235-11.079.092-16.664-1.326-6.312-3.932-12.26-5.532-18.481-1.828-7.084-1.28-14.94-.914-22.16.366-7.356 1.143-14.666 1.189-22.023.09-14.666-2.24-29.242-2.652-43.91-.228-8.309-.091-16.619-.32-24.974-.137-4.858-.457-9.763-.731-14.621h-2.012c.457 6.856 1.052 13.668 1.28 20.524.183 6.902.183 13.85.366 20.752.228 7.31 1.051 14.576 1.417 21.887.686 14.803-.457 29.379-1.097 44.136-.32 8.31-.183 16.665 2.286 24.657 2.331 7.492 5.714 14.848 5.668 22.84 0 3.542-.365 7.129-.914 10.717-.274.09-.457.363-.503.681-.64 6.72-3.428 12.986-5.623 19.298-2.148 6.267-3.017 12.942-3.383 19.571-.731 14.167 1.372 28.335 1.783 42.457.183 6.902.183 13.849.366 20.751.228 7.311 1.051 14.576 1.417 21.887.686 14.803-.457 29.379-1.097 44.137-.32 8.309-.183 16.665 2.286 24.656 2.331 7.493 5.714 14.849 5.668 22.841 0 3.541-.365 7.129-.914 10.716-.274.091-.457.363-.503.681-.64 6.721-3.428 12.987-5.623 19.299-2.148 6.266-3.017 12.941-3.383 19.571-.228 4.268-.183 8.582 0 12.85h2.058a46.06 46.06 0 01-.092-2.679zM40.777 445c.731-3.632 1.234-7.265 1.6-10.989.549-5.494.823-11.079 1.143-16.573.274-4.995 1.006-10.308.548-15.303-.045-.409-.594-.545-.73-.091-1.418 4.359-1.464 9.445-1.784 13.986-.411 5.494-.823 11.034-1.326 16.528-.365 4.133-.777 8.31-1.325 12.442h1.874zm-19.245-12.669c-.183-.408-.778-.499-1.143-.318-2.88 1.635-5.532 3.497-8.275 5.313-2.331 1.499-5.348 2.361-7.36 4.269-.045-.455-.045-.909-.091-1.363 0-.408-.594-.408-.64 0 0 1.59.046 3.179.183 4.723h.96l-.274-2.044c.228.046.457 0 .64-.181.96-.908 2.24-1.272 3.428-1.817 1.371-.635 2.697-1.407 3.977-2.225 2.514-1.589 4.892-3.314 7.452-4.813 1.371 3.497 1.783 7.265 1.92 11.034h1.782v-.181c-.137-4.178-.777-8.492-2.56-12.397zm209.051-18.572c.32 4.314-.32 8.855 1.28 12.987 1.006 2.543 3.886 4.496 6.537 4.813 2.24.273 3.977-1.498 4.983-3.269 2.743-4.768 2.88-11.307 2.743-16.619-.046-2.543-.275-5.177-.869-7.674-.96-4.223-3.246-8.355-5.257-12.215-5.029-9.717-11.246-18.754-13.897-29.47-1.417-5.721-2.514-11.488-3.383-17.301-.777-5.358-1.234-10.807-2.149-16.119.092-.591.229-1.181.32-1.771.092-.454-.548-.681-.731-.318-.183-.318-.777-.227-.731.181.045.727.091 1.408.137 2.135-2.789 10.716-6.263 21.251-6.995 32.376-.365 5.721.229 11.488 1.692 17.028 1.737 6.493 4.937 12.26 8.411 17.981 1.646 2.679 3.2 5.404 4.617 8.219 1.509 2.725 3.063 5.903 3.292 9.036zm-12.754-32.285c-5.898-16.21-1.143-32.784 2.102-48.995.503 4.586 1.189 9.127 1.875 13.668.96 6.538 2.103 13.123 3.931 19.525 3.292 11.625 10.377 21.524 15.314 32.422 1.555 3.451 2.698 6.675 3.063 10.444.32 3.451.275 6.902-.091 10.353-.457 4.359-2.514 14.439-8.686 9.172-2.468-2.089-2.286-5.994-2.377-8.945-.091-3.633-.046-6.812-1.234-10.308-3.337-9.763-10.377-17.664-13.897-27.336zM19.155 70.383c-2.789 4.859-4.618 10.217-5.623 15.711-3.977 21.66 5.988 45.545 21.623 60.62 2.514 2.407 6.171 5.177 9.828 3.678 3.337-1.362 4.937-5.449 6.126-8.537 4.663-11.715 7.588-24.384 9.371-36.78.915-6.403 1.555-12.896 1.235-19.344-.275-6.539-1.692-12.941-3.338-19.253-1.6-6.04-3.245-12.033-5.44-17.891-2.102-5.63-4.48-11.216-6.17-16.983-.87-2.997-1.51-6.13-1.6-9.263 0-.5-.412-.908-.915-.908h-.686c-.274 0-.64.182-.777.454-1.234 2.77-1.326 5.449-.823 8.31a46.007 46.007 0 01-3.748 12.124c-2.24 4.813-5.395 9.218-8.55 13.486-3.473 4.768-7.496 9.354-10.513 14.576zm15.04-16.62c2.834-4.04 5.303-8.31 7.04-12.94 1.097-2.907 1.691-5.95 1.965-9.037.275-.136.549-.409.457-.817-.228-1.59-.365-3.179-.228-4.814.046-.363.091-.68.183-.999.96 10.308 6.583 19.935 9.6 29.697 4.023 12.942 7.405 26.246 6.491 39.914-.868 13.396-3.794 26.291-7.726 39.097-1.417 4.586-2.65 10.171-6.034 13.804-3.794 4.041-8.914-1.635-11.383-4.405-14.4-16.165-23.268-39.55-17.508-61.029 2.971-11.08 10.697-19.343 17.143-28.47z"/><path d="M18.377 94.268c.64 8.627 4.983 16.801 8.32 24.702 1.692 3.996 3.475 7.946 5.852 11.579 1.417 2.134 3.52 4.949 6.308 5.131 6.355.454 9.189-6.312 10.652-11.307 2.057-7.083 2.514-14.621 2.971-21.977.457-7.629 1.417-15.121 1.417-22.795 0-9.99-.868-20.48-4.343-29.924-.96-2.634-2.194-5.131-3.794-7.402-.366-.5-1.097-.545-1.417 0-.092.136-.183.273-.32.409-.046-.318-.503-.545-.686-.182-.32.545-.594 1.09-.914 1.635-.549.454-1.097.908-1.463 1.544-.183.318-.137.59.046.817-9.417 15.076-24 28.97-22.629 47.77zm21.806-40.505c.274-.227.503-.408.777-.59.137 0 .229-.045.366-.09 5.074 8.4 3.886 19.025 2.971 28.516-.32-3.77-.594-7.583-.777-11.398-.091-1.77-.137-3.496-.183-5.267-.046-1.408.183-2.043-.868-2.997-.732-.636-1.418-.772-2.058-.545-.137-.045-.274-.045-.41.09-7.727 7.63-15.27 18.028-13.44 29.47.868 5.54 3.93 9.718 7.45 13.941 1.783 2.134 4.16 5.313 7.086 5.994 2.149.5 3.383-.954 4.023-3.315a39.21 39.21 0 01-.137 4.632c-.274 2.815-1.691 8.673-5.714 7.719-3.109-.726-5.349-4.541-6.858-6.993-2.24-3.587-3.885-7.537-5.302-11.488-1.28-3.542-2.332-7.174-2.377-10.989 0-7.447 3.885-14.53 7.314-20.887 1.691-3.134 3.474-6.221 5.074-9.445a81.272 81.272 0 002.057-4.541c.366-.636.412-1.317 1.006-1.816zM38.537 64.48a.833.833 0 00.732.045c.457-.227.823-.5 1.234-.863 1.051-.953.823 2.543.823 3.043.045 2.906.183 5.812.365 8.673.046.908.138 1.77.183 2.679-.868-2.588-2.011-5.04-3.52-7.22-.274-.363-.777-.59-1.188-.454-.183-.227-.594-.227-.732.045-.182.454-.365.863-.548 1.317-.503.636-1.006 1.272-1.646 1.816-.549.455-.091 1.09.457 1.136-.64 1.68-1.234 3.405-1.92 5.085-.914 2.407-1.737 4.814-1.828 7.402-.32 6.675 5.988 12.215 10.468 16.301.549.5 1.417.409 1.783-.227a21.95 21.95 0 01-.274 2.498c-.229 1.589-.503 3.542-2.377 2.407-2.469-1.454-4.389-4.178-6.126-6.358-3.2-3.905-5.532-7.946-5.897-13.077-.457-8.719 4.571-17.437 10.011-24.248zM34.88 79.828c.686-2.044 1.371-4.132 1.829-6.267.228-.181.411-.408.64-.635 2.057 3.496 3.2 7.583 3.931 11.579-.594-1.09-1.371-2.089-2.468-2.952-.458-.363-1.143-.363-1.463.182-.137.227-.183.454-.229.727-.32-.228-.914-.046-.868.454.457 4.132.96 7.764 3.977 10.898.502.544 1.462.272 1.645-.454.137-.5.275-1.045.366-1.544.183 2.906.046 5.903-.594 8.718-3.977-3.633-8.595-8.128-8.457-13.713.091-2.361 1.005-4.723 1.691-6.993zm3.703 4.087c1.737 2.043 2.286 4.404 1.874 6.992-1.143-1.68-1.92-3.678-2.468-5.676.411-.363.503-.817.594-1.316zM35.932 57.26c-.96 1.816-1.875 3.633-2.88 5.404-2.835 5.176-5.76 10.262-8 15.756-2.012 4.995-3.109 10.308-2.332 15.666.457 3.36 1.737 6.675 3.017 9.808 1.509 3.769 3.292 7.493 5.486 10.898 1.646 2.543 3.703 5.358 6.491 6.675 2.378 1.135 4.709.363 6.4-1.498 2.835-3.134 2.926-7.901 2.698-11.852-.183-3.587-.778-7.129-1.19-10.716-.136-1.953-.319-3.678-.41-4.813-.092-4.36 1.051-8.855 1.645-13.169 1.235-9.127 1.692-20.388-4.937-27.608-.046-.182-.183-.363-.366-.5 0 0-.045 0-.045-.045a.348.348 0 00-.183-.09c-.275-.228-.64-.092-.777.136-.549.227-1.006.544-1.417.862a136.054 136.054 0 003.154-5.63l.045-.046c.686-.999 1.783-1.634 2.652-2.452 5.12 7.901 6.354 18.209 6.949 27.336.32 5.131.32 10.308.09 15.439-.182 3.86-.776 7.628-1.05 11.488-.503 6.902-.778 13.849-2.058 20.661-.914 4.904-2.88 15.03-9.691 14.667-2.697-.137-4.754-4.36-5.852-6.312-2.057-3.587-3.702-7.447-5.257-11.216-3.2-7.629-7.085-15.212-7.405-23.612-.366-9.082 3.748-17.392 8.503-24.884 2.148-3.496 4.48-6.902 6.72-10.353zM.64 59.893c-3.063 12.987-12.709 22.25-18.743 33.784-.96 1.816-1.691 3.723-2.331 5.63 1.188-5.766 2.423-11.533 4.343-17.164 2.788-8.082 8.045-14.984 11.2-22.886 2.834-7.129 2.651-14.893 2.514-22.431 0-.318-.457-.318-.503 0-.183 7.855-1.28 15.439-4.526 22.659-1.691 3.768-4.068 7.174-5.988 10.852-2.103 3.996-3.429 8.537-4.709 12.85-2.651 8.719-3.794 17.619-5.577 26.519-.731 3.587-1.829 7.22-2.788 10.853-1.052 2.906-1.966 5.812-2.606 8.9-.823 4.086-.96 8.309-.64 12.487 1.188 16.165 9.783 31.604 18.514 44.999 7.726 17.891 8.55 38.325 11.11 57.532 1.874 14.032 4.068 28.471.777 42.502-3.063 12.987-12.709 22.25-18.743 33.784-.96 1.816-1.692 3.724-2.332 5.631 1.19-5.767 2.423-11.534 4.343-17.165 2.789-8.082 8.046-14.984 11.2-22.885 2.835-7.129 2.652-14.894 2.515-22.432 0-.318-.458-.318-.503 0-.183 7.856-1.28 15.439-4.526 22.659-1.691 3.769-4.068 7.174-5.988 10.852-2.103 3.996-3.43 8.537-4.71 12.851-2.65 8.718-3.793 17.618-5.576 26.518-.732 3.587-1.829 7.22-2.789 10.853-1.051 2.906-1.966 5.812-2.606 8.9-.822 4.087-.96 8.309-.64 12.487 1.19 16.165 9.783 31.604 18.515 44.999 4.205 9.809 6.4 20.343 7.908 31.06h2.652a68.036 68.036 0 00-.366-2.997c-1.188-8.31-3.657-15.984-6.72-23.749-1.691-4.359-3.794-8.264-6.309-11.987-4.8-8.946-9.645-17.891-12.297-27.79-1.28-4.768-1.92-9.718-1.782-14.622.228-2.543.502-5.04.868-7.537 1.326-5.722 4.252-10.898 5.806-16.62 1.691-6.221 2.697-12.669 5.623-18.481 2.834-5.631 6.628-10.626 10.103-15.893 3.52-5.358 6.125-10.943 7.634-17.164 1.6-6.63 1.92-13.486 1.691-20.298-.365-9.263-1.92-18.39-2.788-27.608-.778-8.446-.686-16.846-1.875-25.292-1.188-8.31-3.657-15.984-6.72-23.749-1.691-4.359-3.794-8.264-6.308-11.987-4.8-8.946-9.646-17.891-12.297-27.79-1.28-4.768-1.92-9.717-1.783-14.622.228-2.542.503-5.04.868-7.537 1.326-5.722 4.252-10.898 5.806-16.62 1.692-6.221 2.697-12.669 5.623-18.48 2.834-5.631 6.628-10.626 10.103-15.894C-2.194 73.016.41 67.431 1.92 61.21c1.6-6.63 1.92-13.486 1.691-20.297-.365-9.264-1.92-18.39-2.788-27.609C.41 8.9.274 4.495 0 .091h-2.194c.685 5.857 1.28 11.67 2.057 17.391 1.874 13.986 4.114 28.38.777 42.411zm13.531-20.705c2.149-2.407 3.383-5.676 4.572-8.628 1.234-3.178 2.285-6.448 2.925-9.808.915-4.45 1.235-9.127 1.738-13.668.274-2.361.457-4.722.594-7.129h-1.83c-.183 3.224-.548 6.448-.914 9.672-.914 7.901-2.103 15.348-5.303 22.704-.823 1.907-2.331 6.04-4.663 6.63-2.423.635-3.2-11.534-3.245-12.397-.412-6.63.137-13.304-.229-19.934C7.68 4.405 7.36 2.18 6.948 0H5.303c.274 2.225.503 4.405.548 6.63.229 6.948-.365 13.85 0 20.752.229 3.905.457 9.58 3.292 12.668 1.645 1.726 3.794.545 5.028-.862z"/><path d="M-.228 83.324c.96-6.22 2.377-12.487 5.12-18.163 2.423-5.086 5.074-9.944 5.988-15.53.046-.408-.548-.59-.64-.181-1.188 5.903-4.663 10.898-7.268 16.256C.366 71.064-.914 77.058-1.965 82.87c-1.098 6.176-1.738 12.442-2.378 18.663-.685 6.584-.685 12.896.686 19.389 1.372 6.403 3.749 12.533 5.943 18.708 1.92 5.404 5.531 10.263 8.96 14.803 3.611 4.768 7.223 9.582 10.194 14.758 3.063 5.404 4.8 13.123 4.389 19.299-.046.681.96.635 1.006 0 .64-6.131-.229-11.716-2.56-17.437-2.149-5.177-5.76-9.672-9.189-14.077-3.749-4.768-7.406-9.581-10.149-15.03-2.971-5.903-4.937-12.714-6.582-19.071-1.692-6.63-1.829-13.032-.96-19.753.822-6.63 1.371-13.214 2.377-19.798zm19.383 214.1c-2.789 4.858-4.618 10.217-5.623 15.711-3.977 21.66 5.988 45.544 21.623 60.62 2.514 2.406 6.171 5.176 9.828 3.678 3.337-1.362 4.937-5.449 6.126-8.537 4.663-11.715 7.588-24.384 9.371-36.78.915-6.403 1.555-12.896 1.235-19.344-.275-6.539-1.692-12.942-3.338-19.253-1.6-6.04-3.245-12.034-5.44-17.891-2.102-5.631-4.48-11.216-6.17-16.983-.87-2.997-1.51-6.13-1.6-9.263 0-.5-.412-.908-.915-.908h-.686c-.274 0-.64.181-.777.454-1.234 2.77-1.326 5.449-.823 8.31a46.005 46.005 0 01-3.748 12.123c-2.24 4.814-5.395 9.218-8.55 13.487-3.473 4.768-7.496 9.354-10.513 14.576zm15.04-16.62c2.834-4.041 5.303-8.309 7.04-12.941 1.097-2.906 1.691-5.948 1.965-9.036.275-.136.549-.409.457-.818-.228-1.589-.365-3.178-.228-4.813a6.45 6.45 0 01.183-.999c.96 10.308 6.583 19.934 9.6 29.697 4.023 12.941 7.405 26.246 6.491 39.914-.868 13.395-3.794 26.291-7.726 39.096-1.417 4.587-2.65 10.172-6.034 13.804-3.794 4.042-8.914-1.634-11.383-4.404-14.4-16.166-23.268-39.551-17.508-61.029 2.971-11.079 10.697-19.344 17.143-28.471z"/><path d="M18.377 321.308c.64 8.628 4.983 16.801 8.32 24.702 1.692 3.996 3.475 7.947 5.852 11.58 1.417 2.134 3.52 4.949 6.308 5.131 6.355.454 9.189-6.312 10.652-11.307 2.057-7.084 2.514-14.621 2.971-21.977.457-7.629 1.417-15.121 1.417-22.795 0-9.99-.868-20.479-4.343-29.924-.96-2.634-2.194-5.132-3.794-7.402-.366-.499-1.097-.545-1.417 0-.092.136-.183.273-.32.409-.046-.318-.503-.545-.686-.182-.32.545-.594 1.09-.914 1.635-.549.454-1.097.908-1.463 1.544-.183.318-.137.59.046.817-9.417 15.076-24 28.97-22.629 47.769zm21.806-40.504c.274-.227.503-.408.777-.59.137 0 .229-.045.366-.091 5.074 8.401 3.886 19.026 2.971 28.517a311.13 311.13 0 01-.777-11.398 203.163 203.163 0 01-.183-5.267c-.046-1.408.183-2.044-.868-2.997-.732-.636-1.418-.772-2.058-.545-.137-.045-.274-.045-.41.091-7.727 7.628-15.27 18.027-13.44 29.47.868 5.539 3.93 9.717 7.45 13.94 1.783 2.134 4.16 5.313 7.086 5.994 2.149.499 3.383-.954 4.023-3.315a39.21 39.21 0 01-.137 4.632c-.274 2.815-1.691 8.673-5.714 7.719-3.109-.726-5.349-4.541-6.858-6.993-2.24-3.587-3.885-7.538-5.302-11.488-1.28-3.542-2.332-7.175-2.377-10.989 0-7.447 3.885-14.53 7.314-20.888 1.691-3.133 3.474-6.221 5.074-9.444a81.377 81.377 0 002.057-4.541c.366-.636.412-1.317 1.006-1.817zm-1.646 10.717a.833.833 0 00.732.045c.457-.227.823-.499 1.234-.863 1.051-.953.823 2.543.823 3.043.045 2.906.183 5.812.365 8.673.046.908.138 1.771.183 2.679-.868-2.589-2.011-5.041-3.52-7.22-.274-.363-.777-.59-1.188-.454-.183-.227-.594-.227-.732.045-.182.454-.365.863-.548 1.317-.503.636-1.006 1.271-1.646 1.816-.549.454-.091 1.09.457 1.136-.64 1.68-1.234 3.405-1.92 5.085-.914 2.407-1.737 4.814-1.828 7.402-.32 6.675 5.988 12.215 10.468 16.301.549.5 1.417.409 1.783-.227a22.09 22.09 0 01-.274 2.498c-.229 1.589-.503 3.542-2.377 2.406-2.469-1.453-4.389-4.177-6.126-6.357-3.2-3.905-5.532-7.946-5.897-13.077-.457-8.719 4.571-17.437 10.011-24.248zm-3.657 15.348c.686-2.044 1.371-4.132 1.829-6.267.228-.181.411-.408.64-.635 2.057 3.496 3.2 7.583 3.931 11.579-.594-1.09-1.371-2.089-2.468-2.952-.458-.363-1.143-.363-1.463.182-.137.227-.183.454-.229.726-.32-.227-.914-.045-.868.454.457 4.133.96 7.765 3.977 10.898.502.545 1.462.273 1.645-.454.137-.499.275-1.044.366-1.544.183 2.907.046 5.903-.594 8.719-3.977-3.633-8.595-8.128-8.457-13.713.091-2.362 1.005-4.723 1.691-6.993zm3.703 4.086c1.737 2.044 2.286 4.405 1.874 6.993-1.143-1.68-1.92-3.678-2.468-5.676.411-.363.503-.817.594-1.317zm-2.651-26.654c-.96 1.816-1.875 3.632-2.88 5.403-2.835 5.177-5.76 10.263-8 15.757-2.012 4.995-3.109 10.308-2.332 15.666.457 3.36 1.737 6.675 3.017 9.808 1.509 3.769 3.292 7.492 5.486 10.898 1.646 2.543 3.703 5.358 6.491 6.675 2.378 1.135 4.709.363 6.4-1.499 2.835-3.133 2.926-7.901 2.698-11.851-.183-3.587-.778-7.129-1.19-10.716-.136-1.953-.319-3.678-.41-4.814-.092-4.359 1.051-8.854 1.645-13.168 1.235-9.127 1.692-20.388-4.937-27.608-.046-.182-.183-.363-.366-.5 0 0-.045 0-.045-.045a.351.351 0 00-.183-.091c-.275-.227-.64-.091-.777.136-.549.227-1.006.545-1.417.863a135.744 135.744 0 003.154-5.631l.045-.045c.686-.999 1.783-1.635 2.652-2.452 5.12 7.901 6.354 18.209 6.949 27.336.32 5.131.32 10.307.09 15.439-.182 3.859-.776 7.628-1.05 11.488-.503 6.902-.778 13.849-2.058 20.66-.914 4.905-2.88 15.031-9.691 14.667-2.697-.136-4.754-4.359-5.852-6.311-2.057-3.588-3.702-7.447-5.257-11.216-3.2-7.629-7.085-15.212-7.405-23.612-.366-9.082 3.748-17.392 8.503-24.884 2.148-3.497 4.48-6.902 6.72-10.353zm-21.761-18.073c2.149-2.406 3.383-5.676 4.572-8.627 1.234-3.179 2.286-6.448 2.926-9.808.914-4.45 1.234-9.127 1.737-13.668.594-5.449.96-10.898.731-16.393-.183-4.268-.777-8.582-2.56-12.487-.183-.409-.777-.499-1.143-.318-2.88 1.635-5.531 3.497-8.274 5.313-2.331 1.499-5.349 2.361-7.36 4.268-.046-.454-.046-.908-.091-1.362 0-.409-.595-.409-.64 0-.092 6.902 1.554 13.577 1.782 20.479.229 6.948-.365 13.85 0 20.752.229 3.905.458 9.581 3.292 12.669 1.646 1.771 3.794.59 5.028-.818zM8.046 253.65c-.412-6.629.137-13.304-.229-19.934-.32-5.994-2.24-11.806-2.926-17.755a.68.68 0 00.64-.181c.96-.908 2.24-1.272 3.429-1.816 1.371-.636 2.697-1.408 3.977-2.226 2.514-1.589 4.892-3.314 7.452-4.813 1.691 4.223 1.92 8.9 1.965 13.396.046 5.449-.502 10.943-1.142 16.347-.915 7.901-2.103 15.348-5.303 22.704-.823 1.907-2.332 6.039-4.663 6.629-2.377.681-3.155-11.443-3.2-12.351zm-8.274 56.715c.96-6.221 2.377-12.487 5.12-18.163 2.423-5.086 5.074-9.945 5.988-15.53.046-.408-.548-.59-.64-.181-1.188 5.903-4.663 10.898-7.268 16.256-2.606 5.358-3.886 11.352-4.937 17.164-1.098 6.176-1.738 12.442-2.378 18.663-.685 6.584-.685 12.896.686 19.389 1.372 6.403 3.749 12.533 5.943 18.708 1.92 5.404 5.531 10.262 8.96 14.803 3.611 4.768 7.223 9.581 10.194 14.758 3.063 5.403 4.8 13.123 4.389 19.298-.046.682.96.636 1.006 0 .64-6.13-.229-11.715-2.56-17.436-2.149-5.177-5.76-9.672-9.189-14.077-3.749-4.768-7.406-9.581-10.149-15.03-2.971-5.903-4.937-12.714-6.582-19.071-1.692-6.63-1.829-13.033-.96-19.753.822-6.63 1.371-13.214 2.377-19.798zm2.24-123.646c.32 4.313-.32 8.854 1.28 12.986 1.005 2.543 3.885 4.496 6.537 4.814 2.24.272 3.977-1.499 4.983-3.27 2.742-4.768 2.88-11.306 2.742-16.619-.045-2.543-.274-5.177-.868-7.674-.96-4.223-3.246-8.355-5.257-12.215C6.4 155.024.183 145.987-2.468 135.271c-1.418-5.721-2.515-11.488-3.383-17.3-.777-5.359-1.235-10.808-2.149-16.12.092-.591.229-1.181.32-1.771.092-.454-.548-.681-.731-.318-.183-.318-.777-.227-.732.182.046.726.092 1.407.137 2.134-2.788 10.716-6.262 21.251-6.994 32.376-.366 5.721.229 11.488 1.692 17.028 1.737 6.493 4.937 12.26 8.411 17.981 1.646 2.68 3.2 5.404 4.617 8.219 1.509 2.725 3.063 5.903 3.292 9.037zm-12.755-32.286c-5.897-16.21-1.143-32.784 2.103-48.995.503 4.586 1.189 9.127 1.874 13.668.96 6.539 2.103 13.123 3.932 19.525 3.291 11.625 10.377 21.524 15.314 32.422 1.554 3.451 2.697 6.675 3.063 10.444a52.24 52.24 0 01-.091 10.353c-.458 4.359-2.515 14.439-8.686 9.172-2.469-2.089-2.286-5.994-2.377-8.945-.092-3.633-.046-6.811-1.235-10.308-3.337-9.763-10.377-17.664-13.897-27.336z"/><path d="M2.012 413.759c.32 4.314-.32 8.855 1.28 12.987 1.005 2.543 3.885 4.496 6.537 4.813 2.24.273 3.977-1.498 4.983-3.269 2.742-4.768 2.88-11.307 2.742-16.619-.045-2.543-.274-5.177-.868-7.674-.96-4.223-3.246-8.355-5.257-12.215C6.4 382.065.183 373.028-2.468 362.312c-1.418-5.721-2.515-11.488-3.383-17.301-.777-5.358-1.235-10.807-2.149-16.119.092-.591.229-1.181.32-1.771.092-.454-.548-.681-.731-.318-.183-.318-.777-.227-.732.181.046.727.092 1.408.137 2.135-2.788 10.716-6.262 21.251-6.994 32.376-.366 5.721.229 11.488 1.692 17.028 1.737 6.493 4.937 12.26 8.411 17.981 1.646 2.679 3.2 5.404 4.617 8.219 1.509 2.725 3.063 5.903 3.292 9.036zm-12.755-32.285c-5.897-16.21-1.143-32.784 2.103-48.995.503 4.586 1.189 9.127 1.874 13.668.96 6.538 2.103 13.123 3.932 19.525 3.291 11.625 10.377 21.524 15.314 32.422 1.554 3.451 2.697 6.675 3.063 10.444a52.24 52.24 0 01-.091 10.353c-.458 4.359-2.515 14.439-8.686 9.172-2.469-2.089-2.286-5.994-2.377-8.945-.092-3.633-.046-6.812-1.235-10.308-3.337-9.763-10.377-17.664-13.897-27.336z"/></g><defs><clipPath id="clip0"><path fill="#fff" d="M0 0h304v445H0z"/></clipPath></defs></svg>