<svg width="33" height="29" fill="none" xmlns="http://www.w3.org/2000/svg"><path d="M10.562 15.79a8.744 8.744 0 01-2.416.353c-1.221 0-2.24-.28-3.03-.62.762 2.787 2.591 7.598 6.235 8.14.338.05.614.294.706.622l.797 2.849a.865.865 0 01-.716 1.09 6.049 6.049 0 01-.815.056C6.95 28.28 2.617 23.714.79 17.176-.284 13.341-.6 7.575 2.044 3.946 3.524 1.913 5.681.83 8.458.72h.034a7.7 7.7 0 017.389 5.61 7.627 7.627 0 01-.704 5.834c-.995 1.767-2.634 3.055-4.615 3.625zm21.448-3.626c-.995 1.768-2.634 3.056-4.615 3.626a8.744 8.744 0 01-2.416.353c-1.221 0-2.24-.28-3.03-.62.761 2.787 2.59 7.598 6.235 8.14.338.05.614.294.707.622l.796 2.849a.865.865 0 01-.716 1.09 6.04 6.04 0 01-.815.056c-4.374 0-8.706-4.566-10.534-11.104-1.073-3.835-1.388-9.601 1.256-13.232C20.357 1.914 22.515.83 25.29.721h.035a7.701 7.701 0 017.388 5.61 7.631 7.631 0 01-.704 5.833z" fill="#D74346"/></svg>