<svg width="504" height="304" fill="none" xmlns="http://www.w3.org/2000/svg"><g clip-path="url(#clip0)" fill="#EBE6E6"><path d="M194.452 22.583c0 .503.206.96.514 1.326-.206.137-.206.502.154.64.36.137.772.228 1.132.365 1.337.686 3.086 1.052 4.217 1.28.103.046.206 0 .309 0 16.765 4.206 35.588 4.069 52.302.595 9.618-2.012 18.258-6.446 27.309-9.783 4.217-1.555 8.383-1.966 12.857-2.698 3.446-.594 6.737-1.92 8.486-4.708.257-.412.051-1.097-.566-1.189-26.28-4.114-51.531 6.766-77.503 8.092-4.937.274-9.977-.183-14.863.366a40.922 40.922 0 00-9.72 2.285c-1.594.503-4.68 1.6-4.628 3.429zm11.211-3.84c3.549-.732 6.995-.686 10.595-.686 5.554 0 11.057-.091 16.56-.64 22.268-2.24 43.611-10.789 66.342-7.726-2.52 2.195-6.274 2.606-9.72 3.017-4.268.503-8.074 1.418-12.034 2.88-8.64 3.109-16.766 7.132-25.868 9.052-9.103 1.92-18.669 2.423-27.978 2.423-7.508 0-15.068-.549-22.474-1.92a1.144 1.144 0 00-.257-.137c-1.954-.549-6.686-1.692-3.394-3.612 2.365-1.463 5.451-2.103 8.228-2.651zM76.937 59.977c5.658 2.057 11.778 3.2 17.743 4.343 12.343 2.377 25.869 4.206 38.315 1.691 7.971-1.6 15.737-5.485 22.885-8.914 8.743-4.16 17.486-8.777 24.892-14.629 4.165-3.291 8.331-7.634 7.251-12.983-.874-4.434-5.708-7.45-9.823-9.462-6.428-3.109-13.731-4.892-20.828-6.355-8.383-1.737-16.972-2.834-25.509-3.748-13.474-1.417-26.948-2.469-40.474-2.789-15.274-.365-29.109 7.452-42.84 12.252-6.943 2.423-14.246 4.068-21.394 6.034C19.44 27.52 11.675 29.44 3.6 29.851c-.514.046-.668.549-.36.823-.617.32-1.131.732-.823 1.28 1.029 1.829 2.212 2.149 4.372 2.926 2.931 1.051 6.017 2.057 9.154 2.468 3.549.458 7.149.503 10.697.686 13.063.686 23.863 7.817 34.355 13.989 5.091 3.063 10.285 5.851 15.942 7.954zM25.766 35.794c-4.731-.137-9.463.274-14.091-.823a95.105 95.105 0 01-6.223-1.691c-1.492-.503-1.389-.412-1.955-1.417-.154-.275 1.029-.686 1.698-.96 6.428.045 12.96-1.097 19.182-2.377 6.943-1.463 13.989-3.109 20.778-5.12 13.731-4.069 26.28-11.383 40.731-13.395 6.377-.914 13.269-.411 19.697-.137 7.766.32 15.48.777 23.194 1.509a276.98 276.98 0 0126.075 3.84c7.354 1.463 14.811 3.245 21.548 6.308 4.115 1.875 9.257 4.846 9.617 9.372.463 6.08-7.302 10.88-12.034 14.034-8.28 5.44-17.434 9.966-26.691 13.897-3.703 1.554-7.457 3.017-11.366 4.16-5.091 1.509-10.543 1.783-15.891 1.737-12.96-.137-26.435-2.514-38.829-5.988-12.034-3.383-21.703-11.109-32.503-16.64-7.046-3.612-14.708-6.035-22.937-6.309z"/><path d="M98.383-.457c12.137.091 24.223-.686 36.36-1.28 10.491-.503 21.6-1.326 31.937.457 8.177 1.417 16.046 4.16 24.069 6.263 9.051 4.023 19.851 4.8 29.777 4.48 12.291-.366 24.377-2.469 36.36-4.617A360.44 360.44 0 01306-.55c16.509-.685 33.017-.091 49.526.046 12.137.092 24.223-.686 36.36-1.28 10.491-.503 21.6-1.326 31.937.457C432 .09 439.869 2.833 447.891 4.936c9.052 4.023 19.852 4.8 29.778 4.48 8.897-.274 17.64-1.463 26.382-2.88V4.434c-1.748.274-3.497.503-5.245.777-9.669 1.326-20.057 2.469-30.086 1.829a107.745 107.745 0 01-10.646-1.783 130.152 130.152 0 01-7.303-1.829c-2.16-.777-4.217-1.737-6.222-2.834-.772-.411-1.492-.046-1.698.549-1.08-.32-2.211-.64-3.291-1.006-5.297-1.6-10.646-3.154-16.149-4.068-6.171-.96-12.805-.275-19.028.045-16.252.915-32.503 2.24-48.806 2.149-16.508-.046-33.017-.64-49.526-.137-11.674.365-23.348 1.188-34.92 2.605-9.822 1.235-19.594 3.063-29.417 4.435-9.668 1.325-20.057 2.468-30.085 1.828a107.696 107.696 0 01-10.646-1.783 129.727 129.727 0 01-7.303-1.828c-2.16-.777-4.217-1.737-6.223-2.835-.771-.411-1.491-.045-1.697.55-1.08-.32-2.211-.641-3.291-1.007-5.298-1.6-10.646-3.154-16.149-4.068-6.171-.96-12.806-.274-19.029.046-16.251.914-32.502 2.24-48.805 2.148-16.509-.046-33.017-.64-49.526-.137C37.286-1.554 25.611-.731 14.04.686 9.411 1.28 4.783 1.966.154 2.697v1.92C16.303 1.737 32.503-.046 48.96-.686c16.406-.503 32.863.092 49.423.229zM36.309 52.297c14.194 3.566 27.257 9.783 41.503 13.211 12.445 3.017 25.2 5.212 38.057 6.263 18.154 1.463 38.88.412 54.411-9.097 5.092-3.108 9.206-7.268 14.195-10.468 5.502-3.52 11.982-5.486 18.617-6.309 14.194-.777 28.594-.594 42.788.183 15.995.914 32.092 2.331 47.52 6.171 14.195 3.566 27.258 9.783 41.503 13.212 12.446 3.017 25.2 5.211 38.057 6.263 18.155 1.462 38.88.411 54.412-9.098 5.091-3.108 9.205-7.268 14.194-10.468 5.503-3.52 11.983-5.486 18.617-6.309 14.195-.777 28.594-.594 42.789.183.308 0 .617.046.925.046v-2.652c-13.062-.685-26.177-.548-39.137.64-5.245 0-10.748.366-15.685 1.875-4.115 1.28-7.766 3.337-11.16 5.714-3.086 2.194-5.812 4.754-8.692 7.131-3.343 2.789-6.943 4.846-11.006 6.629-11.88 5.211-25.817 6.034-38.828 5.577-13.526-.457-26.846-2.697-39.96-5.623-10.749-2.423-20.983-5.851-31.269-9.554-5.605-2.057-11.16-4.252-16.817-6.172-5.708-1.92-11.571-2.97-17.588-3.748-21.806-2.834-44.178-3.84-66.138-1.874-5.245 0-10.748.365-15.685 1.874-4.115 1.28-7.766 3.337-11.16 5.714-3.086 2.195-5.812 4.755-8.692 7.132-3.343 2.788-6.943 4.845-11.005 6.628-11.88 5.212-25.818 6.035-38.829 5.577-13.526-.457-26.846-2.697-39.96-5.622-10.749-2.423-20.983-5.852-31.269-9.555-5.605-2.057-11.16-4.251-16.817-6.171-5.708-1.92-11.571-2.972-17.588-3.749A338.57 338.57 0 00-.103 44.068v2.652c12.343 1.05 24.583 2.605 36.413 5.577zm-.258-38.08c3.446-.594 6.738-1.92 8.486-4.709.257-.411.052-1.097-.566-1.188C29.057 5.988 14.503 8.457 0 11.29v1.966c13.834-2.834 27.669-5.531 42.017-3.566-2.52 2.195-6.274 2.606-9.72 3.018-4.268.502-8.074 1.417-12.034 2.88C13.423 18.01 6.943 21.073 0 23.177v2.56c8.023-2.24 15.48-5.897 23.246-8.777 4.165-1.554 8.383-1.966 12.805-2.743zM10.543 40.823c.206.045.309-.183.155-.275-1.852-1.188-4.526-1.965-6.686-2.651-1.286-.411-2.623-.731-3.96-1.051v1.325c.72.137 1.44.32 2.211.503 2.674.64 5.503 1.691 8.28 2.149z"/><path d="M46.954 50.057c-4.577-2.88-10.645-4.663-15.942-6.172-5.658-1.6-11.469-2.56-17.332-3.154-.874-.091-.874 1.143 0 1.234 5.76.64 11.417 1.646 16.972 3.155 5.451 1.508 10.645 4.069 16.148 5.349.257.045.412-.275.154-.412zm80.949-46.446c0 .183.154.457.36.549 5.812 2.286 12.292 2.834 18.514 3.748 6.738.96 12.652 2.926 18.875 5.258 5.194 1.965 10.491 3.702 16.251 3.474 2.623-.092 5.349-.686 7.766-1.646 2.366-.96 2.983-1.006 3.086-3.108 0-.275-.155-.595-.463-.686-10.44-4.434-21.96-3.703-33.12-5.212-8.897-1.234-16.869-5.257-25.92-5.805-5.554-.32-11.212.594-16.715 1.005-6.274.458-12.6.778-18.874 1.143-12.085.64-24.428 1.463-36.257 3.886-.309.046-.154.457.103.411 16.508-3.017 33.223-3.337 49.988-4.205 5.915-.32 11.983-1.143 17.949-1.189-.257.092-.463.183-.72.274-.926.503-.72 1.098-.823 2.103zm24.223 2.24c6.994 2.012 14.194 2.377 21.446 3.017 3.908.32 7.817.869 11.623 1.738.463.137 5.76 1.554 5.76 1.417 0 .365.051.731.051 1.097 0-.137-3.291 1.097-3.651 1.188-7.149 2.378-14.452.138-21.137-2.377-3.035-1.143-6.018-2.377-9.155-3.337-3.806-1.143-7.817-1.737-11.725-2.286-4.166-.548-8.332-1.051-12.395-2.011-.874-.183-1.697-.457-2.52-.686-1.131-.32-1.131.183-1.234-.823-.103-1.051 2.777-1.234 3.908-1.508.566.046 1.08.046 1.646.137 6.017.503 11.674 2.789 17.383 4.434zm299.468 16.732c0 .503.206.96.515 1.325-.206.137-.206.503.154.64.36.138.771.229 1.131.366 1.338.686 3.086 1.051 4.218 1.28.102.046.205 0 .308 0 14.709 3.703 31.012 4.023 46.08 1.692v-2.332c-7.663 1.234-15.583 1.6-23.348 1.554-7.509 0-15.069-.548-22.475-1.92a1.144 1.144 0 00-.257-.137c-1.954-.548-6.686-1.691-3.394-3.611 2.417-1.417 5.503-2.057 8.28-2.606 3.548-.731 6.994-.686 10.594-.686 5.554 0 11.057-.091 16.56-.64 4.732-.457 9.412-1.234 14.04-2.102v-2.012c-7.714 1.463-15.428 2.743-23.246 3.109-4.937.274-9.977-.183-14.862.365a40.904 40.904 0 00-9.72 2.286c-1.543.503-4.629 1.6-4.578 3.429zM334.08 59.977c5.658 2.057 11.778 3.2 17.743 4.343 12.343 2.377 25.869 4.206 38.315 1.691 7.971-1.6 15.737-5.485 22.885-8.914 8.743-4.16 17.486-8.777 24.892-14.629 4.165-3.291 8.331-7.634 7.251-12.983-.874-4.434-5.708-7.45-9.823-9.462-6.428-3.109-13.731-4.892-20.828-6.355-8.383-1.737-16.972-2.834-25.509-3.748-13.474-1.417-26.948-2.469-40.474-2.789-15.274-.365-29.109 7.452-42.84 12.252-6.943 2.423-14.246 4.068-21.394 6.034-7.715 2.103-15.48 4.023-23.555 4.434-.514.046-.668.549-.36.823-.617.32-1.131.732-.823 1.28 1.029 1.829 2.212 2.149 4.372 2.926 2.931 1.051 6.017 2.057 9.154 2.468 3.549.458 7.149.503 10.697.686 13.063.686 23.863 7.817 34.355 13.989 5.091 3.063 10.285 5.851 15.942 7.954zm-51.171-24.183c-4.731-.137-9.463.274-14.091-.823a95.014 95.014 0 01-6.223-1.691c-1.492-.503-1.389-.412-1.955-1.417-.154-.275 1.029-.686 1.698-.96 6.428.045 12.96-1.097 19.182-2.377 6.943-1.463 13.989-3.109 20.778-5.12 13.731-4.069 26.28-11.383 40.731-13.395 6.377-.914 13.269-.411 19.697-.137 7.766.32 15.48.777 23.194 1.509a276.98 276.98 0 0126.075 3.84c7.354 1.463 14.811 3.245 21.548 6.308 4.115 1.875 9.257 4.846 9.617 9.372.463 6.08-7.302 10.88-12.034 14.034-8.28 5.44-17.434 9.966-26.691 13.897-3.703 1.554-7.457 3.017-11.366 4.16-5.091 1.509-10.543 1.783-15.891 1.737-12.96-.137-26.435-2.514-38.829-5.988-12.034-3.383-21.703-11.109-32.503-16.64-7.046-3.612-14.708-6.035-22.937-6.309zm-50.143-.549c6.068.503 12.24 1.006 18.308 1.83 2.829.365 5.555.913 8.28 1.6 2.726.685 5.555 1.69 8.332 2.148.206.045.308-.183.154-.275-1.851-1.188-4.526-1.965-6.686-2.651-2.88-.914-5.862-1.509-8.845-2.149-5.915-1.325-11.829-2.148-17.846-2.651-6.223-.549-12.549-.823-18.771-1.143-5.658-.274-11.675-1.006-17.332-.548-.463.045-.617.594-.103.731 4.937 1.417 10.697 1.463 15.84 1.783 6.172.411 12.446.823 18.669 1.325z"/><path d="M303.892 50.468c.308.046.411-.274.205-.411-4.577-2.88-10.645-4.663-15.942-6.172-5.658-1.6-11.469-2.56-17.332-3.154-.874-.091-.874 1.143 0 1.234 5.76.64 11.417 1.646 16.972 3.155 5.451 1.508 10.594 4.114 16.097 5.349zm81.154-46.857c0 .183.154.457.36.549 5.811 2.286 12.291 2.834 18.514 3.748 6.737.96 12.651 2.926 18.874 5.258 5.195 1.965 10.492 3.702 16.252 3.474 2.623-.092 5.348-.686 7.765-1.646 2.366-.96 2.983-1.006 3.086-3.108 0-.275-.154-.595-.463-.686-10.44-4.434-21.96-3.703-33.12-5.212-8.897-1.234-16.868-5.257-25.92-5.805-5.554-.32-11.211.594-16.714 1.005-6.274.458-12.6.778-18.874 1.143-12.086.64-24.429 1.463-36.257 3.886-.309.046-.155.457.102.411 16.509-3.017 33.223-3.337 49.989-4.205 5.914-.32 11.983-1.143 17.949-1.189-.258.092-.463.183-.72.274-.926.503-.72 1.098-.823 2.103zm24.223 2.24c6.994 2.012 14.194 2.377 21.445 3.017 3.909.32 7.817.869 11.623 1.738.463.137 5.76 1.554 5.76 1.417 0 .365.052.731.052 1.097 0-.137-3.292 1.097-3.652 1.188-7.148 2.378-14.451.138-21.137-2.377-3.034-1.143-6.017-2.377-9.154-3.337-3.806-1.143-7.817-1.737-11.726-2.286-4.166-.548-8.331-1.051-12.394-2.011-.875-.183-1.697-.457-2.52-.686-1.132-.32-1.132.183-1.235-.823-.102-1.051 2.778-1.234 3.909-1.508.566.046 1.08.046 1.646.137 6.017.503 11.674 2.789 17.383 4.434zM504 34.651c-4.114-.731-8.229-1.234-12.446-1.6-6.223-.548-12.548-.823-18.771-1.143-5.657-.274-11.674-1.005-17.332-.548-.462.046-.617.594-.102.731 4.937 1.417 10.697 1.463 15.84 1.783 6.222.412 12.497.823 18.72 1.326 4.68.366 9.411.777 14.091 1.326V34.65zm-14.349 19.246c-.462.183-.565.777-.36 1.143 1.852 2.88 3.96 5.531 6.018 8.274 1.697 2.331 2.674 5.349 4.834 7.36-.514.046-1.029.046-1.543.091-.463 0-.463.595 0 .64 1.8 0 3.6-.045 5.349-.182v-.96l-2.315.274a.63.63 0 00-.205-.64c-1.029-.96-1.44-2.24-2.058-3.429-.72-1.371-1.594-2.697-2.52-3.977-1.8-2.514-3.754-4.891-5.451-7.451 3.96-1.372 8.229-1.783 12.497-1.92v-1.783h-.206c-4.731.137-9.617.777-14.04 2.56zM194.452 251.154c0 .503.206.96.514 1.326-.206.137-.206.503.154.64s.772.228 1.132.365c1.337.686 3.086 1.052 4.217 1.28.103.046.206 0 .309 0 16.765 4.206 35.588 4.069 52.302.595 9.618-2.012 18.258-6.446 27.309-9.783 4.217-1.554 8.383-1.966 12.857-2.697 3.446-.595 6.737-1.92 8.486-4.709.257-.411.051-1.097-.566-1.188-26.28-4.115-51.531 6.765-77.503 8.091-4.937.274-9.977-.183-14.863.366a40.93 40.93 0 00-9.72 2.285c-1.594.503-4.68 1.6-4.628 3.429zm11.211-3.84c3.549-.731 6.995-.686 10.595-.686 5.554 0 11.057-.091 16.56-.64 22.268-2.24 43.611-10.788 66.342-7.725-2.52 2.194-6.274 2.605-9.72 3.017-4.268.503-8.074 1.417-12.034 2.88-8.64 3.108-16.766 7.131-25.868 9.051-9.103 1.92-18.669 2.423-27.978 2.423-7.508 0-15.068-.549-22.474-1.92-.051-.046-.154-.091-.257-.137-1.954-.549-6.686-1.692-3.394-3.612 2.365-1.462 5.451-2.102 8.228-2.651zm-51.326-113.828c12.292.137 24.326.685 36.103 4.068 5.863 1.692 11.263 4.435 16.92 6.537 5.657 2.058 11.417 3.795 17.332 5.075 5.348 1.143 10.902 1.965 16.457 2.103 6.223.182 12.343-.686 18.514-1.006 13.474-.64 27-1.052 40.474-1.554.257 0 .257-.32 0-.32-25.457-.915-51.223 3.382-76.32-2.012-5.657-1.234-11.16-2.926-16.56-4.846-5.708-2.011-11.16-4.48-17.074-5.988-11.52-2.88-23.966-2.286-35.794-2.149-.155 0-.155.092-.052.092zM79.714 56.274c5.503 2.789 11.572 4.617 17.795 5.623 24.531 3.977 51.583-5.989 68.657-21.623 2.726-2.514 5.863-6.171 4.166-9.829-1.543-3.337-6.172-4.937-9.669-6.125-13.269-4.663-27.617-7.589-41.657-9.372-7.252-.914-14.606-1.554-21.909-1.234-7.405.274-14.657 1.691-21.805 3.337-6.84 1.6-13.629 3.246-20.263 5.44-6.377 2.103-12.703 4.48-19.235 6.172-3.394.868-6.942 1.508-10.491 1.6-.566 0-1.029.411-1.029.914v.686c0 .274.206.64.515.777 3.137 1.234 6.171 1.325 9.411.823a57.275 57.275 0 0113.732 3.748c5.451 2.24 10.44 5.395 15.274 8.549 5.4 3.474 10.594 7.497 16.508 10.514zm-18.822-15.04c-4.578-2.834-9.412-5.303-14.658-7.04-3.291-1.097-6.737-1.691-10.234-1.966-.154-.274-.463-.548-.926-.457-1.8.229-3.6.366-5.451.229a8.215 8.215 0 01-1.131-.183c11.674-.96 22.577-6.583 33.634-9.6 14.657-4.023 29.726-7.406 45.206-6.491 15.171.868 29.777 3.794 44.28 7.725 5.194 1.417 11.52 2.652 15.634 6.034 4.577 3.795-1.852 8.915-4.989 11.383-18.308 14.4-44.794 23.269-69.12 17.509C80.59 55.406 71.23 47.68 60.892 41.234z"/><path d="M106.766 57.051c9.771-.64 19.029-4.983 27.977-8.32 4.526-1.691 9-3.474 13.114-5.851 2.418-1.417 5.606-3.52 5.812-6.309.514-6.354-7.149-9.188-12.806-10.651-8.023-2.057-16.56-2.514-24.891-2.972-8.64-.457-17.126-1.417-25.817-1.417-11.315 0-23.195.869-33.892 4.343-2.983.96-5.811 2.195-8.383 3.795-.565.365-.617 1.097 0 1.417.155.091.309.183.463.32-.36.045-.617.503-.206.685.618.32 1.235.595 1.852.915.514.548 1.028 1.097 1.748 1.462.36.183.669.138.926-.045 17.075 9.417 32.812 24 54.103 22.628zM60.892 35.246a8.99 8.99 0 01-.669-.778c0-.137-.051-.228-.103-.365 9.515-5.075 21.549-3.886 32.298-2.972-4.27.32-8.59.595-12.91.777-2.005.092-3.96.138-5.965.183-1.594.046-2.314-.183-3.394.869-.72.731-.874 1.417-.617 2.057-.052.137-.052.274.103.411 8.64 7.726 20.417 15.269 33.377 13.44 6.274-.868 11.005-3.931 15.788-7.451 2.417-1.783 6.017-4.16 6.789-7.086.566-2.148-1.08-3.383-3.754-4.023 1.748-.045 3.497 0 5.245.138 3.189.274 9.823 1.691 8.743 5.714-.823 3.108-5.143 5.348-7.92 6.857-4.063 2.24-8.537 3.886-13.011 5.303-4.012 1.28-8.126 2.331-12.446 2.377-8.434 0-16.457-3.886-23.657-7.314-3.549-1.692-7.046-3.475-10.697-5.075a98.276 98.276 0 00-5.143-2.057c-.72-.365-1.491-.411-2.057-1.005zm12.137 1.645a.746.746 0 00.051-.731c-.257-.457-.565-.823-.977-1.234-1.08-1.052 2.88-.823 3.446-.823a231.7 231.7 0 009.823-.366c1.028-.046 2.005-.137 3.034-.183-2.931.869-5.709 2.012-8.177 3.52-.412.275-.669.777-.514 1.189-.258.183-.258.594.051.731.514.183.977.366 1.491.549.72.503 1.44 1.005 2.058 1.645.514.549 1.234.092 1.285-.457 1.903.64 3.858 1.235 5.76 1.92 2.726.915 5.452 1.737 8.383 1.829 7.56.32 13.834-5.989 18.463-10.469.566-.548.463-1.417-.257-1.783.977.046 1.903.138 2.828.275 1.8.228 4.012.503 2.726 2.377-1.646 2.468-4.731 4.389-7.2 6.126-4.423 3.2-9 5.531-14.811 5.897-9.874.457-19.749-4.572-27.463-10.012zm17.383 3.657c-2.315-.685-4.68-1.371-7.097-1.828-.206-.229-.463-.411-.72-.64 3.96-2.057 8.588-3.2 13.114-3.931-1.234.594-2.366 1.37-3.343 2.468-.411.457-.411 1.143.206 1.463.257.137.514.183.823.229a.547.547 0 00.514.868c4.68-.457 8.794-.96 12.343-3.977.617-.503.308-1.463-.515-1.646a23.666 23.666 0 00-1.748-.366c3.291-.182 6.686-.045 9.874.595-4.114 3.977-9.206 8.594-15.531 8.457-2.674-.092-5.349-1.006-7.92-1.692zm4.628-3.702c2.315-1.738 4.989-2.286 7.92-1.875-1.903 1.143-4.165 1.92-6.428 2.469-.412-.411-.926-.503-1.492-.594zm-30.188 2.651c2.057.96 4.114 1.874 6.12 2.88 5.863 2.834 11.623 5.76 17.846 8 5.657 2.011 11.674 3.109 17.742 2.331 3.806-.457 7.56-1.737 11.109-3.017 4.268-1.508 8.486-3.291 12.343-5.485 2.88-1.646 6.068-3.703 7.56-6.492 1.285-2.377.411-4.708-1.697-6.4-3.549-2.834-8.949-2.926-13.423-2.697-4.063.183-8.075.777-12.137 1.189-2.212.137-4.166.32-5.452.411-4.937.091-10.028-1.051-14.914-1.646-10.337-1.234-23.091-1.691-31.269 4.937a1.082 1.082 0 00-.565.366s0 .046-.052.046c-.051.046-.103.137-.103.183-.257.274-.102.64.155.777.257.548.617 1.006.977 1.417a161.216 161.216 0 00-6.377-3.154l-.052-.046c-1.131-.686-1.851-1.783-2.777-2.651 8.949-5.12 20.623-6.355 30.96-6.949 5.811-.32 11.674-.32 17.486-.091 4.371.183 8.64.777 13.011 1.051 7.817.503 15.686.777 23.4 2.057 5.554.915 17.023 2.88 16.612 9.692-.155 2.697-4.938 4.754-7.149 5.851-4.063 2.057-8.434 3.703-12.703 5.257-8.64 3.2-17.228 7.086-26.743 7.406-10.285.366-19.697-3.749-28.183-8.503-3.96-2.149-7.817-4.48-11.725-6.72zM22.32 174.903c7.354-.686 14.606.091 21.909-.32 6.583-.366 13.114-1.646 19.44-3.292 13.011-3.382 25.303-8.64 38.52-11.565 9.051-2.012 18.463-2.652 27.565-.595 9.052 2.058 17.178 6.538 25.509 10.103 10.183 4.389 21.24 6.949 32.451 8.503.052.092.206.137.36.183 15.635 1.92 31.629 5.074 47.469 4.069 14.863-.96 29.109-5.669 43.92-7.086 7.354-.686 14.606.091 21.909-.32 6.582-.366 13.114-1.646 19.44-3.292 13.011-3.382 25.302-8.64 38.52-11.565 9.051-2.012 18.462-2.652 27.565-.595 9.052 2.058 17.177 6.538 25.509 10.103 10.183 4.389 21.24 6.949 32.451 8.503a.858.858 0 00.36.183c15.635 1.92 31.629 5.074 47.469 4.069 3.806-.229 7.56-.732 11.263-1.326v-2.606c-8.486 1.417-16.972 2.24-25.766 2.012-3.549-.092-7.046-.32-10.594-.686-14.195-1.829-28.646-3.246-42.377-7.086-13.063-3.611-23.658-11.84-36.875-15.177-12.857-3.246-26.537-.503-38.983 2.971-12.96 3.612-25.508 8.275-38.828 10.652-4.372.777-8.794 1.234-13.269 1.28-5.091.046-10.08-.274-15.171.046-9.72.64-19.183 2.788-28.594 4.708-10.8 2.194-21.343 3.566-32.452 3.246-3.548-.092-7.046-.32-10.594-.686-14.194-1.828-28.646-3.246-42.377-7.086-13.063-3.611-23.657-11.84-36.875-15.177-12.857-3.245-26.537-.503-38.982 2.972-12.96 3.611-25.509 8.274-38.829 10.651-4.371.777-8.794 1.234-13.269 1.28-5.091.046-10.08-.274-15.171.046-8.486.548-16.766 2.24-24.994 3.977v2.651c7.457-1.462 14.863-3.017 22.371-3.748z"/><path d="M146.417 159.451c9.206 4.16 18.36 8.275 28.337 10.743.566.137.823-.64.258-.777-10.183-2.743-19.183-8.366-28.543-12.8-9.052-4.343-18.36-7.954-28.749-8.64-10.028-.686-19.388 3.109-28.183 6.811-4.886 2.058-9.771 4.115-14.76 5.898-4.68 1.645-9.72 3.245-14.811 2.88-.103 0-.103.091 0 .137 9.771.777 18.257-2.423 26.948-6.035 4.835-2.011 9.617-4.114 14.606-5.714 5.143-1.691 10.029-2.103 15.48-1.783 10.337.595 20.366 5.12 29.417 9.28zm-13.783 13.12c-11.674-5.76-25.302-4.434-37.645-1.188-6.789 1.783-13.423 3.931-20.16 5.897-3.137.914-6.275 1.6-9.412 2.377-2.057.503-4.217 1.554-5.194 3.291-.154.275-.154.686.103.869 5.297 3.703 12.034 4.206 18.051 6.537.052.046.103-.046.052-.091-2.366-1.28-4.886-2.149-7.509-2.972-2.52-.823-6.84-2.011-8.897-3.931 1.697-1.28 3.908-1.646 6.068-2.103 3.086-.64 6.07-1.554 9.052-2.469 5.863-1.828 11.623-3.885 17.434-5.76 5.76-1.874 11.983-3.2 18.103-3.52 6.84-.365 13.474 1.098 19.852 3.246.154.046.205-.091.102-.183z"/><path d="M111.652 177.006c-4.166.365-8.486 1.188-12.395 2.468-3.805 1.234-7.817 2.789-10.388 5.577-.206.229-.257.503-.103.732 2.006 3.245 5.657 5.485 9.463 6.811.154.046.206-.137.103-.183-3.035-1.508-6.377-3.885-8.075-6.674 3.086-1.737 6.429-3.246 9.772-4.617 3.806-1.509 7.56-3.109 11.674-3.657.309-.046.257-.457-.051-.457zm68.76 8.914c-1.646-.823-3.96-1.234-5.76-1.737a29.938 29.938 0 00-6.069-1.052c-.205 0-.257.275-.051.32 3.291.915 7.251 1.555 10.131 3.429-1.543 2.423-4.834 4.48-7.303 5.897-3.394 1.874-7.354 2.789-11.057 4.023-.257.091-.154.503.103.411 5.914-1.828 12.549-2.56 17.28-6.445.874-.64 4.886-3.703 2.726-4.846zM65.623 203.428c3.034.915 6.069 1.966 9.103 3.017 2.983 1.052 5.966 2.561 9.154 3.018.309.045.463-.366.155-.457-2.88-.686-5.246-2.423-8.023-3.429-3.292-1.189-6.583-2.332-9.977-3.383a105.608 105.608 0 00-9.309-2.331c-3.137-.64-6.377-1.509-9.566-1.875-6.48-.731-12.754-1.782-19.131-3.154-6.171-1.326-12.446-2.606-18.823-2.697-.463 0-.411.594 0 .64 12.394 1.28 23.503 7.36 36.103 7.68 3.446.091 6.686-.274 10.131.366 3.446.594 6.84 1.6 10.183 2.605zm-45.154-91.794c6.017-1.691 12.188-3.931 18.463-4.891 4.422.228 10.131-.275 12.754-3.612 2.726-3.428-6.326-6.628-8.332-7.771-1.08-.594-2.108-1.189-3.137-1.783 2.057.686 4.115 1.417 6.275 1.874a.168.168 0 00.102-.32c-3.034-.685-5.811-2.103-8.794-2.925-4.063-2.195-8.228-3.886-13.423-4.023-3.188-.092-6.377.274-9.565.365-3.909.138-7.766-.365-11.623-.457-1.08-.045-2.109-.045-3.189-.045v1.508c2.314-.046 4.629.046 6.943.183 3.497.229 6.789.32 10.337 0 3.703-.32 7.252-.64 10.903-.046 3.6.595 6.634 2.332 9.617 4.069 3.086 1.737 6.12 3.52 9.257 5.12 1.235.64 2.623 1.234 3.446 2.286 1.337 1.737-2.931 3.337-4.011 3.611a56.827 56.827 0 01-6.326 1.326c-6.634.548-13.012 1.691-19.543 3.2-6.789 1.6-13.629 3.063-20.674 3.063v2.651h.565c6.84.046 13.526-1.6 19.955-3.383z"/><path d="M4.68 110.354c4.834-.137 9.669-.868 14.349-1.92 4.937-1.143 11.108-2.286 15.171-5.211 6.531-4.709-7.097-8.183-10.183-8.823-6.068-1.28-11.983-.914-18.154-.732-1.954.046-3.909.138-5.863.183v1.189l4.474-.137c6.377-.183 12.24-.275 18.515 1.051 2.88.595 5.811 1.372 8.331 2.789 2.571 1.417 1.594 2.56-.669 3.657-4.474 2.194-9.822 3.383-14.657 4.708-4.371 1.189-8.897 2.149-13.423 2.698-.874 0-1.697 0-2.571-.092v.823c1.594.091 3.137.046 4.68-.183z"/><path d="M2.674 99.337c3.395 0 6.789-.046 10.183.229.72.045 7.354.64 6.532 1.463-1.183 1.234-3.652 1.782-5.298 2.468a95.58 95.58 0 01-6.891 2.606c-1.131.365-2.314.777-3.549 1.097-1.234.228-2.468.366-3.651.366v1.417c2.006-.046 4.063-.32 5.811-.595 5.195-.822 9.515-2.788 13.68-5.531 3.6-2.423.309-3.886-2.674-4.206C11.263 98.057 5.606 98.15 0 98.15v1.188h2.674z"/><path d="M9.154 101.074c-1.183-1.006-2.828-1.051-4.371-1.143A83.547 83.547 0 000 99.794v.869c.411 0 .823.045 1.234.045 1.492.092 3.035.183 4.423.732.463.183.926.32 1.337.548.823.412.669.229-.154.686-1.389.777-3.137 1.052-4.68 1.463-.309.092-.617.137-.926.229.566-.457.772-1.372.977-1.829.206-.411-.205-.96-.668-1.051-.463-.092-.977-.229-1.543-.32v3.474h.051H0v.914c3.034.137 6.377-.32 8.743-1.783.926-.594 1.337-1.874.411-2.697zm17.795-8.777c3.343 1.326 5.451 4.069 8.897 5.303 2.315.823 4.68 1.508 6.12 3.428 1.594 2.103-4.166 2.926-5.4 3.018-.514.045-.514.685 0 .685 2.057.092 5.297.229 6.892-1.234 1.388-1.234 1.234-2.926-.103-4.206-2.109-2.103-5.092-2.057-7.972-2.743-3.291-.822-5.04-3.794-8.434-4.388 0 0-.103.091 0 .137zm-18.72-.411c4.577-.046 9.051-.32 13.628.045.052 0 .052-.045 0-.045A152.049 152.049 0 000 91.428v.64c2.726-.091 5.503-.137 8.229-.182z"/><path d="M39.343 115.657c6.531-1.097 13.011-1.783 19.646-1.966 3.702-.091 7.868-.045 11.057-1.965 2.983-1.829 3.651-5.989 2.263-8.823-1.903-3.795-6.995-6.035-10.852-7.863-5.091-2.423-10.337-4.663-15.891-6.172-6.943-1.92-14.297-2.514-21.497-2.925-4.269-.229-8.486-.32-12.755-.412-1.491-.046-2.88-.274-4.268-.457.103-.137.051-.32-.155-.366-2.262-.274-4.525-.548-6.84-.731v.549c.875.045 1.749.137 2.572.228-.514 0-1.08.092-1.646.183-.051 0 0 .046 0 .046 3.292-.275 6.274.457 9.412 1.143 3.445.731 7.405.64 10.902.868 7.766.549 15.429 1.052 22.938 2.972 5.914 1.508 11.417 4.251 16.765 6.857 4.577 2.194 9.926 4.845 9.669 10.057-.206 4.343-6.069 4.617-9.72 4.708-5.657.092-11.16.092-16.817.823-7.817.96-15.532 2.697-23.246 4.206A198.592 198.592 0 010 119.497v2.331c13.32-.868 26.229-3.931 39.343-6.171z"/><path d="M54.36 110.308c3.446-.045 8.126.092 10.8-2.194 3.857-3.337-1.234-7.771-4.423-9.417-.308-.137-.668.228-.36.411 2.212 1.6 5.452 3.657 3.755 6.537-.823 1.372-2.675 1.646-4.27 1.92-3.702.64-7.56.458-11.313.595-4.063.183-8.126 1.188-12.138 1.874-5.45.914-10.748 1.874-15.942 3.657-.155.046-.103.274.051.229 6.377-1.783 13.269-1.875 19.903-2.652 2.366-.274 4.731-.777 7.148-.914 2.263-.091 4.526-.046 6.79-.046zm-2.005-14.08c1.542.64 3.188.915 4.782 1.28.155.046.206-.137.052-.182-1.646-.366-3.24-.732-4.834-1.189-.052 0-.052.046 0 .091z"/><path d="M9.051 122.88c7.818-.594 15.635-1.6 23.349-2.789 8.023-1.188 15.891-2.651 24.069-2.743 5.297-.045 43.868-.32 40.422-8.411-1.594-3.657-7.302-6.263-10.8-8.183-6.12-3.383-12.6-6.354-19.028-9.143-5.246-2.285-10.543-4.754-16.2-6.034-11.366-2.606-23.194-2.24-34.817-1.874-.412 0-.412.548 0 .548 13.474-.137 27.72 1.143 40.474 5.12 7.663 2.378 15.171 5.486 22.32 8.778 3.909 1.782 7.766 3.702 11.366 5.897 2.108 1.28 5.451 3.154 6.068 5.577.617 2.56-6.325 3.84-8.074 4.251-4.68 1.052-9.514 1.6-14.297 2.012-5.503.502-10.954.594-16.457.457-10.286-.275-20.212 1.051-30.292 2.788-8.897 1.555-18.051 2.743-27.154 3.383v1.189c3.034-.229 6.069-.595 9.051-.823z"/><path d="M0 79.908v1.143l2.623.412c3.806.685 7.508.137 11.314-.457 7.972-1.28 16.2-.229 24.172.731 7.662.914 15.222 2.377 22.577 4.48 7.92 2.286 15.377 5.714 22.937 8.777 3.6 1.463 7.148 2.972 10.594 4.663 3.034 1.463 5.863 2.926 9.154 3.84 2.983.823 5.76.686 8.846.64 1.594 0 3.137 0 4.732.32.925.183 3.857 1.646 3.24 2.789-.72 1.325-4.012 1.691-5.4 2.011-2.212.457-4.32.96-6.429 1.737-2.931 1.097-5.657 2.56-8.434 3.932-3.395 1.645-6.84 2.468-10.646 3.062-8.486 1.235-17.383 1.28-25.971 1.28-.155 0-.155.183 0 .183 8.125.046 16.2 1.006 24.325.457 3.292-.228 6.635-.594 9.823-1.508 3.034-.869 5.76-2.423 8.589-3.703 4.165-1.966 8.743-2.651 13.011-4.343 3.086-1.234 4.063-3.52 1.44-5.714-1.697-1.417-3.754-1.737-5.966-1.783-3.394-.091-6.531.503-9.925-.091-3.497-.595-6.737-2.286-9.823-3.886-3.652-1.92-7.663-3.429-11.52-4.983-7.097-2.834-14.04-5.989-21.343-8.274-7.251-2.286-14.863-3.749-22.474-4.8a236.93 236.93 0 00-13.989-1.372c-4.731-.32-8.846 0-13.526.777-2.777.458-5.554.732-8.331.275-1.234-.229-2.417-.457-3.6-.595z"/><path d="M0 128.411c5.091.137 10.183.32 15.274-.183.875-.091 1.749-.182 2.623-.228.052.046.103.091.154.091 16.2-1.554 32.4-.548 48.652-1.097 14.4-.457 27.668-4.16 40.834-9.143 3.137-1.188 6.172-2.514 9.257-3.84 3.343-1.463 6.635-3.245 10.286-4.068 6.84-1.6 14.04-1.372 21.086-1.006 14.348.686 29.005 1.326 42.891 4.709 3.034.731 5.966 1.645 8.897 2.651-.154.091-.154.366.052.457 7.868 2.103 15.274 5.12 22.988 7.497 7.972 2.469 17.229 4.252 25.715 4.115 7.868-.138 15.788.685 23.657-.092.874-.091 1.748-.183 2.623-.228.051.045.102.091.154.091 16.2-1.554 32.4-.549 48.651-1.097 14.4-.457 27.669-4.16 40.835-9.143 3.137-1.189 6.171-2.514 9.257-3.84 3.343-1.463 6.634-3.246 10.285-4.069 6.84-1.6 14.04-1.371 21.086-1.005 14.349.685 29.006 1.325 42.892 4.708 3.034.732 5.965 1.646 8.897 2.652-.155.091-.155.365.051.457 7.869 2.103 15.274 5.12 22.989 7.497 7.354 2.286 15.84 3.977 23.811 4.114v-2.148c-7.766-1.235-15.48-2.149-23.091-4.252-6.377-1.783-12.652-4.251-19.235-5.257-12.6-6.217-27.308-7.406-41.451-8.183-13.011-.731-26.486-2.011-39.189 1.235-13.474 3.428-25.817 9.6-39.497 12.617-7.714 1.691-15.48 2.194-23.4 2.468-8.125.32-16.251.595-24.377 1.006-2.417.137-4.783.274-7.148.503a47.642 47.642 0 00-4.423.046c-3.086.182-6.172.457-9.257.731-7.766.777-16.252.731-23.915-.594-8.485-1.463-16.971-2.286-25.251-4.617-6.377-1.783-12.652-4.252-19.234-5.258-12.6-6.217-27.309-7.405-41.452-8.182-13.011-.732-26.486-2.012-39.188 1.234-13.475 3.428-25.818 9.6-39.498 12.617-7.714 1.691-15.48 2.194-23.4 2.469-8.125.32-16.251.594-24.377 1.005-2.417.137-4.783.275-7.148.503a47.64 47.64 0 00-4.423.046c-3.086.183-6.172.457-9.257.731-5.092.503-10.543.64-15.84.32v.96H0zm67.834-53.623c14.709 3.063 25.2 12.709 38.263 18.743 2.057.96 4.217 1.692 6.377 2.332-6.531-1.189-13.062-2.423-19.44-4.343-9.154-2.789-16.971-8.046-25.92-11.2-8.074-2.834-16.868-2.652-25.405-2.514-.36 0-.36.457 0 .502 8.897.183 17.485 1.28 25.663 4.526 4.268 1.692 8.125 4.069 12.291 5.989 4.526 2.103 9.669 3.428 14.554 4.708 9.875 2.652 19.955 3.794 30.035 5.577 4.062.732 8.177 1.829 12.291 2.789 3.291 1.051 6.583 1.966 10.08 2.606 4.629.823 9.411.96 14.143.64 18.308-1.189 35.794-9.783 50.966-18.515 20.262-7.725 43.405-8.548 65.16-11.108 15.891-1.874 32.245-4.069 48.137-.777 14.708 3.063 25.2 12.708 38.263 18.743 2.057.96 4.217 1.691 6.377 2.331-6.532-1.189-13.063-2.423-19.44-4.343-9.155-2.788-16.972-8.046-25.92-11.2-8.075-2.834-16.869-2.651-25.406-2.514-.36 0-.36.457 0 .503 8.897.182 17.486 1.28 25.663 4.525 4.268 1.692 8.126 4.069 12.291 5.989 4.526 2.103 9.669 3.428 14.555 4.709 9.874 2.651 19.954 3.794 30.034 5.577 4.063.731 8.177 1.828 12.291 2.788 3.292 1.052 6.583 1.966 10.08 2.606 4.629.823 9.412.96 14.143.64 18.309-1.189 35.794-9.783 50.966-18.514 11.108-4.206 23.04-6.4 35.177-7.909v-2.651a85.31 85.31 0 00-3.394.365c-9.412 1.189-18.103 3.657-26.897 6.72-4.938 1.692-9.36 3.795-13.578 6.309-10.131 4.8-20.262 9.646-31.474 12.297-5.4 1.28-11.006 1.92-16.56 1.783-2.88-.229-5.708-.503-8.537-.869-6.48-1.325-12.343-4.251-18.823-5.805-7.046-1.692-14.348-2.697-20.931-5.623-6.377-2.835-12.035-6.629-18-10.103-6.069-3.52-12.395-6.126-19.44-7.634-7.509-1.6-15.275-1.92-22.989-1.692-10.491.366-20.828 1.92-31.268 2.789-9.566.777-19.08.686-28.646 1.874-9.412 1.189-18.103 3.657-26.897 6.72a71.362 71.362 0 00-13.577 6.309c-10.132 4.8-20.263 9.645-31.475 12.297-5.4 1.28-11.005 1.92-16.56 1.783-2.88-.229-5.708-.503-8.537-.869-6.48-1.326-12.343-4.251-18.823-5.806-7.045-1.691-14.348-2.697-20.931-5.622-6.377-2.835-12.034-6.629-18-10.103-6.069-3.52-12.394-6.126-19.44-7.635-7.509-1.6-15.274-1.92-22.989-1.691-10.491.366-20.828 1.92-31.268 2.789-4.989.411-9.977.548-14.966.822v2.195c6.634-.686 13.217-1.28 19.697-2.058 15.84-1.874 32.143-4.114 48.034-.777z"/><path d="M190.852 98.971c-5.503 3.109-10.8 6.08-17.435 6.766-.308.046-.308.457 0 .411 5.606-.411 10.595-2.377 15.635-4.48 5.863-2.422 10.8-6.308 16.765-8.457.103-.045.052-.183-.051-.137-5.349 1.234-10.286 3.246-14.914 5.897zM0 142.171c6.789.366 13.577.823 20.366 1.189 8.177.411 16.303.868 24.48.548 7.92-.32 15.685-1.417 23.451-2.788 16.046-2.88 31.834-6.994 47.777-10.469 7.303-1.6 14.452-2.697 22.012-3.063 7.817-.411 15.634-.32 23.451.092 7.972.366 16.046.548 23.966 1.646 2.006.274 3.96.594 5.966.96 13.062 3.931 25.662 9.508 39.394 11.291 7.354.96 15.068.137 22.526.503 8.074.366 16.148.96 24.274 1.371 8.177.412 16.303.869 24.48.549 7.92-.32 15.686-1.417 23.451-2.789 16.046-2.88 31.835-6.994 47.777-10.468 7.303-1.6 14.452-2.697 22.012-3.063 7.817-.412 15.634-.32 23.451.091 7.972.366 16.046.549 23.966 1.646 2.006.274 3.96.594 5.966.96 13.063 3.931 25.663 9.509 39.394 11.291 5.297.686 10.749.458 16.149.412v-1.417c-.72-.046-1.44-.092-2.212-.092-5.091-.228-9.977-.548-14.966-1.508-4.782-.869-9.462-2.057-14.142-3.383-4.166-1.189-8.383-2.514-12.6-3.703a61.953 61.953 0 00-6.378-1.691 102.862 102.862 0 00-8.948-1.783c-.103 0-.206 0-.309.045-4.731-.822-9.514-1.6-14.245-2.24-11.932-1.6-24.378-1.691-36.412-.914-13.474.914-26.126 4.846-39.137 8.046-15.943 3.931-32.297 7.68-48.806 8.96-20.417 1.554-40.834-.96-61.2-1.829-5.091-.228-9.977-.548-14.965-1.508-4.783-.869-9.463-2.057-14.143-3.383-4.166-1.189-8.383-2.514-12.6-3.703a61.935 61.935 0 00-6.377-1.691 99.295 99.295 0 00-8.949-1.783c-.103 0-.206 0-.309.045-4.731-.822-9.514-1.6-14.245-2.24-11.932-1.6-24.377-1.691-36.412-.914-13.474.914-26.125 4.846-39.137 8.046-15.943 3.931-32.297 7.68-48.806 8.96-16.251 1.234-32.502-.092-48.702-1.143v.914H0z"/><path d="M26.537 164.114c15.532-3.886 31.269-7.177 46.954-10.514 7.972-1.692 15.943-3.429 23.863-5.257 7.972-1.829 15.583-3.795 23.915-3.475 17.28.686 33.377 8.64 49.062 14.355 8.538 3.108 17.64 5.76 26.846 7.085a205.283 205.283 0 0041.297 4.663c7.355.092 14.709-.457 22.012-1.463 7.92-1.143 15.48-3.428 23.194-5.348 15.531-3.886 31.269-7.177 46.954-10.515 7.972-1.691 15.943-3.428 23.863-5.257 7.972-1.828 15.583-3.794 23.914-3.474 17.28.686 33.378 8.64 49.063 14.354 8.537 3.109 17.64 5.76 26.846 7.086a205.283 205.283 0 0041.297 4.663c2.777.046 5.606-.046 8.383-.183v-2.56c-13.32.731-26.434-.777-39.6-2.24a.696.696 0 00-.514-.366c-6.069-1.463-12.343-2.148-18.463-3.474-4.423-.96-8.743-2.24-12.96-3.703-12.549-4.297-24.634-9.737-37.646-12.846-7.148-1.737-14.451-2.605-21.857-2.24-7.766.412-15.223 2.698-22.731 4.389-15.84 3.611-31.783 6.857-47.675 10.286-18.257 3.977-36.36 9.051-55.183 10.194-13.525.777-26.794-.731-40.114-2.194a.696.696 0 00-.514-.366c-6.069-1.463-12.343-2.149-18.463-3.474-4.423-.96-8.743-2.24-12.96-3.703-12.549-4.297-24.634-9.737-37.646-12.846-7.148-1.737-14.451-2.606-21.857-2.24-7.766.412-15.223 2.697-22.731 4.389-15.84 3.611-31.783 6.857-47.675 10.285C30.343 161.417 15.377 165.44 0 167.36v2.605c1.131-.137 2.211-.274 3.343-.411 7.92-1.234 15.48-3.52 23.194-5.44zm-.463 44.892c11.88 1.005 23.503 2.423 35.435 2.56.411 0 .72-.275.72-.64 0-.229 0-.457.051-.686 0-.229-.154-.457-.36-.594-9-4.846-19.749-7.497-29.931-9.463A166.43 166.43 0 000 197.211v1.692c10.543-.137 21.189.868 31.526 2.743a133 133 0 0115.891 3.84c2.726.823 5.4 1.783 8.074 2.834 1.08.411 2.16.869 3.189 1.371.514.229 1.183.412 1.646.64-11.109.549-22.32-1.371-33.326-2.377-9.103-.823-18.051-1.097-26.949.046v1.966c2.829-.549 5.709-1.006 8.64-1.235 5.812-.457 11.572-.182 17.383.275zm50.863 79.543c5.658 2.057 11.778 3.2 17.743 4.342 12.343 2.378 25.869 4.206 38.315 1.692 7.971-1.6 15.737-5.486 22.885-8.914 8.743-4.16 17.486-8.778 24.892-14.629 4.165-3.291 8.331-7.634 7.251-12.983-.874-4.434-5.708-7.451-9.823-9.463-6.428-3.108-13.731-4.891-20.828-6.354-8.383-1.737-16.972-2.834-25.509-3.749-13.474-1.417-26.948-2.468-40.474-2.788-15.274-.366-29.109 7.451-42.84 12.251-6.943 2.423-14.246 4.069-21.394 6.035-7.715 2.102-15.48 4.022-23.555 4.434-.514.046-.668.548-.36.823-.617.32-1.131.731-.823 1.28 1.029 1.828 2.212 2.148 4.372 2.925 2.931 1.052 6.017 2.058 9.154 2.469 3.549.457 7.149.503 10.697.686 13.063.685 23.863 7.817 34.355 13.988 5.091 3.063 10.285 5.852 15.942 7.955zm-51.171-24.183c-4.731-.137-9.463.274-14.091-.823a95.17 95.17 0 01-6.223-1.692c-1.492-.502-1.389-.411-1.955-1.417-.154-.274 1.029-.685 1.698-.96 6.428.046 12.96-1.097 19.182-2.377 6.943-1.463 13.989-3.108 20.778-5.12 13.731-4.068 26.28-11.383 40.731-13.394 6.377-.914 13.269-.412 19.697-.137 7.766.32 15.48.777 23.194 1.508a277.241 277.241 0 0126.075 3.84c7.354 1.463 14.811 3.246 21.548 6.309 4.115 1.874 9.257 4.846 9.617 9.371.463 6.08-7.302 10.88-12.034 14.035-8.28 5.44-17.434 9.965-26.691 13.897-3.703 1.554-7.457 3.017-11.366 4.16-5.091 1.508-10.543 1.783-15.891 1.737-12.96-.137-26.435-2.514-38.829-5.989-12.034-3.383-21.703-11.108-32.503-16.64-7.046-3.611-14.708-6.034-22.937-6.308zm72.617-36.252c12.137.092 24.223-.686 36.36-1.28 10.491-.503 21.6-1.326 31.937.457 8.177 1.417 16.046 4.16 24.069 6.263 9.051 4.023 19.851 4.8 29.777 4.48 12.291-.366 24.377-2.468 36.36-4.617A360.281 360.281 0 01306 228.023c16.509-.686 33.017-.092 49.526.045 12.137.092 24.223-.685 36.36-1.28 10.491-.502 21.6-1.325 31.937.458 8.177 1.417 16.046 4.16 24.068 6.262 9.052 4.023 19.852 4.8 29.778 4.48 8.897-.274 17.64-1.462 26.382-2.88v-2.102c-1.748.274-3.497.502-5.245.777-9.669 1.325-20.057 2.468-30.086 1.828a107.368 107.368 0 01-10.646-1.783 129.413 129.413 0 01-7.303-1.828c-2.16-.777-4.217-1.737-6.222-2.834-.772-.412-1.492-.046-1.698.548-1.08-.32-2.211-.64-3.291-1.006-5.297-1.6-10.646-3.154-16.149-4.068-6.171-.96-12.805-.274-19.028.046-16.252.914-32.503 2.24-48.806 2.148-16.508-.046-33.017-.64-49.526-.137-11.674.366-23.348 1.189-34.92 2.606-9.822 1.234-19.594 3.063-29.417 4.434-9.668 1.326-20.057 2.469-30.085 1.829a107.906 107.906 0 01-10.646-1.783 129.85 129.85 0 01-7.303-1.829c-2.16-.777-4.217-1.737-6.223-2.834-.771-.412-1.491-.046-1.697.548-1.08-.32-2.211-.64-3.291-1.005-5.298-1.6-10.646-3.155-16.149-4.069-6.171-.96-12.806-.274-19.029.046-16.251.914-32.502 2.24-48.805 2.148-16.509-.045-33.017-.64-49.526-.137-11.674.366-23.349 1.189-34.92 2.606-4.629.594-9.257 1.28-13.886 2.011v2.103c16.149-2.88 32.349-4.663 48.806-5.303 16.406-.685 32.863-.091 49.423.046z"/><path d="M36.309 280.868c14.194 3.566 27.257 9.783 41.503 13.212 12.445 3.017 25.2 5.211 38.057 6.263 18.154 1.463 38.88.411 54.411-9.097 5.092-3.109 9.206-7.269 14.195-10.469 5.502-3.52 11.982-5.486 18.617-6.309 14.194-.777 28.594-.594 42.788.183 15.995.915 32.092 2.332 47.52 6.172 14.195 3.565 27.258 9.783 41.503 13.211 12.446 3.017 25.2 5.212 38.057 6.263 18.155 1.463 38.88.411 54.412-9.097 5.091-3.109 9.205-7.269 14.194-10.469 5.503-3.52 11.983-5.485 18.617-6.308 14.195-.777 28.594-.595 42.789.183.308 0 .617.045.925.045V272c-13.062-.686-26.177-.549-39.137.64-5.245 0-10.748.366-15.685 1.874-4.115 1.28-7.766 3.337-11.16 5.714-3.086 2.195-5.812 4.755-8.692 7.132-3.343 2.788-6.943 4.846-11.006 6.628-11.88 5.212-25.817 6.035-38.828 5.578-13.526-.458-26.846-2.698-39.96-5.623-10.749-2.423-20.983-5.852-31.269-9.555-5.605-2.057-11.16-4.251-16.817-6.171-5.708-1.92-11.571-2.971-17.588-3.749-21.806-2.834-44.178-3.84-66.138-1.874-5.245 0-10.748.366-15.685 1.874-4.115 1.28-7.766 3.338-11.16 5.715-3.086 2.194-5.812 4.754-8.692 7.131-3.343 2.789-6.943 4.846-11.005 6.629-11.88 5.211-25.818 6.034-38.829 5.577-13.526-.457-26.846-2.697-39.96-5.623-10.749-2.423-20.983-5.851-31.269-9.554-5.605-2.057-11.16-4.252-16.817-6.172-5.708-1.92-11.571-2.971-17.588-3.748A337.727 337.727 0 00-.103 272.64v2.651c12.343 1.052 24.583 2.606 36.412 5.577zm-.258-38.08c3.446-.594 6.738-1.92 8.486-4.708.257-.412.052-1.097-.566-1.189-14.914-2.331-29.468.137-43.971 2.972v1.965c13.834-2.834 27.669-5.531 42.017-3.565-2.52 2.194-6.274 2.605-9.72 3.017-4.268.503-8.074 1.417-12.034 2.88-6.84 2.423-13.32 5.486-20.263 7.588v2.56c8.023-2.24 15.48-5.897 23.246-8.777 4.165-1.554 8.383-1.965 12.805-2.743zm-25.508 26.606c.206.046.309-.183.155-.274-1.852-1.189-4.526-1.966-6.686-2.652-1.286-.411-2.623-.731-3.96-1.051v1.326c.72.137 1.44.32 2.211.503 2.674.64 5.503 1.691 8.28 2.148z"/><path d="M46.954 278.628c-4.577-2.88-10.645-4.662-15.942-6.171-5.658-1.6-11.469-2.56-17.332-3.154-.874-.092-.874 1.143 0 1.234 5.76.64 11.417 1.646 16.972 3.154 5.451 1.509 10.645 4.069 16.148 5.349.257.046.412-.274.154-.412zm80.949-46.445c0 .183.154.457.36.548 5.812 2.286 12.292 2.835 18.514 3.749 6.738.96 12.652 2.926 18.875 5.257 5.194 1.966 10.491 3.703 16.251 3.474 2.623-.091 5.349-.685 7.766-1.645 2.366-.96 2.983-1.006 3.086-3.109 0-.274-.155-.594-.463-.686-10.44-4.434-21.96-3.703-33.12-5.211-8.897-1.234-16.869-5.257-25.92-5.806-5.554-.32-11.212.594-16.715 1.006-6.274.457-12.6.777-18.874 1.143-12.085.64-24.428 1.463-36.257 3.885-.309.046-.154.458.103.412 16.508-3.017 33.223-3.337 49.988-4.206 5.915-.32 11.983-1.143 17.949-1.188-.257.091-.463.182-.72.274-.926.503-.72 1.097-.823 2.103zm24.223 2.24c6.994 2.011 14.194 2.377 21.446 3.017 3.908.32 7.817.868 11.623 1.737.463.137 5.76 1.554 5.76 1.417 0 .366.051.732.051 1.097 0-.137-3.291 1.097-3.651 1.189-7.149 2.377-14.452.137-21.137-2.377-3.035-1.143-6.018-2.377-9.155-3.337-3.806-1.143-7.817-1.738-11.725-2.286-4.166-.549-8.332-1.052-12.395-2.012-.874-.182-1.697-.457-2.52-.685-1.131-.32-1.131.183-1.234-.823-.103-1.052 2.777-1.234 3.908-1.509.566.046 1.08.046 1.646.137 6.017.503 11.674 2.789 17.383 4.435zM44.383 61.257c-2.726-2.148-6.429-3.383-9.771-4.571-3.6-1.235-7.303-2.286-11.109-2.926-5.04-.914-10.337-1.234-15.48-1.737a155.529 155.529 0 00-8.074-.595v1.83c3.651.182 7.303.548 10.954.913 8.949.915 17.383 2.103 25.714 5.303 2.16.823 6.84 2.332 7.509 4.663.72 2.423-13.063 3.2-14.04 3.246-7.509.411-15.069-.137-22.577.228-2.52.138-5.04.457-7.509.869v1.646c2.52-.275 4.989-.503 7.509-.595 7.868-.228 15.685.366 23.503 0 4.422-.228 10.851-.457 14.348-3.291 1.954-1.6.617-3.749-.977-4.983zm49.989 14.4c-7.046-.96-14.143-2.377-20.572-5.12-5.76-2.423-11.263-5.074-17.588-5.989-.463-.045-.669.549-.206.64 6.686 1.189 12.343 4.663 18.411 7.269 6.069 2.606 12.858 3.886 19.44 4.937 6.995 1.097 14.092 1.737 21.138 2.377 7.457.686 14.605.686 21.96-.686 7.251-1.37 14.194-3.748 21.188-5.942 6.12-1.92 11.623-5.532 16.766-8.96 5.4-3.612 10.851-7.223 16.714-10.195 6.12-3.062 14.863-4.8 21.857-4.388.772.046.72-.96 0-1.006-6.943-.64-13.268.229-19.748 2.56-5.863 2.149-10.955 5.76-15.943 9.189-5.4 3.748-10.852 7.405-17.023 10.148-6.686 2.972-14.4 4.937-21.6 6.583-7.509 1.692-14.76 1.829-22.371.96-7.509-.823-14.966-1.371-22.423-2.377zm76.268 18.834c-7.148.915-14.245 1.692-21.445 1.6-7.149-.045-13.732-1.462-20.469-3.428-.463-.137-.72.457-.308.64 12.342 5.988 27.462 4.526 40.782 2.834 6.583-.868 12.498-2.103 18.412-4.891 5.657-2.652 10.903-5.852 16.714-8.275.36-.137.052-.64-.308-.503-5.452 2.058-10.492 4.8-15.738 7.223-5.657 2.652-11.365 4.023-17.64 4.8zM2.469 150.263c13.474-.64 27-1.052 40.474-1.555.257 0 .257-.32 0-.32-14.297-.502-28.646.64-42.994.778v1.28a49.308 49.308 0 012.52-.183zm449.125 100.891c0 .503.206.96.515 1.326-.206.137-.206.503.154.64s.771.229 1.131.366c1.338.685 3.086 1.051 4.218 1.28.102.045.205 0 .308 0 14.709 3.702 31.012 4.022 46.08 1.691v-2.331c-7.663 1.234-15.583 1.554-23.348 1.554-7.509 0-15.069-.549-22.475-1.92-.051-.046-.154-.091-.257-.137-1.954-.549-6.686-1.692-3.394-3.612 2.417-1.417 5.503-2.057 8.28-2.605 3.548-.732 6.994-.686 10.594-.686 5.554 0 11.057-.091 16.56-.64 4.732-.457 9.412-1.234 14.04-2.103v-2.011c-7.714 1.463-15.428 2.743-23.246 3.108-4.937.275-9.977-.183-14.862.366a40.909 40.909 0 00-9.72 2.286c-1.543.503-4.629 1.6-4.578 3.428zM411.48 133.486c12.292.137 24.326.685 36.103 4.068 5.863 1.692 11.263 4.434 16.92 6.537 5.657 2.057 11.417 3.795 17.332 5.075 5.348 1.142 10.903 1.965 16.457 2.102 1.903.046 3.806 0 5.708-.091v-2.149c-7.714-.274-15.428-1.005-23.04-2.651-5.657-1.234-11.16-2.926-16.56-4.846-5.708-2.011-11.16-4.48-17.074-5.988-11.52-2.88-23.966-2.286-35.794-2.149-.154 0-.154.092-.052.092zm-74.623-77.212c5.503 2.789 11.572 4.617 17.795 5.623 24.531 3.977 51.583-5.989 68.657-21.623 2.726-2.514 5.863-6.171 4.166-9.829-1.543-3.337-6.172-4.937-9.669-6.125-13.269-4.663-27.617-7.589-41.657-9.372-7.252-.914-14.606-1.554-21.909-1.234-7.405.274-14.657 1.691-21.805 3.337-6.84 1.6-13.629 3.246-20.263 5.44-6.377 2.103-12.703 4.48-19.235 6.172-3.394.868-6.942 1.508-10.491 1.6-.566 0-1.029.411-1.029.914v.686c0 .274.206.64.515.777 3.137 1.234 6.171 1.325 9.411.823a57.274 57.274 0 0113.732 3.748c5.451 2.24 10.44 5.395 15.274 8.549 5.4 3.474 10.594 7.497 16.508 10.514zm-18.822-15.04c-4.578-2.834-9.412-5.303-14.658-7.04-3.291-1.097-6.737-1.691-10.234-1.966-.154-.274-.463-.548-.926-.457-1.8.229-3.6.366-5.451.229a8.22 8.22 0 01-1.131-.183c11.674-.96 22.577-6.583 33.634-9.6 14.657-4.023 29.726-7.406 45.206-6.491 15.171.868 29.777 3.794 44.28 7.725 5.194 1.417 11.52 2.652 15.634 6.034 4.577 3.795-1.852 8.915-4.989 11.383-18.308 14.4-44.794 23.269-69.12 17.509-12.548-2.971-21.908-10.697-32.245-17.143z"/><path d="M363.909 57.051c9.771-.64 19.028-4.983 27.977-8.32 4.525-1.691 9-3.474 13.114-5.851 2.417-1.417 5.606-3.52 5.811-6.309.515-6.354-7.148-9.188-12.805-10.651-8.023-2.057-16.56-2.514-24.892-2.972-8.64-.457-17.125-1.417-25.817-1.417-11.314 0-23.194.869-33.891 4.343-2.983.96-5.812 2.195-8.383 3.795-.566.365-.617 1.097 0 1.417.154.091.308.183.463.32-.36.045-.617.503-.206.685.617.32 1.234.595 1.851.915.515.548 1.029 1.097 1.749 1.462.36.183.669.138.926-.045 17.074 9.417 32.811 24 54.103 22.628zm-45.875-21.805a8.879 8.879 0 01-.668-.778c0-.137-.052-.228-.103-.365 9.514-5.075 21.548-3.886 32.297-2.972-4.269.32-8.589.595-12.909.777-2.005.092-3.96.138-5.965.183-1.595.046-2.315-.183-3.395.869-.72.731-.874 1.417-.617 2.057-.051.137-.051.274.103.411 8.64 7.726 20.417 15.269 33.377 13.44 6.275-.868 11.006-3.931 15.789-7.451 2.417-1.783 6.017-4.16 6.788-7.086.566-2.148-1.08-3.383-3.754-4.023 1.749-.045 3.497 0 5.246.138 3.188.274 9.823 1.691 8.743 5.714-.823 3.108-5.143 5.348-7.92 6.857-4.063 2.24-8.537 3.886-13.012 5.303-4.011 1.28-8.125 2.331-12.445 2.377-8.435 0-16.458-3.886-23.658-7.314-3.548-1.692-7.045-3.475-10.697-5.075a98.108 98.108 0 00-5.143-2.057c-.72-.365-1.491-.411-2.057-1.005zm12.137 1.645a.744.744 0 00.052-.731c-.257-.457-.566-.823-.977-1.234-1.08-1.052 2.88-.823 3.445-.823 3.292-.046 6.583-.183 9.823-.366 1.029-.046 2.006-.137 3.035-.183-2.932.869-5.709 2.012-8.178 3.52-.411.275-.668.777-.514 1.189-.257.183-.257.594.052.731.514.183.977.366 1.491.549.72.503 1.44 1.005 2.057 1.645.514.549 1.234.092 1.286-.457 1.903.64 3.857 1.235 5.76 1.92 2.726.915 5.451 1.737 8.383 1.829 7.56.32 13.834-5.989 18.463-10.469.565-.548.462-1.417-.258-1.783.978.046 1.903.138 2.829.275 1.8.228 4.011.503 2.726 2.377-1.646 2.468-4.732 4.389-7.2 6.126-4.423 3.2-9 5.531-14.812 5.897-9.874.457-19.748-4.572-27.463-10.012zm17.383 3.657c-2.314-.685-4.68-1.371-7.097-1.828-.206-.229-.463-.411-.72-.64 3.96-2.057 8.589-3.2 13.114-3.931-1.234.594-2.365 1.37-3.342 2.468-.412.457-.412 1.143.205 1.463.257.137.515.183.823.229a.547.547 0 00.514.868c4.68-.457 8.795-.96 12.343-3.977.617-.503.309-1.463-.514-1.646a23.8 23.8 0 00-1.749-.366c3.292-.182 6.686-.045 9.875.595-4.115 3.977-9.206 8.594-15.532 8.457-2.674-.092-5.348-1.006-7.92-1.692zm4.629-3.702c2.314-1.738 4.988-2.286 7.92-1.875-1.903 1.143-4.166 1.92-6.429 2.469-.411-.411-.925-.503-1.491-.594zm-30.189 2.651c2.057.96 4.115 1.874 6.12 2.88 5.863 2.834 11.623 5.76 17.846 8 5.657 2.011 11.674 3.109 17.743 2.331 3.806-.457 7.56-1.737 11.108-3.017 4.269-1.508 8.486-3.291 12.343-5.485 2.88-1.646 6.069-3.703 7.56-6.492 1.286-2.377.412-4.708-1.697-6.4-3.548-2.834-8.948-2.926-13.423-2.697-4.063.183-8.074.777-12.137 1.189-2.211.137-4.166.32-5.451.411-4.937.091-10.029-1.051-14.915-1.646-10.337-1.234-23.091-1.691-31.268 4.937a1.08 1.08 0 00-.566.366s0 .046-.051.046c-.052.046-.103.137-.103.183-.257.274-.103.64.154.777.257.548.617 1.006.977 1.417a160.872 160.872 0 00-6.377-3.154l-.051-.046c-1.132-.686-1.852-1.783-2.777-2.651 8.948-5.12 20.622-6.355 30.96-6.949 5.811-.32 11.674-.32 17.485-.091 4.372.183 8.64.777 13.012 1.051 7.817.503 15.685.777 23.4 2.057 5.554.915 17.023 2.88 16.611 9.692-.154 2.697-4.937 4.754-7.148 5.851-4.063 2.057-8.435 3.703-12.703 5.257-8.64 3.2-17.229 7.086-26.743 7.406-10.286.366-19.697-3.749-28.183-8.503-3.96-2.149-7.817-4.48-11.726-6.72zm107.589 161.371c6.891-3.017 14.143-4.251 21.6-5.531 4.783-.823 9.566-1.6 14.4-2.423.154.137.411.183.669.092 7.354-1.92 15.017-2.423 22.628-1.875 4.989.366 10.132 1.189 15.172 1.189v-2.56c-3.498.137-7.046.137-10.646-.092-9-.502-17.743-.365-26.486 1.738-8.588 1.234-17.177 2.56-25.766 3.885-6.634 1.006-12.497 3.612-18.462 6.217-6.789 2.972-13.886 5.486-21.189 7.269-14.4 3.566-29.829 4.069-44.126-.046-7.405-2.148-14.348-5.44-21.034-8.96-6.223-3.245-12.343-6.4-19.491-7.771-9.052-1.692-18.412-.686-27.463-2.194-4.577-.778-9.103-1.875-13.783-2.149-5.092-.32-10.183.366-15.172.96-8.177.96-15.994 1.463-24.222 1.006-9-.503-17.743-.366-26.486 1.737-8.589 1.234-17.177 2.56-25.766 3.886-6.634 1.005-12.497 3.611-18.463 6.217-6.788 2.971-13.885 5.485-21.188 7.268-14.4 3.566-29.829 4.069-44.126-.045-7.406-2.149-14.349-5.44-21.034-8.96-6.223-3.246-12.343-6.4-19.492-7.772-9.051-1.691-18.411-.686-27.463-2.194-4.577-.777-9.102-1.874-13.782-2.149-5.092-.32-10.183.366-15.172.96-1.131.137-2.211.229-3.291.366v2.469c4.731-.549 9.411-1.189 14.143-1.555 7.714-.594 14.811 1.326 22.371 2.103 7.303.777 14.657.183 21.909 1.326 7.611 1.188 14.04 4.891 20.417 8.503 6.274 3.565 12.703 6.903 19.748 9.097 6.686 2.103 13.835 3.063 20.88 3.246 9.206.228 18.463-1.235 27.257-3.566 9-2.377 17.28-6.126 25.663-9.829 6.892-3.017 14.143-4.251 21.6-5.531 4.783-.823 9.566-1.6 14.4-2.423.155.137.412.183.669.091 7.354-1.92 15.017-2.422 22.628-1.874 5.709.412 11.469 1.417 17.229 1.097 7.509-.411 14.914-1.737 22.423-2.285 7.714-.595 14.811 1.325 22.371 2.102 7.303.778 14.657.183 21.909 1.326 7.611 1.189 14.04 4.892 20.417 8.503 6.274 3.566 12.703 6.903 19.749 9.097 6.685 2.103 13.834 3.063 20.88 3.246 9.205.228 18.462-1.234 27.257-3.566 9.103-2.24 17.331-5.988 25.714-9.646zm-26.023-41.417c9.206 4.16 18.36 8.275 28.337 10.743.566.137.823-.64.258-.777-10.183-2.743-19.183-8.366-28.543-12.8-9.052-4.343-18.36-7.954-28.749-8.64-10.028-.686-19.388 3.109-28.183 6.811-4.885 2.058-9.771 4.115-14.76 5.898-4.68 1.645-9.72 3.245-14.811 2.88-.103 0-.103.091 0 .137 9.771.777 18.257-2.423 26.948-6.035 4.835-2.011 9.618-4.114 14.606-5.714 5.143-1.691 10.029-2.103 15.48-1.783 10.337.595 20.366 5.12 29.417 9.28z"/><path d="M389.778 172.571c-11.675-5.76-25.303-4.434-37.646-1.188-6.789 1.783-13.423 3.931-20.16 5.897-3.137.914-6.275 1.6-9.412 2.377-2.057.503-4.217 1.554-5.194 3.291-.154.275-.154.686.103.869 5.297 3.703 12.034 4.206 18.051 6.537.052.046.103-.046.052-.091-2.366-1.28-4.886-2.149-7.509-2.972-2.52-.823-6.84-2.011-8.897-3.931 1.697-1.28 3.909-1.646 6.069-2.103 3.085-.64 6.068-1.554 9.051-2.469 5.863-1.828 11.623-3.885 17.434-5.76 5.76-1.874 11.983-3.2 18.103-3.52 6.84-.365 13.475 1.098 19.852 3.246.154.046.205-.091.103-.183z"/><path d="M368.794 177.006c-4.165.365-8.485 1.188-12.394 2.468-3.806 1.234-7.817 2.789-10.389 5.577-.205.229-.257.503-.102.732 2.005 3.245 5.657 5.485 9.462 6.811.155.046.206-.137.103-.183-3.034-1.508-6.377-3.885-8.074-6.674 3.086-1.737 6.429-3.246 9.771-4.617 3.806-1.509 7.56-3.109 11.675-3.657.308-.046.257-.457-.052-.457zm68.76 8.914c-1.645-.823-3.96-1.234-5.76-1.737a29.929 29.929 0 00-6.068-1.052c-.206 0-.257.275-.052.32 3.292.915 7.252 1.555 10.132 3.429-1.543 2.423-4.834 4.48-7.303 5.897-3.394 1.874-7.354 2.789-11.057 4.023-.257.091-.154.503.103.411 5.914-1.828 12.548-2.56 17.28-6.445.874-.64 4.885-3.703 2.725-4.846zm-114.788 17.508c3.034.915 6.068 1.966 9.103 3.017 2.983 1.052 5.965 2.561 9.154 3.018.308.045.463-.366.154-.457-2.88-.686-5.245-2.423-8.023-3.429-3.291-1.189-6.582-2.332-9.977-3.383a105.588 105.588 0 00-9.308-2.331c-3.137-.64-6.377-1.509-9.566-1.875-6.48-.731-12.754-1.782-19.132-3.154-6.171-1.326-12.445-2.606-18.822-2.697-.463 0-.412.594 0 .64 12.394 1.28 23.554 7.36 36.102 7.68 3.446.091 6.686-.274 10.132.366 3.446.594 6.84 1.6 10.183 2.605zM220.32 102.171c.926 3.932 4.937 6.218 8.743 7.726 8.64 3.383 19.131 5.12 28.594 5.12 6.789 0 13.474-1.646 19.903-3.428 6.017-1.692 12.188-3.932 18.463-4.892 4.423.229 10.131-.274 12.754-3.611 2.726-3.429-6.326-6.629-8.331-7.772a172.33 172.33 0 01-3.138-1.783c2.058.686 4.115 1.417 6.275 1.875a.168.168 0 00.103-.32c-3.035-.686-5.812-2.103-8.795-2.926-4.062-2.194-8.228-3.886-13.422-4.023-3.189-.091-6.378.274-9.566.366-3.909.137-7.766-.366-11.623-.457-7.56-.229-15.171.64-22.474 2.377-4.32 1.005-8.949 2.423-12.909 4.343-3.086 1.6-5.348 4.068-4.577 7.405zm43.766-12.388c3.497.228 6.788.32 10.337 0 3.703-.32 7.251-.64 10.903-.046 3.6.594 6.634 2.332 9.617 4.069 3.086 1.737 6.12 3.52 9.257 5.12 1.234.64 2.623 1.234 3.446 2.285 1.337 1.738-2.932 3.338-4.012 3.612a57.05 57.05 0 01-6.326 1.326c-6.634.548-13.011 1.691-19.542 3.2-7.2 1.691-14.4 3.245-21.857 3.017-5.04-.137-10.235-1.052-15.12-2.057-5.04-1.006-10.235-2.332-14.606-4.846-1.8-1.052-3.754-2.789-4.012-4.8-.257-2.012 2.058-3.474 3.755-4.389 4.165-2.285 9.463-3.657 14.143-4.754 7.817-1.783 15.994-2.24 24.017-1.737z"/><path d="M281.161 94.4c-6.069-1.28-11.983-.914-18.155-.732-8.486.229-17.023.549-25.354 2.012-3.189.594-7.509 1.371-9.566 3.886-2.16 2.651 1.389 5.165 3.754 6.262 4.938 2.286 10.852 3.018 16.303 3.749 4.423.549 9.257 1.509 13.732.777 4.834-.137 9.668-.868 14.348-1.92 4.937-1.143 11.109-2.286 15.172-5.211 6.48-4.709-7.149-8.183-10.234-8.823zm-21.446 15.451c-3.086.046-6.12-.457-9.257-.96-4.526-.685-9-1.6-13.372-2.925-2.057-.595-8.537-2.195-8.074-5.029.411-2.286 4.834-3.154 6.788-3.611 8.28-1.966 17.28-2.195 25.818-2.423 6.377-.183 12.24-.275 18.514 1.051 2.88.595 5.811 1.372 8.331 2.789 2.572 1.417 1.595 2.56-.668 3.657-4.475 2.194-9.823 3.383-14.657 4.708-4.372 1.189-8.898 2.149-13.423 2.743z"/><path d="M273.96 98.651c-7.251-.731-14.606-.411-21.909-.503a186.07 186.07 0 01-8.742-.32c-2.469-.137-5.195-.365-7.509.503-2.469.915-4.114 3.932-1.646 5.577 2.726 1.875 6.943 1.966 10.235 2.332 1.337.137 2.725.228 4.011.64 1.337.411 2.571 1.097 3.909 1.554 1.028.32 2.108.503 3.188.549 2.52.183 5.246-.183 7.509-.549 5.194-.823 9.514-2.788 13.68-5.531 3.548-2.469.257-3.932-2.726-4.252zm-34.149 4.526c.875-1.28 3.703-1.737 5.76-1.966-1.028.412-1.902.96-2.571 1.783-.103.137-.051.457.154.503 2.315.914 4.937 1.234 7.457 1.051 0 .046-.051.092 0 .138-1.234 0-2.468 0-3.702-.092-.206-.046-.36-.046-.566-.091-.669-.092-1.389-.137-2.057-.183-1.543-.229-3.035-.594-4.475-1.143zm18.566-2.469c1.492.092 3.034.183 4.423.732.463.183.926.32 1.337.548.823.412.669.229-.154.686-1.389.777-3.137 1.052-4.68 1.463-.309.091-.617.137-.926.229.566-.458.772-1.372.977-1.829.206-.411-.205-.96-.668-1.051a37.563 37.563 0 00-4.835-.823 49.683 49.683 0 014.526.045zm-1.748 3.932c.205 0 .36-.046.565-.046-.051 0-.154.046-.205.046h-.36zm-9.052-.914c.154 0-3.806-.458-3.343-.915.772-.731 1.955-1.005 2.983-1.188 3.189-.64 6.789 0 9.874 1.051-.822.914-2.365 1.234-3.908 1.463.154-.046.36-.091.514-.137.257-.092.206-.457-.051-.457-2.057.183-4.063.32-6.069.183zm23.709-.229a95.502 95.502 0 01-6.892 2.606c-1.131.365-2.314.777-3.548 1.097-2.829.503-5.709.594-8.435-.594-.565-.229-1.08-.503-1.594-.732 1.954-.046 3.909-.228 5.812-.366 3.188.229 6.84-.182 9.308-1.737.977-.594 1.389-1.874.412-2.651-1.183-1.006-2.829-1.052-4.372-1.143-4.937-.229-9.926-.32-14.863.229-2.365.228-7.92.594-8.845 3.154 0 .091-.052.137 0 .228a13.81 13.81 0 01-1.338-.32c-1.645-.457-2.571-1.188-1.594-2.651 1.286-1.966 5.246-1.692 7.406-1.6 5.76.274 11.468.411 17.177.411 3.394 0 6.789-.045 10.183.229.72.046 7.354.64 6.531 1.463-1.234 1.143-3.754 1.691-5.348 2.377zm12.806-11.2c3.342 1.326 5.451 4.069 8.897 5.303 2.314.823 4.68 1.508 6.12 3.428 1.594 2.103-4.166 2.926-5.4 3.018-.515.045-.515.685 0 .685 2.057.092 5.297.229 6.891-1.234 1.389-1.234 1.234-2.926-.103-4.206-2.108-2.103-5.091-2.057-7.971-2.743-3.292-.822-5.04-3.794-8.434-4.388 0 0-.103.091 0 .137zm-18.72-.411c4.577-.046 9.051-.32 13.628.045.052 0 .052-.045 0-.045-16.508-1.509-32.811-.549-48.703 3.977-.051 0-.051.091 0 .091 7.406-1.828 15.172-2.834 22.835-3.566 4.062-.41 8.177-.41 12.24-.502z"/><path d="M214.2 92.937c-3.137.823-6.223 1.829-9.154 3.063a34.738 34.738 0 00-7.303 4.16c-1.286.96-2.726 2.103-2.983 3.611-.411 2.56 3.086 3.84 5.195 4.572 3.805 1.371 7.971 1.965 11.931 2.88 5.091 1.143 10.131 2.56 14.914 4.48-.308.045-.36.457 0 .594 6.48 2.149 12.137 6.263 19.029 7.36 6.686 1.097 13.68-.274 20.366-.777 7.817-.594 15.634-1.6 23.348-2.789 8.023-1.188 15.892-2.651 24.069-2.743 5.297-.045 43.868-.32 40.423-8.411-1.595-3.657-7.303-6.263-10.8-8.183-6.12-3.383-12.6-6.354-19.029-9.143-5.246-2.285-10.543-4.754-16.2-6.034-11.366-2.606-23.194-2.24-34.817-1.874-.411 0-.411.548 0 .548 13.474-.137 27.72 1.143 40.474 5.12 7.663 2.377 15.172 5.486 22.32 8.777 3.909 1.783 7.766 3.703 11.366 5.898 2.109 1.28 5.451 3.154 6.069 5.577.617 2.56-6.326 3.84-8.075 4.251-4.68 1.052-9.514 1.6-14.297 2.012-5.503.502-10.954.594-16.457.457-10.286-.275-20.212 1.051-30.292 2.788-10.08 1.783-20.468 3.063-30.754 3.612-4.731.274-9.103-.183-13.423-1.875 3.189.732 6.48.96 9.72 1.006 15.892.183 31.166-3.611 46.595-6.263 6.531-1.097 13.011-1.783 19.645-1.965 3.703-.092 7.869-.046 11.057-1.966 2.983-1.829 3.652-5.989 2.263-8.823-1.902-3.794-6.994-6.034-10.851-7.863-5.091-2.423-10.337-4.663-15.892-6.171-6.942-1.92-14.297-2.515-21.497-2.926-4.268-.229-8.485-.32-12.754-.411-1.491-.046-2.88-.275-4.269-.458.103-.137.052-.32-.154-.365-7.56-.915-15.326-1.646-22.937-.595-6.686.96-12.086 4.572-18.309 6.675-2.725 1.005-5.708 1.417-8.537 2.194zm45.515-8.229c-.515 0-1.08.092-1.646.183-.052 0 0 .046 0 .046 3.291-.274 6.274.457 9.411 1.143 3.446.731 7.406.64 10.903.868 7.766.549 15.429 1.052 22.937 2.972 5.915 1.508 11.418 4.251 16.766 6.857 4.577 2.194 9.926 4.846 9.669 10.057-.206 4.343-6.069 4.617-9.72 4.709-5.657.091-11.16.091-16.817.823-7.818.96-15.532 2.697-23.246 4.205-8.023 1.555-16.149 2.56-24.326 3.2-7.303.549-14.297.183-20.88-2.88-2.571-1.188-5.143-2.56-7.869-3.52-3.034-1.097-6.222-1.737-9.308-2.697-3.24-1.006-6.583-1.646-9.874-2.377-2.418-.549-8.023-1.326-9.052-3.794-.617-1.417 2.674-2.972 3.6-3.52 2.52-1.417 5.297-2.515 8.074-3.475 5.246-1.92 11.058-2.651 16.2-4.708 5.503-2.149 10.08-5.669 15.892-7.223 6.12-1.691 12.857-1.463 19.286-.869z"/><path d="M317.52 99.108c2.212 1.6 5.452 3.657 3.755 6.537-.823 1.372-2.675 1.646-4.269 1.92-3.703.64-7.56.458-11.314.595-4.063.183-8.126 1.188-12.137 1.874-5.452.914-10.749 1.874-15.943 3.657-.155.046-.103.274.051.229 6.377-1.783 13.269-1.875 19.903-2.652 2.366-.274 4.731-.777 7.149-.914 2.262-.091 4.525-.046 6.788-.091 3.446-.046 8.126.091 10.8-2.195 3.857-3.337-1.234-7.771-4.423-9.417-.308-.137-.668.275-.36.457zm-8.023-2.88c1.543.64 3.189.915 4.783 1.28.154.046.206-.137.051-.182-1.645-.366-3.24-.732-4.834-1.189-.051 0-.051.046 0 .091z"/><path d="M256.526 79.817c-12.652-1.509-26.64 2.331-37.594 7.771-.103.046-.052.183.051.138 10.8-3.338 21.497-7.223 33.12-7.086 2.571.046 5.091.366 7.663.777 3.806.686 7.508.137 11.314-.457 7.972-1.28 16.2-.229 24.172.731 7.662.915 15.222 2.377 22.577 4.48 7.92 2.286 15.377 5.715 22.937 8.777 3.6 1.463 7.148 2.972 10.594 4.663 3.034 1.463 5.863 2.926 9.154 3.84 2.983.823 5.76.686 8.846.64 1.594 0 3.137 0 4.732.32.925.183 3.857 1.646 3.24 2.789-.72 1.326-4.012 1.691-5.4 2.011-2.212.457-4.32.96-6.429 1.737-2.931 1.098-5.657 2.56-8.434 3.932-3.395 1.646-6.84 2.468-10.646 3.063-8.486 1.234-17.383 1.28-25.971 1.28-.155 0-.155.183 0 .183 8.125.045 16.2 1.005 24.325.457 3.292-.229 6.635-.595 9.823-1.509 3.034-.868 5.76-2.423 8.589-3.703 4.165-1.965 8.743-2.651 13.011-4.343 3.086-1.234 4.063-3.52 1.44-5.714-1.697-1.417-3.754-1.737-5.966-1.783-3.394-.091-6.531.503-9.925-.091-3.497-.594-6.737-2.286-9.823-3.886-3.652-1.92-7.663-3.428-11.52-4.983-7.097-2.834-14.04-5.988-21.343-8.274-7.251-2.286-14.863-3.749-22.474-4.8a236.978 236.978 0 00-13.989-1.371c-4.731-.32-8.846 0-13.526.777-2.777.457-5.554.731-8.331.274-1.44-.229-2.829-.457-4.217-.64zm191.468 19.154c-5.503 3.109-10.8 6.08-17.434 6.766-.309.046-.309.457 0 .411 5.606-.411 10.594-2.377 15.634-4.48 5.863-2.422 10.8-6.308 16.766-8.457.103-.045.051-.183-.051-.137-5.349 1.234-10.286 3.246-14.915 5.897z"/><path d="M426.755 115.886c9.72 1.097 19.183 2.925 28.748 4.525 10.852 3.292 21.292 7.497 31.886 11.566 5.4 2.057 10.954 3.566 16.612 4.617v-1.737h-.052c-14.194-3.84-27.463-10.697-41.657-14.674-.103-.275-.309-.503-.72-.595-13.886-4.022-28.903-5.714-43.406-6.994-8.743-.777-17.743-1.371-26.537-.594-3.908.366-7.508 1.6-10.903 3.383-2.623 1.371-4.988 3.154-7.508 4.663-3.24 1.965-6.995 3.245-10.749 4.342-7.148 2.103-14.554 3.338-21.96 4.618-7.663 1.28-15.274 2.788-22.937 4.022-11.674 1.875-23.349 3.749-35.229 4.389-11.674.64-24.325.503-35.64-2.56-14.194-3.84-27.462-10.697-41.657-14.674-.103-.275-.308-.503-.72-.595-13.885-4.022-28.903-5.714-43.405-6.994-8.743-.777-17.743-1.371-26.538-.594-3.908.366-7.508 1.6-10.902 3.383-2.623 1.371-4.989 3.154-7.509 4.663-3.24 1.965-6.994 3.245-10.749 4.342-7.148 2.103-14.554 3.338-21.96 4.618-7.662 1.28-15.274 2.788-22.937 4.022-11.674 1.875-23.348 3.749-35.228 4.389-8.229.457-16.92.503-25.303-.549v1.189c4.526.457 9.103.686 13.731.777 15.789.274 31.68-1.966 47.109-4.8a1257.167 1257.167 0 0122.937-4.068c7.406-1.235 14.811-2.423 22.011-4.343 4.68-1.28 9.155-2.743 13.269-5.12 4.114-2.377 8.177-4.755 13.011-5.715 4.166-.868 8.743-.594 12.96-.548 8.229.137 16.458.777 24.583 1.691 9.72 1.097 19.183 2.926 28.749 4.526 10.851 3.291 21.291 7.497 31.886 11.566 12.908 4.937 26.64 6.583 40.628 6.811 15.789.274 31.68-1.966 47.109-4.8a1256.383 1256.383 0 0122.937-4.068c7.406-1.235 14.811-2.423 22.011-4.343 4.68-1.28 9.155-2.743 13.269-5.12 4.114-2.377 8.177-4.755 13.011-5.715 4.166-.868 8.743-.594 12.96-.548 8.435.046 16.612.731 24.789 1.646zm-160.972 92.891c5.811-.457 11.571-.229 17.383.274 11.88 1.006 23.503 2.423 35.434 2.56.412 0 .72-.274.72-.64 0-.228 0-.457.052-.685 0-.229-.155-.458-.36-.595-9-4.845-19.749-7.497-29.932-9.463a166.885 166.885 0 00-33.377-2.971c-10.749.137-21.291 1.6-31.886 3.291-11.674 1.875-23.657 4.023-35.588 3.612-.412 0-.617.274-.669.594h-.206c-1.028 0-1.182 1.28-.257 1.509.36.091.72.137 1.08.137 1.595.32 3.395 1.143 4.835 1.6 2.622.823 5.245 1.6 7.92 2.423 5.708 1.737 11.468 3.794 17.331 4.937 10.029 1.92 19.954-.823 29.571-3.2 5.915-1.509 11.829-2.88 17.949-3.383zm-47.674 4.114c-5.915-1.051-11.777-2.971-17.537-4.571-2.675-.732-5.298-1.463-7.92-2.194a6.56 6.56 0 01-1.235-.412c9.977.823 20.057-.503 29.88-2.057 10.955-1.691 21.806-4.297 32.915-4.663 11.52-.366 23.142.64 34.457 2.697a133 133 0 0115.891 3.84c2.726.823 5.4 1.783 8.074 2.835 1.08.411 2.16.868 3.189 1.371.514.229 1.183.411 1.646.64-11.109.549-22.32-1.371-33.326-2.377-11.571-1.052-22.989-1.234-34.303 1.326-10.594 2.377-20.726 5.485-31.731 3.565zm115.971 75.658c5.658 2.057 11.778 3.2 17.743 4.342 12.343 2.378 25.869 4.206 38.315 1.692 7.971-1.6 15.737-5.486 22.885-8.914 8.743-4.16 17.486-8.778 24.892-14.629 4.165-3.291 8.331-7.634 7.251-12.983-.874-4.434-5.708-7.451-9.823-9.463-6.428-3.108-13.731-4.891-20.828-6.354-8.383-1.737-16.972-2.834-25.509-3.749-13.474-1.417-26.948-2.468-40.474-2.788-15.274-.366-29.109 7.451-42.84 12.251-6.943 2.423-14.246 4.069-21.394 6.035-7.715 2.102-15.48 4.022-23.555 4.434-.514.046-.668.548-.36.823-.617.32-1.131.731-.823 1.28 1.029 1.828 2.212 2.148 4.372 2.925 2.931 1.052 6.017 2.058 9.154 2.469 3.549.457 7.149.503 10.697.686 13.063.685 23.863 7.817 34.355 13.988 5.091 3.063 10.285 5.852 15.942 7.955zm-51.171-24.183c-4.731-.137-9.463.274-14.091-.823a95.08 95.08 0 01-6.223-1.692c-1.492-.502-1.389-.411-1.955-1.417-.154-.274 1.029-.685 1.698-.96 6.428.046 12.96-1.097 19.182-2.377 6.943-1.463 13.989-3.108 20.778-5.12 13.731-4.068 26.28-11.383 40.731-13.394 6.377-.914 13.269-.412 19.697-.137 7.766.32 15.48.777 23.194 1.508a277.241 277.241 0 0126.075 3.84c7.354 1.463 14.811 3.246 21.548 6.309 4.115 1.874 9.257 4.846 9.617 9.371.463 6.08-7.302 10.88-12.034 14.035-8.28 5.44-17.434 9.965-26.691 13.897-3.703 1.554-7.457 3.017-11.366 4.16-5.091 1.508-10.543 1.783-15.891 1.737-12.96-.137-26.435-2.514-38.829-5.989-12.034-3.383-21.703-11.108-32.503-16.64-7.046-3.611-14.708-6.034-22.937-6.308zm-50.143-.549c6.068.503 12.24 1.006 18.308 1.829 2.829.365 5.555.914 8.28 1.6 2.726.685 5.555 1.691 8.332 2.148.206.046.308-.183.154-.274-1.851-1.189-4.526-1.966-6.686-2.652-2.88-.914-5.862-1.508-8.845-2.148-5.915-1.326-11.829-2.149-17.846-2.652-6.223-.548-12.549-.822-18.771-1.142-5.658-.275-11.675-1.006-17.332-.549-.463.046-.617.594-.103.731 4.937 1.418 10.697 1.463 15.84 1.783 6.172.412 12.446.823 18.669 1.326z"/><path d="M303.892 279.04c.308.046.411-.274.205-.412-4.577-2.88-10.645-4.662-15.942-6.171-5.658-1.6-11.469-2.56-17.332-3.154-.874-.092-.874 1.143 0 1.234 5.76.64 11.417 1.646 16.972 3.154 5.451 1.509 10.594 4.115 16.097 5.349zm81.154-46.857c0 .183.154.457.36.548 5.811 2.286 12.291 2.835 18.514 3.749 6.737.96 12.651 2.926 18.874 5.257 5.195 1.966 10.492 3.703 16.252 3.474 2.623-.091 5.348-.685 7.765-1.645 2.366-.96 2.983-1.006 3.086-3.109 0-.274-.154-.594-.463-.686-10.44-4.434-21.96-3.703-33.12-5.211-8.897-1.234-16.868-5.257-25.92-5.806-5.554-.32-11.211.594-16.714 1.006-6.274.457-12.6.777-18.874 1.143-12.086.64-24.429 1.463-36.257 3.885-.309.046-.155.458.102.412 16.509-3.017 33.223-3.337 49.989-4.206 5.914-.32 11.983-1.143 17.949-1.188-.258.091-.463.182-.72.274-.926.503-.72 1.097-.823 2.103zm24.223 2.24c6.994 2.011 14.194 2.377 21.445 3.017 3.909.32 7.817.868 11.623 1.737.463.137 5.76 1.554 5.76 1.417 0 .366.052.732.052 1.097 0-.137-3.292 1.097-3.652 1.189-7.148 2.377-14.451.137-21.137-2.377-3.034-1.143-6.017-2.377-9.154-3.337-3.806-1.143-7.817-1.738-11.726-2.286-4.166-.549-8.331-1.052-12.394-2.012-.875-.182-1.697-.457-2.52-.685-1.132-.32-1.132.183-1.235-.823-.102-1.052 2.778-1.234 3.909-1.509.566.046 1.08.046 1.646.137 6.017.503 11.674 2.789 17.383 4.435zM301.526 61.257c-2.726-2.149-6.428-3.383-9.771-4.571-3.6-1.235-7.303-2.286-11.109-2.926-5.04-.914-10.337-1.234-15.48-1.737-6.171-.595-12.343-.96-18.566-.732-4.834.183-9.72.777-14.142 2.56-.463.183-.566.777-.36 1.143 1.851 2.88 3.96 5.532 6.017 8.275 1.697 2.33 2.674 5.348 4.834 7.36-.514.045-1.029.045-1.543.09-.463 0-.463.595 0 .64 7.817.092 15.377-1.553 23.194-1.782 7.869-.229 15.686.366 23.503 0 4.423-.229 10.852-.457 14.349-3.291 2.006-1.646.668-3.795-.926-5.029zm-14.246 6.126c-7.508.411-15.068-.137-22.577.228-6.788.32-13.371 2.24-20.108 2.926a.63.63 0 00-.206-.64c-1.029-.96-1.44-2.24-2.057-3.428-.72-1.372-1.594-2.698-2.52-3.978-1.8-2.514-3.754-4.891-5.452-7.451 4.783-1.691 10.08-1.92 15.172-1.966 6.171-.046 12.394.503 18.514 1.143 8.949.914 17.383 2.103 25.714 5.303 2.16.823 6.84 2.331 7.509 4.663.771 2.377-12.96 3.154-13.989 3.2zm64.235 8.274c-7.046-.96-14.143-2.377-20.572-5.12-5.76-2.423-11.263-5.074-17.588-5.989-.463-.045-.669.549-.206.64 6.686 1.189 12.343 4.663 18.412 7.269 6.068 2.606 12.857 3.886 19.439 4.937 6.995 1.097 14.092 1.737 21.138 2.377 7.457.686 14.605.686 21.96-.686 7.251-1.37 14.194-3.748 21.188-5.942 6.12-1.92 11.623-5.532 16.766-8.96 5.4-3.612 10.851-7.223 16.714-10.195 6.12-3.062 14.863-4.8 21.857-4.388.772.046.72-.96 0-1.006-6.943-.64-13.268.229-19.748 2.56-5.863 2.149-10.955 5.76-15.943 9.189-5.4 3.748-10.852 7.405-17.023 10.148-6.686 2.972-14.4 4.937-21.6 6.583-7.509 1.692-14.76 1.829-22.371.96-7.509-.823-14.966-1.371-22.423-2.377zm76.268 18.834c-7.149.915-14.246 1.692-21.446 1.6-7.148-.045-13.731-1.462-20.468-3.428-.463-.137-.72.457-.309.64 12.343 5.988 27.463 4.526 40.783 2.834 6.583-.868 12.497-2.103 18.411-4.891 5.658-2.652 10.903-5.852 16.715-8.275.36-.137.051-.64-.309-.503-5.451 2.058-10.491 4.8-15.737 7.223-5.657 2.652-11.366 4.023-17.64 4.8zM211.475 73.417c4.885-.32 10.028.32 14.708-1.28 2.88-1.006 5.092-3.886 5.452-6.537.308-2.24-1.697-3.977-3.703-4.983-5.4-2.743-12.806-2.88-18.823-2.743-2.88.046-5.863.274-8.691.869-4.783.96-9.463 3.245-13.835 5.257-11.005 5.028-21.24 11.246-33.377 13.897-6.48 1.417-13.011 2.514-19.594 3.383-6.069.777-12.24 1.234-18.257 2.148-.669-.091-1.337-.228-2.006-.32-.514-.091-.771.549-.36.732-.36.183-.257.777.206.731.823-.045 1.594-.091 2.417-.137 12.137 2.789 24.068 6.263 36.668 6.994a68.256 68.256 0 0019.286-1.691c7.354-1.737 13.886-4.937 20.366-8.411 3.034-1.646 6.12-3.2 9.308-4.618 3.086-1.508 6.686-3.062 10.235-3.291zm-36.566 12.754c-18.36 5.897-37.131 1.143-55.491-2.103 5.194-.502 10.337-1.188 15.48-1.874 7.405-.96 14.862-2.103 22.114-3.931 13.166-3.292 24.377-10.377 36.72-15.315 3.908-1.554 7.56-2.697 11.828-3.062a66.975 66.975 0 0111.726.091c4.937.457 16.354 2.514 10.389 8.686-2.366 2.468-6.789 2.285-10.132 2.377-4.114.091-7.714.046-11.674 1.234-11.057 3.337-20.006 10.377-30.96 13.897zm315.463 97.509c-5.76.457-11.52.503-17.28.091-4.834-.32-9.617-1.051-14.451-1.188-13.115-3.383-26.435-6.126-39.6-9.417-13.218-3.246-25.972-8.229-39.652-9.829-6.068-.731-12.188-.457-18.206.686-6.582 1.234-13.011 3.703-19.388 5.623-11.983 3.611-24.069 7.268-35.434 12.251a1.337 1.337 0 00-.309.229 48.874 48.874 0 00-9.617-2.835c-9.926-1.874-20.366-1.097-30.343.137-11.006 1.326-21.909 3.338-32.966 4.252-5.76.457-11.52.503-17.28.091-4.834-.32-9.617-1.051-14.451-1.188-13.114-3.383-26.434-6.126-39.6-9.417-13.217-3.246-25.972-8.229-39.652-9.829-6.068-.731-12.188-.457-18.205.686-6.583 1.234-13.012 3.703-19.389 5.623-11.983 3.611-24.068 7.268-35.434 12.251a1.338 1.338 0 00-.309.229 48.885 48.885 0 00-9.617-2.835c-9.925-1.874-20.366-1.097-30.343.137a286.45 286.45 0 00-9.051 1.235v2.194c1.748-.274 3.548-.503 5.297-.731 10.749-1.463 21.857-2.56 32.657-.869 4.114.64 8.126 1.829 11.983 3.337 2.16 2.194 5.349 3.474 8.331 4.526 4.938 1.783 10.183 2.88 15.326 4.16 4.937 1.188 9.669 2.514 14.246 4.526 5.349 2.331 10.44 5.028 15.943 7.085 10.697 3.977 22.32 3.52 33.531 1.92 11.623-1.645 23.246-4.571 34.097-8.685 6.789-2.56 13.732-5.623 19.029-10.332.566-.503.463-1.417-.257-1.783-18.155-8.503-39.497-6.171-58.937-10.377-4.32-.96-8.383-2.743-12.703-3.611-3.909-.777-7.715-.32-11.469.731-5.194 1.463-10.234 3.703-15.274 5.532-5.451 1.92-11.006 3.611-16.714 4.8-1.235.274-1.132 1.554-.309 2.102 19.594 13.258 46.491 20.023 70.766 14.766 5.965-1.28 11.674-3.474 16.92-6.4 2.16-1.188 6.943-3.246 6.737-6.08-.154-2.194-3.652-2.788-5.503-3.108-4.011-.686-8.177-.823-12.24-1.006-9.669-.503-18.669-3.246-28.183-4.48-10.286-1.372-18.771 1.874-26.28 8.091-.308.275-.463.823-.154 1.189 2.828 3.291 7.251 5.028 11.623 6.171 5.811 1.555 12.034 2.057 18.103 2.103 6.068.046 12.188-.457 18.051-1.828 2.777-.64 10.491-2.332 10.491-5.532 0-.366-.308-.777-.72-.868-8.074-1.509-15.994-3.292-24.222-3.886-6.892-.503-16.149-.32-20.006 5.714-.257.412-.103.823.308 1.097 6.995 4.252 15.326-1.691 22.835-1.28.617.046 1.131-.685.72-1.143-1.235-1.462-2.88-2.422-4.68-2.88.72.046 1.388.092 2.057.138 7.2.594 14.194 2.285 21.24 3.748-.72.503-2.16 1.052-2.983 1.372-2.109.822-4.371 1.371-6.634 1.828-5.349 1.097-10.903 1.509-16.406 1.554-5.554.046-11.109-.457-16.509-1.691-3.805-.869-8.125-2.24-10.8-4.937 4.372-3.52 9.309-6.354 15.275-7.223 5.245-.777 10.645.32 15.737 1.326 5.246 1.051 10.491 2.24 15.891 2.743 4.217.365 8.486.502 12.703.868 1.286.092 8.434.366 8.537 2.24.052 1.234-2.623 2.56-3.497 3.063-2.674 1.6-5.503 2.971-8.434 4.16-12.034 4.891-25.817 5.44-38.726 3.657-13.68-1.874-26.948-6.72-38.263-13.806 9.566-2.331 18.515-6.08 27.772-9.28 4.011-1.371 8.074-1.965 12.343-1.142 4.422.868 8.537 2.697 12.908 3.657 18.36 3.977 38.726 1.691 56.006 9.28-7.509 5.897-17.692 9.325-27 12.068-10.954 3.246-22.474 5.669-34.046 6.309-6.274.366-12.548-.137-18.566-1.829-5.811-1.645-11.108-4.434-16.508-6.903-9.412-4.297-19.543-5.851-29.469-8.822-1.028-.32-2.108-.64-3.24-1.006-2.16-1.28-4.32-2.469-6.583-3.52-.102-.092-.154-.183-.257-.229 10.852-4.663 22.32-8.091 33.686-11.52 6.12-1.828 12.189-4.023 18.463-5.44 6.531-1.463 13.32-1.463 19.954-.594 6.223.823 12.24 2.469 18.206 4.16 6.737 1.92 13.526 3.794 20.366 5.44 13.32 3.154 26.794 5.669 40.114 8.823.257.046.514 0 .668-.183 8.846 2.057 18.566 2.423 27.566 1.966 10.697-.549 21.189-2.377 31.783-3.84 10.749-1.463 21.857-2.56 32.657-.869 4.114.64 8.126 1.829 11.983 3.337 2.16 2.195 5.349 3.475 8.332 4.526 4.937 1.783 10.182 2.88 15.325 4.16 4.937 1.189 9.669 2.514 14.246 4.526 5.348 2.331 10.44 5.028 15.943 7.085 10.697 3.978 22.32 3.52 33.531 1.92 11.623-1.645 23.246-4.571 34.097-8.685 6.789-2.56 13.732-5.623 19.029-10.332.566-.503.463-1.417-.257-1.783-18.155-8.502-39.497-6.171-58.937-10.377-4.32-.96-8.383-2.743-12.703-3.611-3.909-.777-7.715-.32-11.469.731-5.194 1.463-10.234 3.703-15.274 5.532-5.452 1.92-11.006 3.611-16.714 4.8-1.235.274-1.132 1.554-.309 2.103 19.594 13.257 46.491 20.022 70.766 14.765 5.965-1.28 11.674-3.474 16.92-6.4 2.16-1.188 6.943-3.245 6.737-6.08-.154-2.194-3.652-2.788-5.503-3.108-4.011-.686-8.177-.823-12.24-1.006-9.669-.503-18.669-3.246-28.183-4.48-10.286-1.371-18.771 1.874-26.28 8.091-.308.275-.463.823-.154 1.189 2.828 3.291 7.251 5.029 11.623 6.171 5.811 1.555 12.034 2.058 18.103 2.103 6.068.046 12.188-.457 18.051-1.828 2.777-.64 10.491-2.332 10.491-5.532 0-.365-.308-.777-.72-.868-8.074-1.509-15.994-3.292-24.222-3.886-6.892-.503-16.149-.32-20.006 5.714-.257.412-.103.823.308 1.097 6.995 4.252 15.326-1.691 22.835-1.28.617.046 1.131-.685.72-1.142-1.235-1.463-2.88-2.423-4.68-2.88.72.045 1.388.091 2.057.137 7.2.594 14.194 2.285 21.24 3.748-.72.503-2.16 1.052-2.983 1.372-2.109.823-4.371 1.371-6.634 1.828-5.349 1.097-10.903 1.509-16.406 1.555-5.554.045-11.109-.458-16.509-1.692-3.805-.868-8.125-2.24-10.8-4.937 4.372-3.52 9.309-6.354 15.275-7.223 5.245-.777 10.645.32 15.737 1.326 5.246 1.051 10.491 2.24 15.891 2.743 4.218.365 8.486.503 12.703.868 1.286.092 8.434.366 8.537 2.24.052 1.235-2.623 2.56-3.497 3.063-2.674 1.6-5.503 2.972-8.434 4.16-12.034 4.892-25.817 5.44-38.726 3.657-13.68-1.874-26.948-6.72-38.263-13.805 9.566-2.332 18.515-6.08 27.772-9.28 4.011-1.372 8.074-1.966 12.343-1.143 4.422.868 8.537 2.697 12.908 3.657 18.36 3.977 38.726 1.691 56.006 9.28-7.509 5.897-17.692 9.326-27 12.068-10.954 3.246-22.474 5.669-34.046 6.309-6.274.366-12.548-.137-18.566-1.829-5.811-1.645-11.108-4.434-16.508-6.902-9.411-4.298-19.543-5.852-29.469-8.823-1.028-.32-2.108-.64-3.24-1.006-2.16-1.28-4.32-2.469-6.583-3.52-.102-.091-.154-.183-.257-.229 10.852-4.662 22.32-8.091 33.686-11.52 6.12-1.828 12.189-4.022 18.463-5.44 6.531-1.462 13.32-1.462 19.954-.594 6.223.823 12.24 2.469 18.206 4.16 6.737 1.92 13.526 3.794 20.366 5.44 13.32 3.154 26.794 5.669 40.114 8.823.257.046.514 0 .668-.183 8.846 2.057 18.566 2.423 27.566 1.966 5.4-.274 10.8-.869 16.149-1.6v-2.194c-4.783.32-9.309.868-13.886 1.234zm-359.126 4.526c-2.931.137-5.76.868-8.537 1.6-3.497.914-7.251 1.874-10.594.274 2.006-2.606 5.246-3.794 8.794-4.252-1.234.32-2.417.686-3.497 1.143-.669.275-.411 1.097.206 1.28 4.217 1.326 8.588.686 12.651-.685.309.228.669.411.977.64zm-10.903-.732c2.366-.686 5.143-1.051 7.612-.594-2.52.64-5.04.96-7.612.594zm268.046.732c-2.931.137-5.76.868-8.537 1.6-3.497.914-7.251 1.874-10.594.274 2.005-2.606 5.245-3.794 8.794-4.252-1.234.32-2.417.686-3.497 1.143-.669.275-.412 1.097.206 1.28 4.217 1.326 8.588.686 12.651-.685.309.228.669.411.977.64zm-10.903-.732c2.366-.686 5.143-1.051 7.612-.594-2.52.64-5.04.96-7.612.594zm104.606-92.663c-3.189 1.555-5.452 4.023-4.629 7.36.926 3.932 4.937 6.217 8.743 7.726 5.451 2.149 11.571 3.611 17.743 4.434v-2.88c-2.057-.32-4.063-.685-6.069-1.097-5.04-1.006-10.234-2.331-14.606-4.846-1.8-1.051-3.754-2.788-4.011-4.8-.257-2.01 2.057-3.474 3.754-4.388 4.166-2.286 9.463-3.657 14.143-4.754a82.77 82.77 0 016.737-1.235v-1.508c-3.034.411-6.068.96-9 1.646-4.268 1.005-8.845 2.377-12.805 4.342z"/><path d="M485.229 99.566c-2.16 2.651 1.388 5.165 3.754 6.262 4.526 2.149 9.977 2.926 15.017 3.566v-1.143a100.24 100.24 0 01-9.771-2.285c-2.057-.595-8.537-2.195-8.075-5.029.412-2.286 4.835-3.154 6.789-3.611 3.6-.869 7.303-1.372 11.057-1.738v-1.142c-3.086.274-6.171.685-9.206 1.234-3.188.594-7.508 1.371-9.565 3.886z"/><path d="M491.246 103.908c2.726 1.875 6.943 1.966 10.234 2.332.823.091 1.697.137 2.52.274v-1.92c-.206-.046-.36-.046-.566-.091-.668-.092-1.388-.137-2.057-.183-1.491-.229-2.983-.594-4.423-1.189.875-1.28 3.703-1.737 5.76-1.965-1.028.411-1.902.96-2.571 1.782-.103.138-.051.458.154.503 1.183.457 2.469.777 3.755.96v-.868c-1.08-.183-2.932-.503-2.623-.777.668-.64 1.697-.915 2.623-1.143v-1.509c-2.469.229-7.766.64-8.692 3.154 0 .092-.051.138 0 .229a14.09 14.09 0 01-1.337-.32c-1.646-.457-2.571-1.189-1.594-2.651 1.285-1.966 5.245-1.692 7.405-1.6 1.389.045 2.829.137 4.218.182v-1.097c-1.183-.045-2.366-.137-3.6-.183-2.469-.137-5.195-.365-7.509.503-2.52.869-4.166 3.886-1.697 5.577zm-3.806-8c5.4-1.325 10.954-2.24 16.56-2.88v-.594a115.482 115.482 0 00-16.56 3.429c-.051 0-.051.045 0 .045z"/><path d="M471.343 92.937c-3.137.823-6.223 1.829-9.154 3.063a34.722 34.722 0 00-7.303 4.16c-1.286.96-2.726 2.103-2.983 3.611-.412 2.56 3.086 3.84 5.194 4.572 3.806 1.371 7.972 1.965 11.932 2.88 5.091 1.143 10.131 2.56 14.914 4.48-.309.045-.36.457 0 .594 6.48 2.149 12.137 6.263 19.028 7.36.36.046.669.091 1.029.137v-1.188a26.864 26.864 0 01-6.737-1.692c2.211.503 4.474.777 6.737.914v-1.92c-4.886-.137-9.566-.96-14.091-3.062-2.572-1.189-5.143-2.56-7.869-3.52-3.034-1.098-6.223-1.738-9.309-2.698-3.24-1.005-6.582-1.645-9.874-2.377-2.417-.548-8.023-1.325-9.051-3.794-.617-1.417 2.674-2.971 3.6-3.52 2.52-1.417 5.297-2.514 8.074-3.474 5.246-1.92 11.057-2.652 16.2-4.709 5.503-2.148 10.08-5.668 15.891-7.223A36.788 36.788 0 01504 84.434v-.823a48.874 48.874 0 00-5.811.503c-6.686.96-12.086 4.572-18.309 6.674-2.726.96-5.709 1.372-8.537 2.15zm4.834-5.212c9.154-2.834 18.206-6.034 27.823-6.857v-1.234c-9.771.686-19.697 3.886-27.926 7.954-.103.046 0 .183.103.138zm15.223 69.852c-7.251-.32-14.194-1.737-21.086-3.657-5.657-2.24-11.828-3.612-17.794-4.937a43.155 43.155 0 00-2.366-.503c-.977-.229-1.954-.503-2.931-.732a.99.99 0 00-.514 0c-5.4-1.142-10.8-2.24-16.149-3.474-13.834-3.154-27.823-5.303-42.12-5.806-14.143-.502-28.543.64-42.171 4.115-7.663 1.965-15.172 4.434-22.835 6.308a351.478 351.478 0 01-23.76 4.937c-21.6 3.749-43.405 4.755-65.365 3.795-7.252-.32-14.195-1.737-21.086-3.657-5.657-2.24-11.829-3.612-17.794-4.938a44.515 44.515 0 00-2.366-.502c-.977-.229-1.954-.503-2.931-.732a.973.973 0 00-.515 0c-5.4-1.143-10.748-2.24-16.148-3.474-13.835-3.154-27.823-5.303-42.12-5.806-14.143-.503-28.543.64-42.172 4.114-7.663 1.966-15.171 4.435-22.834 6.309a351.606 351.606 0 01-23.76 4.937c-14.091 2.423-28.234 3.703-42.48 4.023v1.783c2.314-.137 4.68-.274 6.994-.457 15.943-1.006 31.783-3.017 47.366-6.309 7.92-1.646 15.789-3.657 23.503-5.851 7.097-2.012 13.989-4.252 21.291-5.532 19.286-3.474 39.755-2.788 58.835 1.143 4.422.914 8.64 2.423 13.011 3.429 4.937 1.143 9.874 2.057 14.863 2.971 2.726.503 5.4 1.052 8.074 1.6 8.383 2.606 16.663 5.486 25.252 7.406 14.554 3.246 30.085 2.011 44.897 1.097 15.943-1.006 31.783-3.017 47.365-6.309 7.92-1.645 15.789-3.657 23.503-5.851 7.097-2.011 13.989-4.251 21.292-5.531 19.285-3.475 39.754-2.789 58.834 1.142 4.423.915 8.64 2.423 13.011 3.429 4.938 1.143 9.875 2.057 14.863 2.971 2.726.503 5.4 1.052 8.075 1.6 8.382 2.606 16.662 5.486 25.251 7.406 8.949 2.012 18.309 2.286 27.617 2.012v-2.195c-4.166.046-8.383-.091-12.6-.274zm-16.148 55.314c-5.915-1.051-11.778-2.971-17.538-4.571-2.674-.732-5.297-1.463-7.92-2.194a6.574 6.574 0 01-1.234-.412c9.977.823 20.057-.503 29.88-2.057 8.486-1.326 16.972-3.154 25.56-4.114v-1.92c-7.714.548-15.377 1.645-22.988 2.88-11.675 1.874-23.658 4.023-35.589 3.611-.411 0-.617.274-.669.594h-.205c-1.029 0-1.183 1.28-.257 1.509.36.091.72.137 1.08.137 1.594.32 3.394 1.143 4.834 1.6 2.623.823 5.246 1.6 7.92 2.423 5.708 1.737 11.468 3.794 17.331 4.937 9.72 1.874 19.286-.64 28.595-2.971v-2.377c-9.566 2.285-18.823 4.662-28.8 2.925zm25.508 10.012c-9.462.228-19.234-.183-28.44-2.24a147.12 147.12 0 00-18.308-5.029 52.22 52.22 0 00-4.68-.914c-2.623-.457-5.195-.914-7.817-1.234-6.326-.869-12.549-1.235-18.875-.092-7.148 1.326-13.885 3.932-20.931 5.532-8.023 1.828-16.92 1.28-25.097.914-8.332-.366-16.612-1.143-24.943-1.189-16.612-.091-33.12 2.24-49.732 2.652-9.411.228-18.822.091-28.285.32-10.029.228-20.057 1.051-30.086 1.28-9.463.228-19.234-.183-28.44-2.24a147.182 147.182 0 00-18.309-5.029 52.082 52.082 0 00-4.68-.914c-2.622-.457-5.194-.914-7.817-1.234-6.325-.869-12.548-1.235-18.874-.092-7.149 1.326-13.886 3.932-20.931 5.532-8.023 1.828-16.92 1.28-25.098.914-8.331-.366-16.611-1.143-24.942-1.189-16.612-.091-33.12 2.24-49.732 2.652-9.411.228-18.823.091-28.286.32-5.502.137-11.057.457-16.56.731v2.012c7.766-.458 15.48-1.052 23.246-1.28 7.817-.183 15.686-.183 23.503-.366 8.28-.229 16.509-1.052 24.789-1.417 16.765-.686 33.274.457 49.988 1.097 9.412.32 18.874.183 27.926-2.286 8.486-2.331 16.817-5.714 25.868-5.668 4.012 0 8.075.365 12.138.914.102.274.411.457.771.503 7.611.64 14.709 3.428 21.857 5.623 7.097 2.148 14.657 3.017 22.166 3.382 16.046.732 32.091-1.371 48.086-1.782 7.817-.183 15.685-.183 23.502-.366 8.28-.229 16.509-1.052 24.789-1.417 16.766-.686 33.274.457 49.989 1.097 9.411.32 18.874.183 27.925-2.286 8.486-2.331 16.817-5.714 25.869-5.668 4.011 0 8.074.365 12.137.914.103.274.412.457.771.503 7.612.64 14.709 3.428 21.858 5.623 7.097 2.148 14.657 3.017 22.165 3.382 4.835.229 9.72.183 14.555 0v-2.057c-.875.046-1.955.092-3.035.092zm3.24 40.32c-4.114-.732-8.229-1.235-12.446-1.6-6.223-.549-12.548-.823-18.771-1.143-5.657-.274-11.674-1.006-17.332-.549-.462.046-.617.595-.102.732 4.937 1.417 10.697 1.463 15.84 1.783 6.222.411 12.497.822 18.72 1.325 4.68.366 9.411.777 14.091 1.326v-1.874zm-14.349 19.245c-.462.183-.565.778-.36 1.143 1.852 2.88 3.96 5.532 6.018 8.275 1.697 2.331 2.674 5.348 4.834 7.36-.514.045-1.029.045-1.543.091-.463 0-.463.594 0 .64 1.8 0 3.6-.046 5.349-.183v-.96l-2.315.274a.63.63 0 00-.205-.64c-1.029-.96-1.44-2.24-2.058-3.428-.72-1.372-1.594-2.697-2.52-3.977-1.8-2.515-3.754-4.892-5.451-7.452 3.96-1.371 8.229-1.783 12.497-1.92v-1.783h-.206c-4.731.138-9.617.778-14.04 2.56zM468.617 73.417c4.886-.32 10.029.32 14.709-1.28 2.88-1.006 5.091-3.886 5.451-6.537.309-2.24-1.697-3.977-3.703-4.983-5.4-2.743-12.805-2.88-18.823-2.743-2.88.046-5.862.274-8.691.869-4.783.96-9.463 3.245-13.834 5.257-11.006 5.028-21.24 11.246-33.377 13.897-6.48 1.417-13.012 2.514-19.595 3.383-6.068.777-12.24 1.234-18.257 2.148-.668-.091-1.337-.228-2.005-.32-.515-.091-.772.549-.36.732-.36.183-.258.777.205.731.823-.045 1.595-.091 2.417-.137 12.138 2.789 24.069 6.263 36.669 6.994a68.248 68.248 0 0019.286-1.691c7.354-1.737 13.885-4.937 20.365-8.411 3.035-1.646 6.12-3.2 9.309-4.618 3.086-1.508 6.686-3.062 10.234-3.291zm-36.566 12.754c-18.36 5.897-37.131 1.143-55.491-2.103 5.194-.502 10.337-1.188 15.48-1.874 7.406-.96 14.863-2.103 22.114-3.931 13.166-3.292 24.377-10.377 36.72-15.315 3.909-1.554 7.56-2.697 11.829-3.062a66.977 66.977 0 0111.726.091c4.937.457 16.354 2.514 10.388 8.686-2.366 2.468-6.788 2.285-10.131 2.377-4.115.091-7.715.046-11.675 1.234-11.057 3.337-20.005 10.377-30.96 13.897zM79.714 284.846c5.503 2.788 11.572 4.617 17.795 5.622 24.531 3.978 51.583-5.988 68.657-21.622 2.726-2.515 5.863-6.172 4.166-9.829-1.543-3.337-6.172-4.937-9.669-6.126-13.269-4.663-27.617-7.588-41.657-9.371-7.252-.914-14.606-1.554-21.909-1.234-7.405.274-14.657 1.691-21.805 3.337-6.84 1.6-13.629 3.245-20.263 5.44-6.377 2.103-12.703 4.48-19.235 6.171-3.394.869-6.942 1.509-10.491 1.6-.566 0-1.029.412-1.029.914v.686c0 .274.206.64.515.777 3.137 1.235 6.171 1.326 9.411.823a57.267 57.267 0 0113.732 3.749c5.451 2.24 10.44 5.394 15.274 8.548 5.4 3.475 10.594 7.497 16.508 10.515zm-18.822-15.04c-4.578-2.835-9.412-5.303-14.658-7.04-3.291-1.098-6.737-1.692-10.234-1.966-.154-.274-.463-.549-.926-.457-1.8.228-3.6.365-5.451.228a8.022 8.022 0 01-1.131-.183c11.674-.96 22.577-6.582 33.634-9.6 14.657-4.022 29.726-7.405 45.206-6.491 15.171.869 29.777 3.794 44.28 7.726 5.194 1.417 11.52 2.651 15.634 6.034 4.577 3.794-1.852 8.914-4.989 11.383-18.308 14.4-44.794 23.268-69.12 17.508-12.548-2.971-21.908-10.697-32.245-17.142z"/><path d="M106.766 285.623c9.771-.64 19.029-4.983 27.977-8.32 4.526-1.692 9-3.475 13.114-5.852 2.418-1.417 5.606-3.52 5.812-6.308.514-6.355-7.149-9.189-12.806-10.652-8.023-2.057-16.56-2.514-24.891-2.971-8.64-.457-17.126-1.417-25.817-1.417-11.315 0-23.195.868-33.892 4.343-2.983.96-5.811 2.194-8.383 3.794-.565.366-.617 1.097 0 1.417.155.091.309.183.463.32-.36.046-.617.503-.206.686.618.32 1.235.594 1.852.914.514.549 1.028 1.097 1.748 1.463.36.183.669.137.926-.046 17.075 9.417 32.812 24 54.103 22.629zm-45.874-21.806a8.99 8.99 0 01-.669-.777c0-.137-.051-.229-.103-.366 9.515-5.074 21.549-3.886 32.298-2.971-4.27.32-8.59.594-12.91.777-2.005.091-3.96.137-5.965.183-1.594.045-2.314-.183-3.394.868-.72.732-.874 1.417-.617 2.057-.052.138-.052.275.103.412 8.64 7.726 20.417 15.268 33.377 13.44 6.274-.869 11.005-3.932 15.788-7.452 2.417-1.782 6.017-4.16 6.789-7.085.566-2.149-1.08-3.383-3.754-4.023 1.748-.046 3.497 0 5.245.137 3.189.274 9.823 1.691 8.743 5.714-.823 3.109-5.143 5.349-7.92 6.857-4.063 2.24-8.537 3.886-13.011 5.303-4.012 1.28-8.126 2.332-12.446 2.377-8.434 0-16.457-3.885-23.657-7.314-3.549-1.691-7.046-3.474-10.697-5.074a97.838 97.838 0 00-5.143-2.057c-.72-.366-1.491-.412-2.057-1.006zm12.137 1.646a.747.747 0 00.051-.732c-.257-.457-.565-.823-.977-1.234-1.08-1.051 2.88-.823 3.446-.823 3.291-.046 6.583-.183 9.823-.366 1.028-.045 2.005-.137 3.034-.182-2.931.868-5.709 2.011-8.177 3.52-.412.274-.669.777-.514 1.188-.258.183-.258.594.051.732.514.182.977.365 1.491.548.72.503 1.44 1.006 2.058 1.646.514.548 1.234.091 1.285-.457 1.903.64 3.858 1.234 5.76 1.92 2.726.914 5.452 1.737 8.383 1.828 7.56.32 13.834-5.988 18.463-10.468.566-.549.463-1.417-.257-1.783.977.046 1.903.137 2.828.274 1.8.229 4.012.503 2.726 2.377-1.646 2.469-4.731 4.389-7.2 6.126-4.423 3.2-9 5.531-14.811 5.897-9.874.457-19.749-4.571-27.463-10.011zm17.383 3.657c-2.315-.686-4.68-1.372-7.097-1.829-.206-.228-.463-.411-.72-.64 3.96-2.057 8.588-3.2 13.114-3.931-1.234.594-2.366 1.371-3.343 2.468-.411.458-.411 1.143.206 1.463.257.137.514.183.823.229a.546.546 0 00.514.868c4.68-.457 8.794-.96 12.343-3.977.617-.503.308-1.463-.515-1.645a23.017 23.017 0 00-1.748-.366c3.291-.183 6.686-.046 9.874.594-4.114 3.977-9.206 8.594-15.531 8.457-2.674-.091-5.349-1.005-7.92-1.691zm4.628-3.703c2.315-1.737 4.989-2.286 7.92-1.874-1.903 1.143-4.165 1.92-6.428 2.468-.412-.411-.926-.503-1.492-.594zm-30.188 2.651c2.057.96 4.114 1.875 6.12 2.88 5.863 2.835 11.623 5.76 17.846 8 5.657 2.012 11.674 3.109 17.742 2.332 3.806-.457 7.56-1.737 11.109-3.017 4.268-1.509 8.486-3.292 12.343-5.486 2.88-1.646 6.068-3.703 7.56-6.491 1.285-2.378.411-4.709-1.697-6.4-3.549-2.835-8.949-2.926-13.423-2.698-4.063.183-8.075.778-12.137 1.189-2.212.137-4.166.32-5.452.411-4.937.092-10.028-1.051-14.914-1.645-10.337-1.235-23.091-1.692-31.269 4.937a1.084 1.084 0 00-.565.366s0 .045-.052.045c-.051.046-.103.137-.103.183-.257.274-.102.64.155.777.257.549.617 1.006.977 1.417a161.626 161.626 0 00-6.377-3.154l-.052-.046c-1.131-.685-1.851-1.782-2.777-2.651 8.949-5.12 20.623-6.354 30.96-6.949 5.811-.32 11.674-.32 17.486-.091 4.371.183 8.64.777 13.011 1.051 7.817.503 15.686.778 23.4 2.058 5.554.914 17.023 2.88 16.612 9.691-.155 2.697-4.938 4.754-7.149 5.851-4.063 2.058-8.434 3.703-12.703 5.258-8.64 3.2-17.228 7.085-26.743 7.405-10.285.366-19.697-3.748-28.183-8.503-3.96-2.148-7.817-4.48-11.725-6.72zm2.982 35.292c14.709 3.063 25.2 12.708 38.263 18.743 2.057.96 4.217 1.691 6.377 2.331-6.531-1.188-13.062-2.423-19.44-4.343-9.154-2.788-16.971-8.045-25.92-11.2-8.074-2.834-16.868-2.651-25.405-2.514-.36 0-.36.457 0 .503 8.897.183 17.485 1.28 25.663 4.526 4.268 1.691 8.125 4.068 12.291 5.988 4.526 2.103 9.669 3.429 14.554 4.709 9.875 2.651 19.955 3.794 30.035 5.577 4.062.731 8.177 1.828 12.291 2.788 3.291 1.052 6.583 1.966 10.08 2.606 4.629.823 9.411.96 14.143.64 18.308-1.188 35.794-9.783 50.966-18.514 20.262-7.726 43.405-8.549 65.16-11.109 15.891-1.874 32.245-4.068 48.137-.777 14.708 3.063 25.2 12.709 38.263 18.743 2.057.96 4.217 1.691 6.377 2.331-6.532-1.188-13.063-2.422-19.44-4.342-9.155-2.789-16.972-8.046-25.92-11.2-8.075-2.835-16.869-2.652-25.406-2.515-.36 0-.36.457 0 .503 8.897.183 17.486 1.28 25.663 4.526 4.268 1.691 8.126 4.068 12.291 5.988 4.526 2.103 9.669 3.429 14.555 4.709 9.874 2.651 19.954 3.794 30.034 5.577 4.063.732 8.177 1.829 12.291 2.789 3.292 1.051 6.583 1.965 10.08 2.605 4.629.823 9.412.96 14.143.64 18.309-1.188 35.794-9.782 50.966-18.514 11.108-4.206 23.04-6.4 35.177-7.908v-2.652a86.829 86.829 0 00-3.394.366c-9.412 1.188-18.103 3.657-26.897 6.72-4.938 1.691-9.36 3.794-13.578 6.308-10.131 4.8-20.262 9.646-31.474 12.298-5.4 1.28-11.006 1.92-16.56 1.782-2.88-.228-5.708-.502-8.537-.868-6.48-1.326-12.343-4.252-18.823-5.806-7.046-1.691-14.348-2.697-20.931-5.623-6.377-2.834-12.035-6.628-18-10.103-6.069-3.52-12.395-6.125-19.44-7.634-7.509-1.6-15.275-1.92-22.989-1.691-10.491.365-20.828 1.92-31.268 2.788-9.566.777-19.08.686-28.646 1.875-9.412 1.188-18.103 3.657-26.897 6.72-4.937 1.691-9.36 3.794-13.577 6.308-10.132 4.8-20.263 9.646-31.475 12.297-5.4 1.28-11.005 1.92-16.56 1.783-2.88-.228-5.708-.503-8.537-.868-6.48-1.326-12.343-4.252-18.823-5.806-7.045-1.692-14.348-2.697-20.931-5.623-6.377-2.834-12.034-6.629-18-10.103-6.069-3.52-12.394-6.126-19.44-7.634-7.509-1.6-15.274-1.92-22.989-1.692-10.491.366-20.828 1.92-31.268 2.789-4.989.411-9.977.549-14.966.823v2.194c6.634-.686 13.217-1.28 19.697-2.057 15.84-1.874 32.143-4.114 48.034-.777zm-23.451-13.532c-2.726-2.148-6.429-3.382-9.771-4.571-3.6-1.234-7.303-2.286-11.109-2.926-5.04-.914-10.337-1.234-15.48-1.737A155.64 155.64 0 00-.051 280v1.828c3.651.183 7.303.549 10.954.915 8.949.914 17.383 2.103 25.714 5.303 2.16.822 6.84 2.331 7.509 4.662.72 2.423-13.063 3.2-14.04 3.246-7.509.412-15.069-.137-22.577.229-2.52.137-5.04.457-7.509.868v1.646c2.52-.274 4.989-.503 7.509-.549 7.868-.228 15.685.366 23.503 0 4.422-.228 10.851-.457 14.348-3.291 1.954-1.646.617-3.794-.977-5.029z"/><path d="M94.372 304.228c-7.046-.96-14.143-2.377-20.572-5.12-5.76-2.422-11.263-5.074-17.588-5.988-.463-.046-.669.548-.206.64 6.686 1.188 12.343 4.663 18.411 7.268 6.069 2.606 12.858 3.886 19.44 4.938 6.995 1.097 14.092 1.737 21.138 2.377 7.457.685 14.605.685 21.96-.686 7.251-1.371 14.194-3.749 21.188-5.943 6.12-1.92 11.623-5.531 16.766-8.96 5.4-3.611 10.851-7.223 16.714-10.194 6.12-3.063 14.863-4.8 21.857-4.389.772.046.72-.96 0-1.005-6.943-.64-13.268.228-19.748 2.56-5.863 2.148-10.955 5.76-15.943 9.188-5.4 3.749-10.852 7.406-17.023 10.149-6.686 2.971-14.4 4.937-21.6 6.583-7.509 1.691-14.76 1.828-22.371.96-7.509-.823-14.966-1.372-22.423-2.378zm242.485-19.382c5.503 2.788 11.572 4.617 17.795 5.622 24.531 3.978 51.583-5.988 68.657-21.622 2.726-2.515 5.863-6.172 4.166-9.829-1.543-3.337-6.172-4.937-9.669-6.126-13.269-4.663-27.617-7.588-41.657-9.371-7.252-.914-14.606-1.554-21.909-1.234-7.405.274-14.657 1.691-21.805 3.337-6.84 1.6-13.629 3.245-20.263 5.44-6.377 2.103-12.703 4.48-19.235 6.171-3.394.869-6.942 1.509-10.491 1.6-.566 0-1.029.412-1.029.914v.686c0 .274.206.64.515.777 3.137 1.235 6.171 1.326 9.411.823a57.265 57.265 0 0113.732 3.749c5.451 2.24 10.44 5.394 15.274 8.548 5.4 3.475 10.594 7.497 16.508 10.515zm-18.822-15.04c-4.578-2.835-9.412-5.303-14.658-7.04-3.291-1.098-6.737-1.692-10.234-1.966-.154-.274-.463-.549-.926-.457-1.8.228-3.6.365-5.451.228a8.026 8.026 0 01-1.131-.183c11.674-.96 22.577-6.582 33.634-9.6 14.657-4.022 29.726-7.405 45.206-6.491 15.171.869 29.777 3.794 44.28 7.726 5.194 1.417 11.52 2.651 15.634 6.034 4.577 3.794-1.852 8.914-4.989 11.383-18.308 14.4-44.794 23.268-69.12 17.508-12.548-2.971-21.908-10.697-32.245-17.142z"/><path d="M363.909 285.623c9.771-.64 19.028-4.983 27.977-8.32 4.525-1.692 9-3.475 13.114-5.852 2.417-1.417 5.606-3.52 5.811-6.308.515-6.355-7.148-9.189-12.805-10.652-8.023-2.057-16.56-2.514-24.892-2.971-8.64-.457-17.125-1.417-25.817-1.417-11.314 0-23.194.868-33.891 4.343-2.983.96-5.812 2.194-8.383 3.794-.566.366-.617 1.097 0 1.417.154.091.308.183.463.32-.36.046-.617.503-.206.686.617.32 1.234.594 1.851.914.515.549 1.029 1.097 1.749 1.463.36.183.669.137.926-.046 17.074 9.417 32.811 24 54.103 22.629zm-45.875-21.806a8.878 8.878 0 01-.668-.777c0-.137-.052-.229-.103-.366 9.514-5.074 21.548-3.886 32.297-2.971-4.269.32-8.589.594-12.909.777-2.005.091-3.96.137-5.965.183-1.595.045-2.315-.183-3.395.868-.72.732-.874 1.417-.617 2.057-.051.138-.051.275.103.412 8.64 7.726 20.417 15.268 33.377 13.44 6.275-.869 11.006-3.932 15.789-7.452 2.417-1.782 6.017-4.16 6.788-7.085.566-2.149-1.08-3.383-3.754-4.023 1.749-.046 3.497 0 5.246.137 3.188.274 9.823 1.691 8.743 5.714-.823 3.109-5.143 5.349-7.92 6.857-4.063 2.24-8.537 3.886-13.012 5.303-4.011 1.28-8.125 2.332-12.445 2.377-8.435 0-16.458-3.885-23.658-7.314-3.548-1.691-7.045-3.474-10.697-5.074a97.671 97.671 0 00-5.143-2.057c-.72-.366-1.491-.412-2.057-1.006zm12.137 1.646a.746.746 0 00.052-.732c-.257-.457-.566-.823-.977-1.234-1.08-1.051 2.88-.823 3.445-.823 3.292-.046 6.583-.183 9.823-.366 1.029-.045 2.006-.137 3.035-.182-2.932.868-5.709 2.011-8.178 3.52-.411.274-.668.777-.514 1.188-.257.183-.257.594.052.732.514.182.977.365 1.491.548.72.503 1.44 1.006 2.057 1.646.514.548 1.234.091 1.286-.457 1.903.64 3.857 1.234 5.76 1.92 2.726.914 5.451 1.737 8.383 1.828 7.56.32 13.834-5.988 18.463-10.468.565-.549.462-1.417-.258-1.783.978.046 1.903.137 2.829.274 1.8.229 4.011.503 2.726 2.377-1.646 2.469-4.732 4.389-7.2 6.126-4.423 3.2-9 5.531-14.812 5.897-9.874.457-19.748-4.571-27.463-10.011zm17.383 3.657c-2.314-.686-4.68-1.372-7.097-1.829-.206-.228-.463-.411-.72-.64 3.96-2.057 8.589-3.2 13.114-3.931-1.234.594-2.365 1.371-3.342 2.468-.412.458-.412 1.143.205 1.463.257.137.515.183.823.229a.546.546 0 00.514.868c4.68-.457 8.795-.96 12.343-3.977.617-.503.309-1.463-.514-1.645a23.144 23.144 0 00-1.749-.366c3.292-.183 6.686-.046 9.875.594-4.115 3.977-9.206 8.594-15.532 8.457-2.674-.091-5.348-1.005-7.92-1.691zm4.629-3.703c2.314-1.737 4.988-2.286 7.92-1.874-1.903 1.143-4.166 1.92-6.429 2.468-.411-.411-.925-.503-1.491-.594zm-30.189 2.651c2.057.96 4.115 1.875 6.12 2.88 5.863 2.835 11.623 5.76 17.846 8 5.657 2.012 11.674 3.109 17.743 2.332 3.806-.457 7.56-1.737 11.108-3.017 4.269-1.509 8.486-3.292 12.343-5.486 2.88-1.646 6.069-3.703 7.56-6.491 1.286-2.378.412-4.709-1.697-6.4-3.548-2.835-8.948-2.926-13.423-2.698-4.063.183-8.074.778-12.137 1.189-2.211.137-4.166.32-5.451.411-4.937.092-10.029-1.051-14.915-1.645-10.337-1.235-23.091-1.692-31.268 4.937a1.083 1.083 0 00-.566.366s0 .045-.051.045c-.052.046-.103.137-.103.183-.257.274-.103.64.154.777.257.549.617 1.006.977 1.417a161.28 161.28 0 00-6.377-3.154l-.051-.046c-1.132-.685-1.852-1.782-2.777-2.651 8.948-5.12 20.622-6.354 30.96-6.949 5.811-.32 11.674-.32 17.485-.091 4.372.183 8.64.777 13.012 1.051 7.817.503 15.685.778 23.4 2.058 5.554.914 17.023 2.88 16.611 9.691-.154 2.697-4.937 4.754-7.148 5.851-4.063 2.058-8.435 3.703-12.703 5.258-8.64 3.2-17.229 7.085-26.743 7.405-10.286.366-19.697-3.748-28.183-8.503-3.96-2.148-7.817-4.48-11.726-6.72zm-20.468 21.76c-2.726-2.148-6.428-3.382-9.771-4.571-3.6-1.234-7.303-2.286-11.109-2.926-5.04-.914-10.337-1.234-15.48-1.737-6.171-.594-12.343-.96-18.566-.731-4.834.183-9.72.777-14.142 2.56-.463.183-.566.777-.36 1.143 1.851 2.88 3.96 5.531 6.017 8.274 1.697 2.331 2.674 5.348 4.834 7.36-.514.046-1.029.046-1.543.091-.463 0-.463.595 0 .64 7.817.092 15.377-1.554 23.194-1.783 7.869-.228 15.686.366 23.503 0 4.423-.228 10.852-.457 14.349-3.291 2.006-1.646.668-3.794-.926-5.029zm-14.246 6.126c-7.508.412-15.068-.137-22.577.229-6.788.32-13.371 2.24-20.108 2.925a.63.63 0 00-.206-.64c-1.029-.96-1.44-2.24-2.057-3.428-.72-1.372-1.594-2.697-2.52-3.977-1.8-2.515-3.754-4.892-5.452-7.452 4.783-1.691 10.08-1.92 15.172-1.965 6.171-.046 12.394.502 18.514 1.142 8.949.915 17.383 2.103 25.714 5.303 2.16.823 6.84 2.332 7.509 4.663.771 2.377-12.96 3.154-13.989 3.2zm64.235 8.274c-7.046-.96-14.143-2.377-20.572-5.12-5.76-2.422-11.263-5.074-17.588-5.988-.463-.046-.669.548-.206.64 6.686 1.188 12.343 4.663 18.412 7.268 6.068 2.606 12.857 3.886 19.439 4.938 6.995 1.097 14.092 1.737 21.138 2.377 7.457.685 14.605.685 21.96-.686 7.251-1.371 14.194-3.749 21.188-5.943 6.12-1.92 11.623-5.531 16.766-8.96 5.4-3.611 10.851-7.223 16.714-10.194 6.12-3.063 14.863-4.8 21.857-4.389.772.046.72-.96 0-1.005-6.943-.64-13.268.228-19.748 2.56-5.863 2.148-10.955 5.76-15.943 9.188-5.4 3.749-10.852 7.406-17.023 10.149-6.686 2.971-14.4 4.937-21.6 6.583-7.509 1.691-14.76 1.828-22.371.96-7.509-.823-14.966-1.372-22.423-2.378zm-140.04-2.24c4.885-.32 10.028.32 14.708-1.28 2.88-1.005 5.092-3.885 5.452-6.537.308-2.24-1.697-3.977-3.703-4.983-5.4-2.742-12.806-2.88-18.823-2.742-2.88.045-5.863.274-8.691.868-4.783.96-9.463 3.246-13.835 5.257-11.005 5.029-21.24 11.246-33.377 13.897-6.48 1.418-13.011 2.515-19.594 3.383-6.069.777-12.24 1.235-18.257 2.149-.669-.092-1.337-.229-2.006-.32-.514-.092-.771.548-.36.731-.36.183-.257.777.206.732.823-.046 1.594-.092 2.417-.137 12.137 2.788 24.068 6.262 36.668 6.994 6.48.366 13.012-.229 19.286-1.692 7.354-1.737 13.886-4.937 20.366-8.411 3.034-1.646 6.12-3.2 9.308-4.617 3.086-1.509 6.686-3.063 10.235-3.292zm-36.566 12.755c-18.36 5.897-37.131 1.143-55.491-2.103 5.194-.503 10.337-1.189 15.48-1.874 7.405-.96 14.862-2.103 22.114-3.932 13.166-3.291 24.377-10.377 36.72-15.314 3.908-1.554 7.56-2.697 11.828-3.063a67.043 67.043 0 0111.726.091c4.937.458 16.354 2.515 10.389 8.686-2.366 2.469-6.789 2.286-10.132 2.377-4.114.092-7.714.046-11.674 1.235-11.057 3.337-20.006 10.377-30.96 13.897z"/><path d="M468.617 301.988c4.886-.32 10.029.32 14.709-1.28 2.88-1.005 5.091-3.885 5.451-6.537.309-2.24-1.697-3.977-3.703-4.983-5.4-2.742-12.805-2.88-18.823-2.742-2.88.045-5.862.274-8.691.868-4.783.96-9.463 3.246-13.834 5.257-11.006 5.029-21.24 11.246-33.377 13.897-6.48 1.418-13.012 2.515-19.595 3.383-6.068.777-12.24 1.235-18.257 2.149-.668-.092-1.337-.229-2.005-.32-.515-.092-.772.548-.36.731-.36.183-.258.777.205.732.823-.046 1.595-.092 2.417-.137 12.138 2.788 24.069 6.262 36.669 6.994 6.48.366 13.011-.229 19.286-1.692 7.354-1.737 13.885-4.937 20.365-8.411 3.035-1.646 6.12-3.2 9.309-4.617 3.086-1.509 6.686-3.063 10.234-3.292zm-36.566 12.755c-18.36 5.897-37.131 1.143-55.491-2.103 5.194-.503 10.337-1.189 15.48-1.874 7.406-.96 14.863-2.103 22.114-3.932 13.166-3.291 24.377-10.377 36.72-15.314 3.909-1.554 7.56-2.697 11.829-3.063a67.045 67.045 0 0111.726.091c4.937.458 16.354 2.515 10.388 8.686-2.366 2.469-6.788 2.286-10.131 2.377-4.115.092-7.715.046-11.675 1.235-11.057 3.337-20.005 10.377-30.96 13.897z"/></g><defs><clipPath id="clip0"><path fill="#fff" transform="rotate(-90 152 152)" d="M0 0h304v504H0z"/></clipPath></defs></svg>