<svg width="40" height="40" viewBox="0 0 40 40" fill="none" xmlns="http://www.w3.org/2000/svg">
<g clip-path="url(#clip0)">
<path d="M37.9476 2.34631H25.4762C24.344 2.34631 23.425 3.26525 23.425 4.39752V16.8689C23.425 18.0012 24.344 18.9201 25.4762 18.9201H31.4453C31.3673 22.1856 30.6084 24.7988 29.1725 26.7639C28.0403 28.3146 26.3255 29.5986 24.0322 30.6119C22.9779 31.0755 22.5225 32.3226 23.0148 33.3647L24.4917 36.4825C24.9675 37.4835 26.1449 37.9225 27.1623 37.4835C29.8781 36.3102 32.1714 34.8251 34.0421 33.0201C36.3231 30.8171 37.886 28.331 38.7311 25.5578C39.5763 22.7845 39.9988 19.0021 39.9988 14.2023V4.39752C39.9988 3.26529 39.0798 2.34631 37.9476 2.34631Z" fill="#D74346"/>
<path d="M4.3491 37.4753C7.03208 36.3061 9.31302 34.8211 11.196 33.0201C13.4975 30.8171 15.0687 28.3392 15.9138 25.5865C16.7589 22.8338 17.1814 19.039 17.1814 14.2023V4.39752C17.1814 3.26525 16.2625 2.34631 15.1302 2.34631H2.65887C1.5266 2.34631 0.607661 3.26525 0.607661 4.39752V16.8689C0.607661 18.0012 1.5266 18.9201 2.65887 18.9201H8.62788C8.54993 22.1856 7.79099 24.7988 6.35514 26.7639C5.22288 28.3146 3.50807 29.5986 1.21482 30.6119C0.160498 31.0755 -0.294869 32.3226 0.19742 33.3647L1.67019 36.4743C2.14611 37.4753 3.3317 37.9184 4.3491 37.4753Z" fill="#D74346"/>
</g>
<defs>
<clipPath id="clip0">
<rect width="40" height="40" fill="white"/>
</clipPath>
</defs>
</svg>
