<svg width="18" height="12" viewBox="0 0 18 12" fill="none" xmlns="http://www.w3.org/2000/svg">
<path d="M9.70236 11.0004L17.7124 2.99014C17.8979 2.80487 18 2.55756 18 2.29385C18 2.03015 17.8979 1.78283 17.7124 1.59757L17.1227 1.00767C16.7384 0.623818 16.1138 0.623818 15.7301 1.00767L9.00373 7.73405L2.26988 1.00021C2.08447 0.814938 1.8373 0.712646 1.57374 0.712646C1.30989 0.712646 1.06272 0.814938 0.877163 1.00021L0.287558 1.5901C0.102144 1.77552 0 2.02268 0 2.28639C0 2.5501 0.102144 2.79741 0.287558 2.98268L8.30496 11.0004C8.49096 11.1861 8.73929 11.2881 9.00329 11.2875C9.26831 11.2881 9.51651 11.1861 9.70236 11.0004Z" fill="#D74346"/>
</svg>
