<svg width="255" height="44" viewBox="0 0 255 44" fill="none" xmlns="http://www.w3.org/2000/svg">
<g clip-path="url(#clip0)">
<path d="M55.3546 34.5052C55.3546 35.7581 54.9088 36.8206 54.0167 37.6948C53.1249 38.5689 52.0557 39.0049 50.8103 39.0049H35.1075C34.131 39.0049 33.6431 38.5107 33.6431 37.5211C33.6431 36.5326 34.1477 36.0383 35.1579 36.0383H50.356C51.5005 36.0383 52.0728 35.543 52.0728 34.5545C52.0728 33.5324 51.4838 33.0213 50.3055 33.0213H35.9657C35.4609 33.0213 34.9894 33.0706 34.5519 33.1693C32.7677 33.5649 31.8757 34.8347 31.8757 36.9775C31.8757 39.154 32.7677 40.4563 34.5519 40.8844C34.9894 40.983 35.4609 41.0323 35.9657 41.0323H53.7892C54.7994 41.0323 55.3045 41.5277 55.3045 42.5162C55.3045 43.5058 54.8161 44 53.8401 44H35.5114C34.8379 43.9339 33.8786 43.7859 32.6329 43.5551C31.7917 43.2917 31.0511 42.7963 30.4115 42.0712C29.1998 40.7196 28.5938 39.0385 28.5938 37.0268C28.5938 35.0162 29.1998 33.334 30.4115 31.9824C31.4212 30.8617 33.1211 30.2184 35.5114 30.0536H50.7599C52.0392 30.0536 53.1249 30.4907 54.0167 31.3649C54.9088 32.238 55.3546 33.2847 55.3546 34.5052Z" fill="#272425"/>
<path d="M254.999 27.9277H230.972C224.964 27.9277 219.881 27.4469 215.722 26.4854C211.379 25.4801 208.026 23.9436 205.665 21.8734L182.405 2.69722L185.451 0.158327L208.757 19.373L208.808 19.4149C210.618 21.0034 213.307 22.2098 216.874 23.0347C220.627 23.9032 225.327 24.3369 230.972 24.3369H254.999V27.9277" fill="#ED1C24"/>
<path d="M21.1016 24.1777H139.747C150.778 24.1777 158.164 22.537 161.903 19.2562L161.953 19.214L185.251 -0.000849052L188.297 2.53827L165.046 21.7151C160.442 25.7513 152.01 27.7686 139.747 27.7686H21.1016V24.1777" fill="#ED1C24"/>
<path d="M29.2027 16.4006C29.2027 17.8985 28.7161 19.1701 27.7426 20.2148C26.7693 21.2598 25.6029 21.7821 24.2437 21.7821H7.10808C6.04282 21.7821 5.51026 21.1905 5.51026 20.0079C5.51026 18.8251 6.0611 18.2338 7.16303 18.2338H23.7478C24.9969 18.2338 25.6212 17.6423 25.6212 16.4597C25.6212 15.2372 24.9783 14.6262 23.6929 14.6262H8.04457C7.49369 14.6262 6.97949 14.6856 6.50184 14.8037C4.55504 15.2767 3.58151 16.7948 3.58151 19.3572C3.58151 21.9595 4.55504 23.5162 6.50184 24.0296C6.97949 24.1472 7.49369 24.2067 8.04457 24.2067H27.4948C28.5964 24.2067 29.1475 24.7984 29.1475 25.9808C29.1475 27.1631 28.6152 27.7549 27.5499 27.7549H7.54865C6.81404 27.6764 5.76703 27.4993 4.40789 27.2225C3.48974 26.9076 2.68144 26.3158 1.98345 25.4484C0.661379 23.8323 0 21.8215 0 19.4166C0 17.0115 0.661379 15.0007 1.98345 13.3842C3.08582 12.0436 4.94065 11.2752 7.54865 11.078H24.189C25.5845 11.078 26.7693 11.6002 27.7426 12.6449C28.7161 13.6897 29.2027 14.9416 29.2027 16.4006" fill="#ED1C24"/>
<path d="M27.637 31.5375C27.637 32.5271 27.1155 33.0213 26.0719 33.0213H15.6704V44H12.4889V33.0213H1.9362C0.892875 33.0213 0.371094 32.5271 0.371094 31.5375C0.371094 30.549 0.85923 30.0536 1.83551 30.0536H26.1728C27.1489 30.0536 27.637 30.549 27.637 31.5375" fill="#272425"/>
<path d="M141.095 44H137.914V35.7413C137.914 34.6856 137.738 33.9773 137.384 33.6153C137.031 33.2522 136.433 33.0706 135.591 33.0706H121.404C119.956 33.0706 118.912 33.3845 118.273 34.0098C117.633 34.6363 117.313 35.6584 117.313 37.0761C117.28 39.6482 118.643 40.9673 121.404 41.0323H134.178C135.188 41.0323 135.692 41.5277 135.692 42.5162C135.692 43.5058 135.204 44 134.228 44H120.949C118.424 43.8678 116.724 43.2256 115.849 42.0712C114.637 40.7196 114.031 39.0385 114.031 37.0269C114.031 33.334 115.462 31.1419 118.323 30.4493C119.165 30.2184 120.209 30.1029 121.454 30.1029H135.188C135.928 30.1366 136.904 30.2352 138.116 30.3999C140.102 30.9278 141.095 32.5103 141.095 35.1474V44Z" fill="#272425"/>
<path d="M162.161 38.9556H145.649V35.6427C145.649 33.8619 146.424 32.972 147.972 32.972H162.161C164.887 32.972 166.25 33.9941 166.25 36.0383C166.25 37.9828 164.887 38.9556 162.161 38.9556ZM162.11 30.0044H148.427C144.454 30.0044 142.469 31.6855 142.469 35.0487V44H145.649V41.9233H162.615C167.226 41.9233 169.532 39.9284 169.532 35.9386C169.532 31.9824 167.058 30.0044 162.11 30.0044Z" fill="#272425"/>
<path d="M220.771 40.8844C220.333 40.983 219.862 41.0323 219.357 41.0323H206.532C206.027 41.0323 205.555 40.983 205.118 40.8844C203.334 40.4563 202.442 39.154 202.442 36.9775C202.442 34.8347 203.334 33.5649 205.118 33.1693C205.555 33.0706 206.027 33.0213 206.532 33.0213H219.357C219.862 33.0213 220.333 33.0706 220.771 33.1693C222.555 33.5649 223.447 34.8347 223.447 36.9775C223.447 39.154 222.555 40.4563 220.771 40.8844V40.8844ZM224.911 31.9824C224.272 31.2573 223.531 30.763 222.689 30.4986C221.444 30.2352 220.485 30.0873 219.811 30.0536H206.077L203.2 30.4986C202.358 30.763 201.617 31.2573 200.978 31.9824C199.765 33.334 199.16 35.0162 199.16 37.0268C199.16 39.0385 199.765 40.7196 200.978 42.0712C201.617 42.7963 202.358 43.2917 203.2 43.5551C204.445 43.7859 205.404 43.9339 206.077 44H219.811L222.689 43.5551C223.531 43.2917 224.272 42.7963 224.911 42.0712C226.123 40.7196 226.729 39.0385 226.729 37.0268C226.729 35.0162 226.123 33.334 224.911 31.9824Z" fill="#272425"/>
<path d="M240.003 38.9556H231.117V35.6427C231.117 33.8619 231.891 32.972 233.44 32.972H247.233V30.0044H233.894C229.922 30.0044 227.937 31.6855 227.937 35.0487V44H231.117V41.9233H240.003V38.9556Z" fill="#272425"/>
<path d="M253.079 30.0021H240.003V32.9697H253.13C254.106 32.9697 254.594 32.4755 254.594 31.4859C254.594 30.4974 254.089 30.0021 253.079 30.0021" fill="#272425"/>
<path d="M245.782 38.9442H232.707V41.9116H245.833C246.809 41.9116 247.297 41.4174 247.297 40.4278C247.297 39.4393 246.793 38.9442 245.782 38.9442Z" fill="#272425"/>
<path d="M76.8676 38.9556H60.3564V35.6427C60.3564 33.8619 61.1303 32.972 62.6793 32.972H76.8676C79.5942 32.972 80.9574 33.9941 80.9574 36.0383C80.9574 37.9828 79.5942 38.9556 76.8676 38.9556V38.9556ZM76.8166 30.0044H63.1333C59.1612 30.0044 57.1753 31.6855 57.1753 35.0487V44H60.3564V41.9233H77.3222C81.9335 41.9233 84.2394 39.9284 84.2394 35.9386C84.2394 31.9824 81.7653 30.0044 76.8166 30.0044" fill="#272425"/>
<path d="M84.2374 44H81.0679L77.8984 40.1985H81.0679L84.2374 44Z" fill="#272425"/>
<path d="M105.446 38.9556H88.9351V35.6427C88.9351 33.8619 89.709 32.972 91.258 32.972H105.446C108.173 32.972 109.536 33.9941 109.536 36.0383C109.536 37.9828 108.173 38.9556 105.446 38.9556V38.9556ZM105.395 30.0044H91.7121C87.74 30.0044 85.7539 31.6855 85.7539 35.0487V44H88.9351V41.9233H105.901C110.512 41.9233 112.818 39.9284 112.818 35.9386C112.818 31.9824 110.344 30.0044 105.395 30.0044" fill="#272425"/>
<path d="M112.819 44H109.65L106.48 40.1985H109.65L112.819 44Z" fill="#272425"/>
<path d="M190.575 38.9556H174.063V35.6427C174.063 33.8619 174.838 32.972 176.386 32.972H190.575C193.301 32.972 194.664 33.9941 194.664 36.0383C194.664 37.9828 193.301 38.9556 190.575 38.9556ZM190.524 30.0044H176.841C172.868 30.0044 170.883 31.6855 170.883 35.0487V44H174.063V41.9233H191.029C195.641 41.9233 197.946 39.9284 197.946 35.9386C197.946 31.9824 195.472 30.0044 190.524 30.0044" fill="#272425"/>
<path d="M197.948 44H194.779L191.609 40.1985H194.779L197.948 44Z" fill="#272425"/>
<path d="M252.561 41.681C252.82 41.681 253.014 41.6301 253.142 41.5279C253.269 41.4259 253.334 41.2793 253.334 41.0879C253.334 40.8945 253.276 40.7537 253.161 40.6652C253.046 40.5768 252.86 40.5327 252.606 40.5327H252.084V41.681H252.561ZM252.606 40.3245C252.936 40.3245 253.185 40.3848 253.353 40.5058C253.52 40.6268 253.604 40.8113 253.604 41.0597C253.604 41.2699 253.535 41.4425 253.398 41.577C253.26 41.7115 253.066 41.7958 252.815 41.8294C252.86 41.8545 252.901 41.8966 252.94 41.9553L253.858 43.1164H253.604C253.58 43.1164 253.561 43.1135 253.546 43.1072C253.531 43.1007 253.517 43.0873 253.504 43.0662L252.631 41.9587C252.614 41.9356 252.593 41.9172 252.566 41.9036C252.541 41.8897 252.498 41.8829 252.438 41.8829H252.084V43.1164H251.81V40.3245H252.606ZM252.673 43.8265C252.87 43.8265 253.06 43.8019 253.244 43.7523C253.426 43.703 253.596 43.6324 253.755 43.541C253.914 43.4495 254.059 43.3401 254.189 43.2128C254.319 43.0857 254.431 42.9443 254.524 42.7885C254.617 42.6327 254.689 42.4651 254.739 42.2853C254.79 42.1053 254.815 41.9177 254.815 41.722C254.815 41.4299 254.759 41.1556 254.647 40.9001C254.536 40.6448 254.383 40.4211 254.189 40.2297C253.994 40.0385 253.767 39.8876 253.507 39.7771C253.248 39.6664 252.969 39.6112 252.673 39.6112C252.377 39.6112 252.099 39.6664 251.84 39.7771C251.582 39.8876 251.355 40.0385 251.163 40.2297C250.969 40.4211 250.817 40.6448 250.706 40.9001C250.596 41.1556 250.54 41.4299 250.54 41.722C250.54 42.0145 250.596 42.2884 250.706 42.544C250.817 42.7995 250.969 43.0225 251.163 43.2128C251.355 43.4033 251.582 43.5531 251.84 43.6624C252.099 43.7718 252.377 43.8265 252.673 43.8265V43.8265ZM252.673 39.444C252.886 39.444 253.091 39.4716 253.29 39.5263C253.489 39.581 253.674 39.6576 253.846 39.7567C254.018 39.8553 254.174 39.9743 254.316 40.1129C254.458 40.2518 254.579 40.4054 254.68 40.5735C254.78 40.742 254.859 40.9234 254.915 41.1179C254.971 41.3125 254.999 41.5138 254.999 41.722C254.999 41.9323 254.971 42.1344 254.915 42.3277C254.859 42.5213 254.78 42.7024 254.68 42.8705C254.579 43.0386 254.458 43.1922 254.316 43.3311C254.174 43.4701 254.018 43.5889 253.846 43.6878C253.674 43.7866 253.489 43.8635 253.29 43.9182C253.091 43.9724 252.886 44 252.673 44C252.458 44 252.252 43.9724 252.054 43.9182C251.857 43.8635 251.672 43.7866 251.501 43.6878C251.328 43.5889 251.172 43.4701 251.03 43.3311C250.888 43.1922 250.767 43.0386 250.666 42.8705C250.565 42.7024 250.487 42.5213 250.431 42.3277C250.375 42.1344 250.347 41.9323 250.347 41.722C250.347 41.5138 250.375 41.3125 250.431 41.1179C250.487 40.9234 250.565 40.742 250.666 40.5735C250.767 40.4054 250.888 40.2518 251.03 40.1129C251.172 39.9743 251.328 39.8553 251.501 39.7567C251.672 39.6576 251.857 39.581 252.054 39.5263C252.252 39.4716 252.458 39.444 252.673 39.444Z" fill="#231F20"/>
</g>
<defs>
<clipPath id="clip0">
<rect width="255" height="44" fill="white"/>
</clipPath>
</defs>
</svg>
