<svg width="170" height="47" viewBox="0 0 170 47" fill="none" xmlns="http://www.w3.org/2000/svg">
<path d="M15.7293 29.5686L16.0237 27.8637C16.0722 27.5858 15.9686 27.4002 15.6521 27.4002H3.8654C3.54887 27.4002 3.43787 27.2624 3.49378 26.9391L5.19732 17.0676C5.25241 16.7451 5.41191 16.6065 5.72844 16.6065H15.3922C15.708 16.6065 15.8675 16.4679 15.9234 16.1454L16.2185 14.4388C16.2744 14.1155 16.1626 13.9769 15.8469 13.9769H6.18228C5.86657 13.9769 5.75475 13.8384 5.81066 13.5159L7.43527 4.1054C7.49118 3.78206 7.64986 3.64348 7.96639 3.64348H19.753C20.0688 3.64348 20.2283 3.50575 20.2842 3.18241L20.5785 1.47584C20.6344 1.15334 20.5234 1.01477 20.2069 1.01477H5.39464C5.07893 1.01477 4.91943 1.15334 4.86352 1.47584L0.0135283 29.5686C-0.0415572 29.892 0.0694358 30.0305 0.385972 30.0305H15.1982C15.5139 30.0305 15.6734 29.892 15.7293 29.5686Z" fill="#007C34"/>
<path fill-rule="evenodd" clip-rule="evenodd" d="M33.4269 29.569L35.6484 16.6992C36.4204 12.2245 33.8594 9.27246 29.0275 9.27246C24.7374 9.27246 21.5819 11.8558 21.3352 13.2852C21.3106 13.4238 21.3854 13.5162 21.5498 13.6086L23.2714 14.6231C23.3537 14.6693 23.4441 14.6693 23.4893 14.6693C23.805 14.6693 24.2416 13.9773 25.3408 13.1005C26.2888 12.3161 27.4448 11.9012 28.5736 11.9012C31.3287 11.9012 32.9566 13.9773 32.5324 16.6984L32.2586 18.5443C32.2027 18.8668 32.044 19.0046 31.7275 19.0046H25.7667C22.3802 19.0046 19.6876 21.2646 19.154 24.3561L19.1055 24.6324C18.5719 27.723 20.4761 30.03 23.8634 30.03H25.6705C26.2576 30.03 27.2162 29.7059 27.883 29.2448C29.5356 28.0463 30.4786 27.031 30.93 27.031C31.11 27.031 31.2506 27.2611 31.1947 27.5844L30.8519 29.5673C30.7968 29.8906 30.9078 30.0292 31.2243 30.0292H32.8941C33.2115 30.0309 33.371 29.8923 33.4269 29.569ZM31.5819 22.4656L31.3698 23.4339C29.6967 26.0643 27.9307 27.4005 26.1244 27.4005H24.3172C22.8727 27.4005 21.868 26.1575 22.1311 24.6332L22.2585 23.895C22.5216 22.3732 23.9029 21.1739 25.3926 21.1739H31.3534C31.6239 21.1739 31.7727 21.3578 31.725 21.6341L31.5819 22.4656Z" fill="#007C34"/>
<path d="M47.9464 11.6256H49.3473C51.3789 11.6256 52.2266 12.7325 53.2527 14.1166C53.3645 14.2552 53.4385 14.3475 53.5741 14.3475C53.6185 14.3475 53.6646 14.3475 53.7624 14.3013L55.6296 13.4254C55.8261 13.333 55.9773 13.2406 56.002 13.1029C56.2413 11.7188 53.8792 9.1825 49.7691 9.1825H48.369C44.1693 9.1825 40.9612 11.8112 40.3084 15.5939C39.6071 19.6528 42.3564 20.2071 47.4046 21.3149C50.3183 21.9607 51.5426 22.9753 51.2482 24.6818C50.9218 26.5731 49.0407 28.0496 46.5125 28.0496H45.1123C42.8999 28.0496 42.2117 26.8041 41.2687 25.4662C41.1569 25.3277 41.0829 25.2361 40.9464 25.2361C40.9012 25.2361 40.8107 25.2361 40.7129 25.2823L38.7997 26.1574C38.5588 26.249 38.4528 26.3422 38.4281 26.4791C38.1814 27.9093 40.4893 30.4919 44.6897 30.4919H46.0899C50.4704 30.4919 53.7402 27.7708 54.4169 23.8495C55.0853 19.9745 52.3146 19.2833 47.3207 18.1302C44.3239 17.4382 43.075 16.5614 43.4014 14.67C43.7278 12.7787 45.3269 11.6256 47.9464 11.6256Z" fill="#007C34"/>
<path fill-rule="evenodd" clip-rule="evenodd" d="M100.109 21.4506V9.54921C100.109 4.29094 96.8585 0.96936 91.7101 0.96936H81.5481C81.2332 0.96936 81.0967 1.10794 81.0967 1.43128V29.5686C81.0967 29.8919 81.2332 30.0305 81.5481 30.0305H91.7101C96.8585 30.0305 100.109 26.7089 100.109 21.4506ZM94.9618 21.8655C94.9618 23.7107 93.5164 25.1871 91.7109 25.1871H86.7425C86.4268 25.1871 86.292 25.0485 86.292 24.7252V6.27382C86.292 5.95048 86.4268 5.81274 86.7425 5.81274H91.7109C93.472 5.81274 94.9618 7.33454 94.9618 9.13432V21.8655Z" fill="#919797"/>
<path fill-rule="evenodd" clip-rule="evenodd" d="M121.288 20.3436V16.6071C121.288 15.1768 120.837 13.6089 120.024 12.3634C118.443 9.87323 115.779 8.44214 112.888 8.44214C109.953 8.44214 107.333 9.87323 105.708 12.3634C104.896 13.6089 104.444 15.1768 104.444 16.6071V22.3273C104.444 27.2169 107.786 30.4922 112.889 30.4922C115.418 30.4922 117.36 29.7549 118.67 28.3716C120.204 26.7096 120.882 25.4649 120.882 24.9577C120.882 24.8191 120.792 24.6814 120.612 24.5898L116.682 22.6061C116.592 22.5599 116.547 22.5599 116.457 22.5599C116.231 22.5599 116.051 22.8833 115.78 23.4359C115.012 24.9132 114.199 25.6505 112.889 25.6505C110.992 25.6505 109.639 24.1749 109.639 22.329V21.2682C109.639 20.9449 109.774 20.8072 110.089 20.8072H120.838C121.153 20.8055 121.288 20.6669 121.288 20.3436ZM115.554 16.377H110.179C109.863 16.377 109.728 16.2384 109.728 15.9621C109.728 14.6704 111.173 13.2855 112.889 13.2855C114.515 13.2855 116.005 14.6696 116.005 15.9151C116.005 16.2384 115.869 16.377 115.554 16.377Z" fill="#919797"/>
<path d="M141.333 24.5885L137.404 22.6048C137.314 22.5586 137.269 22.5586 137.179 22.5586C136.953 22.5586 136.772 22.8819 136.502 23.4345C135.732 24.9118 134.92 25.6492 133.611 25.6492C131.714 25.6492 130.36 24.1736 130.36 22.3276V16.6074C130.36 14.7623 131.714 13.2858 133.611 13.2858C134.92 13.2858 135.779 14.0241 136.546 15.5005C136.816 16.0078 136.906 16.2849 137.179 16.2849C137.225 16.2849 137.314 16.2849 137.404 16.2387L141.333 14.255C141.513 14.1626 141.603 14.0249 141.603 13.8863C141.603 13.3329 140.519 11.303 138.757 9.96594C137.359 8.90521 135.689 8.4433 133.61 8.4433C128.507 8.4433 125.165 11.7187 125.165 16.6083V22.3284C125.165 27.218 128.507 30.4934 133.61 30.4934C136.138 30.4934 138.081 29.756 139.389 28.3728C140.926 26.7107 141.602 25.4661 141.602 24.9588C141.603 24.8177 141.512 24.68 141.333 24.5885Z" fill="#919797"/>
<path d="M163.224 29.3384L155.592 16.7458C155.548 16.6543 155.502 16.6073 155.502 16.5149C155.502 16.4225 155.592 16.3309 155.684 16.1915L161.914 9.68778C162.051 9.54921 162.096 9.41063 162.096 9.2729C162.096 9.04194 161.914 8.90421 161.599 8.90421H156.225L155.908 9.04278L151.121 14.3934C150.987 14.5328 150.897 14.5782 150.761 14.5782C150.535 14.5782 150.354 14.3934 150.354 14.0709V1.43128C150.354 1.10794 150.172 0.96936 149.902 0.96936H145.656C145.342 0.96936 145.205 1.10794 145.205 1.43128V29.5686C145.205 29.8919 145.342 30.0305 145.656 30.0305H149.902C150.219 30.0305 150.354 29.8919 150.354 29.5686V22.0503L150.49 21.7278L151.211 20.9896C151.348 20.8501 151.482 20.8048 151.574 20.8048C151.708 20.8048 151.843 20.8972 151.935 21.0819L157.127 29.8004L157.534 30.0305H162.817C163.133 30.0305 163.314 29.8466 163.314 29.6626C163.315 29.5686 163.268 29.43 163.224 29.3384Z" fill="#919797"/>
<path fill-rule="evenodd" clip-rule="evenodd" d="M170 4.2748V3.82465C170 1.55203 168.437 0 166.036 0H165.95C163.547 0 161.983 1.53019 161.983 3.82465V4.2748C161.983 6.56926 163.547 8.09945 165.95 8.09945H166.036C168.436 8.09945 170 6.56926 170 4.2748ZM169.34 4.2748C169.34 6.16445 168.039 7.42422 166.035 7.42422H165.949C163.943 7.42422 162.644 6.16445 162.644 4.2748V3.82465C162.644 1.935 163.943 0.674394 165.949 0.674394H166.035C168.039 0.674394 169.34 1.93416 169.34 3.82465V4.2748ZM167.622 3.35182V3.26195C167.622 2.40699 167.071 1.8443 166.234 1.8443H164.846C164.692 1.8443 164.624 1.91148 164.624 2.06937V5.84867C164.624 6.00656 164.692 6.07459 164.846 6.07459H165.087C165.242 6.07459 165.309 6.00656 165.309 5.84867V4.83666C165.309 4.67877 165.375 4.61074 165.528 4.61074H166.08C166.168 4.61074 166.235 4.65609 166.278 4.74596L166.783 5.93853C166.828 6.0284 166.871 6.07375 166.982 6.07375H167.334C167.489 6.07375 167.578 6.00572 167.578 5.89318C167.578 5.84783 167.556 5.80332 167.533 5.75881L166.982 4.63342C166.96 4.61074 166.96 4.58891 166.96 4.56623C166.96 4.29748 167.622 3.9817 167.622 3.35182ZM166.917 3.26195C166.917 3.66676 166.631 3.9817 166.235 3.9817H165.529C165.376 3.9817 165.31 3.91367 165.31 3.75578V2.69926C165.31 2.54137 165.376 2.47418 165.529 2.47418H166.235C166.631 2.47418 166.917 2.78912 166.917 3.19393V3.26195Z" fill="#919797"/>
<path d="M74.168 9.61206H76.5383" stroke="black" stroke-width="0.0283" stroke-miterlimit="3.8637"/>
<path d="M56.6403 43.2718C56.4603 43.2718 56.3164 43.124 56.3164 42.9392C56.3164 42.8703 56.3329 42.8166 56.3707 42.7536L62.8198 30.8656C62.8198 30.8656 62.8757 30.7464 62.8757 30.6783C62.8757 30.6389 62.8551 30.5666 62.8551 30.5666L59.1504 9.90563C59.1217 9.74606 59.3034 9.61336 59.4859 9.61084L61.9557 9.60748C62.1316 9.60748 62.2476 9.75781 62.2755 9.93586L64.6557 25.1186L64.8357 26.2893C64.8612 26.4531 64.9961 26.5841 65.163 26.5841C65.2929 26.5841 65.4055 26.5077 65.4606 26.3976L66.0838 25.1597L73.7966 9.84432C73.8599 9.71918 73.9618 9.61084 74.1074 9.61084H76.4982C76.689 9.61084 76.8353 9.76033 76.8353 9.94426C76.8353 9.98877 76.832 10.024 76.8082 10.0677L59.1891 43.066C59.1282 43.1802 59.0238 43.2735 58.8882 43.2735L56.6403 43.2718Z" fill="#007C34"/>
<path d="M86.7005 36.6362L86.6232 43.1332C86.6232 43.2256 86.6618 43.2668 86.7531 43.2668H87.3672C87.4577 43.2668 87.498 43.2256 87.498 43.1332V35.0086C87.498 34.9162 87.4577 34.8751 87.3672 34.8751H86.7531C86.6873 34.8893 86.6487 34.9162 86.6355 34.9548L84.3236 40.5591H84.2849L81.9598 34.9548C81.9467 34.9288 81.908 34.8893 81.8422 34.8751H81.2412C81.15 34.8751 81.1113 34.9162 81.1113 35.0086V43.1341C81.1113 43.2265 81.15 43.2676 81.2412 43.2676H81.8554C81.9467 43.2676 81.9853 43.2265 81.9853 43.1341L81.908 36.6631L84.0753 41.9323C84.1024 41.986 84.141 42.0129 84.1928 42.0129H84.4017C84.4674 41.9995 84.5069 41.9591 84.5192 41.9323L86.7005 36.6362Z" fill="#007C34"/>
<path fill-rule="evenodd" clip-rule="evenodd" d="M93.1028 43.135V39.412C93.1028 38.1186 92.2148 37.2645 90.8163 37.2645C89.5765 37.2645 88.793 38.0111 88.793 38.4244C88.793 38.4655 88.8184 38.4915 88.8711 38.5176L89.4203 38.8115C89.4458 38.8258 89.4712 38.8258 89.4844 38.8258C89.5765 38.8258 89.6686 38.6259 89.9423 38.3714C90.1775 38.1455 90.4907 38.0246 90.8163 38.0246C91.6138 38.0246 92.1877 38.6259 92.2025 39.412L92.2157 39.9462C92.2157 40.0394 92.1754 40.0788 92.0849 40.0788H90.36C89.3808 40.0788 88.7148 40.7339 88.7148 41.6267V41.7065C88.7148 42.6009 89.3808 43.2686 90.36 43.2686H90.8829C91.0531 43.2686 91.3137 43.1745 91.4839 43.041C91.9016 42.695 92.1236 42.4002 92.2543 42.4002C92.3061 42.4002 92.3595 42.4674 92.3595 42.5597V43.1342C92.3595 43.2266 92.3982 43.2677 92.4894 43.2677H92.9729C93.0625 43.2686 93.1028 43.2274 93.1028 43.135ZM92.2148 41.0799L92.2017 41.3596C91.8481 42.1188 91.4042 42.5068 90.8821 42.5068H90.3592C89.9415 42.5068 89.5888 42.1465 89.5888 41.7056V41.4931C89.5888 41.0531 89.9284 40.7054 90.3592 40.7054H92.0841C92.1622 40.7054 92.2148 40.7591 92.2148 40.8389V41.0799Z" fill="#007C34"/>
<path fill-rule="evenodd" clip-rule="evenodd" d="M99.032 43.1341V35.0086C99.032 34.9162 98.9917 34.8751 98.9012 34.8751H98.2731C98.1827 34.8751 98.1432 34.9162 98.1432 35.0086V38.0505C98.1432 38.1446 98.0914 38.1975 98.0388 38.1975C97.8941 38.1975 97.6861 37.8506 97.2158 37.5307C97.0859 37.45 96.8368 37.3711 96.5235 37.3711C95.3873 37.3711 94.4854 38.2907 94.4854 39.5454V41.0798C94.4854 42.374 95.4128 43.2676 96.614 43.2676C97.2421 43.2676 97.4764 43.014 97.7773 42.7469C97.9862 42.5596 98.0906 42.4143 98.1818 42.4143C98.2328 42.4143 98.2862 42.4673 98.2862 42.5605V43.1349C98.2862 43.2273 98.3257 43.2685 98.417 43.2685H98.9004C98.9917 43.2676 99.032 43.2265 99.032 43.1341ZM98.1432 41.079C98.1432 41.8525 97.5299 42.5059 96.7463 42.5059C95.9628 42.5059 95.361 41.8525 95.361 41.079V39.5446C95.361 38.7568 95.9496 38.1295 96.7463 38.1295C97.5299 38.1295 98.1432 38.7829 98.1432 39.5446V41.079Z" fill="#007C34"/>
<path fill-rule="evenodd" clip-rule="evenodd" d="M104.999 40.2249V39.4111C104.999 38.2638 103.98 37.2375 102.714 37.2375C102.047 37.2375 101.498 37.4761 101.068 37.9439C100.675 38.3705 100.454 38.9181 100.454 39.4111V41.2125C100.454 42.5336 101.328 43.4003 102.714 43.4003C103.941 43.4003 104.738 42.6529 104.738 42.2262C104.738 42.1733 104.724 42.1464 104.66 42.1187L104.11 41.8399C104.085 41.8264 104.059 41.8264 104.045 41.8264C103.966 41.8264 103.85 42.0129 103.575 42.2808C103.342 42.5067 103.028 42.6394 102.714 42.6394C101.93 42.6394 101.328 41.9869 101.328 41.2125V40.4919C101.328 40.3996 101.368 40.3592 101.46 40.3592H104.868C104.96 40.3584 104.999 40.3181 104.999 40.2249ZM104.11 39.5992C104.11 39.6916 104.072 39.731 103.98 39.731H101.46C101.369 39.731 101.329 39.6916 101.329 39.5992V39.4111C101.329 38.6241 101.918 37.9968 102.715 37.9968C103.499 37.9968 104.111 38.6502 104.111 39.4111V39.5992H104.11Z" fill="#007C34"/>
<path fill-rule="evenodd" clip-rule="evenodd" d="M109.917 35.3156C109.917 34.983 109.669 34.7302 109.329 34.7302C109.029 34.7302 108.768 34.9956 108.768 35.3156C108.768 35.6633 109.016 35.9161 109.329 35.9161C109.656 35.9161 109.917 35.6356 109.917 35.3156ZM109.786 43.1345V37.5051C109.786 37.411 109.748 37.3715 109.656 37.3715H109.029C108.938 37.3715 108.898 37.411 108.898 37.5051V43.1345C108.898 43.2269 108.938 43.2681 109.029 43.2681H109.656C109.748 43.2681 109.786 43.2269 109.786 43.1345Z" fill="#007C34"/>
<path d="M116.186 43.135V39.5463C116.186 38.2655 115.233 37.3719 114.017 37.3719C113.391 37.3719 113.169 37.6247 112.868 37.8784C112.673 38.0522 112.568 38.1858 112.476 38.1858C112.425 38.1858 112.372 38.1194 112.372 38.0379V37.5055C112.372 37.4114 112.332 37.3719 112.241 37.3719H111.758C111.667 37.3719 111.627 37.4114 111.627 37.5055V43.135C111.627 43.2273 111.667 43.2685 111.758 43.2685H112.385C112.476 43.2685 112.516 43.2273 112.516 43.135V39.5463C112.516 38.7585 113.104 38.1312 113.9 38.1312C114.684 38.1312 115.298 38.7846 115.298 39.5463V43.135C115.298 43.2273 115.337 43.2685 115.428 43.2685H116.055C116.146 43.2685 116.186 43.2273 116.186 43.135Z" fill="#007C34"/>
<path d="M125.197 41.213V39.3729C125.197 39.2805 125.145 39.2393 125.066 39.2393H122.807C122.715 39.2393 122.677 39.2805 122.677 39.3729V39.8801C122.677 39.9725 122.715 40.0137 122.807 40.0137H124.178C124.256 40.0137 124.308 40.0658 124.308 40.1464V41.2138C124.308 42.0016 123.668 42.6407 122.911 42.6407H122.507C121.735 42.6407 121.121 42.0142 121.121 41.2138V36.9189C121.121 36.1185 121.722 35.5029 122.507 35.5029H123.159C123.747 35.5029 124.022 35.8506 124.387 36.2377C124.413 36.2781 124.439 36.2907 124.479 36.2907C124.491 36.2907 124.518 36.2907 124.543 36.2772L125.092 35.9959C125.144 35.9698 125.183 35.9295 125.183 35.89C125.183 35.4491 124.374 34.7302 123.159 34.7302H122.506C121.12 34.7302 120.232 35.6087 120.232 36.9172V41.2121C120.232 42.5198 121.12 43.3999 122.506 43.3999H122.91C124.295 43.4008 125.197 42.5198 125.197 41.213Z" fill="#007C34"/>
<path fill-rule="evenodd" clip-rule="evenodd" d="M131.06 40.2249V39.4111C131.06 38.2638 130.041 37.2375 128.774 37.2375C128.107 37.2375 127.559 37.4761 127.129 37.9439C126.737 38.3705 126.515 38.9181 126.515 39.4111V41.2125C126.515 42.5336 127.389 43.4003 128.774 43.4003C130.002 43.4003 130.798 42.6529 130.798 42.2262C130.798 42.1733 130.785 42.1464 130.719 42.1187L130.171 41.8399C130.145 41.8264 130.118 41.8264 130.105 41.8264C130.027 41.8264 129.909 42.0129 129.636 42.2808C129.4 42.5067 129.087 42.6394 128.773 42.6394C127.99 42.6394 127.389 41.9869 127.389 41.2125V40.4919C127.389 40.3996 127.428 40.3592 127.519 40.3592H130.927C131.02 40.3584 131.06 40.3181 131.06 40.2249ZM130.172 39.5992C130.172 39.6916 130.131 39.731 130.041 39.731H127.52C127.43 39.731 127.39 39.6916 127.39 39.5992V39.4111C127.39 38.6241 127.978 37.9968 128.775 37.9968C129.558 37.9968 130.173 38.6502 130.173 39.4111V39.5992H130.172Z" fill="#007C34"/>
<path d="M135.292 38.1846V37.5043C135.292 37.4103 135.253 37.3708 135.16 37.3708H134.679C134.495 37.3708 134.221 37.4766 134.078 37.5975C133.608 37.9847 133.399 38.3173 133.255 38.3173C133.204 38.3173 133.15 38.2644 133.15 38.1712V37.5043C133.15 37.4103 133.112 37.3708 133.02 37.3708H132.535C132.446 37.3708 132.405 37.4103 132.405 37.5043V43.1338C132.405 43.2262 132.446 43.2673 132.535 43.2673H133.163C133.255 43.2673 133.293 43.2262 133.293 43.1338V39.6778C133.293 38.8917 133.881 38.2778 134.679 38.2778C134.901 38.2778 135.07 38.3173 135.176 38.3173C135.266 38.3173 135.292 38.2904 135.292 38.1846Z" fill="#007C34"/>
<path d="M143.97 43.135V39.5463C143.97 38.279 143.069 37.3719 141.815 37.3719C141.357 37.3719 140.978 37.492 140.718 37.7045C140.354 38.0119 140.196 38.2261 140.131 38.2261C140.065 38.2261 139.896 37.9985 139.517 37.6785C139.281 37.4786 138.981 37.3728 138.642 37.3728C138.119 37.3728 137.871 37.6256 137.557 37.8792C137.337 38.0665 137.205 38.2 137.127 38.2C137.076 38.2 137.036 38.1328 137.036 38.0396V37.5072C137.036 37.4131 136.997 37.3736 136.906 37.3736H136.423C136.331 37.3736 136.291 37.4131 136.291 37.5072V43.1366C136.291 43.229 136.331 43.2702 136.423 43.2702H137.049C137.14 43.2702 137.181 43.229 137.181 43.1366V39.548C137.181 38.8005 137.809 38.1328 138.42 38.1328C139.049 38.1328 139.687 38.8005 139.687 39.548V43.1366C139.687 43.229 139.728 43.2702 139.819 43.2702H140.445C140.537 43.2702 140.575 43.229 140.575 43.1366V39.548C140.575 38.814 141.216 38.1328 141.817 38.1328C142.445 38.1328 143.084 38.8005 143.084 39.548V43.1366C143.084 43.229 143.122 43.2702 143.214 43.2702H143.842C143.931 43.2685 143.97 43.2273 143.97 43.135Z" fill="#007C34"/>
<path fill-rule="evenodd" clip-rule="evenodd" d="M149.666 43.135V39.412C149.666 38.1186 148.778 37.2645 147.381 37.2645C146.14 37.2645 145.356 38.0111 145.356 38.4244C145.356 38.4655 145.382 38.4915 145.434 38.5176L145.983 38.8115C146.008 38.8258 146.036 38.8258 146.049 38.8258C146.14 38.8258 146.23 38.6259 146.507 38.3714C146.741 38.1455 147.054 38.0246 147.381 38.0246C148.178 38.0246 148.753 38.6259 148.766 39.412L148.779 39.9462C148.779 40.0394 148.74 40.0788 148.648 40.0788H146.924C145.945 40.0788 145.278 40.7339 145.278 41.6267V41.7065C145.278 42.6009 145.945 43.2686 146.924 43.2686H147.446C147.617 43.2686 147.876 43.1745 148.047 43.041C148.464 42.695 148.687 42.4002 148.818 42.4002C148.87 42.4002 148.922 42.4674 148.922 42.5597V43.1342C148.922 43.2266 148.961 43.2677 149.054 43.2677H149.536C149.628 43.2686 149.666 43.2274 149.666 43.135ZM148.778 41.0799L148.765 41.3596C148.412 42.1188 147.967 42.5068 147.446 42.5068H146.923C146.506 42.5068 146.152 42.1465 146.152 41.7056V41.4931C146.152 41.0531 146.491 40.7054 146.923 40.7054H148.647C148.726 40.7054 148.778 40.7591 148.778 40.8389V41.0799Z" fill="#007C34"/>
<path d="M156.065 43.135V39.5463C156.065 38.2655 155.111 37.3719 153.897 37.3719C153.269 37.3719 153.047 37.6247 152.747 37.8784C152.552 38.0522 152.447 38.1858 152.355 38.1858C152.304 38.1858 152.251 38.1194 152.251 38.0379V37.5055C152.251 37.4114 152.21 37.3719 152.119 37.3719H151.636C151.546 37.3719 151.506 37.4114 151.506 37.5055V43.135C151.506 43.2273 151.546 43.2685 151.636 43.2685H152.264C152.355 43.2685 152.394 43.2273 152.394 43.135V39.5463C152.394 38.7585 152.982 38.1312 153.778 38.1312C154.562 38.1312 155.177 38.7846 155.177 39.5463V43.135C155.177 43.2273 155.215 43.2685 155.307 43.2685H155.933C156.025 43.2685 156.065 43.2273 156.065 43.135Z" fill="#007C34"/>
<path d="M157.434 46.3615C157.379 46.3615 157.335 46.3169 157.335 46.2598C157.335 46.2388 157.34 46.222 157.351 46.2027L158.601 43.9108C158.601 43.9108 158.618 43.8747 158.618 43.8537C158.618 43.8411 158.613 43.8192 158.613 43.8192L157.472 37.4667C157.464 37.4163 157.521 37.3776 157.577 37.3751L158.335 37.3743C158.389 37.3743 158.424 37.4213 158.434 37.4759L159.165 42.1454L159.221 42.5057C159.229 42.5553 159.271 42.5956 159.322 42.5956C159.362 42.5956 159.396 42.5721 159.413 42.5385L159.604 42.158L161.976 37.449C161.995 37.4095 162.027 37.3759 162.071 37.3759H162.806C162.866 37.3759 162.911 37.4221 162.911 37.4792C162.911 37.4935 162.909 37.5028 162.903 37.5179L158.219 46.3018C158.2 46.3363 158.168 46.3656 158.126 46.3656L157.434 46.3615Z" fill="#007C34"/>
</svg>
