<svg width="161" height="62" viewBox="0 0 161 62" fill="none" xmlns="http://www.w3.org/2000/svg">
<path d="M15.0079 52.4891C13.4619 52.3811 10.0386 52.678 6.9466 53.2449C4.43433 53.7038 0.624512 54.8645 0.624512 54.8645C2.55703 52.4081 2.33617 48.1971 2.91592 46.4965C2.91592 46.4965 3.63371 47.2793 4.13065 47.7112C4.54476 48.0621 5.23494 48.575 5.23494 48.575C5.0693 49.9787 5.04169 51.4363 4.54476 52.1921C6.14598 51.5173 6.64292 50.8425 9.5969 50.7345C9.5969 50.7345 10.8945 51.2744 11.7227 51.5443C12.965 51.9492 15.0079 52.4891 15.0079 52.4891Z" fill="#BA0227"/>
<path d="M51.5627 5.08823C51.7283 5.11522 51.6455 5.57412 51.6731 5.92504C51.6731 7.05878 50.5688 7.49068 49.9614 6.92381C49.9614 6.73486 49.989 6.43792 49.989 6.43792C50.0442 5.27719 50.5136 4.92627 51.5627 5.08823Z" fill="#BA0227"/>
<path d="M56.778 2.6585C54.9283 0.903901 52.7473 0.148071 49.4621 0.148071H49.2688C45.2381 0.175065 41.8424 3.00942 38.9161 8.81311L38.8608 8.94808L40.6553 9.48795L40.7105 9.40697C43.0296 4.84501 45.2934 2.01065 49.4345 2.01065C49.7105 2.01065 50.0142 2.03764 50.2903 2.06464C52.5817 2.28059 54.1829 2.73948 55.7289 4.54807C56.9161 5.92476 57.3854 7.0585 57.3026 8.24623C57.1921 9.97384 56.3087 12.7002 54.2934 12.7002C53.686 12.7002 52.9958 12.4303 52.278 11.9444L49.7934 10.2168V10.4327C49.7934 10.4597 49.7657 11.1616 49.9314 11.5935C50.1523 12.2143 50.9529 12.7542 51.3394 12.9972L47.3087 14.5358L48.6062 16.2094L52.8854 13.834C53.2167 13.888 53.5203 13.9149 53.824 13.9149C57.413 13.9149 59.2075 10.3248 59.2075 8.32722C59.2903 6.81556 58.4069 4.22415 56.778 2.6585Z" fill="#BA0227"/>
<path d="M14.428 15.3989C14.7593 15.1289 16.3606 13.9142 18.0998 13.1314C25.1673 9.35224 35.0783 9.91911 41.7317 14.0492C45.0446 16.1277 46.5354 18.2332 48.0538 20.6627C48.0538 20.6627 45.1274 25.4136 44.6581 28.4369C44.2164 31.1903 44.2992 35.5633 44.2992 35.5633C44.2992 35.5633 41.1796 38.0467 39.6888 40.0443C38.1152 42.1228 36.5967 45.9019 36.5967 45.9019C36.5967 45.9019 33.4219 44.3363 29.3636 45.0651C23.6213 46.0909 21.1642 49.87 21.1642 49.87C20.7501 49.843 20.336 49.7621 19.8391 49.7351C13.0201 49.2492 6.64276 46.4148 2.41883 40.2602C2.41883 40.2602 2.61209 36.589 3.71638 32.27C4.9035 27.5191 8.40963 22.0663 9.01699 21.2025C3.52313 26.1424 1.01086 33.2958 0.845215 41.259C4.10288 46.2258 8.49245 49.2492 14.8698 50.9768C17.3544 51.6516 22.5722 51.9755 22.5722 51.9755C25.2225 47.4136 30.0262 45.2541 35.6857 47.2786C36.4863 47.5755 37.6458 47.9535 37.6458 47.9535C37.6458 47.9535 39.5231 43.3105 41.4832 40.8001C43.1121 38.7216 46.3698 36.0762 46.3698 36.0762C46.3698 36.0762 45.79 31.0013 46.5906 27.924C47.336 25.0087 50.0415 20.8246 50.0415 20.8246C46.8943 15.2369 45.4035 13.8872 40.7931 11.5387C33.4495 7.78659 23.6765 8.67739 17.0507 13.0774C16.0017 13.7522 14.5661 15.2369 14.5661 15.2369L14.428 15.3989Z" fill="#BA0227"/>
<path d="M8.02423 25.4686C7.49969 26.4674 6.20215 29.3557 6.20215 29.3557C7.41687 28.411 8.82485 27.3042 10.0672 26.4134C10.4261 26.1435 12.2758 24.7668 12.8555 24.7128C13.6285 24.6318 13.2144 26.3324 13.104 26.6024C12.9107 27.1962 12.2758 28.4649 11.6132 29.7067C10.9782 30.9484 10.6193 32.1631 10.2604 33.0269C9.15613 35.6993 9.29417 36.806 9.26656 37.022C9.23896 37.2649 9.43221 37.5619 9.81871 37.3729C9.95675 37.3189 11.2267 35.1594 11.7788 34.4846C13.0764 32.9459 13.7942 31.8392 15.3126 30.3545C17.8248 27.8981 21.1377 25.9545 22.6561 25.0637C23.8709 24.3349 25.2512 23.795 25.831 24.2809C26.4659 24.8478 25.9414 26.8183 25.6929 27.5202C25.2788 28.9238 23.015 35.4294 20.6408 39.4245C20.1163 40.3153 20.0334 40.8821 20.2267 41.1251C20.3923 41.314 20.3371 41.395 20.7512 41.341C21.1929 41.26 22.0212 38.7766 25.6101 35.6183C30.1101 31.6232 32.7328 30.6514 33.8095 30.8134C35.0518 31.0294 36.2666 32.3521 37.7297 34.8895C38.6132 36.4281 39.3862 37.076 40.2972 37.3729C40.8494 36.6711 41.5396 36.1312 42.1193 35.5373C41.5672 35.1594 41.2359 34.2686 40.9322 33.7017C40.3524 32.649 39.8279 31.1373 39.1929 29.1668C38.9169 28.357 38.4475 27.4392 37.8678 27.1422C37.3156 26.8453 37.0672 26.7373 36.4874 26.8723C35.9629 27.0073 34.1684 27.8711 33.1745 28.4649C32.4843 28.8699 29.6408 31.1913 28.7297 30.7594C28.2604 30.5435 27.9843 29.6257 28.4261 28.087C29.0886 25.7926 29.558 24.9557 31.3524 22.3373C32.5396 20.5827 34.969 18.9361 33.5334 17.7754C32.8156 17.2085 32.3739 17.3975 31.1316 17.8024C30.0825 18.1263 26.4383 19.53 23.8156 21.2306C20.3371 23.5251 17.6592 26.0625 16.2236 26.7373C15.0917 27.2772 17.3003 24.011 17.742 22.4453C18.0181 21.4465 18.3218 20.5287 18.4046 19.9889C18.4874 19.476 18.4322 19.0981 18.3218 18.8821C18.2666 18.7741 18.1561 18.7202 18.0457 18.6932C16.8862 18.8551 13.0488 21.5005 11.9445 22.3103C11.1163 22.8502 8.02423 25.4686 8.02423 25.4686Z" fill="#BA0227"/>
<path fill-rule="evenodd" clip-rule="evenodd" d="M160.527 44.2289C160.527 42.6903 159.34 41.5565 157.794 41.5565C156.248 41.5565 155.061 42.7172 155.061 44.2289C155.061 45.7405 156.248 46.9013 157.794 46.9013C159.34 46.9283 160.527 45.7675 160.527 44.2289ZM160.086 44.2289C160.086 45.4976 159.092 46.4694 157.767 46.4694C156.469 46.4694 155.475 45.4976 155.475 44.2289C155.475 42.9602 156.469 41.9614 157.767 41.9614C159.092 41.9884 160.086 42.9602 160.086 44.2289ZM159.036 43.608C159.036 42.9872 158.595 42.7173 158.07 42.7173H156.745V45.6326H157.242V44.4988H157.822L158.402 45.6326H159.009L158.402 44.4449C158.788 44.3639 159.036 44.0669 159.036 43.608ZM158.54 43.608C158.54 43.905 158.346 44.013 158.07 44.013H157.27V43.1761H158.07C158.319 43.2031 158.54 43.3381 158.54 43.608Z" fill="#008139"/>
<path fill-rule="evenodd" clip-rule="evenodd" d="M111.552 38.6413V36.3198C111.552 35.564 111.083 35.2401 110.365 35.2401C109.924 35.2401 109.537 35.348 109.233 35.51L109.427 35.8879C109.703 35.7259 109.979 35.645 110.338 35.645C110.835 35.645 111.055 35.8879 111.055 36.3738V36.7517C110.862 36.6437 110.559 36.5627 110.227 36.5627C109.565 36.5627 108.93 36.8867 108.93 37.6155C108.93 38.3983 109.482 38.6683 110.006 38.6683C110.476 38.6683 110.807 38.4523 111.055 38.2094V38.6143H111.552V38.6413ZM111.055 37.8314C110.862 38.1014 110.531 38.3173 110.089 38.3173C109.675 38.3173 109.399 38.1014 109.399 37.6155C109.399 37.2106 109.703 36.9676 110.172 36.9676C110.586 36.9676 110.807 37.0486 111.028 37.1566V37.8314H111.055Z" fill="#008139"/>
<path fill-rule="evenodd" clip-rule="evenodd" d="M115.112 38.6409V34.0519L114.643 34.3219V35.6986C114.394 35.4286 114.118 35.2667 113.704 35.2667C112.986 35.2667 112.434 35.8605 112.434 37.0483C112.434 38.209 112.959 38.7219 113.649 38.7219C114.118 38.7219 114.422 38.5059 114.67 38.263V38.6679H115.112V38.6409ZM114.643 37.8041C114.394 38.101 114.118 38.29 113.759 38.29C113.235 38.29 112.903 37.8581 112.903 37.0213C112.903 36.1305 113.179 35.6716 113.732 35.6716C114.118 35.6716 114.449 35.8875 114.643 36.1575V37.8041Z" fill="#008139"/>
<path fill-rule="evenodd" clip-rule="evenodd" d="M118.757 36.8865C118.757 35.9417 118.288 35.2668 117.404 35.2668C116.603 35.2668 115.996 35.9147 115.996 36.9675C115.996 38.2632 116.742 38.6951 117.376 38.6951C117.873 38.6951 118.177 38.5601 118.591 38.3172L118.37 37.9662C118.067 38.1552 117.846 38.2902 117.432 38.2902C116.88 38.2902 116.548 37.8583 116.493 37.1294H118.729C118.729 37.0754 118.757 36.9945 118.757 36.8865ZM118.288 36.7515H116.465C116.521 36.0227 116.88 35.6718 117.376 35.6718C117.984 35.6718 118.26 36.1307 118.288 36.7515Z" fill="#008139"/>
<path fill-rule="evenodd" clip-rule="evenodd" d="M121.931 34.4029C121.931 34.2139 121.766 34.0519 121.6 34.0519C121.407 34.0519 121.241 34.2139 121.241 34.4029C121.241 34.5918 121.407 34.7268 121.6 34.7268C121.766 34.7538 121.931 34.5918 121.931 34.4029ZM121.821 38.6409V35.3477H121.352V38.6409H121.821Z" fill="#008139"/>
<path fill-rule="evenodd" clip-rule="evenodd" d="M125.52 38.6409V36.6433C125.52 35.6986 125.05 35.2936 124.333 35.2936C123.918 35.2936 123.587 35.4826 123.394 35.7525V35.3476H122.897V38.6409H123.394V36.7243C123.394 35.9955 123.753 35.6986 124.222 35.6986C124.774 35.6986 125.023 36.0225 125.023 36.7243V38.6409H125.52Z" fill="#008139"/>
<path d="M131.566 36.8871V36.4552H130.268V36.9141H131.069V36.968C131.069 37.8318 130.655 38.2907 129.909 38.2907C129.164 38.2907 128.584 37.5349 128.584 36.4552C128.584 35.4024 129.136 34.6466 129.909 34.6466C130.406 34.6466 130.655 34.8085 130.959 35.2134L131.345 34.9165C130.986 34.4306 130.544 34.2147 129.909 34.2147C128.833 34.2147 128.087 35.1864 128.087 36.4821C128.087 37.7779 128.805 38.7496 129.909 38.7496C130.876 38.6956 131.566 38.0748 131.566 36.8871Z" fill="#008139"/>
<path fill-rule="evenodd" clip-rule="evenodd" d="M135.014 36.8865C135.014 35.9417 134.544 35.2668 133.661 35.2668C132.86 35.2668 132.253 35.9147 132.253 36.9675C132.253 38.2632 132.998 38.6951 133.633 38.6951C134.13 38.6951 134.434 38.5601 134.848 38.3172L134.627 37.9662C134.323 38.1552 134.103 38.2902 133.689 38.2902C133.136 38.2902 132.805 37.8583 132.75 37.1294H134.986C135.014 37.0754 135.014 36.9945 135.014 36.8865ZM134.572 36.7515H132.75C132.805 36.0227 133.164 35.6718 133.661 35.6718C134.268 35.6718 134.544 36.1307 134.572 36.7515Z" fill="#008139"/>
<path fill-rule="evenodd" clip-rule="evenodd" d="M137.777 35.3478C137.667 35.2938 137.501 35.2668 137.253 35.2668C136.894 35.2668 136.563 35.4828 136.425 35.7527V35.3478H135.928V38.6411H136.425V36.6975C136.425 36.0767 136.673 35.6988 137.142 35.6988C137.363 35.6988 137.501 35.7527 137.639 35.8337L137.777 35.3478Z" fill="#008139"/>
<path fill-rule="evenodd" clip-rule="evenodd" d="M142.943 38.6409V36.6433C142.943 35.6716 142.501 35.2936 141.811 35.2936C141.259 35.2936 140.982 35.5366 140.789 35.8605C140.624 35.5366 140.347 35.2936 139.851 35.2936C139.464 35.2936 139.16 35.4826 138.995 35.7525V35.3476H138.525V38.6409H138.995V36.7243C138.995 35.9955 139.298 35.6986 139.74 35.6986C140.209 35.6986 140.458 35.9685 140.458 36.7243V38.6409H140.927V36.7243C140.927 35.9955 141.231 35.6986 141.673 35.6986C142.17 35.6986 142.39 35.9685 142.39 36.7243V38.6409H142.943Z" fill="#008139"/>
<path fill-rule="evenodd" clip-rule="evenodd" d="M146.392 38.6413V36.3198C146.392 35.564 145.923 35.2401 145.205 35.2401C144.763 35.2401 144.377 35.348 144.073 35.51L144.266 35.8879C144.543 35.7259 144.819 35.645 145.177 35.645C145.674 35.645 145.895 35.8879 145.895 36.3738V36.7517C145.702 36.6437 145.398 36.5627 145.067 36.5627C144.404 36.5627 143.77 36.8867 143.77 37.6155C143.77 38.3983 144.322 38.6683 144.846 38.6683C145.316 38.6683 145.647 38.4523 145.895 38.2094V38.6143H146.392V38.6413ZM145.923 37.8314C145.73 38.1014 145.398 38.3173 144.957 38.3173C144.543 38.3173 144.266 38.1014 144.266 37.6155C144.266 37.2106 144.57 36.9676 145.039 36.9676C145.454 36.9676 145.674 37.0486 145.895 37.1566V37.8314H145.923Z" fill="#008139"/>
<path fill-rule="evenodd" clip-rule="evenodd" d="M150.039 38.6409V36.6433C150.039 35.6986 149.569 35.2936 148.852 35.2936C148.438 35.2936 148.106 35.4826 147.913 35.7525V35.3476H147.416V38.6409H147.913V36.7243C147.913 35.9955 148.272 35.6986 148.741 35.6986C149.293 35.6986 149.542 36.0225 149.542 36.7243V38.6409H150.039Z" fill="#008139"/>
<path d="M153.569 35.3216H153.044L152.216 37.7241L152.105 38.075L151.995 37.7241L151.167 35.3216H150.67L151.857 38.5879L151.388 39.8026H151.885L153.569 35.3216Z" fill="#008139"/>
<path fill-rule="evenodd" clip-rule="evenodd" d="M123.809 55.1077C122.181 55.1077 121.435 53.65 121.435 51.8414C121.435 50.0329 122.153 48.5482 123.809 48.5482C125.438 48.5482 126.184 50.0329 126.184 51.8414C126.184 53.4881 125.438 55.1077 123.809 55.1077ZM123.809 45.8758C120.8 45.8758 118.564 48.3052 118.564 51.8414C118.564 55.3776 120.8 57.7801 123.809 57.7801C126.819 57.7801 129.082 55.3776 129.082 51.8414C129.082 48.3322 126.819 45.8758 123.809 45.8758Z" fill="#008139"/>
<path fill-rule="evenodd" clip-rule="evenodd" d="M135.846 55.1077C134.218 55.1077 133.472 53.65 133.472 51.8414C133.472 50.0329 134.19 48.5482 135.846 48.5482C137.475 48.5482 138.221 50.0329 138.221 51.8414C138.221 53.4881 137.475 55.1077 135.846 55.1077ZM135.846 45.8758C132.837 45.8758 130.601 48.3052 130.601 51.8414C130.601 55.3776 132.837 57.7801 135.846 57.7801C138.856 57.7801 141.119 55.3776 141.119 51.8414C141.119 48.3322 138.856 45.8758 135.846 45.8758Z" fill="#008139"/>
<path fill-rule="evenodd" clip-rule="evenodd" d="M95.8994 55.4595C94.4638 55.4595 93.9393 54.6496 93.9393 53.7588C93.9393 52.7331 94.6571 52.1392 95.8994 52.1392C96.8381 52.1392 97.4454 52.2202 98.246 52.7061V54.2987C97.7767 55.0815 96.8105 55.4595 95.8994 55.4595ZM101.09 49.8447C101.09 47.3073 99.2123 45.9036 96.3687 45.9036C94.5191 45.9036 93.3872 46.2815 92.0896 46.9834L93.1387 48.873C94.1878 48.3331 94.9608 48.1441 96.3687 48.1441C97.5835 48.1441 98.2184 48.8729 98.2184 49.7907V50.6006C97.3626 50.1956 96.7552 50.0337 95.7614 50.0337C93.0835 50.0337 91.0405 51.3024 91.0405 53.7588C91.0405 56.4852 93.1939 57.7809 95.3473 57.7809C96.5344 57.7809 97.3902 57.349 98.1908 56.5392V57.538H101.09V49.8447Z" fill="#008139"/>
<path fill-rule="evenodd" clip-rule="evenodd" d="M147.717 55.1886C146.365 55.1886 145.509 54.0548 145.509 51.6254C145.509 49.6548 146.171 48.4941 147.524 48.4941C148.463 48.4941 149.236 48.845 149.788 49.6009V54.1088C149.236 54.8377 148.684 55.1886 147.717 55.1886ZM152.659 41.6917L149.816 43.0953V47.0094C149.015 46.3076 148.242 45.9027 147.138 45.9027C144.294 45.9027 142.638 48.2512 142.638 51.7064C142.638 56.0254 144.708 57.807 147.138 57.807C148.297 57.807 148.987 57.3481 149.816 56.6462V57.564H152.659V41.6917Z" fill="#008139"/>
<path fill-rule="evenodd" clip-rule="evenodd" d="M70.0872 50.6537C70.1977 49.493 70.7774 48.2782 72.213 48.2782C73.7314 48.2782 74.394 49.385 74.532 50.6537H70.0872ZM72.3787 45.8758C69.4523 45.8758 67.1885 48.3052 67.1885 51.8414C67.1885 55.4856 69.3142 57.7801 72.6547 57.7801C74.1731 57.7801 75.802 57.1322 76.7406 56.0525L74.7253 54.4059C74.2284 54.8918 73.5106 55.1617 72.6547 55.1617C71.0811 55.1617 70.1425 54.2169 70.032 52.6513H77.21C77.2376 52.4353 77.2376 52.1654 77.2376 51.8144C77.2652 48.5482 75.4431 45.8758 72.3787 45.8758Z" fill="#008139"/>
<path fill-rule="evenodd" clip-rule="evenodd" d="M83.9404 55.1895C82.5876 55.1895 81.7318 54.0558 81.7318 51.6263C81.7318 49.6558 82.3944 48.495 83.7471 48.495C84.6858 48.495 85.4588 48.846 86.0109 49.6018V54.1098C85.4588 54.8386 84.9066 55.1895 83.9404 55.1895ZM88.8545 46.1466H86.0109V47.0104C85.2103 46.3085 84.4373 45.9036 83.333 45.9036C80.4895 45.9036 78.833 48.2521 78.833 51.7073C78.833 56.0263 80.9036 57.8079 83.333 57.8079C84.4925 57.8079 85.1827 57.349 86.0109 56.6472V56.9711C86.0109 58.8337 85.2931 59.4545 82.9741 59.8055L83.968 61.857C87.9711 61.3981 88.8821 59.5085 88.8821 55.7294V46.1466H88.8545Z" fill="#008139"/>
<path d="M65.1706 51.0856C65.1706 47.8194 63.9834 45.8758 61.0571 45.8758C59.3454 45.8758 58.3792 46.3077 57.2473 47.4414C56.281 46.2807 55.508 45.8758 53.962 45.8758C52.692 45.8758 52.0019 46.2807 51.2012 47.1175V46.1187H48.3301V57.5372H51.1736V51.2746C51.1736 49.196 51.8362 48.4672 53.2718 48.4672C54.6798 48.4672 55.3423 49.196 55.3423 51.3286V57.5102H58.1859V51.2476C58.1859 49.169 58.8485 48.4402 60.2565 48.4402C61.692 48.4402 62.327 49.1691 62.327 51.3016V57.4832H65.1706V51.0856Z" fill="#008139"/>
<path d="M114.977 46.1454L113.955 50.3565C113.762 51.2473 113.486 52.462 113.375 53.0289H113.072C112.989 52.462 112.685 51.2743 112.437 50.3835L111.277 46.1724H108.903L107.744 50.3835C107.495 51.3013 107.191 52.462 107.109 53.0559H106.805C106.722 52.489 106.446 51.2743 106.225 50.3835L105.204 46.1724H102.333L105.673 57.5908H108.075L109.234 53.1099C109.455 52.1921 109.787 50.9234 109.869 50.3565H110.173C110.256 50.9234 110.587 52.1921 110.808 53.1099L111.967 57.5908H114.369L117.737 46.1724H114.977V46.1454Z" fill="#008139"/>
<path d="M108.154 36.6163C107.989 36.8052 107.851 36.9672 107.602 36.9672C107.133 36.9672 106.691 35.5635 106.388 35.5365C105.863 35.4555 105.145 36.2653 104.731 36.5893C104.648 36.6702 104.565 36.7782 104.51 36.7242C104.455 36.6702 104.51 36.5353 104.51 36.5353C104.538 36.3733 104.703 35.3745 104.759 34.9426C104.786 34.8347 104.814 34.7267 104.786 34.6187C104.731 34.4837 104.648 34.3488 104.565 34.3218C104.124 34.2678 102.909 35.7254 102.55 35.9954C102.55 35.9954 102.246 36.2383 102.164 36.2383C102.026 36.2383 101.998 36.1304 101.998 36.0224C101.998 35.9684 101.998 35.9414 102.026 35.8874C102.081 35.7524 102.219 35.0236 102.219 34.8077C102.219 34.5647 102.108 34.4837 101.915 34.5377C101.777 34.5647 101.059 35.1856 100.949 35.2936C100.949 35.2936 100.01 36.1304 99.7618 36.5353L99.7065 37.1291L99.7894 37.0482C99.8446 36.9942 99.8998 36.9402 99.9274 36.8862L100.093 36.6972C100.259 36.5083 100.535 36.1304 100.811 36.1304C100.949 36.1304 101.032 36.2653 101.032 36.3733C101.032 36.4543 100.976 36.5893 100.949 36.7512L100.783 37.2911C100.645 37.696 100.535 38.0739 100.535 38.2629C100.59 38.3169 100.7 38.3439 100.783 38.3439C100.976 38.3439 103.157 35.6985 103.516 35.8334C103.682 35.8874 103.765 35.9414 103.765 36.0764C103.765 36.1843 103.737 36.2383 103.71 36.3193C103.654 36.5353 103.599 36.8592 103.516 37.1291C103.406 37.615 103.185 38.0469 103.185 38.3439C103.185 38.3978 103.268 38.4518 103.268 38.4518C103.599 38.5058 103.848 38.1549 104.041 37.912C104.096 37.831 104.648 37.2371 104.731 37.1291C104.952 36.8862 105.394 36.5623 105.504 36.5353C106.084 36.4543 106.249 37.0482 106.691 37.4261C106.884 37.588 107.105 37.696 107.243 37.696C107.519 37.696 107.685 37.642 107.906 37.48C108.016 37.3721 108.154 37.2641 108.182 37.1561C108.182 37.1291 108.154 36.8592 108.154 36.8052V36.6163Z" fill="#BA0227"/>
</svg>
