<svg width="24" height="24" viewBox="0 0 24 24" fill="none" xmlns="http://www.w3.org/2000/svg">
<g clip-path="url(#clip0)">
<path d="M21.6051 5.44534H16.4361V3.3625C16.4361 2.37076 15.6293 1.56396 14.6375 1.56396H9.36014C8.3684 1.56396 7.56156 2.37076 7.56156 3.3625V5.44534H2.39262C1.07586 5.44534 0.00456911 6.51663 0.00456911 7.83338C0.00456911 9.02945 -0.117923 10.1036 0.788461 11.3116C1.30128 11.995 2.006 12.4826 2.82641 12.7214L10.7931 15.0409C11.5818 15.2705 12.4156 15.2706 13.2045 15.0409L21.1712 12.7214C21.9916 12.4825 22.6963 11.995 23.2091 11.3116C24.1196 10.0982 23.993 9.01298 23.993 7.83338C23.993 6.51663 22.9218 5.44534 21.6051 5.44534ZM9.08497 3.3625C9.08497 3.21077 9.20842 3.08738 9.36014 3.08738H14.6375C14.7893 3.08738 14.9127 3.21082 14.9127 3.3625V5.44534H9.08497V3.3625Z" fill="#E91018"/>
<path d="M21.5983 15.4468C13.0053 17.9487 13.1165 17.9993 12.0001 17.9993C10.8916 17.9993 11.1546 17.9952 2.40186 15.4469C1.479 15.1781 0.661689 14.6828 0.00585938 14V21.3103C0.00585938 22.627 1.0771 23.6983 2.39391 23.6983H21.6063C22.923 23.6983 23.9943 22.627 23.9943 21.3103V14C23.3385 14.6828 22.5212 15.1781 21.5983 15.4468Z" fill="#E91018"/>
</g>
<defs>
<clipPath id="clip0">
<rect width="24" height="24" fill="white"/>
</clipPath>
</defs>
</svg>
