<svg width="24" height="21" viewBox="0 0 24 21" fill="none" xmlns="http://www.w3.org/2000/svg">
<path d="M23.8097 5.17712C23.6625 5.01763 19.3737 0.371788 19.2206 0.205919C18.9674 -0.0683581 18.5571 -0.0686394 18.3036 0.205075L16.6044 2.03976C16.459 2.04173 14.2663 1.177 12.4623 3.13143L7.91957 8.05267C7.66613 8.32723 7.66613 8.77235 7.91957 9.04691C9.1849 10.4177 11.2433 10.4168 12.5078 9.04691L13.1746 8.32461C14.2936 9.06284 15.7133 8.99469 16.766 8.16539L19.4089 11.0287C19.688 11.331 19.9095 11.6792 20.0678 12.0565C20.9561 10.9199 21.6085 9.59073 21.9849 8.14154L23.8089 6.17257C24.0641 5.89609 24.062 5.45131 23.8097 5.17712Z" fill="#E91018"/>
<path d="M14.6853 10.8991C13.7032 11.32 12.6143 11.3537 11.6149 11.0032C9.26957 12.7078 7.16955 13.2224 5.15606 11.0411C4.39548 10.2172 4.39505 8.8828 5.15606 8.05838L9.31976 3.54771L7.43433 3.15541L5.69686 1.27222C5.4429 0.997099 5.03189 0.998505 4.7788 1.27222L0.18982 6.24361C-0.0632732 6.51826 -0.0632732 6.96352 0.18982 7.23817C1.3216 8.46379 2.16135 10.0395 2.55505 11.6738C2.58274 11.7432 3.1841 14.9894 5.879 17.4514L7.88038 19.2807C8.99052 20.2959 10.5649 20.3769 11.7512 19.5338L16.3358 16.2778C17.3678 15.5459 17.5192 13.9696 16.6452 13.0227L14.6853 10.8991Z" fill="#E91018"/>
</svg>
