<svg width="28" height="27" viewBox="0 0 28 27" fill="none" xmlns="http://www.w3.org/2000/svg">
<path d="M25.3212 0.333942C25.09 0.111252 24.8165 0 24.5006 0H3.50087C3.18469 0 2.91123 0.111252 2.68029 0.333942C2.44949 0.556509 2.33398 0.820202 2.33398 1.1249V14.6247C2.33398 15.6326 2.5374 16.6315 2.94456 17.6219C3.35153 18.6121 3.85592 19.4911 4.45756 20.2587C5.0592 21.0264 5.77608 21.7735 6.60853 22.5C7.44111 23.2269 8.2097 23.8299 8.91446 24.3107C9.61921 24.7911 10.3545 25.2453 11.1201 25.6726C11.8857 26.1001 12.4297 26.3907 12.7516 26.5428C13.0736 26.6954 13.3318 26.8125 13.5262 26.8942C13.6721 26.9646 13.83 27 14.0003 27C14.1709 27 14.3285 26.9646 14.4746 26.8942C14.6688 26.8125 14.9271 26.6954 15.2489 26.5428C15.5708 26.3907 16.115 26.1001 16.8807 25.6726C17.6458 25.2453 18.3814 24.7911 19.086 24.3107C19.7911 23.8298 20.5595 23.2268 21.3922 22.5C22.2242 21.7735 22.9414 21.0264 23.5429 20.2587C24.1445 19.4911 24.6487 18.6121 25.0565 17.6219C25.4637 16.6315 25.667 15.6326 25.667 14.6247V1.1249C25.6669 0.820018 25.5515 0.55657 25.3212 0.333942ZM22.167 14.6247C22.167 16.6872 20.7389 18.7964 17.8832 20.9527C16.7408 21.8196 15.4465 22.6226 14.0004 23.3609V3.3747H22.167V14.6247Z" fill="#E91018"/>
</svg>
