<svg width="289" height="50" viewBox="0 0 289 50" fill="none" xmlns="http://www.w3.org/2000/svg">
<g clip-path="url(#clip0)">
<path d="M62.7352 39.2104C62.7352 40.6343 62.23 41.8416 61.2189 42.835C60.2082 43.8284 58.9965 44.3238 57.585 44.3238H39.7885C38.6818 44.3238 38.1288 43.7621 38.1288 42.6376C38.1288 41.5143 38.7008 40.9527 39.8456 40.9527H57.0702C58.3672 40.9527 59.0159 40.3897 59.0159 39.2665C59.0159 38.105 58.3483 37.5243 57.0129 37.5243H40.7611C40.189 37.5243 39.6547 37.5803 39.1588 37.6924C37.1368 38.142 36.1257 39.5848 36.1257 42.0199C36.1257 44.4931 37.1368 45.973 39.1588 46.4595C39.6547 46.5716 40.189 46.6276 40.7611 46.6276H60.9611C62.106 46.6276 62.6784 47.1905 62.6784 48.3138C62.6784 49.4384 62.1249 50 61.0187 50H40.2463C39.483 49.9249 38.3957 49.7568 36.984 49.4944C36.0306 49.1951 35.1913 48.6322 34.4664 47.8082C33.0931 46.2723 32.4062 44.362 32.4062 42.076C32.4062 39.7911 33.0931 37.8796 34.4664 36.3436C35.6107 35.0701 37.5372 34.3391 40.2463 34.1519H57.5279C58.9778 34.1519 60.2082 34.6485 61.2189 35.642C62.23 36.6341 62.7352 37.8236 62.7352 39.2104Z" fill="white"/>
<path d="M288.999 31.7361H261.769C254.96 31.7361 249.199 31.1897 244.486 30.0971C239.563 28.9547 235.763 27.2086 233.088 24.8561L206.727 3.06505L210.179 0.179939L236.592 22.0148L236.65 22.0624C238.701 23.8675 241.748 25.2384 245.791 26.1758C250.045 27.1628 255.371 27.6556 261.769 27.6556H288.999V31.7361Z" fill="#ED1C24"/>
<path d="M23.9131 27.4747H158.378C170.88 27.4747 179.251 25.6102 183.488 21.882L183.545 21.8341L209.949 -0.000965118L213.401 2.8844L187.05 24.6762C181.832 29.2628 172.276 31.5552 158.378 31.5552H23.9131V27.4747Z" fill="#ED1C24"/>
<path d="M33.0964 18.6371C33.0964 20.3394 32.5449 21.7843 31.4416 22.9715C30.3386 24.159 29.0166 24.7525 27.4762 24.7525H8.05583C6.84853 24.7525 6.24496 24.0803 6.24496 22.7365C6.24496 21.3923 6.86924 20.7204 8.11811 20.7204H26.9142C28.3298 20.7204 29.0373 20.0482 29.0373 18.7044C29.0373 17.3152 28.3087 16.6208 26.8519 16.6208H9.11718C8.49285 16.6208 7.91008 16.6883 7.36875 16.8225C5.16237 17.36 4.05904 19.0852 4.05904 21.997C4.05904 24.9542 5.16237 26.7232 7.36875 27.3065C7.91008 27.4402 8.49285 27.5077 9.11718 27.5077H31.1607C32.4093 27.5077 33.0339 28.1801 33.0339 29.5238C33.0339 30.8673 32.4306 31.5398 31.2232 31.5398H8.55513C7.72258 31.4506 6.53596 31.2494 4.9956 30.9348C3.95504 30.577 3.03896 29.9045 2.24791 28.9188C0.749563 27.0823 0 24.7973 0 22.0645C0 19.3315 0.749563 17.0464 2.24791 15.2095C3.49726 13.6861 5.5994 12.8129 8.55513 12.5888H27.4142C28.9958 12.5888 30.3386 13.1822 31.4416 14.3694C32.5449 15.5566 33.0964 16.9792 33.0964 18.6371Z" fill="#ED1C24"/>
<path d="M31.3193 35.838C31.3193 36.9626 30.7283 37.5243 29.5455 37.5243H17.7572V50H14.1515V37.5243H2.19175C1.00932 37.5243 0.417969 36.9626 0.417969 35.838C0.417969 34.7148 0.971189 34.1519 2.07764 34.1519H29.6599C30.7661 34.1519 31.3193 34.7148 31.3193 35.838Z" fill="white"/>
<path d="M159.904 50H156.299V40.6152C156.299 39.4155 156.099 38.6106 155.698 38.1992C155.298 37.7866 154.62 37.5803 153.666 37.5803H137.587C135.946 37.5803 134.763 37.9369 134.039 38.6475C133.314 39.3594 132.951 40.5209 132.951 42.132C132.913 45.0548 134.458 46.5538 137.587 46.6276H152.064C153.209 46.6276 153.78 47.1905 153.78 48.3138C153.78 49.4384 153.227 50 152.121 50H137.072C134.21 49.8497 132.284 49.12 131.292 47.8082C129.918 46.2723 129.231 44.362 129.231 42.076C129.231 37.8796 130.854 35.3885 134.096 34.6015C135.049 34.3391 136.232 34.2079 137.644 34.2079H153.209C154.048 34.2461 155.154 34.3582 156.528 34.5454C158.779 35.1452 159.904 36.9435 159.904 39.9402V50Z" fill="white"/>
<path d="M183.782 44.2677H165.07V40.5031C165.07 38.4794 165.947 37.4682 167.702 37.4682H183.782C186.872 37.4682 188.417 38.6297 188.417 40.9527C188.417 43.1623 186.872 44.2677 183.782 44.2677ZM183.725 34.0959H168.217C163.715 34.0959 161.465 36.0062 161.465 39.8281V50H165.07V47.6401H184.297C189.524 47.6401 192.137 45.3732 192.137 40.8393C192.137 36.3436 189.333 34.0959 183.725 34.0959Z" fill="white"/>
<path d="M250.204 46.4595C249.709 46.5716 249.175 46.6276 248.602 46.6276H234.067C233.495 46.6276 232.96 46.5716 232.464 46.4595C230.443 45.973 229.432 44.4931 229.432 42.0199C229.432 39.5848 230.443 38.142 232.464 37.6924C232.96 37.5803 233.495 37.5243 234.067 37.5243H248.602C249.175 37.5243 249.709 37.5803 250.204 37.6924C252.227 38.142 253.238 39.5848 253.238 42.0199C253.238 44.4931 252.227 45.973 250.204 46.4595ZM254.897 36.3436C254.172 35.5197 253.333 34.958 252.379 34.6575C250.967 34.3582 249.88 34.1901 249.117 34.1519H233.552L230.291 34.6575C229.337 34.958 228.497 35.5197 227.772 36.3436C226.398 37.8796 225.712 39.7911 225.712 42.076C225.712 44.362 226.398 46.2723 227.772 47.8082C228.497 48.6322 229.337 49.1951 230.291 49.4944C231.702 49.7568 232.789 49.9249 233.552 50H249.117L252.379 49.4944C253.333 49.1951 254.172 48.6322 254.897 47.8082C256.271 46.2723 256.957 44.362 256.957 42.076C256.957 39.7911 256.271 37.8796 254.897 36.3436Z" fill="white"/>
<path d="M272 44.2677H261.929V40.5031C261.929 38.4794 262.806 37.4682 264.562 37.4682H280.193V34.0959H265.076C260.574 34.0959 258.324 36.0062 258.324 39.8281V50H261.929V47.6401H272V44.2677Z" fill="white"/>
<path d="M286.819 34.093H272V37.4653H286.876C287.982 37.4653 288.536 36.9037 288.536 35.7792C288.536 34.6559 287.964 34.093 286.819 34.093Z" fill="white"/>
<path d="M278.553 44.2548H263.734V47.627H278.611C279.717 47.627 280.27 47.0653 280.27 45.9408C280.27 44.8175 279.698 44.2548 278.553 44.2548Z" fill="white"/>
<path d="M87.1138 44.2677H68.4011V40.5031C68.4011 38.4794 69.2782 37.4682 71.0338 37.4682H87.1138C90.2039 37.4682 91.749 38.6297 91.749 40.9527C91.749 43.1623 90.2039 44.2677 87.1138 44.2677ZM87.0561 34.0959H71.5483C67.0466 34.0959 64.7959 36.0062 64.7959 39.8281V50H68.4011V47.6401H87.6291C92.8552 47.6401 95.4686 45.3732 95.4686 40.8393C95.4686 36.3436 92.6646 34.0959 87.0561 34.0959Z" fill="white"/>
<path d="M95.4693 50H91.8772L88.2852 45.6801H91.8772L95.4693 50Z" fill="white"/>
<path d="M119.502 44.2677H100.789V40.5031C100.789 38.4794 101.666 37.4682 103.422 37.4682H119.502C122.592 37.4682 124.137 38.6297 124.137 40.9527C124.137 43.1623 122.592 44.2677 119.502 44.2677ZM119.444 34.0959H103.936C99.4345 34.0959 97.1836 36.0062 97.1836 39.8281V50H100.789V47.6401H120.017C125.243 47.6401 127.856 45.3732 127.856 40.8393C127.856 36.3436 125.052 34.0959 119.444 34.0959Z" fill="white"/>
<path d="M127.86 50H124.268L120.676 45.6801H124.268L127.86 50Z" fill="white"/>
<path d="M215.985 44.2677H197.273V40.5031C197.273 38.4794 198.15 37.4682 199.905 37.4682H215.985C219.075 37.4682 220.621 38.6297 220.621 40.9527C220.621 43.1623 219.075 44.2677 215.985 44.2677ZM215.928 34.0959H200.421C195.918 34.0959 193.668 36.0062 193.668 39.8281V50H197.273V47.6401H216.501C221.727 47.6401 224.34 45.3732 224.34 40.8393C224.34 36.3436 221.536 34.0959 215.928 34.0959Z" fill="white"/>
<path d="M224.34 50H220.748L217.156 45.6801H220.748L224.34 50Z" fill="white"/>
<path d="M286.235 47.3648C286.529 47.3648 286.749 47.3069 286.894 47.1908C287.038 47.0749 287.111 46.9083 287.111 46.6908C287.111 46.471 287.046 46.311 286.916 46.2104C286.785 46.1101 286.575 46.0599 286.286 46.0599H285.695V47.3648H286.235ZM286.286 45.8233C286.661 45.8233 286.943 45.8918 287.133 46.0293C287.323 46.1669 287.418 46.3765 287.418 46.6587C287.418 46.8976 287.34 47.0938 287.184 47.2466C287.028 47.3994 286.808 47.4952 286.523 47.5334C286.574 47.5619 286.621 47.6098 286.665 47.6765L287.706 48.9959H287.418C287.391 48.9959 287.369 48.9926 287.352 48.9855C287.335 48.9781 287.319 48.9628 287.304 48.9389L286.315 47.6804C286.295 47.6541 286.272 47.6332 286.242 47.6177C286.212 47.6019 286.164 47.5943 286.096 47.5943H285.695V48.9959H285.384V45.8233H286.286ZM286.363 49.8029C286.586 49.8029 286.801 49.7748 287.009 49.7185C287.216 49.6625 287.409 49.5823 287.589 49.4784C287.769 49.3744 287.933 49.2501 288.08 49.1055C288.228 48.961 288.354 48.8003 288.46 48.6233C288.566 48.4463 288.647 48.2557 288.704 48.0515C288.762 47.8469 288.791 47.6337 288.791 47.4114C288.791 47.0795 288.727 46.7677 288.6 46.4774C288.474 46.1872 288.301 45.933 288.08 45.7155C287.86 45.4982 287.603 45.3268 287.308 45.2012C287.014 45.0754 286.698 45.0128 286.363 45.0128C286.027 45.0128 285.712 45.0754 285.419 45.2012C285.126 45.3268 284.869 45.4982 284.651 45.7155C284.431 45.933 284.259 46.1872 284.134 46.4774C284.008 46.7677 283.946 47.0795 283.946 47.4114C283.946 47.7438 284.008 48.055 284.134 48.3454C284.259 48.6358 284.431 48.8892 284.651 49.1055C284.869 49.322 285.126 49.4921 285.419 49.6164C285.712 49.7407 286.027 49.8029 286.363 49.8029ZM286.363 44.8228C286.604 44.8228 286.837 44.8541 287.062 44.9162C287.287 44.9784 287.497 45.0655 287.692 45.1781C287.886 45.2901 288.064 45.4254 288.225 45.5828C288.385 45.7407 288.522 45.9152 288.637 46.1062C288.751 46.2978 288.84 46.5038 288.904 46.7249C288.967 46.946 288.998 47.1748 288.998 47.4114C288.998 47.6503 288.967 47.88 288.904 48.0996C288.84 48.3197 288.751 48.5255 288.637 48.7165C288.522 48.9075 288.385 49.082 288.225 49.2399C288.064 49.3979 287.886 49.5329 287.692 49.6452C287.497 49.7575 287.287 49.8449 287.062 49.907C286.837 49.9687 286.604 50 286.363 50C286.119 50 285.885 49.9687 285.661 49.907C285.438 49.8449 285.228 49.7575 285.034 49.6452C284.839 49.5329 284.661 49.3979 284.501 49.2399C284.34 49.082 284.203 48.9075 284.088 48.7165C283.974 48.5255 283.885 48.3197 283.821 48.0996C283.758 47.88 283.727 47.6503 283.727 47.4114C283.727 47.1748 283.758 46.946 283.821 46.7249C283.885 46.5038 283.974 46.2978 284.088 46.1062C284.203 45.9152 284.34 45.7407 284.501 45.5828C284.661 45.4254 284.839 45.2901 285.034 45.1781C285.228 45.0655 285.438 44.9784 285.661 44.9162C285.885 44.8541 286.119 44.8228 286.363 44.8228Z" fill="#231F20"/>
</g>
<defs>
<clipPath id="clip0">
<rect width="289" height="50" fill="white"/>
</clipPath>
</defs>
</svg>
