<svg width="20" height="26" viewBox="0 0 20 26" fill="none" xmlns="http://www.w3.org/2000/svg">
<path d="M10 0C4.48667 0 0 4.40483 0 9.82042C0 17.5153 9.06 25.4605 9.44556 25.7942C9.60445 25.9318 9.80222 26 10 26C10.1978 26 10.3956 25.9318 10.5544 25.7953C10.94 25.4605 20 17.5153 20 9.82042C20 4.40483 15.5133 0 10 0ZM10 15.1667C6.93667 15.1667 4.44444 12.7368 4.44444 9.75C4.44444 6.76325 6.93667 4.33333 10 4.33333C13.0633 4.33333 15.5556 6.76325 15.5556 9.75C15.5556 12.7368 13.0633 15.1667 10 15.1667Z" fill="#E91018"/>
</svg>
