<svg width="166" height="43" viewBox="0 0 166 43" fill="none" xmlns="http://www.w3.org/2000/svg">
<path d="M54.8282 0C51.3221 0 48.1748 0.296933 45 0.674847V42.1914H49.6656V27.3718C51.1288 27.4798 53.0613 27.5877 54.5245 27.5877C65.0429 27.5877 71.3098 21.7031 71.3098 13.281C71.3098 6.1816 65.8712 0 54.8282 0ZM54.8282 23.6196C53.1994 23.6196 51.1564 23.4577 49.6933 23.2687V4.56197C51.2117 4.21105 53.5583 4.10307 55.546 4.10307C62.6135 4.10307 66.3129 8.74601 66.3129 13.6589C66.2853 19.1117 62.8344 23.6196 54.8282 23.6196ZM105.046 22.189V18.1939H100.656V42.2184H105.267V25.8061C106.951 23.4037 110.236 22.135 113.798 22.135V17.735C110.595 17.735 107.393 19.2196 105.046 22.189ZM82.6564 17.735C75.1749 17.735 70.2055 23.3497 70.2055 30.2061C70.2055 37.0626 75.1749 42.6773 82.6564 42.6773C90.138 42.6773 95.0522 37.0626 95.0522 30.2061C95.0522 23.3497 90.138 17.735 82.6564 17.735ZM82.6564 39.0061C77.908 39.0061 74.7607 35.4699 74.7607 30.2061C74.7607 24.9423 77.908 21.4061 82.6564 21.4061C87.3221 21.4061 90.4969 24.9423 90.4969 30.2061C90.4969 35.4699 87.3221 39.0061 82.6564 39.0061ZM157.031 17.735C153.801 17.735 150.764 19.2196 148.196 21.7841V0.296934H143.586V42.2184H148.196V25.4012C150.018 23.4037 153.11 21.5141 155.871 21.5141C159.377 21.5141 161.006 23.4037 161.006 27.1288V42.2184H165.617V25.9141C165.644 21.1092 162.718 17.735 157.031 17.735ZM129.313 21.6221C131.825 21.6221 134.227 22.4859 136.215 23.6196L138.092 20.1914C135.883 18.8147 132.764 17.735 129.727 17.735C121.942 17.735 116.448 23.4037 116.448 30.3141C116.448 37.2245 121.942 42.6773 129.727 42.6773C132.764 42.6773 135.856 41.5975 138.092 40.2209L136.518 36.7926C134.531 37.9264 132.129 38.7902 129.617 38.7902C125.117 38.7902 120.893 35.5239 120.893 30.3411C120.893 24.8344 124.537 21.6221 129.313 21.6221Z" fill="#83878A"/>
<path d="M0 17.0608V28.2902L17.365 16.9528V5.72339L0 17.0608Z" fill="#FFD451"/>
<path d="M34.7283 17.0608V28.2902L17.3633 16.9528V5.72339L34.7283 17.0608Z" fill="#F2AE00"/>
</svg>
