<svg width="33" height="29" viewBox="0 0 33 29" fill="none" xmlns="http://www.w3.org/2000/svg">
<path d="M10.5618 15.79C9.74901 16.024 8.93624 16.1428 8.14562 16.1428C6.92474 16.1428 5.906 15.8638 5.11607 15.5221C5.87762 18.3101 7.70704 23.1206 11.3514 23.6624C11.6889 23.7126 11.9654 23.9566 12.0575 24.2851L12.854 27.134C12.9212 27.3749 12.8814 27.6328 12.7439 27.8419C12.6065 28.051 12.3857 28.1905 12.1382 28.2244C11.8692 28.2611 11.5951 28.2798 11.3233 28.2798C6.94897 28.2798 2.61684 23.714 0.788791 17.1764C-0.284289 13.341 -0.598944 7.57465 2.0443 3.94517C3.52342 1.91426 5.68135 0.829743 8.4582 0.721396C8.46963 0.721051 8.4807 0.720704 8.49213 0.720704C11.9184 0.720704 14.9566 3.0282 15.8808 6.33159C16.4329 8.30643 16.1833 10.3775 15.1774 12.1647C14.1822 13.9319 12.5432 15.2199 10.5618 15.79Z" fill="#D74346"/>
<path d="M32.0101 12.1644C31.0149 13.9319 29.3759 15.2199 27.3945 15.79C26.5817 16.024 25.7689 16.1428 24.9787 16.1428C23.7578 16.1428 22.7387 15.8638 21.9488 15.5221C22.7103 18.3101 24.5397 23.1206 28.1844 23.6624C28.5219 23.7126 28.7981 23.9566 28.8906 24.2851L29.6871 27.134C29.7542 27.3749 29.7144 27.6328 29.577 27.8419C29.4399 28.051 29.2191 28.1905 28.9712 28.2244C28.7026 28.2611 28.4284 28.2798 28.1564 28.2798C23.782 28.2798 19.4499 23.714 17.6215 17.1764C16.5488 13.341 16.2341 7.57465 18.8777 3.94448C20.3565 1.91391 22.5147 0.829049 25.2912 0.721047C25.3027 0.720702 25.3137 0.720357 25.3255 0.720357C28.7514 0.720357 31.79 3.02785 32.7142 6.33124C33.2656 8.30608 33.0157 10.3775 32.0101 12.1644Z" fill="#D74346"/>
</svg>
