<svg width="24" height="25" viewBox="0 0 24 25" fill="none" xmlns="http://www.w3.org/2000/svg">
<path d="M22.0742 15.8143C20.6049 15.8143 19.1621 15.5845 17.7949 15.1327C17.125 14.9042 16.3014 15.1138 15.8926 15.5337L13.194 17.5708C10.0644 15.9003 8.13669 13.9732 6.48894 10.8671L8.46612 8.23885C8.97981 7.72585 9.16406 6.97647 8.94331 6.27335C8.48956 4.89897 8.25906 3.45691 8.25906 1.98691C8.25913 0.924973 7.39519 0.0610352 6.33331 0.0610352H1.92581C0.863937 0.0610352 0 0.924973 0 1.98685C0 14.1587 9.90237 24.061 22.0742 24.061C23.1361 24.061 24.0001 23.1971 24.0001 22.1352V17.74C24 16.6782 23.1361 15.8143 22.0742 15.8143Z" fill="#E91018"/>
</svg>
