<svg width="20" height="20" viewBox="0 0 20 20" fill="none" xmlns="http://www.w3.org/2000/svg">
<path fill-rule="evenodd" clip-rule="evenodd" d="M5.6604 19.4678C2.53418 19.4678 0 17.001 0 13.958V5.50974C0 2.46679 2.53418 0 5.6604 0H14.3396C17.4658 0 20 2.46679 20 5.50974V13.958C20 17.001 17.4658 19.4678 14.3396 19.4678H5.6604ZM15 10.9506C15 13.8626 12.5749 16.2231 9.58333 16.2231C6.5918 16.2231 4.16667 13.8626 4.16667 10.9506C4.16667 8.03869 6.5918 5.6781 9.58333 5.6781C12.5749 5.6781 15 8.03869 15 10.9506ZM15 6.48926C15.9204 6.48926 16.6667 5.76292 16.6667 4.86694C16.6667 3.97096 15.9204 3.24463 15 3.24463C14.0796 3.24463 13.3333 3.97096 13.3333 4.86694C13.3333 5.76292 14.0796 6.48926 15 6.48926Z" fill="white"/>
</svg>
